<svg width="161" height="160" viewBox="0 0 161 160" fill="none" xmlns="http://www.w3.org/2000/svg">
<path d="M113.85 28.7683C113.85 28.7683 93.7319 17.1235 70.9223 25.6643C48.1127 34.2051 33.8023 56.8035 21.7383 74.7938C9.67433 92.7842 11.8183 113.712 26.3943 125.735C40.9703 137.757 53.8791 126.304 76.3783 129.731C98.8775 133.159 104.398 137.539 124.967 127.968C145.537 118.397 153.582 88.4099 142.388 63.0947C131.194 37.7795 113.85 28.7683 113.85 28.7683Z" fill="#4B66E3"/>
<path opacity="0.7" d="M113.85 28.7683C113.85 28.7683 93.7319 17.1235 70.9223 25.6643C48.1127 34.2051 33.8023 56.8035 21.7383 74.7938C9.67433 92.7842 11.8183 113.712 26.3943 125.735C40.9703 137.757 53.8791 126.304 76.3783 129.731C98.8775 133.159 104.398 137.539 124.967 127.968C145.537 118.397 153.582 88.4099 142.388 63.0947C131.194 37.7795 113.85 28.7683 113.85 28.7683Z" fill="white"/>
<path d="M12.1509 131.2H146.458" stroke="#1F2227" stroke-opacity="0.2" stroke-linecap="round" stroke-linejoin="round"/>
<path d="M11.8916 128H151.088" stroke="#1F2227" stroke-opacity="0.2" stroke-linecap="round" stroke-linejoin="round"/>
<path d="M17.9399 124.8H152.506" stroke="#1F2227" stroke-opacity="0.2" stroke-linecap="round" stroke-linejoin="round"/>
<path d="M13.1782 121.601H150.189" stroke="#1F2227" stroke-opacity="0.2" stroke-linecap="round" stroke-linejoin="round"/>
<path d="M15.1079 118.721H154.42" stroke="#1F2227" stroke-opacity="0.2" stroke-linecap="round" stroke-linejoin="round"/>
<path d="M11.3765 115.84H149.933" stroke="#1F2227" stroke-opacity="0.2" stroke-linecap="round" stroke-linejoin="round"/>
<path d="M14.0806 113.601H146.717" stroke="#1F2227" stroke-opacity="0.2" stroke-linecap="round" stroke-linejoin="round"/>
<path d="M11.2485 112H149.546" stroke="#1F2227" stroke-opacity="0.2" stroke-linecap="round" stroke-linejoin="round"/>
<path d="M13.8213 110.4H151.863" stroke="#1F2227" stroke-opacity="0.2" stroke-linecap="round" stroke-linejoin="round"/>
<path d="M9.77979 134.4H152.375" stroke="#1F2227" stroke-opacity="0.2" stroke-linecap="round" stroke-linejoin="round"/>
<path d="M113.088 110.308H126.608V107.732H113.088V110.308Z" stroke="#1F2227" stroke-opacity="0.2" stroke-linecap="round" stroke-linejoin="round"/>
<path d="M114.749 107.747H124.941V105.987H114.749V107.747Z" stroke="#1F2227" stroke-opacity="0.2" stroke-linecap="round" stroke-linejoin="round"/>
<path d="M115.754 26.8066V106.003H123.94V26.8066" stroke="#1F2227" stroke-opacity="0.2" stroke-linecap="round" stroke-linejoin="round"/>
<path d="M122.608 92.5664V106.045" stroke="#1F2227" stroke-opacity="0.2" stroke-linecap="round" stroke-linejoin="round"/>
<path d="M122.608 43.8691V87.6547" stroke="#1F2227" stroke-opacity="0.2" stroke-linecap="round" stroke-linejoin="round"/>
<path d="M120.9 102.784V106.045" stroke="#1F2227" stroke-opacity="0.2" stroke-linecap="round" stroke-linejoin="round"/>
<path d="M120.9 60.2021V99.7797" stroke="#1F2227" stroke-opacity="0.2" stroke-linecap="round" stroke-linejoin="round"/>
<path d="M120.9 31.5459V57.4979" stroke="#1F2227" stroke-opacity="0.2" stroke-linecap="round" stroke-linejoin="round"/>
<path d="M120.9 26.9863V29.7415" stroke="#1F2227" stroke-opacity="0.2" stroke-linecap="round" stroke-linejoin="round"/>
<path d="M117.274 26.9863V106.046" stroke="#1F2227" stroke-opacity="0.2" stroke-linecap="round" stroke-linejoin="round"/>
<path d="M134.672 110.308H148.192V107.732H134.672V110.308Z" stroke="#1F2227" stroke-opacity="0.2" stroke-linecap="round" stroke-linejoin="round"/>
<path d="M136.337 107.747H146.529V105.987H136.337V107.747Z" stroke="#1F2227" stroke-opacity="0.2" stroke-linecap="round" stroke-linejoin="round"/>
<path d="M137.338 26.8066V106.003H145.527V26.8066" stroke="#1F2227" stroke-opacity="0.2" stroke-linecap="round" stroke-linejoin="round"/>
<path d="M144.192 92.5664V106.045" stroke="#1F2227" stroke-opacity="0.2" stroke-linecap="round" stroke-linejoin="round"/>
<path d="M144.192 43.8691V87.6547" stroke="#1F2227" stroke-opacity="0.2" stroke-linecap="round" stroke-linejoin="round"/>
<path d="M142.487 102.784V106.045" stroke="#1F2227" stroke-opacity="0.2" stroke-linecap="round" stroke-linejoin="round"/>
<path d="M142.487 60.2021V99.7797" stroke="#1F2227" stroke-opacity="0.2" stroke-linecap="round" stroke-linejoin="round"/>
<path d="M142.487 31.5459V57.4979" stroke="#1F2227" stroke-opacity="0.2" stroke-linecap="round" stroke-linejoin="round"/>
<path d="M142.487 26.9863V29.7415" stroke="#1F2227" stroke-opacity="0.2" stroke-linecap="round" stroke-linejoin="round"/>
<path d="M138.861 26.9863V106.046" stroke="#1F2227" stroke-opacity="0.2" stroke-linecap="round" stroke-linejoin="round"/>
<path d="M16.9414 110.308H30.4614V107.732H16.9414V110.308Z" stroke="#1F2227" stroke-opacity="0.2" stroke-linecap="round" stroke-linejoin="round"/>
<path d="M18.6054 107.747H28.7974V105.987H18.6054V107.747Z" stroke="#1F2227" stroke-opacity="0.2" stroke-linecap="round" stroke-linejoin="round"/>
<path d="M19.6069 26.8066V106.003H27.7957V26.8066" stroke="#1F2227" stroke-opacity="0.2" stroke-linecap="round" stroke-linejoin="round"/>
<path d="M26.4614 92.5664V106.045" stroke="#1F2227" stroke-opacity="0.2" stroke-linecap="round" stroke-linejoin="round"/>
<path d="M26.4614 43.8691V87.6547" stroke="#1F2227" stroke-opacity="0.2" stroke-linecap="round" stroke-linejoin="round"/>
<path d="M24.7559 102.784V106.045" stroke="#1F2227" stroke-opacity="0.2" stroke-linecap="round" stroke-linejoin="round"/>
<path d="M24.7559 60.2021V99.7797" stroke="#1F2227" stroke-opacity="0.2" stroke-linecap="round" stroke-linejoin="round"/>
<path d="M24.7559 31.5459V57.4979" stroke="#1F2227" stroke-opacity="0.2" stroke-linecap="round" stroke-linejoin="round"/>
<path d="M24.7559 26.9863V29.7415" stroke="#1F2227" stroke-opacity="0.2" stroke-linecap="round" stroke-linejoin="round"/>
<path d="M21.127 26.9863V106.046" stroke="#1F2227" stroke-opacity="0.2" stroke-linecap="round" stroke-linejoin="round"/>
<path d="M111.246 107.734H97.7256V110.31H111.246V107.734Z" stroke="#1F2227" stroke-opacity="0.2" stroke-linecap="round" stroke-linejoin="round"/>
<path d="M109.585 105.99H99.3926V107.75H109.585V105.99Z" stroke="#1F2227" stroke-opacity="0.2" stroke-linecap="round" stroke-linejoin="round"/>
<path d="M108.58 26.8066V106.003H100.394V26.8066" stroke="#1F2227" stroke-opacity="0.2" stroke-linecap="round" stroke-linejoin="round"/>
<path d="M101.726 92.5664V106.045" stroke="#1F2227" stroke-opacity="0.2" stroke-linecap="round" stroke-linejoin="round"/>
<path d="M101.726 43.8691V87.6547" stroke="#1F2227" stroke-opacity="0.2" stroke-linecap="round" stroke-linejoin="round"/>
<path d="M101.726 26.9863V40.7623" stroke="#1F2227" stroke-opacity="0.2" stroke-linecap="round" stroke-linejoin="round"/>
<path d="M103.434 102.784V106.045" stroke="#1F2227" stroke-opacity="0.2" stroke-linecap="round" stroke-linejoin="round"/>
<path d="M103.434 60.2021V99.7797" stroke="#1F2227" stroke-opacity="0.2" stroke-linecap="round" stroke-linejoin="round"/>
<path d="M103.434 31.5459V57.4979" stroke="#1F2227" stroke-opacity="0.2" stroke-linecap="round" stroke-linejoin="round"/>
<path d="M103.434 26.9863V29.7415" stroke="#1F2227" stroke-opacity="0.2" stroke-linecap="round" stroke-linejoin="round"/>
<path d="M107.06 26.9863V106.046" stroke="#1F2227" stroke-opacity="0.2" stroke-linecap="round" stroke-linejoin="round"/>
<path d="M52.2056 110.308H65.7256V107.732H52.2056V110.308Z" stroke="#1F2227" stroke-opacity="0.2" stroke-linecap="round" stroke-linejoin="round"/>
<path d="M53.8727 107.747H64.0615V105.987H53.8727V107.747Z" stroke="#1F2227" stroke-opacity="0.2" stroke-linecap="round" stroke-linejoin="round"/>
<path d="M54.8711 26.8066V106.003H63.0599V26.8066" stroke="#1F2227" stroke-opacity="0.2" stroke-linecap="round" stroke-linejoin="round"/>
<path d="M61.7256 92.5664V106.045" stroke="#1F2227" stroke-opacity="0.2" stroke-linecap="round" stroke-linejoin="round"/>
<path d="M61.7256 43.8691V87.6547" stroke="#1F2227" stroke-opacity="0.2" stroke-linecap="round" stroke-linejoin="round"/>
<path d="M61.7256 26.9863V40.7623" stroke="#1F2227" stroke-opacity="0.2" stroke-linecap="round" stroke-linejoin="round"/>
<path d="M60.02 102.784V106.045" stroke="#1F2227" stroke-opacity="0.2" stroke-linecap="round" stroke-linejoin="round"/>
<path d="M60.02 60.2021V99.7797" stroke="#1F2227" stroke-opacity="0.2" stroke-linecap="round" stroke-linejoin="round"/>
<path d="M60.02 31.5459V57.4979" stroke="#1F2227" stroke-opacity="0.2" stroke-linecap="round" stroke-linejoin="round"/>
<path d="M56.394 26.9863V106.046" stroke="#1F2227" stroke-opacity="0.2" stroke-linecap="round" stroke-linejoin="round"/>
<path d="M50.3652 107.734H36.8452V110.31H50.3652V107.734Z" stroke="#1F2227" stroke-opacity="0.2" stroke-linecap="round" stroke-linejoin="round"/>
<path d="M48.6981 105.99H38.5093V107.75H48.6981V105.99Z" stroke="#1F2227" stroke-opacity="0.2" stroke-linecap="round" stroke-linejoin="round"/>
<path d="M47.6995 26.8066V106.003H39.5107V26.8066" stroke="#1F2227" stroke-opacity="0.2" stroke-linecap="round" stroke-linejoin="round"/>
<path d="M40.8452 92.5664V106.045" stroke="#1F2227" stroke-opacity="0.2" stroke-linecap="round" stroke-linejoin="round"/>
<path d="M40.8452 43.8691V87.6547" stroke="#1F2227" stroke-opacity="0.2" stroke-linecap="round" stroke-linejoin="round"/>
<path d="M40.8452 26.9863V40.7623" stroke="#1F2227" stroke-opacity="0.2" stroke-linecap="round" stroke-linejoin="round"/>
<path d="M42.5508 102.784V106.045" stroke="#1F2227" stroke-opacity="0.2" stroke-linecap="round" stroke-linejoin="round"/>
<path d="M42.5508 60.2021V99.7797" stroke="#1F2227" stroke-opacity="0.2" stroke-linecap="round" stroke-linejoin="round"/>
<path d="M42.5508 31.5459V57.4979" stroke="#1F2227" stroke-opacity="0.2" stroke-linecap="round" stroke-linejoin="round"/>
<path d="M42.5508 26.9863V29.7415" stroke="#1F2227" stroke-opacity="0.2" stroke-linecap="round" stroke-linejoin="round"/>
<path d="M46.1797 26.9863V106.046" stroke="#1F2227" stroke-opacity="0.2" stroke-linecap="round" stroke-linejoin="round"/>
<path d="M95.22 49.9199H67.9048V110.4H95.22V49.9199Z" stroke="#1F2227" stroke-opacity="0.2" stroke-linecap="round" stroke-linejoin="round"/>
<path d="M92.7556 73.3955H82.25V79.7635H92.7556V73.3955Z" stroke="#1F2227" stroke-opacity="0.2" stroke-linecap="round" stroke-linejoin="round"/>
<path d="M92.7556 81.0342H82.25V87.4022H92.7556V81.0342Z" stroke="#1F2227" stroke-opacity="0.2" stroke-linecap="round" stroke-linejoin="round"/>
<path d="M92.7556 65.7539H82.25V72.1219H92.7556V65.7539Z" stroke="#1F2227" stroke-opacity="0.2" stroke-linecap="round" stroke-linejoin="round"/>
<path d="M92.7556 58.1152H82.25V64.4832H92.7556V58.1152Z" stroke="#1F2227" stroke-opacity="0.2" stroke-linecap="round" stroke-linejoin="round"/>
<path d="M92.7556 88.6719H82.25V95.0399H92.7556V88.6719Z" stroke="#1F2227" stroke-opacity="0.2" stroke-linecap="round" stroke-linejoin="round"/>
<path d="M92.7556 96.3135H82.25V102.681H92.7556V96.3135Z" stroke="#1F2227" stroke-opacity="0.2" stroke-linecap="round" stroke-linejoin="round"/>
<path d="M92.7556 52.3047H82.25V56.8423H92.7556V52.3047Z" stroke="#1F2227" stroke-opacity="0.2" stroke-linecap="round" stroke-linejoin="round"/>
<path d="M80.9764 52.3047H70.3716V56.8423H80.9764V52.3047Z" stroke="#1F2227" stroke-opacity="0.2" stroke-linecap="round" stroke-linejoin="round"/>
<path d="M80.9764 88.6719H70.3716V95.0399H80.9764V88.6719Z" stroke="#1F2227" stroke-opacity="0.2" stroke-linecap="round" stroke-linejoin="round"/>
<path d="M80.9764 96.3135H70.3716V102.681H80.9764V96.3135Z" stroke="#1F2227" stroke-opacity="0.2" stroke-linecap="round" stroke-linejoin="round"/>
<path d="M80.9764 65.7539H70.3716V72.1219H80.9764V65.7539Z" stroke="#1F2227" stroke-opacity="0.2" stroke-linecap="round" stroke-linejoin="round"/>
<path d="M92.7556 103.952H82.25V108.647H92.7556V103.952Z" stroke="#1F2227" stroke-opacity="0.2" stroke-linecap="round" stroke-linejoin="round"/>
<path d="M80.9764 103.952H70.3716V108.647H80.9764V103.952Z" stroke="#1F2227" stroke-opacity="0.2" stroke-linecap="round" stroke-linejoin="round"/>
<path d="M80.9764 58.1152H70.3716V64.4832H80.9764V58.1152Z" stroke="#1F2227" stroke-opacity="0.2" stroke-linecap="round" stroke-linejoin="round"/>
<path d="M80.9764 81.0342H70.3716V87.4022H80.9764V81.0342Z" stroke="#1F2227" stroke-opacity="0.2" stroke-linecap="round" stroke-linejoin="round"/>
<path d="M80.9764 73.3955H70.3716V79.7635H80.9764V73.3955Z" stroke="#1F2227" stroke-opacity="0.2" stroke-linecap="round" stroke-linejoin="round"/>
<path d="M97.8503 43.7061H65.3799V48.9573H97.8503V43.7061Z" stroke="#1F2227" stroke-opacity="0.2" stroke-linecap="round" stroke-linejoin="round"/>
<path d="M97.8503 45.0469H65.3799V47.6229H97.8503V45.0469Z" stroke="#1F2227" stroke-opacity="0.2" stroke-linecap="round" stroke-linejoin="round"/>
<path d="M131.933 70.2051C131.933 70.2051 130.817 70.4963 130.183 69.9619C129.549 69.4275 129.543 67.9683 130.282 66.9475C131.021 65.9267 134.266 64.0675 136.404 63.9331C138.541 63.7987 141.412 64.8931 141.703 66.2179C141.994 67.5427 140.196 73.6547 140.196 73.6547L138.788 74.5283C137.756 73.7726 136.766 72.9618 135.821 72.0995C135.042 71.337 134.138 70.7127 133.149 70.2531C132.754 70.1413 132.337 70.1248 131.933 70.2051Z" fill="#263238" stroke="#263238" stroke-linecap="round" stroke-linejoin="round"/>
<path d="M137.367 115.113C137.568 115.578 137.719 116.063 137.818 116.56C137.96 117.172 138.14 117.775 138.359 118.365C138.359 118.365 138.858 127.571 138.765 129.421C138.673 131.27 138.676 132.176 138.541 132.301C138.407 132.425 136.689 132.886 135.741 133.203C134.794 133.52 133.572 134.061 134.023 134.288C134.474 134.515 141.297 134.288 141.297 134.288C141.297 134.288 141.748 134.557 141.837 133.789C141.927 133.021 141.297 132.569 141.476 131.488C141.655 130.406 142.788 127.152 143.057 124.768C143.325 122.384 142.877 117.325 142.877 116.467C142.877 115.609 142.967 114.614 142.967 114.614L137.367 115.113Z" fill="white" stroke="#263238" stroke-linecap="round" stroke-linejoin="round"/>
<path d="M141.837 133.802C141.859 133.612 141.84 133.419 141.783 133.236C141.178 133.29 139.761 133.396 139.761 133.396C139.587 133.155 139.435 132.897 139.309 132.628C139.281 132.556 139.238 132.49 139.184 132.435C139.13 132.379 139.065 132.335 138.993 132.305C138.921 132.275 138.845 132.26 138.767 132.261C138.689 132.261 138.613 132.277 138.541 132.308C138.407 132.442 136.689 132.894 135.741 133.21C134.794 133.527 133.572 134.068 134.023 134.295C134.474 134.522 141.297 134.295 141.297 134.295C141.297 134.295 141.748 134.57 141.837 133.802Z" fill="#4B66E3" stroke="#263238" stroke-linecap="round" stroke-linejoin="round"/>
<path d="M136.42 115.114C136.622 115.579 136.774 116.064 136.871 116.561C137.013 117.174 137.195 117.776 137.415 118.366C137.415 118.366 137.911 127.572 137.821 129.422C137.732 131.271 137.732 132.177 137.594 132.302C137.457 132.426 135.745 132.887 134.794 133.204C133.844 133.521 132.628 134.062 133.079 134.289C133.53 134.516 140.349 134.289 140.349 134.289C140.349 134.289 140.801 134.558 140.893 133.79C140.986 133.022 140.349 132.57 140.532 131.489C140.714 130.407 141.841 127.153 142.113 124.769C142.385 122.385 141.94 117.329 141.94 116.481C141.94 115.633 142.029 114.628 142.029 114.628L136.42 115.114Z" fill="white" stroke="#263238" stroke-linecap="round" stroke-linejoin="round"/>
<path d="M140.893 133.802C140.912 133.612 140.893 133.42 140.839 133.236C140.231 133.29 138.813 133.396 138.813 133.396C138.639 133.155 138.488 132.897 138.362 132.628C138.334 132.556 138.291 132.49 138.237 132.435C138.182 132.379 138.118 132.335 138.046 132.305C137.974 132.275 137.897 132.26 137.82 132.261C137.742 132.261 137.665 132.277 137.594 132.308C137.46 132.442 135.745 132.894 134.794 133.21C133.844 133.527 132.628 134.068 133.079 134.295C133.53 134.522 140.349 134.295 140.349 134.295C140.349 134.295 140.801 134.57 140.893 133.802Z" fill="#4B66E3" stroke="#263238" stroke-linecap="round" stroke-linejoin="round"/>
<path d="M123.805 85.072C123.805 85.072 125.332 85.1168 126.42 82.9824C126.42 82.9824 129.991 91.5616 131.255 92.9568C132.006 93.7883 132.822 94.5598 133.693 95.264C133.693 95.264 133.431 97.136 132.413 97.9648C131.396 98.7936 130.673 97.7024 130.673 97.7024C130.673 97.7024 127.972 92.6944 126.49 90.9824C125.009 89.2704 122.484 85.9296 122.484 85.9296C122.874 85.5732 123.321 85.2835 123.805 85.072Z" fill="#4B66E3" stroke="#263238" stroke-linecap="round" stroke-linejoin="round"/>
<path d="M136.132 88.5119C136.132 88.5119 131.428 90.0799 131.297 90.1663C131.166 90.2527 129.729 89.0367 129.47 88.9471C129.21 88.8575 128.206 89.3407 128.25 89.7759C128.295 90.2111 129.338 89.7759 129.338 89.7759C129.549 90.1251 129.696 90.5086 129.774 90.9087C129.818 91.3887 129.729 91.6063 130.122 91.8239C130.516 92.0415 135.434 91.2991 135.914 91.2127C136.394 91.1263 136.961 90.1663 136.961 89.1647C136.961 88.1631 136.132 88.5119 136.132 88.5119Z" fill="white" stroke="#263238" stroke-linecap="round" stroke-linejoin="round"/>
<path d="M136.308 83.6198C136.308 83.6198 134.657 86.0966 134.606 87.1174C134.554 88.1382 135.774 88.967 135.774 88.967C135.774 88.967 135.134 91.0566 134.462 93.9238C133.79 96.791 132.372 102.138 132.567 106.026C132.762 109.914 133.732 115.7 133.732 115.7H143.793C143.793 115.7 144.084 110.305 144.084 107.485C144.084 104.666 146.03 101.261 146.03 98.9286C145.999 97.3695 145.784 95.8195 145.39 94.311C145.39 94.311 145.05 82.3558 144.663 80.6054C144.276 78.855 143.447 77.639 142.913 77.2518C142.378 76.8646 140.094 76.8614 139.217 78.0294C138.34 79.1974 137.905 82.0646 137.617 82.3558C137.329 82.647 136.308 83.6198 136.308 83.6198Z" fill="#263238" stroke="#263238" stroke-linecap="round" stroke-linejoin="round"/>
<path d="M144.084 107.485C144.084 104.666 146.03 101.261 146.03 98.9279C145.999 97.3688 145.785 95.8189 145.39 94.3103C145.39 94.3103 145.39 94.0927 145.374 93.7119C140.967 95.3759 136.385 94.4095 134.471 93.8591C134.464 93.88 134.459 93.9014 134.455 93.9231C133.774 96.8031 132.366 102.138 132.561 106.026C132.756 109.914 133.726 115.699 133.726 115.699H143.786C143.786 115.699 144.084 110.304 144.084 107.485Z" stroke="#263238" stroke-linecap="round" stroke-linejoin="round"/>
<path d="M140.244 101.603C136.356 98.6849 138.058 95.7217 138.058 95.7217" stroke="white" stroke-linecap="round" stroke-linejoin="round"/>
<path d="M141.265 94.8965C141.265 94.8965 140.586 101.991 139.466 105.2C138.346 108.41 138.932 115.456 138.932 115.456" stroke="white" stroke-linecap="round" stroke-linejoin="round"/>
<path d="M135.044 66.752C135.044 66.752 131.738 68.8 131.7 69.44C131.698 70.4406 131.83 71.437 132.09 72.4031C132.333 73.2287 132.673 73.9103 132.429 74.2975C132.186 74.6847 131.943 74.8352 132.429 75.0752C132.653 75.2056 132.902 75.2884 133.159 75.3183C133.159 75.3183 134.375 77.6511 134.714 77.7983C135.053 77.9455 136.756 76.9248 136.756 76.9248L137.972 77.6512L136.18 84.1055C136.18 84.1055 137.14 85.1744 138.365 83.424C139.591 81.6736 139.645 79.1967 140.359 78.4192C141.073 77.6416 143.031 77.5904 143.031 77.5904L140.26 73.1104L139.239 72.4704C139.239 72.4704 140.116 69.9935 139.581 69.1679C139.047 68.3423 137.927 69.168 137.636 69.8944C137.345 70.6208 137.197 71.1104 137.197 71.1104C136.592 70.9989 136.014 70.7683 135.498 70.432C134.721 69.8944 133.457 70.3807 133.844 68.8735C134.017 68.0601 134.436 67.3195 135.044 66.752Z" fill="white" stroke="#263238" stroke-linecap="round" stroke-linejoin="round"/>
<path d="M139.223 72.4863L138.397 72.7295C138.397 72.7295 138.788 73.8495 138.497 74.4799C138.268 74.909 137.939 75.2759 137.537 75.5487" stroke="#263238" stroke-linecap="round" stroke-linejoin="round"/>
<path d="M134.19 72.3199C134.538 73.0751 134.474 73.8463 134.049 74.0447C133.623 74.2431 132.993 73.7887 132.644 73.0335C132.295 72.2783 132.356 71.5039 132.785 71.3087C133.214 71.1135 133.838 71.5711 134.19 72.3199Z" stroke="#263238" stroke-linecap="round" stroke-linejoin="round"/>
<path d="M134.189 72.3267L137.377 70.2051" stroke="#263238" stroke-linecap="round" stroke-linejoin="round"/>
<path d="M120.845 86.9438L125.898 91.5614L127.159 92.6078L130.471 100.317L132.954 98.4446C132.954 98.4446 130.689 95.1774 129.162 93.4334C127.636 91.6894 122.89 82.8926 122.849 82.7646C122.807 82.6366 120.801 86.771 120.845 86.9438Z" fill="#4B66E3" stroke="#263238" stroke-linecap="round" stroke-linejoin="round"/>
<path d="M143.015 78.9026C143.015 78.9026 140.829 79.245 140.391 81.1426C139.953 83.0402 140.343 91.3026 140.343 91.3026L130.913 91.4946C130.913 91.4946 129.453 89.9906 128.871 89.7474C128.289 89.5042 127.172 89.6962 127.172 89.6962L127.754 90.1346C127.754 90.1346 125.809 91.1554 125.713 91.4466C125.617 91.7378 125.565 91.837 125.908 92.1282C126.169 92.3274 126.465 92.4761 126.781 92.5666C126.958 92.833 127.12 93.1086 127.268 93.3922C127.316 93.5362 126.685 93.6354 127.22 93.9266C127.754 94.2178 128.775 93.3922 129.46 93.101C129.879 92.922 130.322 92.8066 130.775 92.7586C130.775 92.7586 135.975 93.9746 138.647 94.0226C141.319 94.0706 144.433 94.6626 144.82 94.365C145.207 94.0674 145.258 93.6834 145.258 93.101C145.258 92.5186 145.745 83.821 145.306 81.7762C144.868 79.7314 144.82 78.7586 143.015 78.9026Z" fill="white" stroke="#263238" stroke-linecap="round" stroke-linejoin="round"/>
<path d="M80.1478 87.4492C80.1478 87.4492 78.7783 92.6428 78.6823 93.1164C78.5863 93.59 79.1079 94.438 79.9111 94.486C80.7143 94.534 81.7063 94.0124 82.3655 92.9276C83.0247 91.8428 83.8311 88.8668 83.8311 88.8668L80.1478 87.4492Z" fill="white" stroke="#263238" stroke-linecap="round" stroke-linejoin="round"/>
<path d="M101.588 86.5537C101.588 86.5537 103.335 92.1249 103.428 92.4065C103.52 92.6881 102.813 93.4465 101.588 93.2577C100.362 93.0689 100.5 93.3537 99.9876 92.4545C99.4756 91.5553 97.9556 88.5825 97.9556 88.5825C98.4231 88.1293 98.9296 87.7182 99.4692 87.3537C100.125 86.9685 100.841 86.698 101.588 86.5537Z" fill="white" stroke="#263238" stroke-linecap="round" stroke-linejoin="round"/>
<path d="M98.7398 117.12C98.5284 117.604 98.3706 118.111 98.2694 118.63C98.1215 119.271 97.9323 119.901 97.703 120.518C97.703 120.518 97.1814 127.27 97.2774 129.206C97.3734 131.142 97.3702 132.086 97.5142 132.23C97.6582 132.374 99.4502 132.844 100.442 133.174C101.434 133.504 102.708 134.07 102.234 134.307C101.761 134.544 94.631 134.307 94.631 134.307C94.631 134.307 94.1606 134.592 94.0646 133.788C93.9686 132.985 94.631 132.508 94.4422 131.379C94.2534 130.249 93.0726 126.848 92.791 124.339C92.5094 121.83 92.9798 119.43 92.9798 118.531C92.9798 117.632 92.8838 116.595 92.8838 116.595L98.7398 117.12Z" fill="white" stroke="#263238" stroke-linecap="round" stroke-linejoin="round"/>
<path d="M94.0777 133.775C94.0573 133.575 94.0768 133.373 94.1352 133.18C94.7752 133.238 96.2505 133.35 96.2505 133.35C96.4326 133.097 96.5911 132.828 96.7241 132.547C96.7551 132.472 96.8006 132.405 96.858 132.348C96.9154 132.292 96.9835 132.248 97.0584 132.218C97.1332 132.188 97.2132 132.173 97.2937 132.175C97.3742 132.176 97.4536 132.194 97.5273 132.227C97.6681 132.367 99.4632 132.841 100.455 133.171C101.447 133.5 102.721 134.067 102.247 134.303C101.774 134.54 94.6441 134.303 94.6441 134.303C94.6441 134.303 94.1737 134.579 94.0777 133.775Z" fill="#263238" stroke="#263238" stroke-linecap="round" stroke-linejoin="round"/>
<path d="M83.9846 117.12C84.1942 117.605 84.3519 118.111 84.455 118.63C84.6029 119.271 84.7921 119.901 85.0214 120.518C85.0214 120.518 85.543 127.27 85.447 129.206C85.351 131.142 85.3542 132.086 85.2102 132.23C85.0662 132.374 83.2742 132.844 82.2822 133.174C81.2902 133.504 80.0166 134.07 80.4902 134.307C80.9638 134.544 88.0934 134.307 88.0934 134.307C88.0934 134.307 88.5638 134.592 88.6598 133.788C88.7558 132.985 88.0934 132.508 88.2822 131.379C88.471 130.249 89.6518 126.848 89.9334 124.339C90.215 121.83 89.7446 119.43 89.7446 118.531C89.7446 117.632 89.8406 116.595 89.8406 116.595L83.9846 117.12Z" fill="white" stroke="#263238" stroke-linecap="round" stroke-linejoin="round"/>
<path d="M88.6598 133.775C88.6802 133.575 88.6607 133.373 88.6022 133.18C87.9622 133.238 86.487 133.35 86.487 133.35C86.3049 133.097 86.1464 132.828 86.0134 132.547C85.9824 132.472 85.9369 132.405 85.8795 132.348C85.822 132.292 85.7539 132.248 85.6791 132.218C85.6043 132.188 85.5243 132.173 85.4438 132.175C85.3633 132.176 85.2839 132.194 85.2102 132.227C85.0694 132.367 83.2742 132.841 82.2822 133.171C81.2902 133.5 80.0166 134.067 80.4902 134.303C80.9638 134.54 88.0934 134.303 88.0934 134.303C88.0934 134.303 88.5638 134.579 88.6598 133.775Z" fill="#263238" stroke="#263238" stroke-linecap="round" stroke-linejoin="round"/>
<path d="M100.98 104.829C100.98 105.018 101.121 109.408 100.66 112.243C100.199 115.078 99.9016 118.003 99.9016 118.003H91.716L91.2936 114.24L91.0088 118.019H83.5464C83.5464 118.019 81.044 110.368 82.132 103.664L100.66 103.68L100.98 104.829Z" fill="#263238" stroke="#263238" stroke-linecap="round" stroke-linejoin="round"/>
<path d="M91.2935 114.224V108.938" stroke="#263238" stroke-linecap="round" stroke-linejoin="round"/>
<path d="M85.7672 66.3867C85.6424 66.4507 84.2088 68.4187 84.3496 69.8811C84.4904 71.3435 85.6712 72.4795 85.6712 74.4635C85.7053 75.5308 85.5123 76.5932 85.1048 77.5803C85.8984 77.9047 86.7705 77.986 87.6104 77.8139C88.4 77.6648 89.1744 77.4442 89.924 77.1547L89.828 75.2667C89.828 75.2667 88.1768 75.5003 87.1848 73.4715C86.1928 71.4427 86.58 69.2667 86.996 68.4795C87.2352 68.0455 87.4252 67.5861 87.5624 67.1099C87.5624 67.1099 87.22 65.6315 85.7672 66.3867Z" fill="#263238" stroke="#263238" stroke-linecap="round" stroke-linejoin="round"/>
<path d="M92.8036 78.3362C92.8036 78.3362 97.9044 80.6978 98.8004 80.9794C99.6964 81.261 101.917 83.0114 102.058 84.7106C102.199 86.4098 101.68 87.309 101.303 87.5906C100.925 87.8722 98.282 89.101 98.282 89.101L97.1012 90.4258C97.6544 92.351 98.3168 94.2432 99.0852 96.093C100.311 99.0178 100.877 101.533 100.973 102.749C101.069 103.965 101.066 105.347 101.066 105.347C101.066 105.347 96.1572 105.629 89.866 105.536C83.5748 105.443 81.546 105.251 81.546 105.251C81.546 105.251 81.2612 101.712 82.1572 98.877C83.0532 96.0418 84.7172 94.6274 84.8516 93.8722C84.986 93.117 85.1716 90.8034 85.0404 90.4258C84.917 90.1558 84.7394 89.914 84.5188 89.7154L79.9396 87.9682C79.9396 87.9682 78.7588 86.6882 80.1764 84.4258C81.594 82.1634 82.2532 82.301 84.1892 81.309C86.1252 80.317 88.4868 78.381 88.8644 78.1922C89.242 78.0034 90.1572 76.8706 92.8036 78.3362Z" fill="#4B66E3" stroke="#263238" stroke-linecap="round" stroke-linejoin="round"/>
<path d="M84.5383 84.2852C84.5383 84.2852 83.8311 86.0804 83.8311 87.402C83.8311 88.7236 84.9158 90.0004 84.9158 90.0004" stroke="#263238" stroke-linecap="round" stroke-linejoin="round"/>
<path d="M97.479 83.9551C97.5718 84.1439 98.471 86.3615 98.2822 87.4015C98.186 88.0917 98.0275 88.7718 97.8086 89.4335" stroke="#263238" stroke-linecap="round" stroke-linejoin="round"/>
<path d="M92.1895 77.8141C92.1895 77.8141 93.1495 78.0509 93.4183 78.4765C93.6871 78.9021 93.4631 83.1997 93.4631 83.1997L89.5911 81.2157L86.8071 83.6253C86.8071 83.6253 86.8071 80.5085 87.3255 79.1837C87.8439 77.8589 89.3575 77.4365 89.3575 77.4365L92.1895 77.8141Z" fill="white" stroke="#263238" stroke-linecap="round" stroke-linejoin="round"/>
<path d="M88.6951 75.8396C88.6951 75.8396 88.8839 77.302 88.6471 78.1052C88.4103 78.9084 88.2695 78.6236 88.2695 79.3852C88.2695 80.1468 89.1687 82.8796 90.0167 83.9196C90.8647 84.9596 91.8599 80.4252 92.1415 79.1516C92.4231 77.878 92.4615 74.1436 92.4615 74.1436C92.4615 74.1436 91.0439 74.9468 90.6663 75.1356C90.2887 75.3244 88.6951 75.8396 88.6951 75.8396Z" fill="white" stroke="#263238" stroke-linecap="round" stroke-linejoin="round"/>
<path d="M86.5223 67.709C86.5223 67.709 87.6551 68.653 88.9799 69.5522C89.972 70.2018 90.9962 70.801 92.0487 71.3474C92.0487 71.3474 92.3687 74.2754 92.0935 74.6978C91.8183 75.1202 88.3655 77.1074 87.6551 76.6178C86.9447 76.1282 86.6183 75.3922 86.0039 72.653C85.6473 70.9917 85.8288 69.2601 86.5223 67.709Z" fill="white" stroke="#263238" stroke-linecap="round" stroke-linejoin="round"/>
<path d="M88.458 71.5614C88.458 71.8494 88.5828 72.0798 88.7396 72.0798C88.8964 72.0798 89.018 71.8494 89.018 71.5614C89.018 71.2734 88.8932 71.043 88.7396 71.043C88.586 71.043 88.458 71.2766 88.458 71.5614Z" fill="#263238"/>
<path d="M86.6245 71.5616C86.6245 71.8496 86.7493 72.08 86.9029 72.08C87.0565 72.08 87.1845 71.8496 87.1845 71.5616C87.1845 71.2736 87.0597 71.04 86.8997 71.04C86.7397 71.04 86.6245 71.2768 86.6245 71.5616Z" fill="#263238"/>
<path d="M87.4215 71.2031C87.425 71.6452 87.3299 72.0824 87.1432 72.4831C86.8648 72.9215 86.6248 73.0815 87.0248 73.3215C87.1738 73.4017 87.3479 73.4215 87.5111 73.3768C87.6743 73.3322 87.8141 73.2264 87.9015 73.0815" stroke="#263238" stroke-linecap="round" stroke-linejoin="round"/>
<path d="M87.7031 74.1533C87.9624 74.251 88.245 74.2691 88.5146 74.2053C88.7843 74.1414 89.0288 73.9985 89.2167 73.7949" stroke="#263238" stroke-linecap="round" stroke-linejoin="round"/>
<path d="M89.4952 70.7199C89.4564 70.6327 89.4007 70.554 89.3313 70.4885C89.2619 70.4229 89.1802 70.3719 89.0908 70.3382C89.0015 70.3046 88.9064 70.289 88.811 70.2925C88.7156 70.2959 88.6218 70.3183 88.5352 70.3583" stroke="#263238" stroke-linecap="round" stroke-linejoin="round"/>
<path d="M87.3832 70.5663C87.3316 70.4935 87.2619 70.4356 87.1809 70.3983C87.0999 70.3609 87.0105 70.3456 86.9217 70.3537C86.8329 70.3618 86.7478 70.3931 86.6749 70.4444C86.602 70.4958 86.5439 70.5654 86.5063 70.6463" stroke="#263238" stroke-linecap="round" stroke-linejoin="round"/>
<path d="M85.8148 67.0493C85.8148 67.0493 85.0117 66.3869 85.8629 65.3021C86.7141 64.2173 92.0484 63.8845 93.9364 64.9821C95.8244 66.0797 97.2421 70.2717 97.1941 74.1437C97.1461 78.0157 96.1572 77.9837 95.1172 78.2525C94.0772 78.5213 91.4341 78.1597 91.4341 78.1597C91.8338 77.0516 92.0563 75.8875 92.0933 74.7101C92.0933 74.7101 91.7732 71.5101 91.5268 71.2157C91.2804 70.9213 86.8068 68.1821 85.8148 67.0493Z" fill="#263238" stroke="#263238" stroke-linecap="round" stroke-linejoin="round"/>
<path d="M85.2485 80.6973L98.4709 96.4701L97.9493 97.9805L84.2085 81.3085L85.2485 80.6973Z" fill="#263238" stroke="#263238" stroke-linecap="round" stroke-linejoin="round"/>
<path d="M80.391 91.0659L89.2262 88.8771C89.9231 88.4581 90.5912 87.9931 91.2262 87.4851C92.0582 86.7875 92.007 87.7347 92.5062 88.2787C93.0054 88.8227 93.7862 89.3731 93.5302 89.6227C93.2742 89.8723 92.7494 89.9715 92.6534 90.1187C92.1671 90.5744 91.5529 90.8703 90.8934 90.9667C89.8694 91.1651 89.383 90.6659 89.383 90.6659C89.383 90.6659 80.8902 95.1907 79.9622 95.2419C79.0342 95.2931 78.5478 94.1475 78.6822 93.0019C78.8166 91.8563 79.2678 91.4595 79.2678 91.4595" fill="white"/>
<path d="M80.391 91.0659L89.2262 88.8771C89.9231 88.4581 90.5912 87.9931 91.2262 87.4851C92.0582 86.7875 92.007 87.7347 92.5062 88.2787C93.0054 88.8227 93.7862 89.3731 93.5302 89.6227C93.2742 89.8723 92.7494 89.9715 92.6534 90.1187C92.1671 90.5744 91.5529 90.8703 90.8934 90.9667C89.8694 91.1651 89.383 90.6659 89.383 90.6659C89.383 90.6659 80.8902 95.1907 79.9622 95.2419C79.0342 95.2931 78.5478 94.1475 78.6822 93.0019C78.8166 91.8563 79.2678 91.4595 79.2678 91.4595" stroke="#263238" stroke-linecap="round" stroke-linejoin="round"/>
<path d="M94.551 90.992C94.551 90.992 92.4742 92.7392 92.567 93.0208C92.5909 93.1375 92.6485 93.2445 92.7327 93.3287C92.8169 93.4129 92.9239 93.4705 93.0406 93.4944L93.511 93.5872C93.511 93.5872 94.3142 94.9568 94.7398 95.0048C95.1654 95.0528 96.9126 94.3904 96.9126 94.3904C96.9126 94.3904 100.833 94.4864 101.713 94.2976C102.593 94.1088 103.412 93.2096 103.412 92.4064C103.412 91.6032 102.132 90.6144 101.05 90.944C99.9686 91.2736 96.471 92.4064 96.0934 92.4064C95.7158 92.4064 95.3542 90.6144 94.551 90.992Z" fill="white" stroke="#263238" stroke-linecap="round" stroke-linejoin="round"/>
<path d="M97.4312 95.2891L101.444 95.4299C101.444 95.4299 104.231 104.732 104.372 105.11C104.513 105.487 103.665 106.39 102.772 106.71C101.879 107.03 99.2776 107.324 98.9 106.803C98.5224 106.281 98.3304 105.011 98.3304 104.537C98.3304 104.063 97.4312 95.2891 97.4312 95.2891Z" fill="#263238" stroke="#263238" stroke-linecap="round" stroke-linejoin="round"/>
<path d="M112.574 131.689C111.624 132.149 110.637 132.528 109.623 132.822C108.046 133.267 107.358 133.92 108.113 134.195C108.868 134.47 113.553 134.4 114.254 134.368C114.954 134.336 115.319 134.23 115.319 133.853C115.331 133.56 115.284 133.269 115.182 132.995C115.114 132.889 112.574 131.689 112.574 131.689Z" fill="white" stroke="#263238" stroke-linecap="round" stroke-linejoin="round"/>
<path d="M114.769 102.419C114.769 102.419 114.049 108.012 114.906 113.228C115.764 118.444 116.074 122.288 115.594 125.203C115.114 128.118 114.906 130.524 114.954 131.142C115.002 131.76 115.159 132.857 115.159 132.857C114.917 132.955 114.657 132.999 114.396 132.987C114.136 132.974 113.881 132.906 113.649 132.787C112.897 132.377 112.279 132.067 112.279 132.067C112.279 132.067 112.919 128.566 112.551 126.371C112.183 124.176 111.796 123.008 111.626 120.611C111.457 118.214 110.666 113.68 110.529 109.868C110.391 106.057 109.911 103.452 110.183 101.427C110.455 99.4013 114.906 101.219 114.769 102.419Z" fill="#4B66E3" stroke="#263238" stroke-linecap="round" stroke-linejoin="round"/>
<path d="M109.175 131.689C108.225 132.15 107.238 132.528 106.225 132.822C104.647 133.267 103.962 133.92 104.714 134.195C105.466 134.47 110.17 134.4 110.858 134.368C111.546 134.336 111.921 134.23 111.921 133.853C111.934 133.56 111.887 133.268 111.783 132.995C111.716 132.889 109.175 131.689 109.175 131.689Z" fill="white" stroke="#263238" stroke-linecap="round" stroke-linejoin="round"/>
<path d="M105.332 99.5202C104.975 102.847 104.868 106.196 105.012 109.539C105.252 115.168 107.105 122.659 108.033 125.085C108.961 127.511 109.06 131.328 109.06 131.536C109.06 131.744 108.478 131.536 109.54 132.461C110.238 133.041 111.06 133.452 111.943 133.661C111.943 133.661 111.668 129.68 111.978 127.143C112.282 124.626 112.351 122.087 112.183 119.559C112.01 117.363 112.081 112.839 112.148 110.397C112.254 108.403 112.565 106.426 113.076 104.496C113.178 104.288 115.031 103.706 115.342 102.403C115.549 101.316 115.663 100.214 115.684 99.1074L105.332 99.5202Z" fill="#4B66E3" stroke="#263238" stroke-linecap="round" stroke-linejoin="round"/>
<path d="M110.068 76.0318C110.068 76.0318 108.628 82.691 108.148 85.2286C107.668 87.7662 105.46 92.1598 105.3 95.3182C105.14 98.4766 104.922 100.294 104.922 100.294C104.922 100.294 106.158 100.774 109.143 100.704C112.129 100.633 116.554 100.224 116.554 100.224C116.554 100.224 116.727 98.5438 116.999 95.1806C117.271 91.8174 118.065 87.7342 118.03 83.891C117.994 80.0478 118.065 80.2526 117.102 77.811C116.595 76.4804 115.975 75.1957 115.249 73.971C115.249 73.971 111.86 73.1518 110.068 76.0318Z" fill="white" stroke="#263238" stroke-linecap="round" stroke-linejoin="round"/>
<path d="M110.276 75.8404C110.276 75.8404 108.868 77.386 108.73 78.4004C108.593 79.4148 108.833 80.0836 109.073 79.6356C109.313 79.1876 110.353 77.4756 111.165 77.3028C111.978 77.13 112.813 77.7156 113.226 78.4356C113.639 79.1556 113.261 80.3556 112.676 84.474C112.09 88.5924 112.058 90.618 111.396 91.4756C110.733 92.3332 110.196 92.2308 109.613 91.8852C109.031 91.5396 108.721 91.6804 108.973 92.3684C109.226 93.0564 110.519 94.2532 112.474 95.0084C114.429 95.7636 116.145 96.314 118.17 95.1108C120.196 93.9076 121.601 91.0276 120.813 87.2196C120.026 83.4116 118.615 80.3908 117.69 78.1956C117.116 76.8461 116.426 75.5485 115.629 74.3172L115.357 74.2852C115.357 74.2852 116.145 76.0324 116.637 77.338C117.13 78.6436 116.365 78.986 115.335 78.986C114.305 78.986 113.38 76.5156 112.589 75.93C111.799 75.3444 110.823 75.2004 110.276 75.8404Z" fill="#263238" stroke="#263238" stroke-linecap="round" stroke-linejoin="round"/>
<path d="M108.045 63.9996C108.045 63.9996 107.015 66.8476 107.22 67.3276C107.424 67.8076 107.668 67.7372 107.495 68.2876C107.322 68.838 106.464 68.7676 106.672 69.318C106.756 69.601 106.923 69.852 107.152 70.038C107.152 70.038 107.015 71.686 107.632 72.598C108.25 73.51 108.352 73.878 109.108 73.5932C109.61 73.4013 110.093 73.1601 110.548 72.8732C110.548 72.8732 110.756 74.7612 110.893 74.7612C111.031 74.7612 114.496 73.3884 114.496 73.3884C114.496 73.3884 114.324 71.0204 114.461 70.5404C114.599 70.0604 115.834 69.5452 116.141 67.83C116.448 66.1148 112.986 62.406 110.823 62.2716C110.234 62.2139 109.643 62.352 109.141 62.6644C108.639 62.9768 108.254 63.4461 108.045 63.9996Z" fill="white" stroke="#263238" stroke-linecap="round" stroke-linejoin="round"/>
<path d="M109.3 59.5967C109.3 59.5967 107.14 60.0095 106.829 61.4847C106.519 62.9599 107.962 64.4703 108.545 64.7103C108.818 64.8029 109.074 64.9426 109.3 65.1231C109.3 65.1231 108.237 66.1503 108.922 66.7231C109.607 67.2959 110.295 67.3407 110.365 67.5807C110.436 67.8207 110.685 68.3359 110.948 68.4383C111.21 68.5407 111.121 70.1183 111.703 70.5983C112.285 71.0783 112.871 71.1487 114.036 70.8735C115.201 70.5983 117.777 68.8479 118.052 66.6175C118.327 64.3871 116.986 61.1615 114.484 60.0991C111.981 59.0367 109.3 59.5967 109.3 59.5967Z" fill="#263238" stroke="#263238" stroke-linecap="round" stroke-linejoin="round"/>
<path d="M109.658 67.9363C109.658 67.9363 109.828 66.7011 110.276 67.1811C110.584 67.4759 110.81 67.8465 110.93 68.2559C111.05 68.6653 111.061 69.0991 110.961 69.5139C110.721 70.6819 110.321 70.0963 110.138 69.6867" fill="white"/>
<path d="M109.658 67.9363C109.658 67.9363 109.828 66.7011 110.276 67.1811C110.584 67.4759 110.81 67.8465 110.93 68.2559C111.05 68.6653 111.061 69.0991 110.961 69.5139C110.721 70.6819 110.321 70.0963 110.138 69.6867" stroke="#263238" stroke-linecap="round" stroke-linejoin="round"/>
<path d="M109.348 75.1426C109.348 75.1426 109.281 76.7202 109.383 76.7202C109.485 76.7202 112.369 75.3122 113.501 74.9026C114.207 74.6509 114.948 74.5116 115.697 74.4898L115.079 72.8418C114.162 72.8458 113.254 73.0205 112.401 73.357C111.33 73.8557 110.308 74.4535 109.348 75.1426Z" fill="white" stroke="#263238" stroke-linecap="round" stroke-linejoin="round"/>
<path d="M107.94 87.7344C107.118 88.7841 106.438 89.9375 105.917 91.1648C104.989 93.2928 101.937 96.896 101.457 97.4464C100.977 97.9968 99.5013 99.504 99.3957 99.9168C99.2901 100.33 99.0181 101.322 99.2933 101.632C99.5901 101.884 99.9436 102.061 100.324 102.147C100.461 102.179 100.644 102.112 100.529 101.907L100.324 101.494C100.547 101.143 100.824 100.83 101.146 100.566C101.658 100.149 102.069 99.6218 102.349 99.024C102.519 98.576 102.692 98.096 102.692 98.096C102.692 98.096 108.557 93.568 109.485 92.608C110.413 91.648 111.165 90.6496 111.303 90.1696C111.412 89.4085 111.47 88.6409 111.476 87.872L107.94 87.7344Z" fill="white" stroke="#263238" stroke-linecap="round" stroke-linejoin="round"/>
<path d="M113.053 85.1198C113.053 85.1198 114.333 80.6398 113.466 78.4286C112.599 76.2174 111.405 76.1598 110.068 77.1198C108.73 78.0798 108.468 81.683 108.215 82.5598C107.962 83.4366 106.935 87.6798 106.935 87.6798C106.935 87.6798 108.618 88.4702 109.578 88.8126C110.538 89.155 112.257 89.6702 112.257 89.6702L113.053 85.1198Z" fill="white" stroke="#263238" stroke-linecap="round" stroke-linejoin="round"/>
<path d="M74.2088 107.888C74.2088 107.888 73.2488 115.05 73.924 118.157C74.5992 121.264 75.412 128.154 75.14 129.911C74.868 131.667 74.5992 133.018 74.5992 133.018C73.6603 133.164 72.7136 133.255 71.764 133.29C70.6824 133.29 71.6264 123.427 71.0888 116.807C70.5512 110.186 73.4088 106.538 74.2088 107.888Z" fill="#263238" stroke="#263238" stroke-linecap="round" stroke-linejoin="round"/>
<path d="M70.7208 131.661C70.1182 131.935 69.5007 132.176 68.8712 132.381C67.5368 132.842 65.7416 133.562 65.844 134.023C65.9464 134.484 73.9048 134.432 74.3144 134.343C74.724 134.253 74.7784 132.135 74.7784 132.135L70.7208 131.661Z" fill="white" stroke="#263238" stroke-linecap="round" stroke-linejoin="round"/>
<path d="M68.5609 131.661C67.958 131.935 67.3405 132.175 66.7113 132.381C65.3769 132.842 63.5785 133.562 63.6809 134.023C63.7833 134.484 71.7417 134.432 72.1545 134.343C72.5673 134.253 72.6153 132.135 72.6153 132.135L68.5609 131.661Z" fill="white" stroke="#263238" stroke-linecap="round" stroke-linejoin="round"/>
<path d="M64.2473 99.0053C64.2473 99.0053 63.6809 108.247 64.2473 113.485C64.8137 118.724 68.3017 129.3 68.4553 129.805C68.5485 130.14 68.566 130.491 68.5065 130.832C68.3904 131.072 68.3375 131.338 68.3529 131.604C68.4041 131.962 69.9977 132.477 70.7657 132.682C71.3226 132.816 71.8901 132.902 72.4617 132.938C72.9898 131.78 73.3528 130.553 73.5401 129.293C73.9497 126.932 73.4889 122.208 73.2841 119.693C73.0793 117.178 74.2089 107.885 74.2089 107.885C75.2771 107.131 76.0408 106.02 76.3625 104.752C76.9801 102.544 76.7753 99.1045 76.7753 99.1045C76.7753 99.1045 71.0761 99.7221 67.8921 99.0021C64.7081 98.2821 64.0521 98.1797 64.0521 98.1797L64.2473 99.0053Z" fill="#263238" stroke="#263238" stroke-linecap="round" stroke-linejoin="round"/>
<path d="M73.1143 131.52C73.1143 131.52 74.0743 126.384 73.3831 123.008C72.6919 119.632 72.8423 113.821 73.3831 111.251" stroke="white" stroke-linecap="round" stroke-linejoin="round"/>
<path d="M69.9399 103.472C69.519 106.809 69.3809 110.175 69.5272 113.536C69.7352 119.593 71.0183 124.627 71.0695 127.296C71.1207 129.964 70.9672 132.019 70.9672 132.019" stroke="white" stroke-linecap="round" stroke-linejoin="round"/>
<path d="M66.8135 103.062C66.8135 103.062 66.9159 105.475 67.2743 106.451C67.6327 107.427 69.1751 107.99 69.1751 107.99" stroke="white" stroke-linecap="round" stroke-linejoin="round"/>
<path d="M63.9368 99.415C63.9368 99.415 63.6808 101.015 63.8856 101.418C64.0904 101.821 67.3768 103.319 71.1784 102.906C74.98 102.493 76.6184 102.445 76.8776 101.521C77.0488 100.711 77.1346 99.8847 77.1336 99.0566C77.1336 99.0566 72.4104 100.337 68.3016 99.8278C64.1928 99.319 63.9368 99.415 63.9368 99.415Z" fill="#4B66E3" stroke="#263238" stroke-linecap="round" stroke-linejoin="round"/>
<path d="M68.9195 81.447C68.9195 81.447 67.2747 85.287 66.5579 87.2486C65.8411 89.2102 64.1451 94.5382 63.4763 96.0774C62.8075 97.6166 63.0667 99.2614 64.0939 99.9174C65.1211 100.573 69.7419 101.121 73.6427 100.801C77.5435 100.481 77.9563 99.5206 78.0587 98.5926C78.1611 97.6646 77.4411 90.4774 75.7483 85.3958C74.0555 80.3142 73.7451 79.1846 73.0251 79.1846C72.3051 79.1846 68.9195 81.447 68.9195 81.447Z" fill="#4B66E3" stroke="#263238" stroke-linecap="round" stroke-linejoin="round"/>
<path d="M65.4792 68.3525C65.4792 68.3525 64.708 70.5093 64.708 70.8677C64.708 71.2261 65.172 72.0485 65.172 72.0485C65.172 72.0485 63.732 73.8981 63.988 74.3077C64.244 74.7173 65.3768 75.1301 65.3768 75.1301C65.3768 75.1301 65.8376 77.8501 66.4552 78.1093C67.0728 78.3685 69.0728 77.1845 69.0728 77.1845L69.5336 80.0645L72.6664 78.6277V75.8405C73.7964 75.1392 74.6489 74.0685 75.0792 72.8101C75.7992 70.7045 75.3992 69.8309 75.3992 69.8309L65.4792 68.3525Z" fill="white" stroke="#263238" stroke-linecap="round" stroke-linejoin="round"/>
<path d="M75.0794 72.8196C75.7994 70.714 75.3994 69.8404 75.3994 69.8404L69.3514 68.9316L69.2362 69.2772C69.2362 69.2772 68.465 70.202 68.7242 70.5092C69.0645 70.801 69.4449 71.0424 69.8538 71.226C69.8538 71.226 69.6458 72.41 69.8026 72.506C69.9594 72.602 70.3146 73.1204 70.417 72.7108C70.4763 72.1954 70.6156 71.6923 70.8298 71.2196C71.1882 70.4516 72.6762 70.554 72.7274 71.7348C72.7385 72.1522 72.6568 72.5669 72.488 72.9487C72.3192 73.3306 72.0676 73.6702 71.7514 73.9428L71.5466 74.0452C71.5466 74.0452 71.8026 75.6452 72.6762 75.8436C73.8014 75.1423 74.6502 74.0742 75.0794 72.8196Z" fill="#263238" stroke="#263238" stroke-linecap="round" stroke-linejoin="round"/>
<path d="M65.7354 70.9184C65.7354 70.9184 66.5065 70.304 67.2233 71.3824" stroke="#263238" stroke-linecap="round" stroke-linejoin="round"/>
<path d="M66.4711 72.7168C66.6266 72.7168 66.7527 72.4632 66.7527 72.1504C66.7527 71.8376 66.6266 71.584 66.4711 71.584C66.3155 71.584 66.1895 71.8376 66.1895 72.1504C66.1895 72.4632 66.3155 72.7168 66.4711 72.7168Z" fill="#263238"/>
<path d="M66.4551 75.2317C66.4551 75.2317 67.3767 75.5901 67.9943 74.5117" stroke="#263238" stroke-linecap="round" stroke-linejoin="round"/>
<path d="M65.5815 67.9426C65.5815 67.9426 66.7111 65.3218 67.2743 64.4482C67.4632 64.1499 67.7317 63.9104 68.0495 63.7566C68.3672 63.6028 68.7216 63.5409 69.0727 63.5778C69.5335 63.5778 74.6695 64.8098 75.1303 65.6834C75.5911 66.557 75.5943 70.7202 75.5943 70.7202L65.5815 67.9426Z" fill="white" stroke="#263238" stroke-linecap="round" stroke-linejoin="round"/>
<path d="M65.5815 67.9428L75.5943 70.7204C75.5943 70.7204 75.5943 69.6228 75.5303 68.4388L66.4199 66.0996C65.9751 67.0276 65.5815 67.9428 65.5815 67.9428Z" fill="#263238" stroke="#263238" stroke-linecap="round" stroke-linejoin="round"/>
<path d="M62.6538 68.0965L77.3386 71.8437C76.9393 71.0665 76.3587 70.397 75.6458 69.8917C74.3658 68.9317 68.0458 67.1717 65.9914 67.1205C64.8022 67.0733 63.6302 67.4161 62.6538 68.0965Z" fill="white" stroke="#263238" stroke-linecap="round" stroke-linejoin="round"/>
<path d="M63.3226 90.0195H60.4458V94.3843H63.3226V90.0195Z" fill="white" stroke="#263238" stroke-linecap="round" stroke-linejoin="round"/>
<path d="M60.5001 91.0469H59.6265V93.1525H60.5001V91.0469Z" fill="#263238" stroke="#263238" stroke-linecap="round" stroke-linejoin="round"/>
<path d="M72.7688 79.4941L61.7832 90.0701" stroke="#263238" stroke-width="2" stroke-linecap="round" stroke-linejoin="round"/>
<path d="M70.1002 92.8961C70.1002 92.8961 65.5306 91.9713 65.2234 91.7665C64.9162 91.5617 63.9882 90.2753 63.5274 90.1217C63.0666 89.9681 61.9274 90.0705 61.7834 90.0705C61.6394 90.0705 61.4218 90.5857 61.8346 90.6881C62.2474 90.7905 62.7562 90.8417 62.9642 91.0465C63.1794 91.3283 63.3043 91.6685 63.3226 92.0225C63.3226 92.2785 62.5002 92.8961 62.0426 93.0497C61.585 93.2033 60.5002 93.2545 60.4426 93.5105C60.4227 93.6413 60.4426 93.7749 60.4996 93.8942C60.5567 94.0135 60.6483 94.1128 60.7626 94.1793C61.2105 94.4502 61.6941 94.657 62.1994 94.7937C62.7626 94.8961 64.9706 94.2817 64.9706 94.2817C64.9706 94.2817 69.3354 96.3361 70.5162 96.7969C71.697 97.2577 73.1882 97.8241 74.0586 96.8481C74.929 95.8721 74.0074 92.7937 74.0074 92.7937L70.1002 92.8961Z" fill="white" stroke="#263238" stroke-linecap="round" stroke-linejoin="round"/>
<path d="M70.9739 82.5762C70.9739 82.5762 69.8955 83.9106 69.8955 85.3986V92.9986L75.4411 93.9746C75.4411 93.9746 75.5435 87.8114 75.4923 86.2722C75.4411 84.733 74.9259 83.757 74.6699 83.549" fill="#4B66E3"/>
<path d="M70.9739 82.5762C70.9739 82.5762 69.8955 83.9106 69.8955 85.3986V92.9986L75.4411 93.9746C75.4411 93.9746 75.5435 87.8114 75.4923 86.2722C75.4411 84.733 74.9259 83.757 74.6699 83.549" stroke="#263238" stroke-linecap="round" stroke-linejoin="round"/>
<path d="M68.4554 79.9556L68.3018 82.3172L74.209 79.3412L73.5914 77.4404L68.4554 79.9556Z" fill="#4B66E3" stroke="#263238" stroke-linecap="round" stroke-linejoin="round"/>
<path d="M35.1784 62.1921C35.1784 62.1921 32.3848 62.8321 31.0184 65.3441C29.652 67.8561 30.164 69.6257 31.0632 70.5249C31.8507 71.3243 32.9146 71.7915 34.036 71.8305C34.9384 71.8305 35.6584 67.5073 36.6504 67.1009C37.6424 66.6945 38.676 67.8689 39.8504 68.0033C41.0248 68.1377 42.3272 67.8241 41.8792 65.7633C41.4312 63.7025 37.4312 61.3345 35.1784 62.1921Z" fill="#263238" stroke="#263238" stroke-linecap="round" stroke-linejoin="round"/>
<path d="M32.1161 108.182C32.1161 108.182 32.2057 111.878 32.0713 113.273C31.9369 114.668 31.3961 116.876 31.3961 119.353C31.3961 121.83 31.1241 130.841 31.1241 130.841C30.6049 131.474 30.0481 132.076 29.4569 132.642C28.8713 133.138 27.2969 133.318 27.2969 133.814C27.2969 134.31 27.9369 134.399 27.9369 134.399H33.1081C33.1081 134.399 33.4665 134.22 33.4665 133.318C33.4665 132.415 33.3321 131.516 33.3321 131.078C33.3321 130.639 35.1785 119.238 35.2681 117.34C35.3577 115.442 36.7113 108.556 36.7113 108.556L32.1161 108.182Z" fill="white" stroke="#263238" stroke-linecap="round" stroke-linejoin="round"/>
<path d="M29.4569 132.643C28.8713 133.139 27.2969 133.318 27.2969 133.814C27.2969 134.31 27.9369 134.399 27.9369 134.399H33.1081C33.1081 134.399 33.4665 134.22 33.4665 133.318C33.4665 132.889 33.4377 132.463 33.4057 132.086L32.1609 132.057C32.0926 131.725 31.9852 131.403 31.8409 131.097C31.6617 130.777 31.1209 130.828 31.1209 130.828C30.6031 131.466 30.0474 132.072 29.4569 132.643Z" fill="white" stroke="#263238" stroke-linecap="round" stroke-linejoin="round"/>
<path d="M33.412 133.859H27.3032C27.3416 134.314 27.9272 134.4 27.9272 134.4H33.108C33.108 134.4 33.3128 134.298 33.412 133.859Z" fill="#4B66E3" stroke="#263238" stroke-linecap="round" stroke-linejoin="round"/>
<path d="M44.7754 108.182C44.7754 108.182 44.6826 111.878 44.8202 113.273C44.9578 114.668 45.4954 116.876 45.4954 119.353C45.4954 121.83 45.7642 130.841 45.7642 130.841C46.2834 131.474 46.8401 132.076 47.4314 132.642C48.017 133.138 49.5946 133.318 49.5946 133.814C49.5946 134.31 48.9546 134.399 48.9546 134.399H43.7834C43.7834 134.399 43.4218 134.22 43.4218 133.318C43.4218 132.415 43.5562 131.516 43.5562 131.078C43.5562 130.639 41.7098 119.238 41.6202 117.34C41.5306 115.442 40.1802 108.543 40.1802 108.543L44.7754 108.182Z" fill="white" stroke="#263238" stroke-linecap="round" stroke-linejoin="round"/>
<path d="M47.4315 132.643C48.0171 133.139 49.5947 133.318 49.5947 133.814C49.5947 134.31 48.9547 134.399 48.9547 134.399H43.7835C43.7835 134.399 43.4219 134.22 43.4219 133.318C43.4219 132.889 43.4539 132.463 43.4859 132.086L44.7275 132.057C44.7974 131.726 44.9047 131.404 45.0475 131.097C45.2267 130.777 45.7675 130.828 45.7675 130.828C46.2853 131.466 46.8409 132.072 47.4315 132.643Z" fill="white" stroke="#263238" stroke-linecap="round" stroke-linejoin="round"/>
<path d="M43.4761 133.859H49.5849C49.5465 134.314 48.9641 134.4 48.9641 134.4H43.7833C43.7833 134.4 43.5785 134.298 43.4761 133.859Z" fill="#4B66E3" stroke="#263238" stroke-linecap="round" stroke-linejoin="round"/>
<path d="M32.7017 92.416L32.6473 92.6848L29.4121 109.085L46.5289 108.902L43.1977 92.5536L32.7017 92.416Z" fill="#263238" stroke="#263238" stroke-linecap="round" stroke-linejoin="round"/>
<path d="M46.1993 107.283L29.7609 107.325L29.4121 109.085L46.5321 108.906L46.1993 107.283Z" fill="white" stroke="#263238" stroke-linecap="round" stroke-linejoin="round"/>
<path d="M38.7944 106.784L38.8264 101.244L39.7736 100.976" stroke="white" stroke-linecap="round" stroke-linejoin="round"/>
<path d="M39.3672 98.2717V93.5869H40.0904L40.2696 97.7341" stroke="white" stroke-linecap="round" stroke-linejoin="round"/>
<path d="M41.937 78.3996C42.3225 78.4712 42.6828 78.6415 42.9829 78.8939C43.2829 79.1463 43.5124 79.4721 43.649 79.8396C44.097 81.1004 45.9914 88.2172 45.9914 88.2172C45.9914 88.2172 50.5386 81.6412 50.7658 81.0556C50.8477 80.7966 51.001 80.5661 51.2083 80.3905C51.4155 80.215 51.6681 80.1017 51.937 80.0636C52.433 80.0188 53.5594 79.8396 53.6042 80.2908C53.649 80.742 54.0074 82.5308 53.2426 82.902C52.4778 83.2732 50.7658 83.3532 50.7658 83.3532C50.7658 83.3532 46.081 92.182 45.4058 92.3132C44.7306 92.4444 42.0714 86.7292 42.0714 86.7292L41.3066 78.2588L41.937 78.3996Z" fill="white" stroke="#263238" stroke-linecap="round" stroke-linejoin="round"/>
<path d="M48.0171 43.5869L52.7915 87.1453" stroke="#263238" stroke-width="2" stroke-linecap="round" stroke-linejoin="round"/>
<path d="M50.7656 81.0658C50.7656 81.0658 51.2616 80.1666 51.62 80.0738C51.9784 79.981 52.7464 80.1186 52.7464 80.3938C52.7464 80.669 53.1528 81.9266 52.7912 82.061C52.4296 82.1954 52.2504 81.2482 52.2504 81.2482C52.2504 81.2482 52.0264 82.061 51.3512 82.1058" fill="white"/>
<path d="M50.7656 81.0658C50.7656 81.0658 51.2616 80.1666 51.62 80.0738C51.9784 79.981 52.7464 80.1186 52.7464 80.3938C52.7464 80.669 53.1528 81.9266 52.7912 82.061C52.4296 82.1954 52.2504 81.2482 52.2504 81.2482C52.2504 81.2482 52.0264 82.061 51.3512 82.1058" stroke="#263238" stroke-linecap="round" stroke-linejoin="round"/>
<path d="M48.1513 44.6689C48.1513 44.6689 46.9353 47.3281 44.4137 48.0033C41.8921 48.6785 41.7193 47.8625 39.8729 49.0785C38.0265 50.2945 37.7993 51.9585 37.7993 51.9585L38.9193 59.6673C38.9193 59.6673 39.7737 55.8273 42.7017 55.7025C45.6297 55.5777 47.0249 56.0609 48.1065 55.5233C49.1881 54.9857 49.2329 54.6657 49.2329 54.6657L48.1513 44.6689Z" fill="#4B66E3" stroke="#263238" stroke-linecap="round" stroke-linejoin="round"/>
<path d="M42.9641 88.5755L45.4665 86.2747C44.8713 84.0699 43.9465 80.6811 43.6489 79.8491C43.5123 79.4816 43.2827 79.1558 42.9827 78.9034C42.6827 78.651 42.3223 78.4807 41.9369 78.4091L41.2969 78.2715L42.0617 86.7419C42.0617 86.7419 42.4521 87.5611 42.9641 88.5755Z" fill="#263238" stroke="#263238" stroke-linecap="round" stroke-linejoin="round"/>
<path d="M35.4503 77.2832L30.8999 78.6784C30.8999 78.6784 29.8183 79.4432 30.0903 81.1552C30.3623 82.8672 32.4295 92.3264 32.6503 92.6752C32.7444 92.8321 32.8756 92.9635 33.0324 93.0578C33.1892 93.1521 33.3667 93.2064 33.5495 93.216C34.0007 93.3056 42.4711 92.9888 42.9191 92.9888C43.3671 92.9888 43.5591 92.944 43.5975 92.1344C43.6359 91.3248 42.9575 86.7296 42.9575 86.7296C42.9575 86.7296 43.9175 86.4576 43.7703 84.5664C43.6231 82.6752 42.2375 78.8064 41.9239 78.3968C41.6103 77.9872 38.9959 77.3152 38.9959 77.3152L35.4503 77.2832Z" fill="#4B66E3" stroke="black" stroke-miterlimit="10"/>
<path d="M35.4056 73.3633L35.4952 77.1009L34.772 77.6865C34.772 77.6865 36.8008 81.4721 38.0168 80.8865C39.2328 80.3009 39.3672 77.5073 39.3672 77.5073L38.692 76.7425V74.0385L35.4056 73.3633Z" fill="white" stroke="#263238" stroke-linecap="round" stroke-linejoin="round"/>
<path d="M31.7994 70.4801C31.7994 70.4801 29.8186 70.4353 29.3674 71.7857C28.9162 73.1361 30.225 74.7137 31.8442 74.7137C33.4634 74.7137 34.6378 73.0017 33.9178 71.6513C33.7197 71.2688 33.4128 70.9535 33.0359 70.7451C32.6589 70.5367 32.2287 70.4445 31.7994 70.4801Z" fill="#263238" stroke="#263238" stroke-linecap="round" stroke-linejoin="round"/>
<path d="M36.1706 64.3994C36.1706 64.3994 34.4138 66.2906 33.6106 67.145C32.8074 67.9994 32.2602 68.5434 32.2602 68.5434L32.9002 70.7834C32.9002 70.7834 31.505 69.7018 31.4154 70.7386C31.3258 71.7754 32.0906 72.313 32.6762 72.5402C32.8341 72.6086 33.0055 72.6401 33.1774 72.6323C33.3493 72.6245 33.5171 72.5777 33.6682 72.4954C33.6682 72.4954 35.4698 74.3866 36.8202 75.017C38.1706 75.6474 39.2074 75.337 40.2442 73.801C41.281 72.265 40.9642 70.3322 40.6474 68.7994C40.3306 67.2666 40.4682 66.9082 39.4762 66.0538C38.4842 65.1994 36.1706 64.3994 36.1706 64.3994Z" fill="white" stroke="#263238" stroke-linecap="round" stroke-linejoin="round"/>
<path d="M37.8825 68.6777C37.8825 68.6777 37.8825 69.7593 38.0169 69.8489C38.1513 69.9385 38.6921 69.8489 38.5577 70.2553C38.4233 70.6617 37.6553 70.7513 37.6553 70.7513" stroke="#263238" stroke-linecap="round" stroke-linejoin="round"/>
<path d="M36.4395 71.6064C36.8164 71.8244 37.2441 71.9392 37.6795 71.9392C38.1148 71.9392 38.5426 71.8244 38.9195 71.6064" stroke="#263238" stroke-linecap="round" stroke-linejoin="round"/>
<path d="M34.4585 69.4396C34.4585 69.4396 35.0441 68.9436 35.9913 69.622" stroke="#263238" stroke-linecap="round" stroke-linejoin="round"/>
<path d="M38.5576 69.1736C38.6413 68.9674 38.7973 68.7987 38.9964 68.6992C39.1955 68.5996 39.424 68.576 39.6392 68.6328" stroke="#263238" stroke-linecap="round" stroke-linejoin="round"/>
<path d="M34.1416 67.9129C34.2632 67.6059 34.4856 67.3493 34.7723 67.1853C35.059 67.0213 35.3929 66.9597 35.7192 67.0105" stroke="#263238" stroke-linecap="round" stroke-linejoin="round"/>
<path d="M37.9722 66.7421C37.9722 66.7421 38.5578 66.2013 39.3226 67.1453" stroke="#263238" stroke-linecap="round" stroke-linejoin="round"/>
<path d="M32.1161 80.6585C32.1161 80.4345 31.3513 78.4985 30.9001 78.6777C30.4489 78.8569 24.5001 88.3193 24.5001 88.3193L18.1961 82.6425C18.1742 82.0514 18.0992 81.4634 17.9721 80.8857C17.7929 80.2457 17.0121 80.2457 16.7113 79.6697C16.4105 79.0937 15.8985 79.2185 15.8985 79.5321C15.8985 79.8457 16.1257 80.0281 16.3497 80.3001C16.4996 80.4849 16.6354 80.6807 16.7561 80.8857C16.7561 80.8857 15.4505 80.6137 15.3129 80.6137C15.1753 80.6137 14.1417 79.3529 14.0521 79.8937C13.9625 80.4345 14.8649 81.5161 15.3577 82.2361C15.8505 82.9561 17.2521 83.6313 17.2521 83.6313C17.2521 83.6313 23.7385 91.1097 24.2345 91.3817C24.7305 91.6537 31.0345 85.0745 31.0345 85.0745C31.0345 85.0745 31.5305 86.6073 32.2505 86.0345C32.9705 85.4617 32.1161 80.6585 32.1161 80.6585Z" fill="white" stroke="#263238" stroke-linecap="round" stroke-linejoin="round"/>
<path d="M27.4282 88.7106C29.1978 86.9922 31.0346 85.0754 31.0346 85.0754C31.0346 85.0754 31.5306 86.6082 32.2506 86.0354C32.9706 85.4626 32.1162 80.6722 32.1162 80.6722C32.1162 80.4482 31.3514 78.5122 30.9002 78.6914C30.5802 78.8162 27.6554 83.3666 25.873 86.1698C26.3882 86.9986 27.0314 88.061 27.4282 88.7106Z" fill="#263238" stroke="#263238" stroke-linecap="round" stroke-linejoin="round"/>
</svg>
