<svg width="241" height="160" viewBox="0 0 241 160" fill="none" xmlns="http://www.w3.org/2000/svg">
<path d="M198.885 52.5625C195.675 47.455 191.708 42.8391 186.902 39.0529C170.38 26.0373 145.657 24.884 126.319 31.5128C120.604 33.4713 115.149 36.2572 110.483 40.1273C107.092 42.9403 104.188 46.2844 100.807 49.1097C97.2553 52.0734 92.8641 52.1426 88.4037 51.8956C81.9824 51.54 75.5766 50.9975 69.1866 50.2681C63.6198 49.6309 58.3765 48.5886 52.8615 50.1248C43.5506 52.7255 36.171 60.8361 33.311 69.9248C29.7299 81.34 32.1799 93.911 37.1095 104.812C38.8161 108.586 40.866 112.271 41.7551 116.331C42.6788 120.552 44.5434 124.864 47.6825 127.998C51.3501 131.646 57.0675 132.921 62.0292 133.862C71.6292 135.689 81.5057 134.679 90.9253 132.38C99.8164 130.216 108.878 126.477 118.233 126.413C128.73 126.344 138.71 130.634 149.026 132.57C158.258 134.299 167.809 134.212 177.048 132.57C185.43 131.088 194.583 128.712 200.73 122.444C216.986 105.882 211.491 78.0848 202.523 59.3073C201.443 56.9903 200.228 54.7382 198.885 52.5625Z" fill="#4B66E3"/>
<path opacity="0.7" d="M198.885 52.5625C195.675 47.455 191.708 42.8391 186.902 39.0529C170.38 26.0373 145.657 24.884 126.319 31.5128C120.604 33.4713 115.149 36.2572 110.483 40.1273C107.092 42.9403 104.188 46.2844 100.807 49.1097C97.2553 52.0734 92.8641 52.1426 88.4037 51.8956C81.9824 51.54 75.5766 50.9975 69.1866 50.2681C63.6198 49.6309 58.3765 48.5886 52.8615 50.1248C43.5506 52.7255 36.171 60.8361 33.311 69.9248C29.7299 81.34 32.1799 93.911 37.1095 104.812C38.8161 108.586 40.866 112.271 41.7551 116.331C42.6788 120.552 44.5434 124.864 47.6825 127.998C51.3501 131.646 57.0675 132.921 62.0292 133.862C71.6292 135.689 81.5057 134.679 90.9253 132.38C99.8164 130.216 108.878 126.477 118.233 126.413C128.73 126.344 138.71 130.634 149.026 132.57C158.258 134.299 167.809 134.212 177.048 132.57C185.43 131.088 194.583 128.712 200.73 122.444C216.986 105.882 211.491 78.0848 202.523 59.3073C201.443 56.9903 200.228 54.7382 198.885 52.5625Z" fill="white"/>
<path opacity="0.3" d="M136.954 25.1877C136.954 25.1877 135.089 22.1376 132.207 22.3055C129.325 22.4735 128.31 24.3307 127.463 25.6817C126.615 27.0326 126.277 26.188 124.074 25.5113C121.871 24.8345 120.863 26.02 120.345 27.2055C119.826 28.391 120.006 27.5439 117.974 27.2055C115.941 26.8671 115.887 28.0798 114.583 28.7318C113.521 29.2628 113.294 29.285 112.113 28.9788C110.649 28.5836 110.169 28.9121 109.831 29.5913H144.215C144.215 29.5913 143.563 26.8746 142.037 26.2003C140.51 25.5261 138.478 26.8721 136.954 25.1877Z" stroke="black" stroke-miterlimit="10"/>
<path opacity="0.3" d="M76.3314 31.9699C76.3314 31.9699 75.2966 30.2732 73.6888 30.3745C72.081 30.4757 71.5203 31.5056 71.0486 32.2614C70.5769 33.0171 70.3892 32.5429 69.1617 32.1675C67.9343 31.7921 67.3712 32.4491 67.0871 33.111C66.8031 33.7729 66.8994 33.2987 65.7658 33.111C64.6322 32.9233 64.6075 33.6049 63.8814 33.9581C63.2887 34.2545 63.1627 34.2668 62.5107 34.089C61.6957 33.8692 61.4289 34.0519 61.2388 34.4298H80.3719C80.3719 34.4298 80.0089 32.9208 79.1593 32.5429C78.3097 32.165 77.1785 32.9134 76.3314 31.9699Z" stroke="black" stroke-miterlimit="10"/>
<path opacity="0.3" d="M205.551 51.3797C205.551 51.3797 205.01 50.4956 204.176 50.545C203.341 50.5944 203.047 51.1352 202.8 51.5329C202.553 51.9305 202.457 51.6786 201.812 51.4835C201.709 51.4385 201.598 51.4157 201.486 51.4166C201.374 51.4175 201.264 51.442 201.162 51.4887C201.06 51.5353 200.969 51.603 200.895 51.6872C200.821 51.7714 200.766 51.8703 200.733 51.9774C200.585 52.3207 200.634 52.0762 200.044 51.9774C199.453 51.8786 199.439 52.2244 199.056 52.4195C198.952 52.4901 198.832 52.5332 198.708 52.5449C198.583 52.5566 198.457 52.5364 198.342 52.4862C197.917 52.3726 197.779 52.4689 197.68 52.664H207.646C207.646 52.664 207.458 51.8786 207.016 51.6761C206.574 51.4736 205.993 51.8613 205.551 51.3797Z" stroke="black" stroke-miterlimit="10"/>
<path opacity="0.3" d="M142.323 32.9549C142.323 32.9549 141.782 32.0708 140.948 32.1202C140.113 32.1696 139.816 32.708 139.572 33.1081C139.327 33.5082 139.226 33.2538 138.584 33.0587C138.481 33.0132 138.37 32.9901 138.258 32.9908C138.145 32.9915 138.034 33.016 137.932 33.0626C137.83 33.1093 137.739 33.1771 137.665 33.2615C137.591 33.346 137.535 33.4452 137.502 33.5526C137.357 33.8959 137.404 33.6489 136.816 33.5526C136.228 33.4563 136.211 33.7996 135.828 33.9947C135.724 34.0653 135.604 34.1084 135.48 34.1201C135.355 34.1318 135.229 34.1116 135.114 34.0614C134.689 33.9478 134.551 34.0441 134.452 34.2392H144.418C144.418 34.2392 144.23 33.4538 143.788 33.2513C143.346 33.0488 142.765 33.4464 142.323 32.9549Z" stroke="black" stroke-miterlimit="10"/>
<g opacity="0.3">
<path d="M34.2964 110.19H42.1107V39.5251H62.6639V73.1582H67.0798V114.946H72.1774V52.5703H81.6884V27.2949H96.9761V73.8373H102.753V55.3241H115.662V59.3992H126.702V114.435H131.118V104.413H143.18V114.265H148.954V64.6647H168.488V111.207H174.094V46.3194H180.888V34.43H184.287V27.6357H189.723V71.6294H198.554V113.585H205.349" stroke="black" stroke-miterlimit="10"/>
<path d="M62.6641 37.3174H42.1108V39.5253H62.6641V37.3174Z" stroke="black" stroke-miterlimit="10"/>
<path d="M81.6884 52.5703H72.1182V53.6891H81.6884V52.5703Z" stroke="black" stroke-miterlimit="10"/>
<path d="M96.9762 27.2949H81.644V28.3816H96.9762V27.2949Z" stroke="black" stroke-miterlimit="10"/>
<path d="M106.2 53.0146H103.968V55.3214H106.2V53.0146Z" stroke="black" stroke-miterlimit="10"/>
<path d="M112.005 53.9824H110.888V55.321H112.005V53.9824Z" stroke="black" stroke-miterlimit="10"/>
<path d="M126.739 59.3994H115.662V60.7528H126.739V59.3994Z" stroke="black" stroke-miterlimit="10"/>
<path d="M168.485 63.6572H148.955V64.6674H168.485V63.6572Z" stroke="black" stroke-miterlimit="10"/>
<path d="M161.716 61.6465H153.976V63.6569H161.716V61.6465Z" stroke="black" stroke-miterlimit="10"/>
<path d="M160.076 61.721V59.8613H165.731V63.5832" stroke="black" stroke-miterlimit="10"/>
<path d="M122.802 58.8436V43.8078H140.703V56.2677H146.86V35.0723H166.623V60.7058H172.783" stroke="black" stroke-miterlimit="10"/>
<path d="M109.913 51.3967V34.7852H97.7393" stroke="black" stroke-miterlimit="10"/>
<path d="M71.5328 55.5516H67.5219V43.9512H63.6543" stroke="black" stroke-miterlimit="10"/>
<path d="M41.4587 52.3994H38.1641V97.5094" stroke="black" stroke-miterlimit="10"/>
<path d="M178.796 44.0937V38.6504H180.515" stroke="black" stroke-miterlimit="10"/>
<path d="M190.397 38.7939H196.554V61.565H207.009V87.9148" stroke="black" stroke-miterlimit="10"/>
<path d="M84.3829 30.4883H82.8467V33.4964H84.3829V30.4883Z" stroke="black" stroke-miterlimit="10"/>
<path d="M87.149 30.4883H85.6128V33.4964H87.149V30.4883Z" stroke="black" stroke-miterlimit="10"/>
<path d="M89.9151 30.4883H88.3789V33.4964H89.9151V30.4883Z" stroke="black" stroke-miterlimit="10"/>
<path d="M92.6812 30.4883H91.145V33.4964H92.6812V30.4883Z" stroke="black" stroke-miterlimit="10"/>
<path d="M95.4473 30.4883H93.9111V33.4964H95.4473V30.4883Z" stroke="black" stroke-miterlimit="10"/>
<path d="M84.3829 35.5732H82.8467V38.5814H84.3829V35.5732Z" stroke="black" stroke-miterlimit="10"/>
<path d="M87.149 35.5732H85.6128V38.5814H87.149V35.5732Z" stroke="black" stroke-miterlimit="10"/>
<path d="M89.9151 35.5732H88.3789V38.5814H89.9151V35.5732Z" stroke="black" stroke-miterlimit="10"/>
<path d="M92.6812 35.5732H91.145V38.5814H92.6812V35.5732Z" stroke="black" stroke-miterlimit="10"/>
<path d="M95.4473 35.5732H93.9111V38.5814H95.4473V35.5732Z" stroke="black" stroke-miterlimit="10"/>
<path d="M84.3829 40.6562H82.8467V43.6644H84.3829V40.6562Z" stroke="black" stroke-miterlimit="10"/>
<path d="M87.149 40.6562H85.6128V43.6644H87.149V40.6562Z" stroke="black" stroke-miterlimit="10"/>
<path d="M89.9151 40.6562H88.3789V43.6644H89.9151V40.6562Z" stroke="black" stroke-miterlimit="10"/>
<path d="M92.6812 40.6562H91.145V43.6644H92.6812V40.6562Z" stroke="black" stroke-miterlimit="10"/>
<path d="M95.4473 40.6562H93.9111V43.6644H95.4473V40.6562Z" stroke="black" stroke-miterlimit="10"/>
<path d="M84.3829 45.7412H82.8467V48.7494H84.3829V45.7412Z" stroke="black" stroke-miterlimit="10"/>
<path d="M87.149 45.7412H85.6128V48.7494H87.149V45.7412Z" stroke="black" stroke-miterlimit="10"/>
<path d="M89.9151 45.7412H88.3789V48.7494H89.9151V45.7412Z" stroke="black" stroke-miterlimit="10"/>
<path d="M92.6812 45.7412H91.145V48.7494H92.6812V45.7412Z" stroke="black" stroke-miterlimit="10"/>
<path d="M95.4473 45.7412H93.9111V48.7494H95.4473V45.7412Z" stroke="black" stroke-miterlimit="10"/>
<path d="M84.3829 50.8242H82.8467V53.8324H84.3829V50.8242Z" stroke="black" stroke-miterlimit="10"/>
<path d="M87.149 50.8242H85.6128V53.8324H87.149V50.8242Z" stroke="black" stroke-miterlimit="10"/>
<path d="M89.9151 50.8242H88.3789V53.8324H89.9151V50.8242Z" stroke="black" stroke-miterlimit="10"/>
<path d="M92.6812 50.8242H91.145V53.8324H92.6812V50.8242Z" stroke="black" stroke-miterlimit="10"/>
<path d="M95.4473 50.8242H93.9111V53.8324H95.4473V50.8242Z" stroke="black" stroke-miterlimit="10"/>
<path d="M84.3829 55.9092H82.8467V58.9173H84.3829V55.9092Z" stroke="black" stroke-miterlimit="10"/>
<path d="M87.149 55.9092H85.6128V58.9173H87.149V55.9092Z" stroke="black" stroke-miterlimit="10"/>
<path d="M89.9151 55.9092H88.3789V58.9173H89.9151V55.9092Z" stroke="black" stroke-miterlimit="10"/>
<path d="M92.6812 55.9092H91.145V58.9173H92.6812V55.9092Z" stroke="black" stroke-miterlimit="10"/>
<path d="M95.4473 55.9092H93.9111V58.9173H95.4473V55.9092Z" stroke="black" stroke-miterlimit="10"/>
<path d="M74.9507 55.9092H73.4146V58.9173H74.9507V55.9092Z" stroke="black" stroke-miterlimit="10"/>
<path d="M77.7168 55.9092H76.1807V58.9173H77.7168V55.9092Z" stroke="black" stroke-miterlimit="10"/>
<path d="M80.483 55.9092H78.9468V58.9173H80.483V55.9092Z" stroke="black" stroke-miterlimit="10"/>
<path d="M74.9507 60.8486H73.4146V63.8568H74.9507V60.8486Z" stroke="black" stroke-miterlimit="10"/>
<path d="M77.7168 60.8486H76.1807V63.8568H77.7168V60.8486Z" stroke="black" stroke-miterlimit="10"/>
<path d="M80.483 60.8486H78.9468V63.8568H80.483V60.8486Z" stroke="black" stroke-miterlimit="10"/>
<path d="M74.9507 65.791H73.4146V68.7992H74.9507V65.791Z" stroke="black" stroke-miterlimit="10"/>
<path d="M77.7168 65.791H76.1807V68.7992H77.7168V65.791Z" stroke="black" stroke-miterlimit="10"/>
<path d="M80.483 65.791H78.9468V68.7992H80.483V65.791Z" stroke="black" stroke-miterlimit="10"/>
<path d="M74.9507 70.7305H73.4146V73.7386H74.9507V70.7305Z" stroke="black" stroke-miterlimit="10"/>
<path d="M77.7168 70.7305H76.1807V73.7386H77.7168V70.7305Z" stroke="black" stroke-miterlimit="10"/>
<path d="M80.483 70.7305H78.9468V73.7386H80.483V70.7305Z" stroke="black" stroke-miterlimit="10"/>
<path d="M74.9507 75.6719H73.4146V78.68H74.9507V75.6719Z" stroke="black" stroke-miterlimit="10"/>
<path d="M77.7168 75.6719H76.1807V78.68H77.7168V75.6719Z" stroke="black" stroke-miterlimit="10"/>
<path d="M80.483 75.6719H78.9468V78.68H80.483V75.6719Z" stroke="black" stroke-miterlimit="10"/>
<path d="M74.9507 80.6113H73.4146V83.6195H74.9507V80.6113Z" stroke="black" stroke-miterlimit="10"/>
<path d="M77.7168 80.6113H76.1807V83.6195H77.7168V80.6113Z" stroke="black" stroke-miterlimit="10"/>
<path d="M80.483 80.6113H78.9468V83.6195H80.483V80.6113Z" stroke="black" stroke-miterlimit="10"/>
<path d="M74.9507 85.5537H73.4146V88.5619H74.9507V85.5537Z" stroke="black" stroke-miterlimit="10"/>
<path d="M77.7168 85.5537H76.1807V88.5619H77.7168V85.5537Z" stroke="black" stroke-miterlimit="10"/>
<path d="M80.483 85.5537H78.9468V88.5619H80.483V85.5537Z" stroke="black" stroke-miterlimit="10"/>
<path d="M74.9507 90.4932H73.4146V93.5013H74.9507V90.4932Z" stroke="black" stroke-miterlimit="10"/>
<path d="M77.7168 90.4932H76.1807V93.5013H77.7168V90.4932Z" stroke="black" stroke-miterlimit="10"/>
<path d="M80.483 90.4932H78.9468V93.5013H80.483V90.4932Z" stroke="black" stroke-miterlimit="10"/>
<path d="M74.9507 95.4355H73.4146V98.4437H74.9507V95.4355Z" stroke="black" stroke-miterlimit="10"/>
<path d="M77.7168 95.4355H76.1807V98.4437H77.7168V95.4355Z" stroke="black" stroke-miterlimit="10"/>
<path d="M80.483 95.4355H78.9468V98.4437H80.483V95.4355Z" stroke="black" stroke-miterlimit="10"/>
<path d="M74.9507 100.375H73.4146V103.383H74.9507V100.375Z" stroke="black" stroke-miterlimit="10"/>
<path d="M77.7168 100.375H76.1807V103.383H77.7168V100.375Z" stroke="black" stroke-miterlimit="10"/>
<path d="M80.483 100.375H78.9468V103.383H80.483V100.375Z" stroke="black" stroke-miterlimit="10"/>
<path d="M74.9507 105.316H73.4146V108.325H74.9507V105.316Z" stroke="black" stroke-miterlimit="10"/>
<path d="M77.7168 105.316H76.1807V108.325H77.7168V105.316Z" stroke="black" stroke-miterlimit="10"/>
<path d="M80.483 105.316H78.9468V108.325H80.483V105.316Z" stroke="black" stroke-miterlimit="10"/>
<path d="M99.6163 76.2451H98.0801V79.2533H99.6163V76.2451Z" stroke="black" stroke-miterlimit="10"/>
<path d="M102.382 76.2451H100.846V79.2533H102.382V76.2451Z" stroke="black" stroke-miterlimit="10"/>
<path d="M99.6163 81.1846H98.0801V84.1927H99.6163V81.1846Z" stroke="black" stroke-miterlimit="10"/>
<path d="M102.382 81.1846H100.846V84.1927H102.382V81.1846Z" stroke="black" stroke-miterlimit="10"/>
<path d="M99.6163 86.127H98.0801V89.1351H99.6163V86.127Z" stroke="black" stroke-miterlimit="10"/>
<path d="M102.382 86.127H100.846V89.1351H102.382V86.127Z" stroke="black" stroke-miterlimit="10"/>
<path d="M99.6163 91.0664H98.0801V94.0746H99.6163V91.0664Z" stroke="black" stroke-miterlimit="10"/>
<path d="M102.382 91.0664H100.846V94.0746H102.382V91.0664Z" stroke="black" stroke-miterlimit="10"/>
<path d="M99.6163 96.0078H98.0801V99.016H99.6163V96.0078Z" stroke="black" stroke-miterlimit="10"/>
<path d="M102.382 96.0078H100.846V99.016H102.382V96.0078Z" stroke="black" stroke-miterlimit="10"/>
<path d="M99.6163 100.947H98.0801V103.955H99.6163V100.947Z" stroke="black" stroke-miterlimit="10"/>
<path d="M102.382 100.947H100.846V103.955H102.382V100.947Z" stroke="black" stroke-miterlimit="10"/>
<path d="M99.6163 105.89H98.0801V108.898H99.6163V105.89Z" stroke="black" stroke-miterlimit="10"/>
<path d="M102.382 105.89H100.846V108.898H102.382V105.89Z" stroke="black" stroke-miterlimit="10"/>
<path d="M84.3829 60.9922H82.8467V64.0003H84.3829V60.9922Z" stroke="black" stroke-miterlimit="10"/>
<path d="M87.149 60.9922H85.6128V64.0003H87.149V60.9922Z" stroke="black" stroke-miterlimit="10"/>
<path d="M89.9151 60.9922H88.3789V64.0003H89.9151V60.9922Z" stroke="black" stroke-miterlimit="10"/>
<path d="M92.6812 60.9922H91.145V64.0003H92.6812V60.9922Z" stroke="black" stroke-miterlimit="10"/>
<path d="M95.4473 60.9922H93.9111V64.0003H95.4473V60.9922Z" stroke="black" stroke-miterlimit="10"/>
<path d="M84.3829 66.0771H82.8467V69.0853H84.3829V66.0771Z" stroke="black" stroke-miterlimit="10"/>
<path d="M87.149 66.0771H85.6128V69.0853H87.149V66.0771Z" stroke="black" stroke-miterlimit="10"/>
<path d="M89.9151 66.0771H88.3789V69.0853H89.9151V66.0771Z" stroke="black" stroke-miterlimit="10"/>
<path d="M92.6812 66.0771H91.145V69.0853H92.6812V66.0771Z" stroke="black" stroke-miterlimit="10"/>
<path d="M95.4473 66.0771H93.9111V69.0853H95.4473V66.0771Z" stroke="black" stroke-miterlimit="10"/>
<path d="M84.3829 71.1602H82.8467V74.1683H84.3829V71.1602Z" stroke="black" stroke-miterlimit="10"/>
<path d="M87.149 71.1602H85.6128V74.1683H87.149V71.1602Z" stroke="black" stroke-miterlimit="10"/>
<path d="M89.9151 71.1602H88.3789V74.1683H89.9151V71.1602Z" stroke="black" stroke-miterlimit="10"/>
<path d="M92.6812 71.1602H91.145V74.1683H92.6812V71.1602Z" stroke="black" stroke-miterlimit="10"/>
<path d="M95.4473 71.1602H93.9111V74.1683H95.4473V71.1602Z" stroke="black" stroke-miterlimit="10"/>
<path d="M84.3829 76.2451H82.8467V79.2533H84.3829V76.2451Z" stroke="black" stroke-miterlimit="10"/>
<path d="M87.149 76.2451H85.6128V79.2533H87.149V76.2451Z" stroke="black" stroke-miterlimit="10"/>
<path d="M89.9151 76.2451H88.3789V79.2533H89.9151V76.2451Z" stroke="black" stroke-miterlimit="10"/>
<path d="M92.6812 76.2451H91.145V79.2533H92.6812V76.2451Z" stroke="black" stroke-miterlimit="10"/>
<path d="M95.4473 76.2451H93.9111V79.2533H95.4473V76.2451Z" stroke="black" stroke-miterlimit="10"/>
<path d="M84.3829 81.3281H82.8467V84.3363H84.3829V81.3281Z" stroke="black" stroke-miterlimit="10"/>
<path d="M87.149 81.3281H85.6128V84.3363H87.149V81.3281Z" stroke="black" stroke-miterlimit="10"/>
<path d="M89.9151 81.3281H88.3789V84.3363H89.9151V81.3281Z" stroke="black" stroke-miterlimit="10"/>
<path d="M92.6812 81.3281H91.145V84.3363H92.6812V81.3281Z" stroke="black" stroke-miterlimit="10"/>
<path d="M95.4473 81.3281H93.9111V84.3363H95.4473V81.3281Z" stroke="black" stroke-miterlimit="10"/>
<path d="M84.3829 86.4131H82.8467V89.4212H84.3829V86.4131Z" stroke="black" stroke-miterlimit="10"/>
<path d="M87.149 86.4131H85.6128V89.4212H87.149V86.4131Z" stroke="black" stroke-miterlimit="10"/>
<path d="M89.9151 86.4131H88.3789V89.4212H89.9151V86.4131Z" stroke="black" stroke-miterlimit="10"/>
<path d="M92.6812 86.4131H91.145V89.4212H92.6812V86.4131Z" stroke="black" stroke-miterlimit="10"/>
<path d="M95.4473 86.4131H93.9111V89.4212H95.4473V86.4131Z" stroke="black" stroke-miterlimit="10"/>
<path d="M84.3829 91.4961H82.8467V94.5042H84.3829V91.4961Z" stroke="black" stroke-miterlimit="10"/>
<path d="M87.149 91.4961H85.6128V94.5042H87.149V91.4961Z" stroke="black" stroke-miterlimit="10"/>
<path d="M89.9151 91.4961H88.3789V94.5042H89.9151V91.4961Z" stroke="black" stroke-miterlimit="10"/>
<path d="M92.6812 91.4961H91.145V94.5042H92.6812V91.4961Z" stroke="black" stroke-miterlimit="10"/>
<path d="M95.4473 91.4961H93.9111V94.5042H95.4473V91.4961Z" stroke="black" stroke-miterlimit="10"/>
<path d="M84.3829 96.5811H82.8467V99.5892H84.3829V96.5811Z" stroke="black" stroke-miterlimit="10"/>
<path d="M87.149 96.5811H85.6128V99.5892H87.149V96.5811Z" stroke="black" stroke-miterlimit="10"/>
<path d="M89.9151 96.5811H88.3789V99.5892H89.9151V96.5811Z" stroke="black" stroke-miterlimit="10"/>
<path d="M92.6812 96.5811H91.145V99.5892H92.6812V96.5811Z" stroke="black" stroke-miterlimit="10"/>
<path d="M95.4473 96.5811H93.9111V99.5892H95.4473V96.5811Z" stroke="black" stroke-miterlimit="10"/>
<path d="M84.3829 101.664H82.8467V104.672H84.3829V101.664Z" stroke="black" stroke-miterlimit="10"/>
<path d="M87.149 101.664H85.6128V104.672H87.149V101.664Z" stroke="black" stroke-miterlimit="10"/>
<path d="M89.9151 101.664H88.3789V104.672H89.9151V101.664Z" stroke="black" stroke-miterlimit="10"/>
<path d="M92.6812 101.664H91.145V104.672H92.6812V101.664Z" stroke="black" stroke-miterlimit="10"/>
<path d="M95.4473 101.664H93.9111V104.672H95.4473V101.664Z" stroke="black" stroke-miterlimit="10"/>
<path d="M84.3829 106.89H82.8467V109.898H84.3829V106.89Z" stroke="black" stroke-miterlimit="10"/>
<path d="M87.149 106.89H85.6128V109.898H87.149V106.89Z" stroke="black" stroke-miterlimit="10"/>
<path d="M89.9151 106.89H88.3789V109.898H89.9151V106.89Z" stroke="black" stroke-miterlimit="10"/>
<path d="M92.6812 106.89H91.145V109.898H92.6812V106.89Z" stroke="black" stroke-miterlimit="10"/>
<path d="M95.4473 106.89H93.9111V109.898H95.4473V106.89Z" stroke="black" stroke-miterlimit="10"/>
<path d="M81.6885 53.6895V114.984" stroke="black" stroke-miterlimit="10"/>
<path d="M105.186 56.5518V114.124" stroke="black" stroke-miterlimit="10"/>
<path d="M108.194 56.5518V114.124" stroke="black" stroke-miterlimit="10"/>
<path d="M111.202 56.5518V114.124" stroke="black" stroke-miterlimit="10"/>
<path d="M114.208 56.5518V114.124" stroke="black" stroke-miterlimit="10"/>
<path d="M117.216 62.2812V114.124" stroke="black" stroke-miterlimit="10"/>
<path d="M120.224 62.2812V114.124" stroke="black" stroke-miterlimit="10"/>
<path d="M123.232 62.2812V114.124" stroke="black" stroke-miterlimit="10"/>
<path d="M42.8911 42.8047H61.6513" stroke="black" stroke-miterlimit="10"/>
<path d="M42.8911 46.5264H61.6513" stroke="black" stroke-miterlimit="10"/>
<path d="M42.8911 50.251H61.6513" stroke="black" stroke-miterlimit="10"/>
<path d="M42.8911 53.9756H61.6513" stroke="black" stroke-miterlimit="10"/>
<path d="M42.8911 57.6973H61.6513" stroke="black" stroke-miterlimit="10"/>
<path d="M42.8911 61.4219H61.6513" stroke="black" stroke-miterlimit="10"/>
<path d="M42.8911 65.1465H61.6513" stroke="black" stroke-miterlimit="10"/>
<path d="M42.8911 68.8682H61.6513" stroke="black" stroke-miterlimit="10"/>
<path d="M42.8911 72.5928H61.6513" stroke="black" stroke-miterlimit="10"/>
<path d="M42.8911 76.3174H61.6513" stroke="black" stroke-miterlimit="10"/>
<path d="M42.8911 80.0391H61.6513" stroke="black" stroke-miterlimit="10"/>
<path d="M42.8911 83.7627H61.6513" stroke="black" stroke-miterlimit="10"/>
<path d="M42.8911 87.4854H61.6513" stroke="black" stroke-miterlimit="10"/>
<path d="M42.8911 91.209H61.6513" stroke="black" stroke-miterlimit="10"/>
<path d="M42.8911 94.9336H61.6513" stroke="black" stroke-miterlimit="10"/>
<path d="M42.8911 98.6553H61.6513" stroke="black" stroke-miterlimit="10"/>
<path d="M42.8911 102.38H61.6513" stroke="black" stroke-miterlimit="10"/>
<path d="M42.8911 106.104H61.6513" stroke="black" stroke-miterlimit="10"/>
<path d="M42.8911 109.826H61.6513" stroke="black" stroke-miterlimit="10"/>
<path d="M42.8911 113.551H61.6513" stroke="black" stroke-miterlimit="10"/>
<path d="M42.8911 117.272H61.6513" stroke="black" stroke-miterlimit="10"/>
<path d="M45.3237 37.2188V118.133" stroke="black" stroke-miterlimit="10"/>
<path d="M174.212 53.1162H178.367V55.1216H174.212" stroke="black" stroke-miterlimit="10"/>
<path d="M198.416 75.6006H193.691V77.6036H198.416" stroke="black" stroke-miterlimit="10"/>
<path d="M198.416 80.3252H193.691V82.3306H198.416" stroke="black" stroke-miterlimit="10"/>
<path d="M198.416 85.0527H193.691V87.0557H198.416" stroke="black" stroke-miterlimit="10"/>
<path d="M198.416 89.7773H193.691V91.7828H198.416" stroke="black" stroke-miterlimit="10"/>
<path d="M198.416 94.5039H193.691V96.5069H198.416" stroke="black" stroke-miterlimit="10"/>
<path d="M198.416 99.2285H193.691V101.234H198.416" stroke="black" stroke-miterlimit="10"/>
<path d="M198.416 103.956H193.691V105.961H198.416" stroke="black" stroke-miterlimit="10"/>
<path d="M198.416 108.681H193.691V110.686H198.416" stroke="black" stroke-miterlimit="10"/>
<path d="M174.212 58.5566H178.367V60.5621H174.212" stroke="black" stroke-miterlimit="10"/>
<path d="M174.212 64H178.367V66.0054H174.212" stroke="black" stroke-miterlimit="10"/>
<path d="M174.212 69.4414H178.367V71.4468H174.212" stroke="black" stroke-miterlimit="10"/>
<path d="M174.212 74.8848H178.367V76.8902H174.212" stroke="black" stroke-miterlimit="10"/>
<path d="M174.212 80.3252H178.367V82.3306H174.212" stroke="black" stroke-miterlimit="10"/>
<path d="M174.212 85.7686H178.367V87.7715H174.212" stroke="black" stroke-miterlimit="10"/>
<path d="M174.212 91.209H178.367V93.2144H174.212" stroke="black" stroke-miterlimit="10"/>
<path d="M174.212 96.6523H178.367V98.6553H174.212" stroke="black" stroke-miterlimit="10"/>
<path d="M174.212 102.094H178.367V104.099H174.212" stroke="black" stroke-miterlimit="10"/>
<path d="M167.626 66.1484H149.582V67.8674H167.626V66.1484Z" stroke="black" stroke-miterlimit="10"/>
<path d="M167.626 69.1543H149.582V70.8732H167.626V69.1543Z" stroke="black" stroke-miterlimit="10"/>
<path d="M167.626 72.1631H149.582V73.882H167.626V72.1631Z" stroke="black" stroke-miterlimit="10"/>
<path d="M167.626 75.1709H149.582V76.8898H167.626V75.1709Z" stroke="black" stroke-miterlimit="10"/>
<path d="M167.626 78.1768H149.582V79.8957H167.626V78.1768Z" stroke="black" stroke-miterlimit="10"/>
<path d="M167.626 81.1846H149.582V82.9035H167.626V81.1846Z" stroke="black" stroke-miterlimit="10"/>
<path d="M167.626 84.1934H149.582V85.9123H167.626V84.1934Z" stroke="black" stroke-miterlimit="10"/>
<path d="M167.626 87.1982H149.582V88.9172H167.626V87.1982Z" stroke="black" stroke-miterlimit="10"/>
<path d="M167.626 90.207H149.582V91.926H167.626V90.207Z" stroke="black" stroke-miterlimit="10"/>
<path d="M167.626 93.2148H149.582V94.9338H167.626V93.2148Z" stroke="black" stroke-miterlimit="10"/>
<path d="M167.626 96.2227H149.582V97.9416H167.626V96.2227Z" stroke="black" stroke-miterlimit="10"/>
<path d="M167.626 99.2285H149.582V100.947H167.626V99.2285Z" stroke="black" stroke-miterlimit="10"/>
<path d="M167.626 102.237H149.582V103.956H167.626V102.237Z" stroke="black" stroke-miterlimit="10"/>
<path d="M167.626 105.245H149.582V106.964H167.626V105.245Z" stroke="black" stroke-miterlimit="10"/>
<path d="M167.626 108.251H149.582V109.97H167.626V108.251Z" stroke="black" stroke-miterlimit="10"/>
<path d="M167.626 111.259H149.582V112.978H167.626V111.259Z" stroke="black" stroke-miterlimit="10"/>
<path d="M167.626 114.267H149.582V115.986H167.626V114.267Z" stroke="black" stroke-miterlimit="10"/>
<path d="M180.945 48.3887V114.84" stroke="black" stroke-miterlimit="10"/>
<path d="M184.667 35.7881V114.84" stroke="black" stroke-miterlimit="10"/>
<path d="M141.849 99.6582H132.827V104.385H141.849V99.6582Z" stroke="black" stroke-miterlimit="10"/>
<path d="M139.7 91.3525H134.973V99.6583H139.7V91.3525Z" stroke="black" stroke-miterlimit="10"/>
<path d="M96.9761 73.8369V114.869" stroke="black" stroke-miterlimit="10"/>
<path d="M148.799 69.3428H126.89" stroke="black" stroke-miterlimit="10"/>
<path d="M148.799 71.79H126.89" stroke="black" stroke-miterlimit="10"/>
<path d="M131.209 73.625H127.868V76.0725H131.209V73.625Z" stroke="black" stroke-miterlimit="10"/>
<path d="M135.331 73.625H131.99V76.0725H135.331V73.625Z" stroke="black" stroke-miterlimit="10"/>
<path d="M139.453 73.625H136.112V76.0725H139.453V73.625Z" stroke="black" stroke-miterlimit="10"/>
<path d="M143.575 73.625H140.234V76.0725H143.575V73.625Z" stroke="black" stroke-miterlimit="10"/>
<path d="M147.698 73.625H144.356V76.0725H147.698V73.625Z" stroke="black" stroke-miterlimit="10"/>
<path d="M131.209 77.4189H127.868V79.8665H131.209V77.4189Z" stroke="black" stroke-miterlimit="10"/>
<path d="M135.331 77.4189H131.99V79.8665H135.331V77.4189Z" stroke="black" stroke-miterlimit="10"/>
<path d="M139.453 77.4189H136.112V79.8665H139.453V77.4189Z" stroke="black" stroke-miterlimit="10"/>
<path d="M143.575 77.4189H140.234V79.8665H143.575V77.4189Z" stroke="black" stroke-miterlimit="10"/>
<path d="M147.698 77.4189H144.356V79.8665H147.698V77.4189Z" stroke="black" stroke-miterlimit="10"/>
<path d="M131.209 81.2119H127.868V83.6594H131.209V81.2119Z" stroke="black" stroke-miterlimit="10"/>
<path d="M135.331 81.2119H131.99V83.6594H135.331V81.2119Z" stroke="black" stroke-miterlimit="10"/>
<path d="M139.453 81.2119H136.112V83.6594H139.453V81.2119Z" stroke="black" stroke-miterlimit="10"/>
<path d="M143.575 81.2119H140.234V83.6594H143.575V81.2119Z" stroke="black" stroke-miterlimit="10"/>
<path d="M147.698 81.2119H144.356V83.6594H147.698V81.2119Z" stroke="black" stroke-miterlimit="10"/>
<path d="M131.209 88.0684H127.868V90.5159H131.209V88.0684Z" stroke="black" stroke-miterlimit="10"/>
<path d="M135.331 88.0684H131.99V90.5159H135.331V88.0684Z" stroke="black" stroke-miterlimit="10"/>
<path d="M139.453 88.0684H136.112V90.5159H139.453V88.0684Z" stroke="black" stroke-miterlimit="10"/>
<path d="M143.575 88.0684H140.234V90.5159H143.575V88.0684Z" stroke="black" stroke-miterlimit="10"/>
<path d="M147.698 88.0684H144.356V90.5159H147.698V88.0684Z" stroke="black" stroke-miterlimit="10"/>
</g>
<path d="M95.4026 81.666H93.9355V88.2034H95.4026V81.666Z" fill="#263238" stroke="#263238" stroke-miterlimit="10"/>
<path d="M149.532 81.666H148.065V88.2034H149.532V81.666Z" fill="#263238" stroke="#263238" stroke-miterlimit="10"/>
<path d="M38.0156 88.4902L37.5044 89.614H45.0026V89.3645L40.8188 89.3225L38.0156 88.4902Z" fill="#263238" stroke="#263238" stroke-miterlimit="10"/>
<path d="M93.9357 80.0781V89.3644H41.5424C40.7996 89.3637 40.0626 89.2342 39.3641 88.9816L35.7533 87.6726C35.5419 87.5674 35.3636 87.406 35.2379 87.2061C35.1123 87.0062 35.0442 86.7755 35.0411 86.5394C35.0381 86.3033 35.1001 86.0709 35.2206 85.8678C35.341 85.6647 35.5151 85.4987 35.7237 85.3881L41.2535 82.2564C43.3296 81.1474 45.6422 80.5545 47.9959 80.5276L93.9357 80.0781Z" fill="white" stroke="#263238" stroke-miterlimit="10"/>
<path d="M35.2422 87.208C35.365 87.4083 35.5423 87.5693 35.7534 87.6723L39.3642 88.9862C40.0627 89.2389 40.7997 89.3684 41.5425 89.369H93.9358V87.213L35.2422 87.208Z" fill="#4B66E3" stroke="#263238" stroke-miterlimit="10"/>
<path d="M52.639 88.2032H45.8571C45.7045 88.2028 45.5535 88.2326 45.4125 88.2909C45.2715 88.3491 45.1434 88.4346 45.0356 88.5424C44.9277 88.6503 44.8422 88.7784 44.784 88.9194C44.7258 89.0603 44.696 89.2114 44.6963 89.364H53.8097C53.8097 89.2107 53.7793 89.0589 53.7204 88.9174C53.6614 88.776 53.575 88.6476 53.4662 88.5396C53.3574 88.4317 53.2282 88.3464 53.0863 88.2887C52.9443 88.2309 52.7923 88.2019 52.639 88.2032Z" fill="#263238" stroke="#263238" stroke-miterlimit="10"/>
<path d="M46.5289 90.5257C47.17 90.5257 47.6897 90.006 47.6897 89.3649C47.6897 88.7238 47.17 88.2041 46.5289 88.2041C45.8879 88.2041 45.3682 88.7238 45.3682 89.3649C45.3682 90.006 45.8879 90.5257 46.5289 90.5257Z" fill="#263238" stroke="#263238" stroke-miterlimit="10"/>
<path d="M53.8098 89.3649C53.8098 89.1353 53.7418 88.9109 53.6142 88.72C53.4867 88.5291 53.3054 88.3803 53.0933 88.2925C52.8812 88.2046 52.6478 88.1816 52.4226 88.2264C52.1974 88.2712 51.9906 88.3818 51.8283 88.5441C51.6659 88.7064 51.5554 88.9133 51.5106 89.1384C51.4658 89.3636 51.4888 89.597 51.5766 89.8091C51.6645 90.0212 51.8133 90.2025 52.0042 90.33C52.1951 90.4576 52.4195 90.5257 52.6491 90.5257C52.9569 90.5257 53.2522 90.4034 53.4699 90.1857C53.6876 89.968 53.8098 89.6727 53.8098 89.3649Z" fill="#263238" stroke="#263238" stroke-miterlimit="10"/>
<path d="M89.1097 88.2041H82.3278C82.0199 88.2041 81.7247 88.3264 81.507 88.5441C81.2893 88.7618 81.167 89.057 81.167 89.3649H90.2705C90.2708 89.2124 90.241 89.0613 90.1828 88.9203C90.1246 88.7793 90.0391 88.6512 89.9312 88.5434C89.8234 88.4355 89.6953 88.35 89.5543 88.2918C89.4133 88.2336 89.2622 88.2038 89.1097 88.2041Z" fill="#263238" stroke="#263238" stroke-miterlimit="10"/>
<path d="M83.0021 90.5257C83.6432 90.5257 84.1629 90.006 84.1629 89.3649C84.1629 88.7238 83.6432 88.2041 83.0021 88.2041C82.361 88.2041 81.8413 88.7238 81.8413 89.3649C81.8413 90.006 82.361 90.5257 83.0021 90.5257Z" fill="#263238" stroke="#263238" stroke-miterlimit="10"/>
<path d="M89.11 90.5257C89.7511 90.5257 90.2708 90.006 90.2708 89.3649C90.2708 88.7238 89.7511 88.2041 89.11 88.2041C88.4689 88.2041 87.9492 88.7238 87.9492 89.3649C87.9492 90.006 88.4689 90.5257 89.11 90.5257Z" fill="#263238" stroke="#263238" stroke-miterlimit="10"/>
<path d="M93.9359 85.9436V82.5205H50.1942L44.2075 85.9436H93.9359Z" fill="#4B66E3" stroke="#263238" stroke-miterlimit="10"/>
<path d="M90.7597 83.0713H57.7095V85.3929H90.7597V83.0713Z" fill="#263238" stroke="#263238" stroke-miterlimit="10"/>
<path d="M68.7344 83.3779H65.7114V85.0895H68.7344V83.3779Z" fill="white" stroke="#263238" stroke-miterlimit="10"/>
<path d="M73.5923 83.3779H70.5693V85.0895H73.5923V83.3779Z" fill="white" stroke="#263238" stroke-miterlimit="10"/>
<path d="M78.4502 83.3779H75.4272V85.0895H78.4502V83.3779Z" fill="white" stroke="#263238" stroke-miterlimit="10"/>
<path d="M83.3081 83.3779H80.2852V85.0895H83.3081V83.3779Z" fill="white" stroke="#263238" stroke-miterlimit="10"/>
<path d="M88.1665 83.3779H85.1436V85.0895H88.1665V83.3779Z" fill="white" stroke="#263238" stroke-miterlimit="10"/>
<path d="M44.2072 82.8267L47.6895 81.251H43.6416C42.8168 81.5163 42.0175 81.8552 41.2534 82.2636L38.917 83.5725L41.9474 83.0786L44.2072 82.8267Z" fill="#263238" stroke="#263238" stroke-miterlimit="10"/>
<path d="M43.6416 81.2516H93.9356V80.0908L47.9982 80.5428C46.5186 80.5581 45.0498 80.797 43.6416 81.2516Z" fill="#CCCCCC" stroke="#263238" stroke-miterlimit="10"/>
<path d="M56.9341 87.9413H56.0005C55.763 87.9407 55.5353 87.846 55.3673 87.678C55.1993 87.5101 55.1047 87.2824 55.104 87.0448V82.8463C55.104 82.6083 55.1984 82.38 55.3664 82.2114C55.5345 82.0429 55.7625 81.9479 56.0005 81.9473H56.9341C57.1721 81.9479 57.4001 82.0429 57.5682 82.2114C57.7362 82.38 57.8306 82.6083 57.8306 82.8463V87.0448C57.83 87.2824 57.7353 87.5101 57.5673 87.678C57.3993 87.846 57.1717 87.9407 56.9341 87.9413ZM56.0005 82.1226C55.8112 82.1226 55.6297 82.1978 55.4958 82.3317C55.362 82.4655 55.2868 82.6471 55.2868 82.8364V87.035C55.2874 87.2241 55.3628 87.4052 55.4965 87.5389C55.6303 87.6726 55.8114 87.7481 56.0005 87.7487H56.9341C57.1232 87.7481 57.3044 87.6726 57.4381 87.5389C57.5718 87.4052 57.6472 87.2241 57.6478 87.035V82.8364C57.6478 82.6471 57.5726 82.4655 57.4388 82.3317C57.3049 82.1978 57.1234 82.1226 56.9341 82.1226H56.0005Z" fill="white" stroke="#263238" stroke-miterlimit="10"/>
<path d="M57.0895 83.3779H55.8447V85.3932H57.0895V83.3779Z" fill="white" stroke="#263238" stroke-miterlimit="10"/>
<path d="M92.498 87.9413H91.5645C91.3269 87.9407 91.0993 87.846 90.9313 87.678C90.7633 87.5101 90.6686 87.2824 90.668 87.0448V82.8463C90.668 82.6083 90.7623 82.38 90.9304 82.2114C91.0985 82.0429 91.3265 81.9479 91.5645 81.9473H92.498C92.616 81.9473 92.7328 81.9705 92.8417 82.0157C92.9506 82.0609 93.0496 82.1272 93.1329 82.2107C93.2161 82.2942 93.2821 82.3934 93.327 82.5024C93.3719 82.6115 93.3949 82.7283 93.3946 82.8463V87.0448C93.3946 87.2826 93.3001 87.5106 93.132 87.6788C92.9639 87.8469 92.7358 87.9413 92.498 87.9413ZM91.5645 82.1226C91.3752 82.1226 91.1936 82.1978 91.0598 82.3317C90.9259 82.4655 90.8507 82.6471 90.8507 82.8364V87.035C90.8514 87.2241 90.9268 87.4052 91.0605 87.5389C91.1942 87.6726 91.3754 87.7481 91.5645 87.7487H92.498C92.6874 87.7487 92.8689 87.6735 93.0028 87.5396C93.1366 87.4058 93.2118 87.2243 93.2118 87.035V82.8364C93.2118 82.6471 93.1366 82.4655 93.0028 82.3317C92.8689 82.1978 92.6874 82.1226 92.498 82.1226H91.5645Z" fill="white" stroke="#263238" stroke-miterlimit="10"/>
<path d="M92.6539 83.3779H91.4092V85.3932H92.6539V83.3779Z" fill="white" stroke="#263238" stroke-miterlimit="10"/>
<path d="M51.4782 83.3779H50.2334V85.3932H51.4782V83.3779Z" fill="white" stroke="#263238" stroke-miterlimit="10"/>
<path d="M205.45 88.4902L205.961 89.614H198.465V89.3645L202.647 89.3225L205.45 88.4902Z" fill="#263238" stroke="#263238" stroke-miterlimit="10"/>
<path d="M149.53 80.0781V89.3644H201.923C202.667 89.3637 203.404 89.2342 204.104 88.9816L207.715 87.6726C207.925 87.5668 208.103 87.4052 208.228 87.2053C208.353 87.0055 208.421 86.7751 208.424 86.5394C208.427 86.3036 208.365 86.0715 208.245 85.8685C208.125 85.6655 207.952 85.4993 207.744 85.3881L202.214 82.2564C200.138 81.1474 197.826 80.5545 195.472 80.5276L149.53 80.0781Z" fill="white" stroke="#263238" stroke-miterlimit="10"/>
<path d="M149.53 87.208V89.3641H201.926C202.668 89.3634 203.405 89.2339 204.104 88.9813L207.715 87.6723C207.924 87.5698 208.102 87.4107 208.226 87.213L149.53 87.208Z" fill="#4B66E3" stroke="#263238" stroke-miterlimit="10"/>
<path d="M190.829 88.2041H197.611C197.763 88.2041 197.914 88.2341 198.055 88.2925C198.196 88.3508 198.324 88.4363 198.431 88.5441C198.539 88.6519 198.625 88.7798 198.683 88.9207C198.741 89.0615 198.771 89.2125 198.771 89.3649H189.668C189.668 89.057 189.79 88.7618 190.008 88.5441C190.226 88.3264 190.521 88.2041 190.829 88.2041Z" fill="#263238" stroke="#263238" stroke-miterlimit="10"/>
<path d="M196.939 90.5257C197.58 90.5257 198.1 90.006 198.1 89.3649C198.1 88.7238 197.58 88.2041 196.939 88.2041C196.298 88.2041 195.778 88.7238 195.778 89.3649C195.778 90.006 196.298 90.5257 196.939 90.5257Z" fill="#263238" stroke="#263238" stroke-miterlimit="10"/>
<path d="M190.829 90.5257C191.47 90.5257 191.99 90.006 191.99 89.3649C191.99 88.7238 191.47 88.2041 190.829 88.2041C190.188 88.2041 189.668 88.7238 189.668 89.3649C189.668 90.006 190.188 90.5257 190.829 90.5257Z" fill="#263238" stroke="#263238" stroke-miterlimit="10"/>
<path d="M154.358 88.2041H161.138C161.29 88.2038 161.441 88.2336 161.582 88.2918C161.723 88.35 161.851 88.4355 161.959 88.5434C162.067 88.6512 162.152 88.7793 162.211 88.9203C162.269 89.0613 162.299 89.2124 162.298 89.3649H153.197C153.197 89.2124 153.227 89.0613 153.285 88.9203C153.343 88.7793 153.429 88.6512 153.537 88.5434C153.644 88.4355 153.772 88.35 153.913 88.2918C154.054 88.2336 154.206 88.2038 154.358 88.2041Z" fill="#263238" stroke="#263238" stroke-miterlimit="10"/>
<path d="M160.466 90.5257C161.107 90.5257 161.627 90.006 161.627 89.3649C161.627 88.7238 161.107 88.2041 160.466 88.2041C159.825 88.2041 159.305 88.7238 159.305 89.3649C159.305 90.006 159.825 90.5257 160.466 90.5257Z" fill="#263238" stroke="#263238" stroke-miterlimit="10"/>
<path d="M154.358 90.5257C154.999 90.5257 155.519 90.006 155.519 89.3649C155.519 88.7238 154.999 88.2041 154.358 88.2041C153.717 88.2041 153.197 88.7238 153.197 89.3649C153.197 90.006 153.717 90.5257 154.358 90.5257Z" fill="#263238" stroke="#263238" stroke-miterlimit="10"/>
<path d="M149.53 85.9436V82.5205H193.274L199.261 85.9436H149.53Z" fill="#4B66E3" stroke="#263238" stroke-miterlimit="10"/>
<path d="M152.708 85.3936H185.758V83.072H152.708V85.3936Z" fill="#263238" stroke="#263238" stroke-miterlimit="10"/>
<path d="M174.733 85.0869H177.756V83.3754H174.733V85.0869Z" fill="white" stroke="#263238" stroke-miterlimit="10"/>
<path d="M169.875 85.0869H172.898V83.3754H169.875V85.0869Z" fill="white" stroke="#263238" stroke-miterlimit="10"/>
<path d="M165.018 85.0869H168.041V83.3754H165.018V85.0869Z" fill="white" stroke="#263238" stroke-miterlimit="10"/>
<path d="M160.16 85.0869H163.183V83.3754H160.16V85.0869Z" fill="white" stroke="#263238" stroke-miterlimit="10"/>
<path d="M155.302 85.0869H158.325V83.3754H155.302V85.0869Z" fill="white" stroke="#263238" stroke-miterlimit="10"/>
<path d="M199.261 82.8267L195.778 81.251H199.826C200.651 81.5168 201.45 81.8556 202.214 82.2636L204.548 83.5849L201.52 83.0909L199.261 82.8267Z" fill="#263238" stroke="#263238" stroke-miterlimit="10"/>
<path d="M199.826 81.2516H149.53V80.0908L195.467 80.5428C196.948 80.5578 198.417 80.7968 199.826 81.2516Z" fill="#CCCCCC" stroke="#263238" stroke-miterlimit="10"/>
<path d="M187.468 87.9413H186.534C186.297 87.9407 186.069 87.846 185.901 87.678C185.733 87.5101 185.638 87.2824 185.638 87.0448V82.8463C185.638 82.6083 185.732 82.38 185.9 82.2114C186.068 82.0429 186.296 81.9479 186.534 81.9473H187.468C187.706 81.9479 187.934 82.0429 188.102 82.2114C188.27 82.38 188.364 82.6083 188.364 82.8463V87.0448C188.364 87.2824 188.269 87.5101 188.101 87.678C187.933 87.846 187.705 87.9407 187.468 87.9413ZM186.534 82.1226C186.345 82.1226 186.163 82.1978 186.03 82.3317C185.896 82.4655 185.82 82.6471 185.82 82.8364V87.035C185.821 87.2241 185.897 87.4052 186.03 87.5389C186.164 87.6726 186.345 87.7481 186.534 87.7487H187.468C187.657 87.7481 187.838 87.6726 187.972 87.5389C188.105 87.4052 188.181 87.2241 188.182 87.035V82.8364C188.182 82.6471 188.106 82.4655 187.972 82.3317C187.839 82.1978 187.657 82.1226 187.468 82.1226H186.534Z" fill="white" stroke="#263238" stroke-miterlimit="10"/>
<path d="M186.378 85.3936H187.623V83.3782H186.378V85.3936Z" fill="white" stroke="#263238" stroke-miterlimit="10"/>
<path d="M151.901 87.9413H150.97C150.732 87.9413 150.503 87.847 150.335 87.6789C150.166 87.5109 150.071 87.2828 150.071 87.0448V82.8463C150.071 82.6078 150.166 82.3792 150.334 82.2106C150.503 82.042 150.731 81.9473 150.97 81.9473H151.901C152.139 81.9473 152.368 82.042 152.537 82.2106C152.705 82.3792 152.8 82.6078 152.8 82.8463V87.0448C152.799 87.2828 152.704 87.5109 152.536 87.6789C152.367 87.847 152.139 87.9413 151.901 87.9413ZM150.97 82.1226C150.876 82.1223 150.783 82.1405 150.696 82.1762C150.609 82.212 150.53 82.2645 150.463 82.3308C150.397 82.3971 150.344 82.4759 150.308 82.5627C150.272 82.6494 150.254 82.7424 150.254 82.8364V87.035C150.254 87.2245 150.33 87.406 150.464 87.5398C150.598 87.6736 150.78 87.7487 150.97 87.7487H151.901C152.09 87.7487 152.272 87.6736 152.406 87.5398C152.541 87.406 152.616 87.2245 152.617 87.035V82.8364C152.617 82.7424 152.599 82.6494 152.563 82.5627C152.527 82.4759 152.474 82.3971 152.407 82.3308C152.341 82.2645 152.262 82.212 152.175 82.1762C152.088 82.1405 151.995 82.1223 151.901 82.1226H150.97Z" fill="white" stroke="#263238" stroke-miterlimit="10"/>
<path d="M150.811 85.3936H152.056V83.3782H150.811V85.3936Z" fill="white" stroke="#263238" stroke-miterlimit="10"/>
<path d="M191.99 85.3936H193.234V83.3782H191.99V85.3936Z" fill="white" stroke="#263238" stroke-miterlimit="10"/>
<path d="M148.065 80.0781H95.4028V89.3644H148.065V80.0781Z" fill="white" stroke="#263238" stroke-miterlimit="10"/>
<path d="M148.065 87.208H95.4028V89.3641H148.065V87.208Z" fill="#4B66E3" stroke="#263238" stroke-miterlimit="10"/>
<path d="M148.065 82.5234H95.4028V85.944H148.065V82.5234Z" fill="#4B66E3" stroke="#263238" stroke-miterlimit="10"/>
<path d="M145.176 83.0713H98.8086V85.3929H145.176V83.0713Z" fill="#263238" stroke="#263238" stroke-miterlimit="10"/>
<path d="M104.916 83.3779H101.893V85.0895H104.916V83.3779Z" fill="white" stroke="#263238" stroke-miterlimit="10"/>
<path d="M109.776 83.3779H106.753V85.0895H109.776V83.3779Z" fill="white" stroke="#263238" stroke-miterlimit="10"/>
<path d="M114.635 83.3779H111.612V85.0895H114.635V83.3779Z" fill="white" stroke="#263238" stroke-miterlimit="10"/>
<path d="M119.493 83.3779H116.47V85.0895H119.493V83.3779Z" fill="white" stroke="#263238" stroke-miterlimit="10"/>
<path d="M124.351 83.3779H121.328V85.0895H124.351V83.3779Z" fill="white" stroke="#263238" stroke-miterlimit="10"/>
<path d="M129.125 83.3779H126.102V85.0895H129.125V83.3779Z" fill="white" stroke="#263238" stroke-miterlimit="10"/>
<path d="M133.901 83.3779H130.878V85.0895H133.901V83.3779Z" fill="white" stroke="#263238" stroke-miterlimit="10"/>
<path d="M138.675 83.3779H135.652V85.0895H138.675V83.3779Z" fill="white" stroke="#263238" stroke-miterlimit="10"/>
<path d="M143.452 83.3779H140.429V85.0895H143.452V83.3779Z" fill="white" stroke="#263238" stroke-miterlimit="10"/>
<path d="M98.0034 87.9413H97.0699C96.8321 87.9413 96.6041 87.8469 96.4359 87.6788C96.2678 87.5106 96.1733 87.2826 96.1733 87.0448V82.8463C96.173 82.7283 96.196 82.6115 96.2409 82.5024C96.2858 82.3934 96.3518 82.2942 96.4351 82.2107C96.5183 82.1272 96.6173 82.0609 96.7262 82.0157C96.8351 81.9705 96.9519 81.9473 97.0699 81.9473H98.0034C98.2414 81.9479 98.4695 82.0429 98.6375 82.2114C98.8056 82.38 98.8999 82.6083 98.8999 82.8463V87.0448C98.8993 87.2824 98.8046 87.5101 98.6366 87.678C98.4687 87.846 98.241 87.9407 98.0034 87.9413ZM97.0699 82.1226C96.8806 82.1226 96.699 82.1978 96.5652 82.3317C96.4313 82.4655 96.3561 82.6471 96.3561 82.8364V87.035C96.3561 87.2243 96.4313 87.4058 96.5652 87.5396C96.699 87.6735 96.8806 87.7487 97.0699 87.7487H98.0034C98.1925 87.7481 98.3737 87.6726 98.5074 87.5389C98.6411 87.4052 98.7165 87.2241 98.7172 87.035V82.8364C98.7172 82.6471 98.642 82.4655 98.5081 82.3317C98.3743 82.1978 98.1927 82.1226 98.0034 82.1226H97.0699Z" fill="white" stroke="#263238" stroke-miterlimit="10"/>
<path d="M98.1588 83.3779H96.9141V85.3932H98.1588V83.3779Z" fill="white" stroke="#263238" stroke-miterlimit="10"/>
<path d="M146.919 87.9413H145.981C145.743 87.9407 145.515 87.846 145.347 87.678C145.179 87.5101 145.085 87.2824 145.084 87.0448V82.8463C145.084 82.6083 145.178 82.38 145.346 82.2114C145.514 82.0429 145.743 81.9479 145.981 81.9473H146.919C147.037 81.9473 147.154 81.9705 147.263 82.0157C147.372 82.0609 147.471 82.1272 147.554 82.2107C147.637 82.2942 147.703 82.3934 147.748 82.5024C147.793 82.6115 147.816 82.7283 147.816 82.8463V87.0448C147.816 87.2826 147.721 87.5106 147.553 87.6788C147.385 87.8469 147.157 87.9413 146.919 87.9413ZM145.985 82.1226C145.796 82.1226 145.615 82.1978 145.481 82.3317C145.347 82.4655 145.272 82.6471 145.272 82.8364V87.035C145.272 87.2241 145.348 87.4052 145.481 87.5389C145.615 87.6726 145.796 87.7481 145.985 87.7487H146.919C147.108 87.7487 147.29 87.6735 147.424 87.5396C147.558 87.4058 147.633 87.2243 147.633 87.035V82.8364C147.633 82.6471 147.558 82.4655 147.424 82.3317C147.29 82.1978 147.108 82.1226 146.919 82.1226H145.985Z" fill="white" stroke="#263238" stroke-miterlimit="10"/>
<path d="M147.07 83.3779H145.825V85.3932H147.07V83.3779Z" fill="white" stroke="#263238" stroke-miterlimit="10"/>
<path d="M106.981 88.2041H100.199C100.046 88.2038 99.8952 88.2336 99.7543 88.2918C99.6133 88.35 99.4852 88.4355 99.3773 88.5434C99.2695 88.6512 99.184 88.7793 99.1258 88.9203C99.0676 89.0613 99.0378 89.2124 99.0381 89.3649H108.144C108.144 89.2122 108.114 89.0611 108.055 88.9201C107.997 88.7791 107.911 88.651 107.803 88.5432C107.695 88.4354 107.567 88.3499 107.426 88.2918C107.285 88.2336 107.133 88.2038 106.981 88.2041Z" fill="#263238" stroke="#263238" stroke-miterlimit="10"/>
<path d="M100.871 90.5257C101.512 90.5257 102.032 90.006 102.032 89.3649C102.032 88.7238 101.512 88.2041 100.871 88.2041C100.23 88.2041 99.71 88.7238 99.71 89.3649C99.71 90.006 100.23 90.5257 100.871 90.5257Z" fill="#263238" stroke="#263238" stroke-miterlimit="10"/>
<path d="M106.981 90.5257C107.622 90.5257 108.142 90.006 108.142 89.3649C108.142 88.7238 107.622 88.2041 106.981 88.2041C106.34 88.2041 105.82 88.7238 105.82 89.3649C105.82 90.006 106.34 90.5257 106.981 90.5257Z" fill="#263238" stroke="#263238" stroke-miterlimit="10"/>
<path d="M143.573 88.2041H136.793C136.641 88.2038 136.489 88.2336 136.349 88.2918C136.208 88.35 136.079 88.4355 135.972 88.5434C135.864 88.6512 135.778 88.7793 135.72 88.9203C135.662 89.0613 135.632 89.2124 135.632 89.3649H144.733C144.734 89.2124 144.704 89.0613 144.646 88.9203C144.587 88.7793 144.502 88.6512 144.394 88.5434C144.286 88.4355 144.158 88.35 144.017 88.2918C143.876 88.2336 143.725 88.2038 143.573 88.2041Z" fill="#263238" stroke="#263238" stroke-miterlimit="10"/>
<path d="M137.465 90.5257C138.106 90.5257 138.626 90.006 138.626 89.3649C138.626 88.7238 138.106 88.2041 137.465 88.2041C136.824 88.2041 136.304 88.7238 136.304 89.3649C136.304 90.006 136.824 90.5257 137.465 90.5257Z" fill="#263238" stroke="#263238" stroke-miterlimit="10"/>
<path d="M143.573 90.5257C144.214 90.5257 144.734 90.006 144.734 89.3649C144.734 88.7238 144.214 88.2041 143.573 88.2041C142.932 88.2041 142.412 88.7238 142.412 89.3649C142.412 90.006 142.932 90.5257 143.573 90.5257Z" fill="#263238" stroke="#263238" stroke-miterlimit="10"/>
<path d="M148.065 80.0781H95.4028V81.2389H148.065V80.0781Z" fill="#CCCCCC" stroke="#263238" stroke-miterlimit="10"/>
<path d="M43.3335 119.886L44.5264 116.816C46.4357 111.905 49.7841 107.686 54.1328 104.711C58.4815 101.736 63.6276 100.144 68.8966 100.144C74.1657 100.144 79.3118 101.736 83.6605 104.711C88.0092 107.686 91.3576 111.905 93.2669 116.816L94.4598 119.889V93.3018H43.336L43.3335 119.886ZM53.2668 103.803C52.3985 104.409 51.5656 105.065 50.7724 105.767V94.5366H54.3955V103.062C54.0152 103.302 53.6373 103.546 53.2668 103.803ZM59.256 100.654C58.0077 101.124 56.7959 101.685 55.6304 102.334V94.5366H59.256V100.654ZM60.4908 94.5366H64.114V99.3255C62.8868 99.5393 61.6761 99.8389 60.4908 100.222V94.5366ZM65.3488 99.1353V94.5366H68.972V98.9056H68.8979C67.7112 98.9062 66.5257 98.9829 65.3488 99.1353ZM83.5509 103.156C82.393 102.419 81.181 101.771 79.9253 101.217V94.549H83.5509V103.156ZM78.6904 100.711C77.51 100.257 76.2994 99.8869 75.0673 99.6021V94.5366H78.6904V100.711ZM73.8324 99.3502C72.6341 99.1341 71.423 98.9963 70.2068 98.9377V94.5366H73.8324V99.3502ZM84.7858 103.991V94.5366H88.4089V107.078C87.2926 105.946 86.0804 104.913 84.7858 103.991ZM93.2249 113.719C92.2431 111.818 91.0411 110.039 89.6438 108.419V94.5366H93.2249V113.719ZM44.5708 94.5366H49.5375V106.937C47.5391 108.931 45.8627 111.223 44.5684 113.732L44.5708 94.5366Z" fill="#263238"/>
<path d="M27.9395 93.3018V102.516C29.3462 103.163 30.6926 103.933 31.9627 104.818C36.2371 107.787 39.5268 111.965 41.4095 116.816L42.6024 119.889V93.3018H27.9395ZM31.6935 103.156C30.5355 102.419 29.3236 101.771 28.0679 101.217V94.549H31.6935V103.156ZM36.5515 107.078C35.4352 105.946 34.223 104.913 32.9283 103.991V94.5366H36.5515V107.078ZM41.3675 113.719C40.3857 111.818 39.1837 110.039 37.7863 108.419V94.5366H41.3675V113.719Z" fill="#263238"/>
<path d="M95.3145 119.886L96.5073 116.816C98.4166 111.905 101.765 107.686 106.114 104.711C110.462 101.736 115.609 100.144 120.878 100.144C126.147 100.144 131.293 101.736 135.641 104.711C139.99 107.686 143.339 111.905 145.248 116.816L146.441 119.889V93.3018H95.3169L95.3145 119.886ZM105.248 103.803C104.379 104.41 103.545 105.066 102.751 105.767V94.5366H106.376V103.062C105.996 103.302 105.618 103.546 105.248 103.803ZM111.234 100.654C109.987 101.124 108.776 101.686 107.611 102.334V94.5366H111.234V100.654ZM112.469 94.5366H116.095V99.3255C114.867 99.5396 113.656 99.8392 112.469 100.222V94.5366ZM117.33 99.1353V94.5366H120.953V98.9056H120.876C119.69 98.9063 118.506 98.983 117.33 99.1353ZM135.532 103.156C134.374 102.419 133.162 101.771 131.906 101.217V94.549H135.532V103.156ZM130.671 100.711C129.491 100.258 128.28 99.8872 127.048 99.6021V94.5366H130.671V100.711ZM125.813 99.3502C124.615 99.1344 123.404 98.9966 122.188 98.9377V94.5366H125.813V99.3502ZM136.767 103.991V94.5366H140.39V107.078C139.273 105.947 138.061 104.914 136.767 103.991ZM145.206 113.719C144.224 111.818 143.022 110.039 141.625 108.419V94.5366H145.206V113.719ZM96.5518 94.5366H101.518V106.937C99.5216 108.932 97.8461 111.224 96.5518 113.732V94.5366Z" fill="#263238"/>
<path d="M213 101.188C212.21 101.533 211.434 101.911 210.676 102.334V94.5366H213V93.3018H147.305V119.886L148.488 116.816C150.396 111.905 153.744 107.685 158.093 104.71C162.442 101.735 167.588 100.142 172.857 100.142C178.126 100.142 183.272 101.735 187.62 104.71C191.969 107.685 195.317 111.905 197.226 116.816L198.379 119.78V119.886L198.399 119.832L198.419 119.886V119.78L199.572 116.816C202.03 110.498 206.844 105.38 213 102.539V101.188ZM153.496 106.937C151.499 108.932 149.824 111.224 148.53 113.732V94.5366H153.496V106.937ZM158.357 103.075C157.976 103.322 157.599 103.568 157.226 103.815C156.358 104.423 155.525 105.078 154.731 105.779V94.5366H158.357V103.075ZM163.22 100.654C161.972 101.124 160.761 101.685 159.597 102.334V94.5366H163.22V100.654ZM168.08 99.3255C166.852 99.5396 165.641 99.8392 164.455 100.222V94.5416H168.08V99.3255ZM172.938 98.9056H172.852C171.666 98.907 170.481 98.9846 169.305 99.1378V94.5366H172.928L172.938 98.9056ZM177.799 99.3502C176.6 99.1344 175.389 98.9966 174.173 98.9377V94.5366H177.791L177.799 99.3502ZM182.657 100.711C181.474 100.257 180.261 99.8869 179.026 99.6021V94.5366H182.649L182.657 100.711ZM187.517 103.156C186.359 102.419 185.147 101.771 183.892 101.217V94.549H187.517V103.156ZM192.363 107.078C191.246 105.947 190.034 104.914 188.74 103.991V94.5366H192.363V107.078ZM197.176 113.719C196.195 111.818 194.994 110.039 193.598 108.419V94.5366H197.176V113.719ZM204.586 106.925C202.589 108.919 200.913 111.211 199.619 113.719V94.5366H204.586V106.925ZM209.446 103.062C209.063 103.309 208.685 103.556 208.315 103.803C207.447 104.411 206.615 105.066 205.82 105.767V94.5366H209.446V103.062Z" fill="#263238"/>
<path d="M46.7542 103.642H40.4267L39.0708 94.7832H48.1101L46.7542 103.642Z" fill="white" stroke="#263238" stroke-miterlimit="10"/>
<path d="M39.6759 98.7397H47.505L48.1101 94.7832H39.0708L39.6759 98.7397Z" fill="#263238" stroke="#263238" stroke-miterlimit="10"/>
<path d="M46.6624 103.643H40.4263V142.176H46.6624V103.643Z" fill="white" stroke="#263238" stroke-miterlimit="10"/>
<path d="M48.1027 103.643H38.9868V108.103H48.1027V103.643Z" fill="white" stroke="#263238" stroke-miterlimit="10"/>
<path d="M98.6311 103.642H92.3061L90.9502 94.7832H99.987L98.6311 103.642Z" fill="white" stroke="#263238" stroke-miterlimit="10"/>
<path d="M91.5553 98.7397H99.3819L99.987 94.7832H90.9502L91.5553 98.7397Z" fill="#263238" stroke="#263238" stroke-miterlimit="10"/>
<path d="M98.5423 103.643H92.3062V142.176H98.5423V103.643Z" fill="white" stroke="#263238" stroke-miterlimit="10"/>
<path d="M99.9821 103.643H90.8662V108.103H99.9821V103.643Z" fill="white" stroke="#263238" stroke-miterlimit="10"/>
<path d="M150.511 103.642H144.183L142.827 94.7832H151.866L150.511 103.642Z" fill="white" stroke="#263238" stroke-miterlimit="10"/>
<path d="M143.432 98.7397H151.259L151.866 94.7832H142.827L143.432 98.7397Z" fill="#263238" stroke="#263238" stroke-miterlimit="10"/>
<path d="M150.419 103.643H144.183V142.176H150.419V103.643Z" fill="white" stroke="#263238" stroke-miterlimit="10"/>
<path d="M151.859 103.643H142.743V108.103H151.859V103.643Z" fill="white" stroke="#263238" stroke-miterlimit="10"/>
<path d="M202.387 103.642H196.062L194.707 94.7832H203.743L202.387 103.642Z" fill="white" stroke="#263238" stroke-miterlimit="10"/>
<path d="M195.312 98.7397H203.138L203.743 94.7832H194.707L195.312 98.7397Z" fill="#263238" stroke="#263238" stroke-miterlimit="10"/>
<path d="M202.299 103.643H196.062V142.176H202.299V103.643Z" fill="white" stroke="#263238" stroke-miterlimit="10"/>
<path d="M203.739 103.643H194.623V108.103H203.739V103.643Z" fill="white" stroke="#263238" stroke-miterlimit="10"/>
<path d="M213 90.627H28.1099V94.7835H213V90.627Z" fill="white" stroke="#263238" stroke-miterlimit="10"/>
<path d="M213 90.627H28.1099V91.3852H213V90.627Z" fill="#263238" stroke="#263238" stroke-miterlimit="10"/>
</svg>
