<svg width="161" height="160" viewBox="0 0 161 160" fill="none" xmlns="http://www.w3.org/2000/svg">
<path d="M138.248 100.386C136.944 98.6782 134.087 98.397 130.422 99.314C134.523 93.1108 136.827 85.4259 137.643 78.4529C139.407 63.414 134.82 45.5796 124.03 34.4239C123.476 33.8547 122.909 33.3029 122.328 32.7687C114.564 25.6749 103.343 22.2593 93.0559 22.0124C88.5475 21.9195 84.0434 22.3497 79.6327 23.2945C74.6663 24.3057 69.8902 26.1022 65.4817 28.6175C62.8727 25.2387 52.249 29.1062 41.7531 37.2667C31.2573 45.4272 24.8418 54.8068 27.4456 58.204C29.2718 60.5975 35.0898 59.3837 42.0375 55.6082C40.2112 58.7058 38.5337 61.3568 36.7622 63.1618C28.7109 71.3617 16.5609 84.9818 22.6477 105.788C27.2708 121.607 39.8669 134.712 58.5914 137.468C60.715 137.78 62.856 137.955 65.0016 137.994C69.387 138.057 73.7662 137.641 78.0621 136.751C88.2371 134.696 94.7387 131.72 99.5209 128.343C99.6104 128.934 99.8444 129.493 100.202 129.97C103.176 133.85 114.102 130.372 124.609 122.206C135.115 114.04 141.22 104.264 138.248 100.386Z" fill="#4B66E3"/>
<path d="M138.248 100.386C136.944 98.6782 134.087 98.397 130.422 99.314C134.523 93.1108 136.827 85.4259 137.643 78.4529C139.407 63.414 134.82 45.5796 124.03 34.4239C123.476 33.8547 122.909 33.3029 122.328 32.7687C114.564 25.6749 103.343 22.2593 93.0559 22.0124C88.5475 21.9195 84.0434 22.3497 79.6327 23.2945C74.6663 24.3057 69.8902 26.1022 65.4817 28.6175C62.8727 25.2387 52.249 29.1062 41.7531 37.2667C31.2573 45.4272 24.8418 54.8068 27.4456 58.204C29.2718 60.5975 35.0898 59.3837 42.0375 55.6082C40.2112 58.7058 38.5337 61.3568 36.7622 63.1618C28.7109 71.3617 16.5609 84.9818 22.6477 105.788C27.2708 121.607 39.8669 134.712 58.5914 137.468C60.715 137.78 62.856 137.955 65.0016 137.994C69.387 138.057 73.7662 137.641 78.0621 136.751C88.2371 134.696 94.7387 131.72 99.5209 128.343C99.6104 128.934 99.8444 129.493 100.202 129.97C103.176 133.85 114.102 130.372 124.609 122.206C135.115 114.04 141.22 104.264 138.248 100.386Z" fill="white" fill-opacity="0.7"/>
<path d="M111.61 104.841C128.801 87.6506 128.801 59.7791 111.61 42.5886C94.4197 25.398 66.5483 25.398 49.3577 42.5886C32.1672 59.7791 32.1672 87.6505 49.3577 104.841C66.5483 122.032 94.4197 122.032 111.61 104.841Z" fill="#263238"/>
<path d="M80.5 117.895C56.1384 117.895 36.3208 98.074 36.3208 73.7156C36.3208 49.3572 56.1224 29.5332 80.5 29.5332C104.878 29.5332 124.66 49.354 124.66 73.7156C124.66 98.0772 104.846 117.895 80.5 117.895ZM80.5 29.8532C56.3144 29.8532 36.6408 49.53 36.6408 73.7156C36.6408 97.9012 56.2984 117.575 80.5 117.575C104.702 117.575 124.34 97.898 124.34 73.7156C124.34 49.5332 104.666 29.8532 80.5 29.8532Z" fill="#263238"/>
<path d="M111.611 103.528C128.802 86.3371 128.802 58.4657 111.611 41.2751C94.4207 24.0845 66.5493 24.0845 49.3587 41.2751C32.1681 58.4657 32.1681 86.3371 49.3587 103.528C66.5493 120.718 94.4207 120.718 111.611 103.528Z" fill="white"/>
<path d="M80.5 116.58C56.1384 116.58 36.3208 96.7625 36.3208 72.4009C36.3208 48.0393 56.1224 28.2217 80.5 28.2217C104.878 28.2217 124.66 48.0393 124.66 72.4009C124.66 96.7625 104.846 116.58 80.5 116.58ZM80.5 28.5417C56.3144 28.5417 36.6408 48.2153 36.6408 72.4009C36.6408 96.5865 56.2984 116.26 80.5 116.26C104.702 116.26 124.34 96.5833 124.34 72.4009C124.34 48.2185 104.666 28.5417 80.5 28.5417Z" fill="#263238"/>
<path d="M103.175 96.4056C115.707 83.8739 115.707 63.5558 103.175 51.0241C90.6431 38.4923 70.3251 38.4923 57.7933 51.0241C45.2615 63.5558 45.2615 83.8738 57.7933 96.4056C70.3251 108.937 90.6431 108.937 103.175 96.4056Z" fill="white"/>
<path d="M80.4998 105.962C74.1205 105.966 67.8833 104.078 62.5773 100.536C57.2713 96.9947 53.1348 91.9592 50.691 86.0665C48.2473 80.1738 47.6061 73.6887 48.8485 67.4315C50.091 61.1744 53.1613 55.4262 57.671 50.9143C62.1807 46.4023 67.9273 43.3291 74.1839 42.0836C80.4404 40.838 86.9258 41.476 92.8197 43.9168C98.7136 46.3577 103.751 50.4917 107.295 55.7959C110.839 61.1002 112.731 67.3364 112.73 73.7157C112.72 82.2621 109.322 90.4558 103.28 96.5005C97.2381 102.545 89.0462 105.948 80.4998 105.962ZM80.4998 41.7861C74.1846 41.7855 68.011 43.6576 62.7598 47.1657C57.5086 50.6737 53.4156 55.6602 50.9984 61.4946C48.5812 67.3289 47.9485 73.7489 49.1801 79.9429C50.4117 86.1368 53.4525 91.8265 57.9178 96.2922C62.3831 100.758 68.0724 103.799 74.2662 105.032C80.4601 106.264 86.8802 105.632 92.7148 103.215C98.5493 100.799 103.536 96.706 107.045 91.4552C110.553 86.2043 112.426 80.0309 112.426 73.7157C112.417 65.2509 109.05 57.1353 103.065 51.1495C97.0798 45.1636 88.9646 41.7963 80.4998 41.7861Z" fill="#263238"/>
<path d="M93.2679 47.299C83.7511 44.0062 70.5799 47.6798 65.4599 50.595C65.4599 50.595 51.1815 57.9166 49.7191 72.1918C48.2567 86.467 58.8583 100.013 78.2599 103.68C97.6615 107.347 110.839 88.3198 110.839 74.7614C110.839 61.203 102.785 50.595 93.2679 47.299ZM82.4391 80.7486C77.5815 81.2094 74.1191 78.1886 75.0343 74.0286C75.3131 72.8768 75.899 71.8222 76.7296 70.9769C77.5602 70.1317 78.6044 69.5275 79.7511 69.2286C82.1735 68.5886 84.8711 69.3342 86.1511 72.163C87.2999 74.7326 87.2999 80.2846 82.4391 80.7486Z" fill="#263238"/>
<path d="M92.8837 46.1537C83.3669 42.8577 70.1893 46.5185 65.0629 49.4465C65.0629 49.4465 50.7877 56.7681 49.3221 71.0465C47.8565 85.3249 58.4741 98.8801 77.8757 102.528C97.2773 106.176 110.455 87.1681 110.455 73.6097C110.455 60.0513 102.404 49.4465 92.8837 46.1537ZM82.0581 79.6001C77.1973 80.0641 73.7381 77.0561 74.6533 72.8801C75.1941 70.4449 77.1749 68.6913 79.3669 68.0961C81.7925 67.4401 84.4869 68.2049 85.7669 71.0305C86.9157 73.6001 86.9157 79.1393 82.0581 79.6001Z" fill="#4B66E3"/>
<path d="M82.7205 103.152C81.0849 103.148 79.4534 102.991 77.8469 102.685C68.5189 100.925 60.8453 96.8414 55.6549 90.8734C50.7364 85.219 48.4293 78.1726 49.1621 71.0334C50.6181 56.835 64.8421 49.3822 64.9893 49.3086C69.9172 46.4926 83.1844 42.627 92.938 46.0062C103.348 49.5998 110.615 60.9566 110.615 73.5998C110.615 81.8462 105.92 91.2798 98.9317 97.0718C95.3957 100.013 89.9269 103.152 82.7205 103.152ZM84.2597 45.0014C76.5285 45.0014 68.6789 47.5614 65.1428 49.587C64.9956 49.6638 50.9189 57.0398 49.4821 71.0622C47.9461 86.0478 59.6324 98.9214 77.9044 102.371C87.4309 104.166 94.4869 100.352 98.7268 96.835C105.648 91.1006 110.295 81.7662 110.295 73.6094C110.295 61.091 103.114 49.8622 92.8325 46.3038C90.0663 45.3994 87.1696 44.9594 84.2597 45.0014ZM81.0757 79.8078C78.8101 79.8078 76.8613 79.043 75.6357 77.6446C75.0724 76.996 74.6753 76.2202 74.4785 75.384C74.2817 74.5478 74.2912 73.6763 74.5061 72.8446C74.7939 71.6675 75.3946 70.5902 76.2446 69.7266C77.0947 68.863 78.1625 68.2453 79.3349 67.939C82.1509 67.1774 84.7333 68.3646 85.9141 70.9598C86.6917 72.6718 86.9061 75.5486 85.7701 77.5102C85.0021 78.835 83.7637 79.587 82.0805 79.7502C81.7349 79.7918 81.4021 79.8078 81.0757 79.8078ZM81.0021 68.0478C80.4616 68.0481 79.9235 68.1202 79.4021 68.2622C78.2868 68.5532 77.2708 69.1401 76.4614 69.9607C75.652 70.7814 75.0792 71.8054 74.8036 72.9246C74.6015 73.7055 74.5921 74.5238 74.776 75.3091C74.9599 76.0945 75.3318 76.8235 75.8596 77.4334C77.2036 78.9566 79.4565 79.6734 82.0357 79.443C83.6069 79.2926 84.7652 78.5918 85.4756 77.363C86.5604 75.4942 86.3524 72.7454 85.6068 71.107C84.586 68.8446 82.7397 68.0478 81.0021 68.0478Z" fill="#263238"/>
<path d="M109.13 73.1236C106.817 68.9636 106.353 67.5684 106.353 64.33C106.353 61.0916 104.503 57.61 102.881 56.4644C101.258 55.3188 100.106 54.3812 97.559 51.834C95.0118 49.2868 91.543 48.3652 88.7686 48.826C85.9942 49.2868 84.6086 49.29 81.1302 48.826C77.6518 48.362 77.6614 47.4404 74.4102 48.5956C71.159 49.7508 64.935 51.8404 64.935 51.8404C64.935 51.8404 58.215 54.618 57.0662 57.626C55.9174 60.634 56.6054 66.1892 55.6806 68.506C54.7558 70.8228 52.2086 69.8916 53.3638 75.226C54.519 80.5604 56.3718 83.546 56.3718 86.106C56.3718 88.666 60.5318 93.2804 64.2406 93.2804C67.9494 93.2804 70.487 93.9748 73.959 96.7492C77.431 99.5236 80.2054 100.452 84.6022 98.138C88.999 95.8244 94.3206 96.0548 96.6342 95.8244C98.9478 95.594 101.956 91.8916 102.881 88.65C103.805 85.4084 107.511 85.1812 108.666 81.93C109.037 80.89 109.453 80.0452 109.777 79.2356C109.994 78.2967 110.163 77.3471 110.282 76.3908C110.13 75.2334 109.737 74.1206 109.13 73.1236ZM87.1462 72.89C85.527 74.0484 87.3798 77.2868 85.0662 79.834C82.7526 82.3812 82.7526 79.6004 82.0582 79.6004C81.0094 79.7098 79.9496 79.6372 78.9254 79.386C77.895 79.226 76.871 78.9412 76.2726 78.4452C74.8838 77.2868 73.959 76.5924 72.1126 76.362C70.2662 76.1316 71.8822 74.2788 73.0406 72.4292C74.199 70.5796 74.4294 70.5764 74.6598 68.4964C74.8902 66.4164 78.1286 66.1828 78.1286 66.1828C78.1286 66.1828 79.5174 65.4884 82.2886 66.1828C85.0598 66.8772 84.3718 68.2628 86.6854 68.7428C88.999 69.2228 88.7686 71.7348 87.1462 72.89Z" fill="#263238"/>
<path d="M80.0551 99.5843C77.8407 99.5843 75.9527 98.5219 73.8599 96.8483C70.2471 93.9683 67.6935 93.4147 64.2407 93.4147C60.3399 93.4147 56.212 88.6403 56.212 86.0803C56.212 84.7619 55.7 83.2931 55.0472 81.4339C54.3011 79.4109 53.6876 77.3414 53.2103 75.2387C52.4135 71.5779 53.3415 70.7843 54.3239 69.9459C54.8513 69.5566 55.2672 69.0358 55.5303 68.4355C55.9591 67.3667 56.0327 65.5555 56.1127 63.6355C56.2055 61.4371 56.2983 59.1555 56.9191 57.5555C58.0871 54.5187 64.5991 51.7955 64.8743 51.6803C64.9479 51.6547 71.1655 49.5811 74.3687 48.4387C76.6087 47.6323 77.364 47.8211 78.7015 48.1667C79.507 48.3848 80.3258 48.5505 81.1527 48.6627C84.6215 49.1235 85.9527 49.1235 88.7399 48.6627C91.8503 48.1443 95.2744 49.3027 97.6744 51.7155C100.142 54.1827 101.303 55.1331 102.977 56.3267C104.65 57.5203 106.513 61.0499 106.513 64.3267C106.513 67.4851 106.951 68.8675 109.271 73.0435C109.885 74.0566 110.283 75.185 110.442 76.3587C110.444 76.3704 110.444 76.3822 110.442 76.3939C110.324 77.3559 110.154 78.3109 109.934 79.2547C109.802 79.5747 109.668 79.8947 109.524 80.2339C109.29 80.7747 109.047 81.3315 108.82 81.9651C108.234 83.6035 107.022 84.4931 105.847 85.3507C104.673 86.2083 103.495 87.0723 103.041 88.6659C102.135 91.8339 99.1496 95.7059 96.6408 95.9555C96.1959 96.0003 95.6423 96.0259 95.0055 96.0579C92.2919 96.1923 88.1927 96.3971 84.6663 98.2499C82.9287 99.1747 81.4279 99.5811 80.0551 99.5843ZM76.9415 48.1955C76.0936 48.2357 75.259 48.4219 74.4743 48.7459C71.2743 49.8915 65.0471 51.9651 64.9864 51.9875C64.9255 52.0099 58.3368 54.7683 57.2168 57.6771C56.6152 59.2387 56.5223 61.4851 56.4327 63.6611C56.3527 65.6003 56.2759 67.4339 55.8279 68.5539C55.5477 69.2037 55.1006 69.7678 54.532 70.1891C53.572 70.9987 52.7655 71.6963 53.5207 75.1715C53.996 77.2611 54.6063 79.3177 55.3479 81.3283C56.0103 83.2163 56.532 84.7075 56.532 86.0803C56.532 88.5187 60.6151 93.0947 64.2407 93.0947C67.7607 93.0947 70.3751 93.6515 74.0583 96.5987C77.3447 99.2291 80.1127 100.295 84.5287 97.9715C88.1159 96.0835 92.2567 95.8787 94.9991 95.7315C95.6391 95.6995 96.1799 95.6739 96.6183 95.6291C98.7463 95.4179 101.77 91.9203 102.727 88.5731C103.214 86.8707 104.455 85.9651 105.655 85.0883C106.791 84.2563 107.966 83.3987 108.516 81.8531C108.746 81.2131 108.99 80.6435 109.226 80.1027C109.367 79.7827 109.505 79.4627 109.626 79.1427C109.84 78.2229 110.006 77.2926 110.122 76.3555C109.963 75.2318 109.577 74.152 108.99 73.1811C106.638 68.9475 106.193 67.5363 106.193 64.3107C106.193 61.1843 104.401 57.7251 102.788 56.5731C101.102 55.3699 99.9303 54.4131 97.4471 51.9299C95.1175 49.6003 91.8023 48.4643 88.8071 48.9667C86.0295 49.4275 84.5928 49.4275 81.1271 48.9667C80.2873 48.8532 79.4557 48.6854 78.6375 48.4643C78.0867 48.2998 77.5163 48.2094 76.9415 48.1955ZM83.4791 81.0659H83.3799C82.8999 81.0147 82.6375 80.5731 82.4199 80.2147C82.2919 79.9939 82.1576 79.7635 82.0424 79.7635C80.9807 79.8755 79.9076 79.8019 78.8711 79.5459C77.6103 79.3475 76.6919 79.0211 76.1543 78.5859C74.8103 77.4659 73.8919 76.7683 72.0711 76.5411C71.5879 76.4803 71.2903 76.3107 71.1591 76.0259C70.8743 75.3859 71.5336 74.4035 72.3015 73.2515C72.4967 72.9603 72.6951 72.6627 72.8807 72.3619C73.0663 72.0611 73.2519 71.7827 73.3991 71.5555C74.1191 70.4483 74.2919 70.1859 74.4775 68.4963C74.7111 66.3939 77.7095 66.0739 78.0679 66.0419C78.2919 65.9427 79.6967 65.4019 82.3111 66.0419C83.2817 66.2304 84.1601 66.7412 84.804 67.4915C85.2767 68.0816 85.9541 68.4723 86.7015 68.5859C87.6615 68.7811 88.3015 69.3443 88.4903 70.1859C88.7048 71.1875 88.1703 72.3619 87.2263 73.0467C86.5511 73.5299 86.5351 74.4163 86.5159 75.5395C86.4935 76.8771 86.4647 78.5379 85.1687 79.9651C84.4871 80.7075 83.9431 81.0659 83.4791 81.0659ZM82.0424 79.4435C82.3624 79.4435 82.5288 79.7379 82.7144 80.0515C82.9 80.3651 83.0984 80.7107 83.4215 80.7459C83.7447 80.7811 84.2983 80.4259 84.9479 79.7251C86.1639 78.3875 86.1895 76.8451 86.2279 75.5107C86.2503 74.3427 86.2663 73.3347 87.0695 72.7619C87.9303 72.1475 88.3975 71.1075 88.2087 70.2275C88.0583 69.5299 87.5111 69.0531 86.6695 68.8835C85.8574 68.7569 85.121 68.3339 84.6024 67.6963C84.0022 66.9891 83.1777 66.5091 82.2663 66.3363C79.5912 65.6675 78.2248 66.3171 78.212 66.3363C78.1931 66.346 78.1723 66.3515 78.1511 66.3523C78.1192 66.3523 75.0407 66.6019 74.8295 68.5251C74.6311 70.2915 74.4359 70.5923 73.6999 71.7251C73.5527 71.9523 73.3799 72.2147 73.1847 72.5283C72.9895 72.8419 72.7975 73.1331 72.5991 73.4275C71.9591 74.4099 71.2712 75.4243 71.4824 75.8915C71.5624 76.0643 71.7863 76.1763 72.1447 76.2115C74.0647 76.4483 75.0023 77.1715 76.3911 78.3267C76.8839 78.7395 77.7512 79.0435 78.9511 79.2355C79.9616 79.4841 81.0073 79.5566 82.0424 79.4499V79.4435Z" fill="#263238"/>
<path d="M74.8997 77.3855C74.0683 76.8167 73.1081 76.4647 72.1061 76.3615C71.5813 76.2975 71.3413 76.0959 71.2869 75.8047C69.9514 76.5983 68.5647 77.4186 67.1269 78.2655C63.3939 80.4325 59.789 82.813 56.3301 85.3951C56.3591 85.6222 56.3741 85.8509 56.3749 86.0799C56.3749 87.0943 57.0405 88.4415 58.0709 89.6927C58.7429 89.1807 59.4821 88.6367 60.3109 88.0543C63.0693 86.1023 68.9797 81.6447 74.8997 77.3855Z" fill="white"/>
<path d="M58.0677 89.8533C58.0444 89.8533 58.0214 89.8481 58.0004 89.8382C57.9794 89.8282 57.9608 89.8137 57.9461 89.7957C56.8453 88.4613 56.2117 87.1045 56.2117 86.0805C56.2104 85.8579 56.1954 85.6356 56.1669 85.4149C56.164 85.3869 56.1683 85.3587 56.1795 85.3329C56.1908 85.3071 56.2084 85.2846 56.2309 85.2677C59.6946 82.6831 63.3037 80.2995 67.0405 78.1285C68.4869 77.2805 69.8693 76.4613 71.2005 75.6677C71.223 75.6551 71.2483 75.6484 71.2741 75.6484C71.2999 75.6484 71.3252 75.6551 71.3477 75.6677C71.3713 75.678 71.3921 75.6939 71.4082 75.7139C71.4244 75.734 71.4354 75.7576 71.4405 75.7829C71.4693 75.9365 71.5717 76.1445 72.1253 76.2149C73.1501 76.3203 74.1324 76.68 74.9829 77.2613C75.0047 77.2755 75.0226 77.295 75.035 77.3179C75.0473 77.3408 75.0538 77.3664 75.0538 77.3925C75.0538 77.4185 75.0473 77.4441 75.035 77.4671C75.0226 77.49 75.0047 77.5094 74.9829 77.5237C71.8053 79.8053 68.6949 82.0997 65.9525 84.1253C63.6549 85.8213 61.6709 87.2869 60.3845 88.1957C59.6453 88.7173 58.9189 89.2517 58.1445 89.8309C58.1211 89.8445 58.0947 89.8522 58.0677 89.8533ZM56.4997 85.4693C56.5227 85.6722 56.5344 85.8763 56.5349 86.0805C56.5349 86.9893 57.1173 88.2501 58.0997 89.4725C58.8197 88.9253 59.5109 88.4197 60.2117 87.9237C61.4917 87.0181 63.4789 85.5525 65.7765 83.8597C68.4645 81.8725 71.5045 79.6293 74.6181 77.3925C73.8542 76.9106 72.9888 76.6126 72.0901 76.5221C71.9144 76.5206 71.7417 76.4761 71.5872 76.3924C71.4326 76.3087 71.301 76.1884 71.2037 76.0421C69.9237 76.8069 68.5925 77.5909 67.2069 78.4037C63.5068 80.554 59.9319 82.913 56.4997 85.4693Z" fill="#263238"/>
<path d="M63.8599 67.29C71.5719 61.3572 76.3175 57.5012 84.0199 54.2404C87.6103 52.7204 91.5879 51.2644 95.0215 49.962C93.7975 49.3044 92.4555 48.8955 91.0727 48.7588C90.1127 49.0788 89.1271 49.434 88.1703 49.7892C80.1703 52.7556 73.3383 55.4244 62.9575 64.6212C58.9991 68.1252 55.6903 71.242 53.1079 73.7572C53.1645 74.2442 53.2457 74.728 53.3511 75.2068C53.4375 75.5972 53.5271 75.9716 53.6199 76.3396C55.8599 73.8756 58.9575 71.0628 63.8599 67.29Z" fill="white"/>
<path d="M53.6196 76.4998H53.5812C53.5529 76.4931 53.5269 76.4789 53.506 76.4586C53.4852 76.4383 53.4702 76.4127 53.4628 76.3846C53.37 76.0166 53.2804 75.639 53.1972 75.2454C53.0877 74.7629 53.0054 74.2747 52.9508 73.783C52.9479 73.7584 52.9507 73.7334 52.959 73.7101C52.9674 73.6868 52.981 73.6657 52.9988 73.6486C56.0996 70.6278 59.4148 67.5686 62.8516 64.5094C73.5332 55.047 80.6148 52.423 88.1156 49.6454C89.0468 49.2998 90.0356 48.9542 91.018 48.615C91.04 48.6088 91.0633 48.6088 91.0852 48.615C92.4901 48.7551 93.8536 49.1705 95.098 49.8374C95.1253 49.8518 95.1477 49.8739 95.1627 49.9008C95.1777 49.9277 95.1846 49.9584 95.1826 49.9892C95.1806 50.0199 95.1697 50.0494 95.1513 50.0742C95.1329 50.0989 95.1077 50.1178 95.0788 50.1286L93.0468 50.8966C90.0644 52.0166 86.9668 53.175 84.0868 54.4166C76.9188 57.447 72.3716 60.9542 65.4884 66.2566L63.9524 67.4406C59.3476 70.9798 56.106 73.8406 53.7444 76.4678C53.727 76.4815 53.7069 76.4914 53.6854 76.4969C53.6639 76.5024 53.6415 76.5034 53.6196 76.4998ZM53.2996 73.8182C53.3476 74.2342 53.4244 74.679 53.53 75.1718C53.594 75.4598 53.658 75.7382 53.7252 76.0102C56.0804 73.4502 59.2836 70.6182 63.7732 67.1654L65.3092 65.9782C72.2116 60.6566 76.7716 57.1398 83.978 54.0934C86.8836 52.8646 89.9716 51.703 92.9572 50.5734L94.6532 49.9334C93.5435 49.3863 92.3449 49.0417 91.114 48.9158C90.1316 49.2518 89.1684 49.5942 88.25 49.9334C80.778 52.7014 73.722 55.3126 63.0852 64.7334C59.6644 67.7638 56.3716 70.8166 53.2996 73.8182Z" fill="#263238"/>
<path d="M84.7432 67.6254C85.2333 68.2187 85.9248 68.6106 86.6856 68.7262C86.9579 68.7787 87.2204 68.8737 87.4632 69.0078L87.8888 68.7742C92.1064 66.4894 99.556 62.5342 105.05 59.2606C104.629 58.3973 104.074 57.6057 103.406 56.915C100.721 58.2366 97.8664 59.7662 95.6008 61.075C92.6216 62.7646 89.0984 64.9406 84.7432 67.6254Z" fill="white"/>
<path d="M87.4632 69.1687C87.4364 69.1689 87.41 69.1623 87.3864 69.1495C87.1578 69.0226 86.9104 68.9329 86.6536 68.8839C85.8604 68.7595 85.1395 68.3513 84.6248 67.7351C84.609 67.7181 84.597 67.6978 84.5899 67.6757C84.5827 67.6536 84.5804 67.6302 84.5832 67.6071C84.5855 67.5835 84.5933 67.5607 84.6061 67.5407C84.6189 67.5207 84.6363 67.504 84.6568 67.4919L85.268 67.1143C89.4088 64.5543 92.6792 62.5479 95.508 60.9223C97.9464 59.5303 100.794 58.0167 103.322 56.7623C103.352 56.7472 103.385 56.7419 103.418 56.747C103.451 56.7522 103.481 56.7676 103.505 56.7911C104.186 57.4943 104.751 58.3012 105.178 59.1815C105.197 59.2174 105.201 59.259 105.19 59.2977C105.178 59.3365 105.153 59.3694 105.118 59.3895C100.519 62.1319 94.5864 65.3287 90.2536 67.6647L87.9496 68.9063L87.6296 69.0855L87.5368 69.1399C87.5148 69.1551 87.4896 69.1649 87.4632 69.1687ZM84.98 67.6583C85.4333 68.1512 86.0422 68.4732 86.7048 68.5703C86.964 68.6206 87.2149 68.7068 87.4504 68.8263H87.4664L87.7864 68.6439L90.0872 67.3991C94.3784 65.0887 100.238 61.9303 104.807 59.2135C104.419 58.4501 103.925 57.7446 103.342 57.1175C100.846 58.3495 98.0488 59.8375 95.6616 61.2103C92.8232 62.8327 89.556 64.8455 85.4216 67.3959L84.98 67.6583Z" fill="#263238"/>
<path d="M74.8356 92.2084C79.8788 87.4628 88.7781 85.978 99.7541 80.3428C104.128 78.1028 107.559 76.3684 109.994 75.0468C109.77 74.3806 109.481 73.7376 109.133 73.1268C109.044 72.9668 108.964 72.8068 108.88 72.666C101.895 75.1684 89.4788 80.8228 81.3604 85.0916C76.5924 87.6004 72.1477 90.8516 68.6021 93.77C69.6941 94.085 70.7383 94.5468 71.706 95.1428C72.6895 94.2212 73.7327 93.2431 74.8356 92.2084Z" fill="white"/>
<path d="M71.7064 95.2991C71.6773 95.2981 71.6489 95.2905 71.6232 95.2767C70.6674 94.6878 69.6362 94.2314 68.5576 93.9199C68.5296 93.9117 68.5044 93.8961 68.4847 93.8747C68.465 93.8532 68.4514 93.8268 68.4456 93.7983C68.4398 93.7697 68.4418 93.74 68.4514 93.7125C68.461 93.6849 68.4778 93.6604 68.5 93.6415C72.4629 90.3195 76.7513 87.4066 81.3 84.9471C89.7384 80.5055 102.1 74.9279 108.82 72.5119C108.856 72.4994 108.895 72.5 108.931 72.5134C108.967 72.5269 108.996 72.5524 109.015 72.5855L109.268 73.0463C109.621 73.6666 109.913 74.3191 110.142 74.9951C110.152 75.0311 110.151 75.0696 110.137 75.1045C110.123 75.1393 110.097 75.1684 110.065 75.1871C108.25 76.1727 105.924 77.3599 102.98 78.8671L99.8216 80.4671C95.2808 82.7999 91.092 84.4255 87.3928 85.8559C82.0776 87.9167 77.8792 89.5455 74.9416 92.3071C73.8387 93.3481 72.7955 94.3252 71.812 95.2383C71.7994 95.2549 71.7835 95.2689 71.7654 95.2794C71.7472 95.2898 71.7272 95.2965 71.7064 95.2991ZM68.9352 93.6991C69.8981 94.0036 70.8217 94.4204 71.6872 94.9407C72.6408 94.0511 73.6542 93.1018 74.7272 92.0927C77.7096 89.2831 81.9336 87.6479 87.2808 85.5743C90.9704 84.1439 95.1528 82.5247 99.6808 80.1983L102.839 78.5823C105.719 77.1103 108.004 75.9391 109.799 74.9695C109.58 74.3576 109.31 73.7655 108.99 73.1999L108.804 72.8607C102.042 75.2959 89.8088 80.8223 81.4376 85.2287C77.0003 87.6318 72.8124 90.4692 68.9352 93.6991Z" fill="#263238"/>
<path d="M79.5175 94.4547C79.4241 94.4544 79.3318 94.4336 79.2472 94.3938C79.1626 94.3539 79.0878 94.2961 79.0279 94.2243C78.9197 94.0942 78.8674 93.9267 78.8824 93.7582C78.8974 93.5897 78.9785 93.434 79.1079 93.3251C80.0235 92.5845 81.0593 92.0065 82.1704 91.6163C82.3296 91.5759 82.4983 91.5984 82.6414 91.679C82.7846 91.7596 82.8913 91.8922 82.9394 92.0493C82.9875 92.2063 82.9734 92.3759 82.8999 92.5229C82.8264 92.6698 82.6993 92.7829 82.5448 92.8387C81.5966 93.1793 80.7119 93.6757 79.9272 94.3075C79.812 94.4029 79.6671 94.455 79.5175 94.4547Z" fill="#4B66E3"/>
<path d="M90.522 88.4743C90.4661 88.3551 90.4483 88.2217 90.471 88.0921C90.4937 87.9625 90.5558 87.843 90.6489 87.75C90.7419 87.6569 90.8614 87.5948 90.991 87.5721C91.1206 87.5494 91.2541 87.5672 91.3732 87.6231C92.4313 88.1372 93.3934 88.8288 94.218 89.6679C94.3321 89.7952 94.391 89.9626 94.3817 90.1333C94.3724 90.3041 94.2957 90.4641 94.1684 90.5783C94.0411 90.6924 93.8737 90.7513 93.7029 90.742C93.5322 90.7327 93.3721 90.656 93.258 90.5287C92.5485 89.8127 91.723 89.2219 90.8164 88.7815C90.6861 88.7156 90.5822 88.6072 90.522 88.4743Z" fill="#4B66E3"/>
<path d="M96.7367 86.2814C96.6431 86.2782 96.5512 86.2545 96.4677 86.2119C96.3842 86.1694 96.3111 86.109 96.2535 86.035C96.15 85.9012 96.1036 85.7318 96.1246 85.5639C96.1456 85.396 96.2322 85.2432 96.3655 85.139C97.304 84.4293 98.3586 83.888 99.4823 83.539C99.5658 83.5102 99.6543 83.4989 99.7424 83.5059C99.8304 83.513 99.916 83.5382 99.9939 83.5799C100.072 83.6216 100.14 83.679 100.195 83.7485C100.249 83.8179 100.289 83.8979 100.311 83.9834C100.333 84.0689 100.337 84.1581 100.323 84.2453C100.309 84.3325 100.277 84.4158 100.23 84.4901C100.182 84.5644 100.119 84.628 100.046 84.6769C99.9722 84.7258 99.8893 84.7589 99.8023 84.7742C98.8427 85.0811 97.9416 85.5473 97.1367 86.1534C97.0216 86.2399 96.8807 86.285 96.7367 86.2814Z" fill="white"/>
<path d="M61.6997 91.1329C61.6894 91.0023 61.7194 90.8717 61.7856 90.7588C61.8518 90.6458 61.9511 90.5558 62.0701 90.501C62.1891 90.4463 62.322 90.4293 62.4509 90.4525C62.5798 90.4756 62.6985 90.5377 62.791 90.6305C63.607 91.4784 64.2696 92.4615 64.7493 93.5361C64.8064 93.6922 64.8005 93.8645 64.7328 94.0163C64.6652 94.1682 64.5411 94.2878 64.3868 94.3497C64.2325 94.4117 64.0602 94.4112 63.9062 94.3483C63.7523 94.2854 63.6289 94.1651 63.5622 94.0129C63.1437 93.0968 62.576 92.2565 61.8822 91.5265C61.7774 91.4205 61.7129 91.2813 61.6997 91.1329Z" fill="white"/>
<path d="M104.471 64.842C104.463 64.7486 104.476 64.6545 104.509 64.5666C104.541 64.4787 104.593 64.399 104.66 64.3332C104.719 64.2737 104.79 64.2265 104.867 64.1943C104.945 64.1621 105.028 64.1455 105.113 64.1455C105.197 64.1455 105.28 64.1621 105.358 64.1943C105.435 64.2265 105.506 64.2737 105.565 64.3332C106.38 65.182 107.043 66.165 107.524 67.2388C107.558 67.3173 107.576 67.402 107.578 67.4877C107.579 67.5734 107.563 67.6585 107.53 67.7379C107.498 67.8173 107.45 67.8893 107.389 67.9498C107.328 68.0102 107.256 68.0578 107.176 68.0898C107.097 68.1217 107.011 68.1374 106.926 68.1358C106.84 68.1342 106.755 68.1154 106.677 68.0805C106.599 68.0456 106.528 67.9953 106.47 67.9326C106.411 67.8699 106.366 67.7961 106.337 67.7156C105.92 66.7978 105.351 65.9571 104.653 65.2292C104.55 65.1249 104.485 64.9882 104.471 64.842Z" fill="white"/>
<path d="M64.8199 72.1319C64.8095 72.0013 64.8395 71.8708 64.9057 71.7578C64.972 71.6448 65.0713 71.5548 65.1902 71.5001C65.3092 71.4453 65.4421 71.4283 65.571 71.4515C65.6999 71.4746 65.8186 71.5368 65.9111 71.6295C66.7257 72.4797 67.3882 73.4637 67.8695 74.5383C67.9265 74.6945 67.9206 74.8667 67.853 75.0185C67.7853 75.1704 67.6612 75.29 67.5069 75.3519C67.3526 75.4139 67.1803 75.4134 67.0264 75.3505C66.8725 75.2877 66.749 75.1674 66.6823 75.0151C66.2655 74.0973 65.6964 73.2566 64.9991 72.5287C64.8948 72.4214 64.8314 72.2811 64.8199 72.1319Z" fill="white"/>
<path d="M57.5557 62.0421C57.5454 61.9115 57.5753 61.7809 57.6416 61.6679C57.7078 61.5549 57.8071 61.465 57.9261 61.4102C58.045 61.3554 58.1779 61.3385 58.3068 61.3616C58.4357 61.3848 58.5544 61.4469 58.6469 61.5397C59.4607 62.3906 60.1231 63.3743 60.6053 64.4485C60.6624 64.6046 60.6565 64.7768 60.5888 64.9287C60.5211 65.0806 60.397 65.2001 60.2427 65.2621C60.0884 65.3241 59.9161 65.3235 59.7622 65.2607C59.6083 65.1978 59.4849 65.0775 59.4181 64.9253C59.0013 64.0074 58.4322 63.1668 57.7349 62.4389C57.6306 62.3316 57.5672 62.1912 57.5557 62.0421Z" fill="white"/>
<path d="M70.4488 87.7023C70.318 87.6973 70.1918 87.6522 70.0874 87.5732C69.983 87.4942 69.9053 87.3851 69.8648 87.2606C69.8244 87.136 69.8231 87.0021 69.8611 86.8768C69.8992 86.7515 69.9747 86.6409 70.0776 86.5599C71.0161 85.8502 72.0707 85.3089 73.1944 84.9599C73.2779 84.9311 73.3664 84.9198 73.4545 84.9268C73.5425 84.9339 73.6281 84.9591 73.706 85.0008C73.7838 85.0425 73.8522 85.0999 73.9067 85.1694C73.9613 85.2388 74.0009 85.3188 74.023 85.4043C74.0452 85.4898 74.0494 85.579 74.0354 85.6662C74.0214 85.7534 73.9896 85.8367 73.9418 85.911C73.894 85.9853 73.8314 86.0489 73.7578 86.0978C73.6843 86.1467 73.6014 86.1798 73.5144 86.1951C72.5548 86.502 71.6537 86.9683 70.8488 87.5743C70.7337 87.6608 70.5928 87.7059 70.4488 87.7023Z" fill="white"/>
<path d="M85.9684 59.8209C85.9334 59.7341 85.9178 59.6407 85.9228 59.5473C85.9278 59.4539 85.9532 59.3626 85.9972 59.2801C86.0767 59.1305 86.2123 59.0185 86.3743 58.9687C86.5363 58.9189 86.7114 58.9354 86.8612 59.0145C87.8921 59.5843 88.8176 60.3268 89.5972 61.2097C89.6552 61.2742 89.6995 61.3498 89.7273 61.4319C89.7552 61.514 89.7661 61.601 89.7593 61.6874C89.7526 61.7739 89.7283 61.8581 89.6881 61.9349C89.6478 62.0117 89.5923 62.0795 89.525 62.1342C89.4577 62.1889 89.38 62.2294 89.2966 62.2531C89.2132 62.2769 89.1258 62.2834 89.0398 62.2724C88.9538 62.2613 88.8709 62.2329 88.7962 62.1889C88.7215 62.1448 88.6565 62.086 88.6052 62.0161C87.9329 61.2704 87.1399 60.643 86.2596 60.1601C86.1249 60.0857 86.0215 59.9653 85.9684 59.8209Z" fill="white"/>
<path d="M95.7188 53.4118C95.588 53.4068 95.4619 53.3617 95.3574 53.2827C95.253 53.2037 95.1753 53.0946 95.1348 52.9701C95.0944 52.8455 95.0931 52.7116 95.1311 52.5863C95.1692 52.461 95.2448 52.3504 95.3476 52.2694C96.2869 51.561 97.3413 51.0197 98.4644 50.6694C98.6282 50.6254 98.8028 50.6482 98.9498 50.7328C99.0968 50.8174 99.2042 50.9569 99.2484 51.1206C99.2925 51.2844 99.2697 51.459 99.1851 51.606C99.1005 51.753 98.961 51.8604 98.7972 51.9046C97.8373 52.2122 96.9361 52.6795 96.1316 53.287C96.0126 53.3751 95.8667 53.4192 95.7188 53.4118Z" fill="white"/>
<path d="M66.0196 65.4914C65.8888 65.4863 65.7626 65.4413 65.6582 65.3623C65.5538 65.2833 65.4761 65.1742 65.4356 65.0496C65.3952 64.9251 65.3939 64.7912 65.4319 64.6659C65.47 64.5406 65.5455 64.43 65.6484 64.349C66.5869 63.6393 67.6415 63.0979 68.7652 62.749C68.8487 62.7201 68.9372 62.7089 69.0253 62.7159C69.1133 62.7229 69.1989 62.7481 69.2768 62.7899C69.3546 62.8316 69.423 62.889 69.4775 62.9584C69.5321 63.0279 69.5717 63.1079 69.5938 63.1934C69.616 63.2789 69.6202 63.368 69.6062 63.4552C69.5922 63.5424 69.5604 63.6258 69.5126 63.7001C69.4648 63.7744 69.4022 63.8379 69.3286 63.8868C69.2551 63.9357 69.1722 63.9689 69.0852 63.9842C68.1256 64.2911 67.2245 64.7573 66.4196 65.3634C66.3052 65.4512 66.1638 65.4965 66.0196 65.4914Z" fill="white"/>
<path d="M76.3624 83.5202C76.3072 83.4014 76.2897 83.2685 76.3124 83.1395C76.3351 83.0104 76.3969 82.8915 76.4893 82.7987C76.5818 82.7058 76.7005 82.6436 76.8295 82.6205C76.9584 82.5973 77.0914 82.6142 77.2104 82.669C78.2707 83.181 79.2343 83.8728 80.0584 84.7138C80.1721 84.8411 80.2306 85.0084 80.221 85.1788C80.2114 85.3493 80.1345 85.5089 80.0072 85.6226C79.8799 85.7363 79.7126 85.7948 79.5422 85.7852C79.3718 85.7756 79.2121 85.6987 79.0984 85.5714C78.3868 84.8574 77.5604 84.2679 76.6536 83.8274C76.5253 83.76 76.4229 83.652 76.3624 83.5202Z" fill="#4B66E3"/>
<path d="M98.9542 71.2837C98.9143 71.1986 98.8936 71.1058 98.8936 71.0117C98.8936 70.9177 98.9143 70.8248 98.9542 70.7397C98.9888 70.6626 99.0383 70.593 99.0999 70.5351C99.1615 70.4772 99.234 70.432 99.3131 70.4023C99.3923 70.3725 99.4765 70.3587 99.561 70.3617C99.6455 70.3647 99.7286 70.3844 99.8054 70.4197C100.865 70.9313 101.828 71.6232 102.65 72.4645C102.707 72.5276 102.75 72.6011 102.778 72.6809C102.806 72.7606 102.818 72.8451 102.813 72.9295C102.808 73.0139 102.787 73.0966 102.75 73.1727C102.713 73.2488 102.662 73.317 102.599 73.3733C102.536 73.4296 102.462 73.473 102.383 73.5009C102.303 73.5288 102.218 73.5407 102.134 73.5359C102.05 73.5312 101.967 73.5099 101.891 73.4732C101.815 73.4365 101.747 73.3852 101.69 73.3221C100.98 72.6077 100.155 72.0181 99.2486 71.5781C99.1204 71.5155 99.0168 71.4119 98.9542 71.2837Z" fill="#4B66E3"/>
<path d="M98.9673 61.1806C98.8636 61.2621 98.7373 61.3096 98.6057 61.3167C98.474 61.3237 98.3434 61.2898 98.2317 61.2198C98.12 61.1498 98.0326 61.0469 97.9816 60.9254C97.9305 60.8038 97.9182 60.6694 97.9465 60.5406C98.2077 59.3922 98.6657 58.2977 99.3001 57.3054C99.3459 57.2316 99.4062 57.168 99.4774 57.1182C99.5486 57.0685 99.6292 57.0338 99.7142 57.0162C99.7993 56.9986 99.887 56.9985 99.9721 57.0159C100.057 57.0333 100.138 57.0678 100.209 57.1174C100.28 57.167 100.341 57.2306 100.387 57.3042C100.433 57.3779 100.463 57.4602 100.476 57.546C100.49 57.6319 100.485 57.7195 100.463 57.8036C100.442 57.8876 100.403 57.9664 100.35 58.035C99.8137 58.888 99.4243 59.8247 99.1977 60.8062C99.1675 60.9543 99.0859 61.087 98.9673 61.1806Z" fill="#4B66E3"/>
<path d="M76.0905 64.1635C76.0163 64.2216 75.9303 64.2626 75.8385 64.2837C75.7466 64.3047 75.6513 64.3052 75.5593 64.2851C75.394 64.249 75.2497 64.149 75.158 64.0069C75.0662 63.8648 75.0345 63.6922 75.0697 63.5267C75.3308 62.3798 75.7876 61.2865 76.4201 60.2947C76.4659 60.2209 76.5262 60.1572 76.5974 60.1075C76.6686 60.0578 76.7492 60.023 76.8342 60.0055C76.9193 59.9879 77.007 59.9878 77.0921 60.0052C77.1772 60.0226 77.2578 60.0571 77.3291 60.1067C77.4004 60.1562 77.4609 60.2198 77.5069 60.2935C77.5528 60.3672 77.5833 60.4495 77.5965 60.5353C77.6096 60.6212 77.6052 60.7088 77.5834 60.7928C77.5616 60.8769 77.5229 60.9557 77.4697 61.0243C76.934 61.877 76.5456 62.8139 76.3209 63.7955C76.2876 63.9406 76.2064 64.0702 76.0905 64.1635Z" fill="#4B66E3"/>
<path d="M58.0425 77.8054C57.9388 77.8869 57.8125 77.9345 57.6809 77.9415C57.5492 77.9485 57.4186 77.9146 57.3069 77.8446C57.1952 77.7746 57.1078 77.6717 57.0568 77.5502C57.0057 77.4286 56.9934 77.2942 57.0217 77.1654C57.2832 76.0181 57.7411 74.9247 58.3753 73.9334C58.4757 73.8038 58.6221 73.7177 58.7842 73.6929C58.9463 73.6681 59.1117 73.7064 59.2464 73.8C59.381 73.8936 59.4746 74.0353 59.5078 74.1959C59.541 74.3565 59.5113 74.5237 59.4249 74.663C58.8889 75.516 58.4995 76.4527 58.2729 77.4342C58.242 77.5812 58.1604 77.7126 58.0425 77.8054Z" fill="#4B66E3"/>
<path d="M87.9239 52.5857C87.8687 52.4668 87.8512 52.3339 87.8739 52.2049C87.8966 52.0759 87.9584 51.9569 88.0509 51.8641C88.1433 51.7713 88.2621 51.7091 88.391 51.6859C88.52 51.6627 88.6529 51.6797 88.7719 51.7344C89.8312 52.2482 90.7945 52.9398 91.6199 53.7792C91.6765 53.8423 91.72 53.9158 91.7481 53.9957C91.7762 54.0756 91.7883 54.1602 91.7837 54.2447C91.7791 54.3293 91.7579 54.4121 91.7213 54.4884C91.6847 54.5647 91.6334 54.6331 91.5703 54.6896C91.5073 54.7462 91.4338 54.7897 91.3539 54.8178C91.274 54.8459 91.1894 54.858 91.1049 54.8534C91.0203 54.8488 90.9375 54.8276 90.8612 54.791C90.7848 54.7544 90.7165 54.7031 90.6599 54.6401C89.9495 53.9252 89.1242 53.3346 88.2183 52.8928C88.088 52.827 87.9842 52.7186 87.9239 52.5857Z" fill="#4B66E3"/>
<path d="M73.4244 51.2517C73.3692 51.1329 73.3517 51 73.3744 50.8709C73.3971 50.7419 73.4589 50.6229 73.5513 50.5301C73.6438 50.4373 73.7625 50.3751 73.8915 50.3519C74.0205 50.3287 74.1534 50.3457 74.2724 50.4005C75.3317 50.9142 76.295 51.6058 77.1204 52.4453C77.2346 52.5726 77.2935 52.74 77.2842 52.9107C77.2749 53.0815 77.1981 53.2415 77.0708 53.3557C76.9435 53.4698 76.7761 53.5287 76.6054 53.5194C76.4346 53.5101 76.2746 53.4334 76.1604 53.3061C75.449 52.5924 74.6239 52.0019 73.7188 51.5589C73.5885 51.493 73.4847 51.3846 73.4244 51.2517Z" fill="#4B66E3"/>
<path d="M102.081 82.2398C102.041 82.1547 102.02 82.0618 102.02 81.9678C102.02 81.8738 102.041 81.7809 102.081 81.6958C102.115 81.6186 102.165 81.5491 102.226 81.4911C102.288 81.4332 102.36 81.3881 102.44 81.3583C102.519 81.3286 102.603 81.3148 102.687 81.3178C102.772 81.3208 102.855 81.3405 102.932 81.3758C103.992 81.8874 104.954 82.5793 105.777 83.4206C105.833 83.4836 105.877 83.5572 105.905 83.637C105.933 83.7169 105.945 83.8015 105.94 83.8861C105.936 83.9706 105.915 84.0534 105.878 84.1297C105.841 84.2061 105.79 84.2745 105.727 84.331C105.664 84.3875 105.591 84.4311 105.511 84.4592C105.431 84.4872 105.346 84.4993 105.262 84.4947C105.177 84.4901 105.094 84.4689 105.018 84.4323C104.942 84.3957 104.873 84.3444 104.817 84.2814C104.107 83.5654 103.282 82.9746 102.375 82.5342C102.247 82.4716 102.143 82.368 102.081 82.2398Z" fill="#4B66E3"/>
<path d="M92.5381 75.0179C92.6228 74.9785 92.7151 74.958 92.8085 74.958C92.902 74.958 92.9943 74.9785 93.0789 75.0179C93.2324 75.0878 93.3521 75.2154 93.412 75.3729C93.4719 75.5305 93.4672 75.7054 93.3989 75.8595C92.9109 76.9273 92.2406 77.9018 91.4181 78.7395C91.357 78.7974 91.2851 78.8426 91.2065 78.8727C91.1279 78.9027 91.0441 78.9169 90.96 78.9145C90.8759 78.9122 90.7931 78.8932 90.7163 78.8588C90.6395 78.8244 90.5703 78.7752 90.5125 78.7139C90.3967 78.5907 90.3343 78.4266 90.3391 78.2575C90.3439 78.0884 90.4155 77.928 90.5381 77.8115C91.2362 77.0846 91.8083 76.2465 92.2309 75.3315C92.2932 75.1941 92.402 75.083 92.5381 75.0179Z" fill="#4B66E3"/>
<path d="M66.0132 55.405C66.1308 55.347 66.2633 55.3264 66.3929 55.3462C66.5226 55.3659 66.643 55.425 66.7379 55.5154C66.8329 55.6058 66.8978 55.7232 66.9238 55.8517C66.9499 55.9802 66.9358 56.1136 66.8836 56.2338C66.3917 57.3001 65.7207 58.2742 64.8996 59.1138C64.7752 59.2224 64.6136 59.2787 64.4486 59.2709C64.2837 59.263 64.1281 59.1918 64.0145 59.0719C63.9008 58.9521 63.8379 58.793 63.8389 58.6279C63.8398 58.4627 63.9046 58.3043 64.0196 58.1858C64.7177 57.4589 65.2898 56.6208 65.7124 55.7058C65.7754 55.5742 65.8816 55.4681 66.0132 55.405Z" fill="#4B66E3"/>
<path d="M89.8374 94.2017C89.9559 94.1418 90.0901 94.1202 90.2214 94.1399C90.3528 94.1597 90.4747 94.2197 90.5703 94.3119C90.666 94.404 90.7306 94.5236 90.7552 94.6541C90.7799 94.7846 90.7633 94.9195 90.7078 95.0401C90.2159 96.1064 89.5449 97.0806 88.7238 97.9201C88.5994 98.0287 88.4378 98.085 88.2728 98.0772C88.1079 98.0694 87.9523 97.9981 87.8387 97.8783C87.7251 97.7584 87.6621 97.5993 87.6631 97.4341C87.6641 97.269 87.7288 97.1106 87.8438 96.9921C88.5419 96.2652 89.114 95.4271 89.5366 94.5121C89.5979 94.3769 89.7042 94.2672 89.8374 94.2017Z" fill="#4B66E3"/>
<path d="M80.4326 42.2979H80.0166C74.8148 42.3009 69.6966 43.6062 65.1287 46.0947C60.5608 48.5833 56.6886 52.1758 53.8653 56.5447C51.042 60.9137 49.3574 65.9199 48.9652 71.1069C48.573 76.2938 49.4856 81.4965 51.6198 86.2403L80.4198 72.5283L80.4326 42.2979Z" fill="white"/>
<path opacity="0.3" d="M84.2952 39.6515C85.9272 37.2323 86.7048 35.4915 87.076 33.7763V33.7187C87.0984 33.6099 87.1208 33.5011 87.14 33.3987C87.1592 33.2963 87.1688 33.2387 87.1816 33.1587L87.2296 32.8387C87.2296 32.7555 87.252 32.6755 87.2616 32.5923C87.2712 32.5091 87.284 32.3747 87.2968 32.2723C87.3096 32.1699 87.3128 32.0995 87.3192 32.0131C87.3256 31.9267 87.3192 31.7955 87.3416 31.6931C87.364 31.5907 87.3416 31.5075 87.3576 31.4147C87.3736 31.3219 87.3576 31.2003 87.3576 31.0947V30.7747V30.4547C87.3576 30.3267 87.3576 30.1923 87.3576 30.0611C87.3576 29.9299 87.3576 29.8883 87.3576 29.8019C87.3576 29.5779 87.3576 29.3507 87.3576 29.1171C87.3576 29.0755 87.3576 29.0243 87.3576 28.9667C87.3576 28.9411 87.3576 28.9091 87.3576 28.8803C87.3576 28.8515 87.3576 28.8163 87.3576 28.7811V28.7491C87.3576 28.7107 87.3576 28.6691 87.3576 28.6307C87.3576 28.5923 87.3576 28.5667 87.3576 28.5347V28.4899C87.3576 28.4387 87.3576 28.3843 87.3576 28.3299C87.3576 28.2755 87.3576 28.2723 87.3576 28.2435C87.2776 26.8931 87.092 24.5859 86.9768 23.5171C86.7592 21.4915 86.3848 15.8179 85.2744 14.2371H85.2488V31.2483C85.2274 31.3968 85.1532 31.5326 85.0397 31.6308C84.9263 31.7291 84.7813 31.7831 84.6312 31.7831C84.4812 31.7831 84.3361 31.7291 84.2227 31.6308C84.1093 31.5326 84.0351 31.3968 84.0136 31.2483V19.9075C84.014 17.9731 83.7183 16.05 83.1368 14.2051L82.9736 14.9283C82.6669 16.2937 82.5113 17.6888 82.5096 19.0883V31.2483C82.4908 31.3984 82.4179 31.5365 82.3044 31.6366C82.191 31.7368 82.0449 31.792 81.8936 31.792C81.7423 31.792 81.5962 31.7368 81.4828 31.6366C81.3694 31.5365 81.2964 31.3984 81.2776 31.2483V19.6387C81.2767 17.8812 81.0322 16.1323 80.5512 14.4419L80.484 14.2051L80.3624 14.6787C79.969 16.2135 79.7701 17.7918 79.7704 19.3763V31.2483C79.7516 31.3984 79.6787 31.5365 79.5652 31.6366C79.4518 31.7368 79.3057 31.792 79.1544 31.792C79.0031 31.792 78.857 31.7368 78.7436 31.6366C78.6302 31.5365 78.5572 31.3984 78.5384 31.2483V14.2051C77.4568 15.7507 77.0632 21.4627 76.8456 23.3443C76.7144 24.4835 76.5256 26.8387 76.452 28.2147C76.452 28.2467 76.452 28.2755 76.452 28.3075C76.452 28.3395 76.452 28.3971 76.452 28.4419V28.5027C76.452 28.5347 76.452 28.5635 76.452 28.5955C76.452 28.6275 76.452 28.6723 76.452 28.7107V28.7523C76.452 28.7875 76.452 28.8163 76.452 28.8515C76.4536 28.8781 76.4536 28.9048 76.452 28.9315V29.1203C76.452 32.8003 76.084 35.9683 79.0536 39.5939C80.0588 40.9482 80.6038 42.5889 80.6088 44.2755C80.6088 48.8579 80.4456 58.2467 79.9688 64.2083C79.7416 66.9507 79.3448 69.7251 78.98 71.9267C78.9064 72.3715 78.8328 72.7939 78.7624 73.1907V73.2483C78.7016 73.5875 78.6472 73.9043 78.5928 74.2083C78.5768 74.2819 78.564 74.3555 78.5512 74.4259L78.5224 74.5859C78.4968 74.7075 78.4744 74.8291 78.452 74.9411C78.4101 75.1571 78.3918 75.3771 78.3976 75.5971C78.3976 75.7091 78.3976 75.8179 78.4232 75.9171C78.4512 76.1353 78.5027 76.3499 78.5768 76.5571C78.6898 76.8672 78.8506 77.1576 79.0536 77.4179C79.4874 77.9682 80.0958 78.3542 80.7784 78.5123C81.0051 78.5647 81.237 78.5915 81.4696 78.5923H82.0776C82.543 78.5925 83.0024 78.4869 83.4209 78.2835C83.8395 78.08 84.2063 77.784 84.4936 77.4179C84.6299 77.2438 84.7478 77.0561 84.8456 76.8579C84.8932 76.7602 84.9349 76.6598 84.9704 76.5571C85.1553 76.0392 85.1995 75.4816 85.0984 74.9411C85.076 74.8291 85.0504 74.7043 85.028 74.5795L85.0024 74.4483L84.9544 74.1795C84.932 74.0611 84.9096 73.9363 84.8872 73.8115C84.8872 73.7667 84.8712 73.7251 84.8616 73.6835C84.8424 73.5789 84.8232 73.4723 84.804 73.3635V73.3411C84.7624 73.1043 84.7176 72.8515 84.6728 72.5923C84.6504 72.4611 84.628 72.3235 84.6056 72.1859C84.228 69.9459 83.8088 67.0659 83.5752 64.2211C83.0856 58.2595 82.676 48.8611 82.9352 44.2883C83.06 40.8899 83.908 40.2851 84.2952 39.6515Z" fill="black"/>
<path d="M82.0297 43.6484C82.2089 40.282 83.0537 39.674 83.4409 39.0436C86.4329 34.6116 86.5609 32.4868 86.5609 28.4836C86.5609 27.7156 86.2889 24.25 86.1417 22.8708C85.9241 20.8452 85.5497 15.1716 84.4393 13.5908H84.4137V30.6372C84.3923 30.7857 84.3181 30.9215 84.2046 31.0198C84.0912 31.118 83.9462 31.1721 83.7961 31.1721C83.6461 31.1721 83.5011 31.118 83.3876 31.0198C83.2742 30.9215 83.2 30.7857 83.1785 30.6372V19.2964C83.1792 17.363 82.8835 15.441 82.3017 13.5972L82.1385 14.3204C81.8315 15.6858 81.6758 17.0809 81.6745 18.4804V30.6372C81.6531 30.7857 81.5789 30.9215 81.4654 31.0198C81.352 31.118 81.207 31.1721 81.0569 31.1721C80.9069 31.1721 80.7619 31.118 80.6484 31.0198C80.535 30.9215 80.4608 30.7857 80.4393 30.6372V19.0308C80.4402 17.2721 80.1957 15.5219 79.7129 13.8308L79.6489 13.5972L79.5401 14.0804C79.1469 15.6153 78.948 17.1935 78.9481 18.778V30.65C78.9294 30.8002 78.8564 30.9383 78.743 31.0384C78.6295 31.1385 78.4834 31.1938 78.3321 31.1938C78.1808 31.1938 78.0347 31.1385 77.9213 31.0384C77.8079 30.9383 77.7349 30.8002 77.7161 30.65V13.5972C76.6217 15.1396 76.2281 20.8548 76.0201 22.7204C75.8505 24.1892 75.5913 27.6708 75.5913 28.4804C75.5913 32.1604 75.2265 35.3316 78.1961 38.954C79.2013 40.3084 79.7464 41.949 79.7513 43.6356C79.7513 48.218 79.5881 57.6068 79.1113 63.5716C78.7823 67.1704 78.2729 70.7503 77.5849 74.298C77.4954 74.7322 77.5008 75.1807 77.6008 75.6126C77.7007 76.0445 77.8929 76.4497 78.1641 76.8004C78.4516 77.1664 78.8184 77.4623 79.237 77.6657C79.6555 77.8691 80.1148 77.9748 80.5801 77.9748H81.1881C81.6535 77.9751 82.1129 77.8695 82.5315 77.666C82.95 77.4626 83.3168 77.1666 83.6041 76.8004C83.876 76.4547 84.0707 76.0548 84.175 75.6276C84.2793 75.2003 84.2909 74.7557 84.2089 74.3236C83.5178 70.7765 83.0083 67.1964 82.6825 63.5972C82.1929 57.6196 81.7801 48.2244 82.0297 43.6484Z" fill="#D9D9D9"/>
<path d="M81.1879 78.1216H80.5799C80.104 78.1216 79.6339 78.0165 79.2032 77.8138C78.7726 77.611 78.392 77.3157 78.0888 76.9488C77.7855 76.582 77.567 76.1527 77.4489 75.6916C77.3308 75.2305 77.316 74.749 77.4055 74.2816C78.0925 70.7392 78.6009 67.1646 78.9287 63.5712C79.4087 57.7408 79.5687 48.464 79.5687 43.648C79.5586 41.9993 79.0265 40.3962 78.0487 39.0688C75.3415 35.76 75.3703 32.7584 75.4023 29.5808C75.4023 29.2224 75.4023 28.8608 75.4023 28.4928C75.4023 27.6864 75.6647 24.176 75.8343 22.7168C75.8663 22.4224 75.9047 22.0384 75.9495 21.5936C76.1991 19.0688 76.6151 14.8416 77.5495 13.504C77.5691 13.476 77.5971 13.455 77.6294 13.444C77.6618 13.433 77.6968 13.4327 77.7293 13.4431C77.7618 13.4535 77.7902 13.474 77.8103 13.5016C77.8303 13.5293 77.841 13.5626 77.8407 13.5968V30.6368C77.8607 30.7431 77.9172 30.8391 78.0005 30.9081C78.0838 30.9772 78.1885 31.015 78.2967 31.015C78.4049 31.015 78.5097 30.9772 78.5929 30.9081C78.6762 30.8391 78.7327 30.7431 78.7527 30.6368V18.7648C78.7529 17.1673 78.954 15.5761 79.3511 14.0288L79.4695 13.5552C79.4781 13.5211 79.498 13.4909 79.5258 13.4694C79.5537 13.4479 79.5879 13.4364 79.6231 13.4368C79.658 13.4371 79.692 13.4484 79.7201 13.4691C79.7483 13.4897 79.7692 13.5187 79.7799 13.552L79.8471 13.7856C80.3334 15.4914 80.58 17.2566 80.5799 19.0304V30.6368C80.5999 30.7431 80.6564 30.8391 80.7397 30.9081C80.823 30.9772 80.9277 31.015 81.0359 31.015C81.1441 31.015 81.2489 30.9772 81.3321 30.9081C81.4154 30.8391 81.4719 30.7431 81.4919 30.6368V18.4928C81.4918 17.0772 81.6485 15.6659 81.9591 14.2848L82.1223 13.5616C82.1301 13.5271 82.149 13.4961 82.1763 13.4735C82.2035 13.451 82.2374 13.438 82.2727 13.4368C82.3082 13.434 82.3436 13.4436 82.3728 13.4641C82.402 13.4845 82.4232 13.5144 82.4327 13.5488C83.0195 15.4124 83.3173 17.3549 83.3159 19.3088V30.6368C83.3341 30.745 83.39 30.8433 83.4738 30.9142C83.5576 30.9851 83.6638 31.024 83.7735 31.024C83.8833 31.024 83.9895 30.9851 84.0732 30.9142C84.157 30.8433 84.213 30.745 84.2311 30.6368V13.5968C84.2311 13.5543 84.248 13.5136 84.278 13.4836C84.308 13.4536 84.3487 13.4368 84.3911 13.4368C84.4205 13.4367 84.4495 13.4425 84.4765 13.4541C84.5035 13.4657 84.5278 13.4826 84.5479 13.504C85.5079 14.8992 85.9303 19.2192 86.1735 21.8016C86.2119 22.2144 86.2471 22.5728 86.2791 22.8608C86.4199 24.1888 86.6983 27.7024 86.6983 28.4928C86.6983 32.528 86.5639 34.6656 83.5495 39.1328C83.4919 39.2256 83.4215 39.3216 83.3447 39.4304C82.9351 39.9936 82.3175 40.8448 82.1671 43.6576C81.9271 48.1376 82.3175 57.4784 82.8071 63.5712C83.1317 67.165 83.6401 70.7398 84.3303 74.2816C84.4199 74.7493 84.405 75.2311 84.2867 75.6924C84.1684 76.1537 83.9497 76.5832 83.646 76.9501C83.3424 77.317 82.9615 77.6123 82.5304 77.8148C82.0994 78.0173 81.629 78.1221 81.1527 78.1216H81.1879ZM77.5431 14.2464C76.8487 15.936 76.4903 19.5648 76.2855 21.6256C76.2407 22.0736 76.2055 22.4608 76.1703 22.752C76.0039 24.208 75.7415 27.6928 75.7415 28.4928C75.7415 28.8608 75.7415 29.2256 75.7415 29.584C75.7095 32.8384 75.6807 35.664 78.3015 38.864C79.3401 40.2487 79.9015 41.933 79.9015 43.664C79.9015 48.4864 79.7255 57.7728 79.2615 63.6128C78.934 67.2182 78.4235 70.8047 77.7319 74.3584C77.6519 74.7795 77.6658 75.2131 77.7725 75.6283C77.8793 76.0434 78.0762 76.4299 78.3494 76.7602C78.6226 77.0906 78.9653 77.3566 79.353 77.5394C79.7408 77.7221 80.1641 77.8171 80.5927 77.8176H81.2007C81.6296 77.8177 82.0531 77.7231 82.4412 77.5405C82.8292 77.3579 83.1721 77.0919 83.4454 76.7614C83.7187 76.4309 83.9157 76.0442 84.0222 75.6288C84.1287 75.2134 84.1421 74.7796 84.0615 74.3584C83.3729 70.8044 82.8635 67.218 82.5351 63.6128C82.0327 57.5104 81.6423 48.144 81.8951 43.6576C82.0487 40.7488 82.7015 39.8528 83.1335 39.2576C83.2036 39.1662 83.2687 39.0711 83.3287 38.9728C86.2951 34.5824 86.4263 32.4768 86.4263 28.5088C86.4263 27.728 86.1479 24.2336 86.0071 22.912C85.9783 22.624 85.9431 22.272 85.9047 21.8464C85.7031 19.7024 85.3447 15.8944 84.5991 14.1888V30.6368C84.5815 30.8308 84.492 31.0113 84.3481 31.1427C84.2042 31.2741 84.0164 31.347 83.8215 31.347C83.6267 31.347 83.4388 31.2741 83.295 31.1427C83.1511 31.0113 83.0615 30.8308 83.0439 30.6368V19.296C83.0442 17.5837 82.8106 15.8794 82.3495 14.2304L82.3207 14.352C82.0139 15.7109 81.8594 17.0997 81.8599 18.4928V30.6368C81.8387 30.8277 81.7477 31.0041 81.6046 31.1322C81.4614 31.2603 81.276 31.3311 81.0839 31.3311C80.8918 31.3311 80.7064 31.2603 80.5633 31.1322C80.4201 31.0041 80.3292 30.8277 80.3079 30.6368V19.0304C80.3022 17.4095 80.0871 15.7961 79.6679 14.2304C79.2964 15.7187 79.1083 17.2468 79.1079 18.7808V30.6528C79.0866 30.8437 78.9957 31.0201 78.8526 31.1482C78.7094 31.2763 78.524 31.3471 78.3319 31.3471C78.1398 31.3471 77.9544 31.2763 77.8113 31.1482C77.6681 31.0201 77.5772 30.8437 77.5559 30.6528L77.5431 14.2464Z" fill="#263238"/>
<path d="M86.2249 33.1651C86.5449 31.7315 86.5609 30.3043 86.5609 28.4931C86.5609 28.4515 86.5609 28.4003 86.5609 28.3459C86.5609 28.2915 86.5609 28.2275 86.5609 28.1571V28.1379C86.5609 28.0675 86.5609 27.9907 86.5609 27.9107V27.8915C86.5609 27.8051 86.5609 27.7155 86.5449 27.6195H84.4361V30.6531C84.4147 30.8016 84.3405 30.9374 84.227 31.0357C84.1136 31.1339 83.9686 31.188 83.8185 31.188C83.6685 31.188 83.5235 31.1339 83.41 31.0357C83.2966 30.9374 83.2224 30.8016 83.2009 30.6531V27.6035H81.6969V30.6371C81.6755 30.7856 81.6013 30.9214 81.4878 31.0197C81.3744 31.1179 81.2294 31.172 81.0793 31.172C80.9293 31.172 80.7843 31.1179 80.6708 31.0197C80.5574 30.9214 80.4832 30.7856 80.4617 30.6371V27.6035H78.9577V30.6371C78.939 30.7872 78.866 30.9254 78.7526 31.0255C78.6391 31.1256 78.493 31.1809 78.3417 31.1809C78.1904 31.1809 78.0443 31.1256 77.9309 31.0255C77.8175 30.9254 77.7445 30.7872 77.7257 30.6371V27.6035H75.6393C75.6393 27.6963 75.6393 27.7827 75.6393 27.8659V27.8947C75.6393 27.9715 75.6393 28.0451 75.6393 28.1155V28.1411C75.6393 28.2083 75.6393 28.2691 75.6393 28.3267C75.6393 28.3843 75.6393 28.4355 75.6393 28.4771C75.6173 30.0684 75.735 31.6585 75.9913 33.2291C77.5975 33.9692 79.3468 34.3471 81.1153 34.336C82.8837 34.325 84.6281 33.9252 86.2249 33.1651Z" fill="#263238"/>
<path d="M80.996 34.5123C79.228 34.5145 77.4807 34.1312 75.876 33.3891C75.8531 33.3781 75.8332 33.362 75.8176 33.342C75.8021 33.3221 75.7914 33.2987 75.7864 33.2739C75.5234 31.6899 75.4013 30.0858 75.4216 28.4803C75.4216 28.4355 75.4216 28.3843 75.4216 28.3267L75.4536 27.5811C75.4568 27.5406 75.4749 27.5028 75.5045 27.4749C75.5341 27.4471 75.573 27.4313 75.6136 27.4307H77.7C77.721 27.4304 77.7418 27.4346 77.7611 27.4428C77.7804 27.4511 77.7977 27.4633 77.812 27.4787C77.8419 27.5084 77.8591 27.5485 77.86 27.5907V30.6243C77.88 30.7306 77.9365 30.8266 78.0198 30.8956C78.103 30.9647 78.2078 31.0025 78.316 31.0025C78.4242 31.0025 78.5289 30.9647 78.6122 30.8956C78.6955 30.8266 78.752 30.7306 78.772 30.6243V27.6035C78.772 27.561 78.7889 27.5203 78.8189 27.4903C78.8489 27.4603 78.8896 27.4435 78.932 27.4435H80.4392C80.4816 27.4435 80.5223 27.4603 80.5523 27.4903C80.5823 27.5203 80.5992 27.561 80.5992 27.6035V30.6371C80.6192 30.7434 80.6757 30.8394 80.759 30.9084C80.8422 30.9775 80.947 31.0153 81.0552 31.0153C81.1634 31.0153 81.2681 30.9775 81.3514 30.9084C81.4347 30.8394 81.4912 30.7434 81.5112 30.6371V27.6035C81.5112 27.561 81.528 27.5203 81.5581 27.4903C81.5881 27.4603 81.6288 27.4435 81.6712 27.4435H83.1752C83.2176 27.4435 83.2583 27.4603 83.2883 27.4903C83.3183 27.5203 83.3352 27.561 83.3352 27.6035V30.6371C83.3534 30.7453 83.4093 30.8436 83.4931 30.9145C83.5769 30.9854 83.6831 31.0243 83.7928 31.0243C83.9025 31.0243 84.0087 30.9854 84.0925 30.9145C84.1763 30.8436 84.2322 30.7453 84.2504 30.6371V27.6035C84.2504 27.561 84.2673 27.5203 84.2973 27.4903C84.3273 27.4603 84.368 27.4435 84.4104 27.4435H86.5192C86.5598 27.4441 86.5987 27.4599 86.6283 27.4877C86.6579 27.5156 86.676 27.5534 86.6792 27.5939L86.7144 28.3267C86.7144 28.3971 86.7144 28.4515 86.7144 28.4931C86.7144 30.2659 86.6888 31.7379 86.3752 33.1971C86.37 33.2214 86.3592 33.2442 86.3436 33.2637C86.3281 33.2831 86.3082 33.2987 86.2856 33.3091C84.6333 34.0969 82.8265 34.5079 80.996 34.5123ZM76.0744 33.1363C77.6498 33.8464 79.3603 34.2068 81.0883 34.1924C82.8163 34.178 84.5207 33.7893 86.084 33.0531C86.3466 31.5481 86.4538 30.02 86.404 28.4931C86.404 28.4515 86.404 28.4035 86.404 28.3491L86.3784 27.7635H84.58V30.6435C84.5624 30.8375 84.4728 31.018 84.3289 31.1494C84.1851 31.2808 83.9973 31.3537 83.8024 31.3537C83.6075 31.3537 83.4197 31.2808 83.2758 31.1494C83.132 31.018 83.0424 30.8375 83.0248 30.6435V27.7635H81.8408V30.6435C81.8195 30.8344 81.7286 31.0108 81.5854 31.1389C81.4423 31.267 81.2569 31.3378 81.0648 31.3378C80.8727 31.3378 80.6873 31.267 80.5441 31.1389C80.401 31.0108 80.3101 30.8344 80.2888 30.6435V27.7635H79.1016V30.6435C79.0803 30.8344 78.9894 31.0108 78.8462 31.1389C78.7031 31.267 78.5177 31.3378 78.3256 31.3378C78.1335 31.3378 77.9481 31.267 77.8049 31.1389C77.6618 31.0108 77.5709 30.8344 77.5496 30.6435V27.7635H75.7768L75.7512 28.3299C75.7512 28.4003 75.7512 28.4515 75.7512 28.4931C75.7257 30.0472 75.8338 31.6007 76.0744 33.1363Z" fill="#263238"/>
<path opacity="0.3" d="M93.9657 69.5142C93.94 69.1627 93.8534 68.8184 93.7097 68.4966L93.4665 67.943C93.2785 67.517 92.9961 67.1392 92.6408 66.8382C92.2855 66.5372 91.8664 66.3208 91.4153 66.2054C91.3065 66.1798 91.1977 66.1574 91.0953 66.1414C90.7702 66.0939 90.4395 66.0993 90.1161 66.1574C90.008 66.1768 89.9012 66.2024 89.7961 66.2342C89.4797 66.3262 89.1804 66.4688 88.9097 66.6566H88.8905L88.6089 66.8518L88.4905 66.9318L88.2857 67.0726L87.9657 67.2966L87.8601 67.367L87.5881 67.5526H87.5689L86.5897 68.1926C84.6985 69.4406 82.2313 70.9894 79.7225 72.3526C76.6345 74.0326 72.4521 76.167 68.6569 77.9686L64.1769 80.0198L60.9801 81.5046L36.9481 92.4806C36.9481 92.4806 32.7401 94.4646 36.4233 96.0614C36.4233 96.0614 40.1193 97.4054 49.1113 94.1734C54.2313 92.3302 61.5433 89.175 62.3273 88.7014C62.6268 88.5576 62.8818 88.3352 63.0649 88.0579C63.248 87.7807 63.3526 87.4589 63.3673 87.127C63.4505 86.471 63.1209 83.7606 64.8169 82.2662L64.9577 82.1446C69.5177 80.183 76.4041 77.3446 81.1657 75.6806C83.7641 74.7782 86.4617 74.0198 88.6217 73.463L89.8665 73.143H89.9209L90.8521 72.919L91.0889 72.8614L91.2265 72.8294L91.5945 72.743C92.3086 72.5771 92.9399 72.1616 93.3747 71.5713C93.8094 70.9811 94.019 70.2549 93.9657 69.5238V69.5142Z" fill="black"/>
<path d="M88.4171 66.0452C85.4502 68.1105 82.3807 70.0244 79.2203 71.7796C76.1291 73.4596 71.9467 75.594 68.1515 77.3988L36.4715 91.866C36.4715 91.866 32.2635 93.85 35.9467 95.4468C35.9467 95.4468 39.6427 96.7908 48.6379 93.5588C53.7579 91.7156 61.0667 88.5604 61.8539 88.09C62.1531 87.9448 62.4076 87.7216 62.5906 87.444C62.7736 87.1664 62.8784 86.8445 62.8939 86.5124C62.9739 85.8564 62.6443 83.146 64.3435 81.6516L64.4843 81.5332C69.0411 79.5684 75.9275 76.7332 80.6891 75.066C84.1139 73.9105 87.5945 72.9279 91.1179 72.122C91.5466 72.0235 91.9491 71.8339 92.2981 71.5662C92.6471 71.2984 92.9343 70.9586 93.1403 70.57C93.3582 70.1588 93.48 69.7036 93.4967 69.2386C93.5133 68.7736 93.4243 68.3108 93.2363 67.8852L92.9899 67.3316C92.8058 66.9186 92.533 66.5513 92.1908 66.2557C91.8487 65.9602 91.4456 65.7436 91.0103 65.6214C90.575 65.4992 90.1181 65.4744 89.6722 65.5487C89.2262 65.6231 88.8021 65.7948 88.4299 66.0516L88.4171 66.0452Z" fill="#D9D9D9"/>
<path d="M38.3754 95.8915C37.5331 95.9268 36.6905 95.8275 35.8794 95.5971C34.8138 95.1363 34.2794 94.5891 34.2794 93.9651C34.2602 92.7491 36.321 91.7635 36.4074 91.7251L68.1066 77.2547C71.7226 75.5363 75.9594 73.3859 79.1626 71.6419C82.3125 69.8911 85.3713 67.9815 88.3274 65.9203C88.7193 65.6492 89.1661 65.4681 89.6361 65.3897C90.106 65.3114 90.5875 65.3378 91.0461 65.4671C91.5046 65.5965 91.929 65.8255 92.2888 66.1378C92.6486 66.4501 92.9349 66.8381 93.1274 67.2739L93.3738 67.8275C93.5665 68.2637 93.6603 68.7371 93.6484 69.2138C93.6366 69.6905 93.5194 70.1586 93.3053 70.5847C93.0912 71.0108 92.7855 71.3842 92.4101 71.6782C92.0346 71.9721 91.5988 72.1794 91.1338 72.2851C87.6157 73.0896 84.1403 74.0711 80.721 75.2259C76.161 76.8099 69.3802 79.5939 64.5482 81.6771L64.4298 81.7795C63.0826 82.9667 63.0634 84.9443 63.0506 86.0067C63.0544 86.184 63.0479 86.3613 63.0314 86.5379C63.014 86.8946 62.9012 87.2402 62.7047 87.5385C62.5083 87.8368 62.2355 88.0769 61.9146 88.2339C61.1178 88.7107 53.8154 91.8691 48.673 93.7155C43.7418 95.4851 40.401 95.8915 38.3754 95.8915ZM88.5002 66.1763C85.5297 68.2458 82.4558 70.1629 79.2906 71.9203C76.0906 73.6643 71.8378 75.8211 68.2154 77.5427L36.5162 92.0099C35.9722 92.2691 34.561 93.1203 34.5738 93.9619C34.5738 94.4451 35.057 94.8963 35.9882 95.3027C36.017 95.3027 39.7482 96.5827 48.561 93.4083C53.681 91.5651 60.9578 88.4259 61.7482 87.9683C62.0262 87.8359 62.2626 87.6299 62.4319 87.3727C62.6011 87.1154 62.6967 86.8168 62.7082 86.5091C62.722 86.3441 62.7273 86.1786 62.7242 86.0131C62.7242 84.9795 62.7562 82.8291 64.2122 81.5331L64.3562 81.4083C64.3679 81.399 64.3808 81.3914 64.3946 81.3859C69.233 79.2995 76.033 76.5059 80.6122 74.9155C84.0429 73.7572 87.53 72.7735 91.0602 71.9683C91.4778 71.8711 91.8688 71.683 92.2053 71.4175C92.5419 71.1519 92.8157 70.8154 93.0073 70.4319C93.1989 70.0483 93.3036 69.6273 93.3138 69.1987C93.3241 68.7701 93.2397 68.3445 93.0666 67.9523L92.8202 67.3955C92.647 67.0032 92.3894 66.654 92.0656 66.3728C91.7418 66.0917 91.3599 65.8855 90.9472 65.769C90.5345 65.6525 90.1012 65.6287 89.6782 65.6991C89.2552 65.7695 88.853 65.9324 88.5002 66.1763Z" fill="#263238"/>
<path d="M63.6619 79.4502L60.4971 80.8934C61.6679 82.8691 62.3951 85.0759 62.6283 87.3606C62.7702 87.0984 62.8563 86.8097 62.8811 86.5126C62.9611 85.8566 62.6315 83.1462 64.3307 81.6518L64.4715 81.5334L64.5643 81.4918L63.6619 79.4502Z" fill="#263238"/>
<path d="M62.6284 87.5204H62.5804C62.5471 87.5125 62.5172 87.4943 62.4948 87.4685C62.4724 87.4426 62.4587 87.4104 62.4556 87.3764C62.2261 85.1151 61.5064 82.9311 60.3468 80.9764C60.3355 80.9567 60.3282 80.9349 60.3255 80.9124C60.3227 80.8899 60.3245 80.867 60.3308 80.8452C60.3377 80.824 60.349 80.8046 60.3639 80.7881C60.3787 80.7715 60.3969 80.7583 60.4172 80.7492L63.582 79.3028C63.6015 79.2938 63.6226 79.2888 63.644 79.2882C63.6654 79.2875 63.6868 79.2912 63.7068 79.2989C63.7268 79.3067 63.745 79.3184 63.7604 79.3333C63.7758 79.3483 63.788 79.3662 63.7964 79.386L64.6988 81.4276C64.7072 81.4469 64.7118 81.4677 64.7122 81.4888C64.7126 81.5099 64.7088 81.5308 64.7011 81.5505C64.6934 81.5701 64.6818 81.588 64.6672 81.6032C64.6525 81.6183 64.6349 81.6304 64.6156 81.6388L64.542 81.6708L64.4236 81.7732C63.0764 82.9604 63.0572 84.938 63.0444 86.0004C63.0481 86.1777 63.0417 86.355 63.0252 86.5316C62.9991 86.8502 62.9064 87.1598 62.7532 87.4404C62.7408 87.4632 62.7229 87.4824 62.7011 87.4964C62.6792 87.5104 62.6542 87.5186 62.6284 87.5204ZM60.7084 80.9668C61.7161 82.7133 62.3869 84.6335 62.686 86.6276C62.686 86.587 62.6924 86.5422 62.7052 86.4932C62.7189 86.3282 62.7243 86.1627 62.7212 85.9972C62.7212 84.9636 62.7532 82.8132 64.2092 81.5172L64.3404 81.402L63.566 79.6452L60.7084 80.9668Z" fill="#263238"/>
</svg>
