<svg width="161" height="160" viewBox="0 0 161 160" fill="none" xmlns="http://www.w3.org/2000/svg">
<path d="M104.609 56.9598L124.721 57.6702C127.921 57.7854 128.087 53.7054 124.551 52.6622L124.417 52.6238C127.69 49.5294 117.265 42.6846 112.577 52.2398C111.994 49.603 106.343 50.7582 106.433 53.9646C104.673 51.9326 102.001 55.2574 104.609 56.9598Z" stroke="#515B60" stroke-linecap="round" stroke-linejoin="round"/>
<path d="M33.857 45.2227L50.8426 44.9379C53.5498 44.8931 53.2778 41.2451 50.2026 40.4803L50.0842 40.4515C52.5258 37.5427 43.073 31.9171 40.081 40.6499C39.329 38.3235 34.689 39.6131 35.089 42.4707C33.409 40.7491 31.4954 43.8403 33.857 45.2227Z" stroke="#515B60" stroke-linecap="round" stroke-linejoin="round"/>
<path d="M101.028 32.1475C100.823 32.0984 100.622 32.0331 100.426 31.9523C100.065 31.8115 99.5976 31.5715 99.1144 31.3379C98.7129 31.1376 98.2799 31.0077 97.8344 30.9539C97.492 30.9155 97.2584 30.9539 97.2264 30.8643C97.1944 30.7747 97.396 30.6083 97.812 30.5443C98.3485 30.4703 98.8948 30.563 99.3768 30.8099C99.828 31.0434 100.239 31.3481 100.593 31.7123C100.862 31.9683 101.028 32.1475 101.028 32.1475Z" fill="#515B60"/>
<path d="M103.14 30.4477L102.705 30.6173C102.446 30.7229 102.119 30.8701 101.745 31.0301C101.019 31.3501 100.398 31.6701 100.295 31.5389C100.247 31.4717 100.343 31.3085 100.555 31.1069C100.834 30.8384 101.159 30.6217 101.515 30.4669C101.878 30.3122 102.275 30.257 102.667 30.3069C102.785 30.3227 102.902 30.3495 103.015 30.3869L103.14 30.4477Z" fill="#515B60"/>
<path d="M97.1081 33.4139L96.9897 33.3403C96.9161 33.2923 96.8041 33.2315 96.6697 33.1579C96.3281 32.9738 95.9716 32.8186 95.6041 32.6939C94.7593 32.3739 94.0041 32.4571 93.9785 32.3291C93.9785 32.2715 94.1513 32.1755 94.4777 32.1275C94.9098 32.0772 95.3476 32.1265 95.7577 32.2715C96.1658 32.4136 96.5306 32.6583 96.8169 32.9819C96.9031 33.0815 96.9802 33.1886 97.0473 33.3019C97.0857 33.3691 97.1081 33.4139 97.1081 33.4139Z" fill="#515B60"/>
<path d="M97.94 31.6796C97.94 31.6796 97.8184 31.7532 97.636 31.8556L96.9608 32.2332C96.4488 32.5148 96.0552 32.8412 95.9592 32.7548C95.9144 32.7132 95.9592 32.5756 96.0904 32.3996C96.2624 32.1704 96.4804 31.9797 96.7304 31.8396C96.9881 31.702 97.2767 31.6326 97.5688 31.638C97.6938 31.6364 97.8185 31.6504 97.94 31.6796Z" fill="#515B60"/>
<path d="M96.4075 30.6689C96.4075 30.6689 96.1227 30.5697 95.6843 30.3841C95.2459 30.1985 94.6539 29.9361 94.0107 29.7249C93.4637 29.5418 92.8876 29.4615 92.3115 29.4881C91.8699 29.5137 91.5883 29.6001 91.5467 29.5201C91.5051 29.4401 91.7419 29.2193 92.2379 29.0721C92.8846 28.9061 93.5659 28.9351 94.1963 29.1553C94.8011 29.3666 95.3596 29.6926 95.8411 30.1153C96.0401 30.2891 96.2292 30.4739 96.4075 30.6689Z" fill="#515B60"/>
<path d="M98.3529 28.1984L98.1897 28.2464C98.0841 28.272 97.9369 28.3168 97.7609 28.3712C97.3175 28.5173 96.8827 28.6882 96.4585 28.8832C95.4761 29.3248 94.8425 29.9776 94.7049 29.872C94.6441 29.824 94.7241 29.584 94.9769 29.2736C95.3121 28.8742 95.7333 28.5559 96.2089 28.3424C96.6848 28.126 97.2077 28.0335 97.7289 28.0736C97.8843 28.087 98.0384 28.1127 98.1897 28.1504L98.3529 28.1984Z" fill="#515B60"/>
<path d="M10.5098 89.1166L23.1562 70.899L30.5898 68.659L32.2442 62.9374C32.6319 61.5984 33.2926 60.3541 34.1848 59.2829C35.077 58.2117 36.1813 57.3369 37.4282 56.7134L40.5002 47.3598L49.9146 45.1198L60.7658 23.1038L67.9498 22.8574L74.6378 19.6382L80.5834 17.1582L87.025 24.5918L92.9802 38.7198L101.7 44.8798L110.609 62.7198C118.281 65.5352 124.812 70.7996 129.191 77.699L137.46 90.723L54.8682 95.1774L10.5098 89.1166Z" fill="white"/>
<mask id="mask0_330_2151" style="mask-type:luminance" maskUnits="userSpaceOnUse" x="10" y="17" width="128" height="79">
<path d="M10.5098 89.1166L23.1562 70.899L30.5898 68.659L32.2442 62.9374C32.6319 61.5984 33.2926 60.3541 34.1848 59.2829C35.077 58.2117 36.1813 57.3369 37.4282 56.7134L40.5002 47.3598L49.9146 45.1198L60.7658 23.1038L67.9498 22.8574L74.6378 19.6382L80.5834 17.1582L87.025 24.5918L92.9802 38.7198L101.7 44.8798L110.609 62.7198C118.281 65.5352 124.812 70.7996 129.191 77.699L137.46 90.723L54.8682 95.1774L10.5098 89.1166Z" fill="white"/>
</mask>
<g mask="url(#mask0_330_2151)">
<path d="M57.1017 41.1388C56.7529 42.1596 56.3817 43.1932 55.7193 44.0412C54.9928 44.9614 53.9651 45.596 52.8169 45.8332C54.2223 46.3727 55.7396 46.5552 57.2329 46.3644C57.0827 44.8411 57.3097 43.3043 57.894 41.8896C58.4784 40.4748 59.4019 39.2257 60.5833 38.2524C60.2461 35.0823 60.8882 31.8849 62.4233 29.0908C62.8201 28.3676 63.2905 27.6444 63.3833 26.8252C63.4313 26.3516 63.2969 25.6348 62.8905 25.3244C62.0009 24.6428 62.2249 25.3244 61.8185 25.9644C61.0121 27.2444 60.8265 29.4844 60.3913 30.9436C59.363 34.3612 58.2665 37.7596 57.1017 41.1388Z" fill="#4B66E3"/>
<path opacity="0.8" d="M57.1017 41.1388C56.7529 42.1596 56.3817 43.1932 55.7193 44.0412C54.9928 44.9614 53.9651 45.596 52.8169 45.8332C54.2223 46.3727 55.7396 46.5552 57.2329 46.3644C57.0827 44.8411 57.3097 43.3043 57.894 41.8896C58.4784 40.4748 59.4019 39.2257 60.5833 38.2524C60.2461 35.0823 60.8882 31.8849 62.4233 29.0908C62.8201 28.3676 63.2905 27.6444 63.3833 26.8252C63.4313 26.3516 63.2969 25.6348 62.8905 25.3244C62.0009 24.6428 62.2249 25.3244 61.8185 25.9644C61.0121 27.2444 60.8265 29.4844 60.3913 30.9436C59.363 34.3612 58.2665 37.7596 57.1017 41.1388Z" fill="white"/>
<path d="M38.7656 67.3435C38.8323 67.1667 38.847 66.9744 38.8078 66.7895C38.7687 66.6047 38.6774 66.4349 38.5448 66.3003C39.0075 66.3929 39.487 66.3546 39.9291 66.1895C40.3712 66.0244 40.7584 65.7392 41.0472 65.3659C40.7404 64.2583 40.6923 63.0951 40.9065 61.966C41.1206 60.8369 41.5914 59.7721 42.2824 58.8539C42.0008 59.7051 41.7128 60.5819 41.7608 61.4779C41.8088 62.3739 42.2632 63.3083 43.0888 63.6603C45.1816 64.5499 47.636 61.3083 49.5208 62.5851L47.2808 64.5243L53.3384 63.3947L54.164 61.5227C54.4616 62.2171 54.756 62.9147 55.0536 63.6123C55.2735 62.5109 55.731 61.4707 56.3942 60.5643C57.0574 59.6579 57.9104 58.9071 58.8936 58.3643C57.0664 60.1691 57.5272 63.7243 55.2968 64.9947C54.3528 65.5291 53.204 65.4651 52.1224 65.5355C48.8488 65.7531 45.8536 67.3467 42.7784 68.4923C39.9752 69.5323 36.0584 70.4891 33.3384 68.7675C34.1 68.4571 38.5384 67.9355 38.7656 67.3435Z" fill="#4B66E3"/>
<path opacity="0.8" d="M38.7656 67.3435C38.8323 67.1667 38.847 66.9744 38.8078 66.7895C38.7687 66.6047 38.6774 66.4349 38.5448 66.3003C39.0075 66.3929 39.487 66.3546 39.9291 66.1895C40.3712 66.0244 40.7584 65.7392 41.0472 65.3659C40.7404 64.2583 40.6923 63.0951 40.9065 61.966C41.1206 60.8369 41.5914 59.7721 42.2824 58.8539C42.0008 59.7051 41.7128 60.5819 41.7608 61.4779C41.8088 62.3739 42.2632 63.3083 43.0888 63.6603C45.1816 64.5499 47.636 61.3083 49.5208 62.5851L47.2808 64.5243L53.3384 63.3947L54.164 61.5227C54.4616 62.2171 54.756 62.9147 55.0536 63.6123C55.2735 62.5109 55.731 61.4707 56.3942 60.5643C57.0574 59.6579 57.9104 58.9071 58.8936 58.3643C57.0664 60.1691 57.5272 63.7243 55.2968 64.9947C54.3528 65.5291 53.204 65.4651 52.1224 65.5355C48.8488 65.7531 45.8536 67.3467 42.7784 68.4923C39.9752 69.5323 36.0584 70.4891 33.3384 68.7675C34.1 68.4571 38.5384 67.9355 38.7656 67.3435Z" fill="white"/>
<path d="M26.4521 90.0889C28.6377 86.8313 32.3081 84.0313 33.0025 80.1689L34.0969 74.0889C34.0969 74.0889 31.4953 82.1177 30.2793 83.1993C29.0633 84.2809 25.4121 89.1321 25.4121 89.1321L26.4521 90.0889Z" fill="#4B66E3"/>
<path d="M89.4378 57.0716L89.3994 56.7868C89.3482 56.6908 89.3002 56.5948 89.249 56.502C89.313 56.6908 89.377 56.8796 89.4378 57.0716Z" fill="#E4F8E9"/>
<path d="M46.7015 82.8443L46.2599 81.1867C45.5879 82.9318 44.9148 84.6747 44.2407 86.4155C43.8599 87.4043 43.4727 88.4219 43.4663 89.4811C43.499 90.0354 43.6729 90.5722 43.9714 91.0404C44.2699 91.5086 44.6832 91.8927 45.1719 92.1563C44.9419 90.3856 45.3295 88.5897 46.2695 87.0715C47.2039 85.5355 48.3751 84.1499 49.2135 82.5627C51.0247 79.1419 51.6263 75.0171 52.9639 71.4043C51.7831 71.4395 50.4039 75.4875 49.8759 76.5531L46.7015 82.8443Z" fill="#4B66E3"/>
<path d="M53.8696 46.1533L49.9112 45.3053L40.5 47.3597L48.3752 52.4797L52.1768 51.8717L55.6776 49.7437L60.3912 51.1101L61.4568 52.1757L68.756 52.6333L78.036 50.5021L87.1592 50.0477L90.8072 46.0797L96.8872 46.3837L101.687 44.8893L92.98 38.7197L87.6232 41.9645C87.6232 41.9645 88.2312 43.3341 86.1032 43.9421C83.9752 44.5501 81.844 45.0045 81.844 45.0045H77.7288L74.3816 45.6125L66.4744 47.1357C66.4744 47.1357 57.8056 45.9165 57.1944 46.2237C56.5832 46.5309 53.8696 46.1533 53.8696 46.1533Z" fill="#4B66E3"/>
<path opacity="0.8" d="M53.8696 46.1533L49.9112 45.3053L40.5 47.3597L48.3752 52.4797L52.1768 51.8717L55.6776 49.7437L60.3912 51.1101L61.4568 52.1757L68.756 52.6333L78.036 50.5021L87.1592 50.0477L90.8072 46.0797L96.8872 46.3837L101.687 44.8893L92.98 38.7197L87.6232 41.9645C87.6232 41.9645 88.2312 43.3341 86.1032 43.9421C83.9752 44.5501 81.844 45.0045 81.844 45.0045H77.7288L74.3816 45.6125L66.4744 47.1357C66.4744 47.1357 57.8056 45.9165 57.1944 46.2237C56.5832 46.5309 53.8696 46.1533 53.8696 46.1533Z" fill="white"/>
<path d="M65.105 64.1725C65.4954 62.5149 65.7226 60.2846 66.113 58.627C63.825 61.3374 63.4826 65.2926 61.2106 68.0158C60.2282 69.1966 58.9354 70.083 57.9242 71.2382C56.3754 73.0206 55.5946 75.3246 54.849 77.5646C53.1914 82.5502 51.5114 87.7662 52.289 92.963C53.8474 89.283 53.8634 87.5933 56.753 83.9453C58.4394 81.8173 59.0762 76.9054 60.4298 74.5662C61.9306 71.9678 63.3642 71.6478 63.6298 69.715C63.8371 68.0501 64.2465 66.4167 64.849 64.851L65.105 64.1725Z" fill="#4B66E3"/>
<path d="M87.8379 54.1855C89.2203 57.2735 90.9579 59.9167 92.6379 62.6527C94.1419 65.1167 98.4971 65.8687 99.9083 68.3871C103.428 74.6687 105.611 76.7807 107.767 81.3855L110.967 80.7199C108.629 76.1729 105.708 71.9505 102.276 68.1599C104.059 68.6207 107.716 68.8287 107.745 68.4799C104.446 67.6063 103.291 66.7391 100.385 64.9439C96.2667 62.3839 90.6699 58.4991 87.9307 54.5055" fill="#4B66E3"/>
<path d="M106.443 65.0752C106.552 65.3728 106.66 65.6704 106.763 65.968L102.161 65.5232C104.308 66.5056 106.526 67.5424 108.065 69.3344C108.801 70.192 109.425 71.2544 110.481 71.6608C111.032 71.8688 111.636 71.872 112.203 72.032C114.036 72.5504 115.003 74.5088 115.748 76.2656L118.971 74.5312C118.011 74.576 117.108 74.0224 116.491 73.2896C115.913 72.5229 115.455 71.6726 115.134 70.768C114.895 70.3295 114.803 69.8259 114.872 69.3312C114.993 68.848 115.588 68.4672 115.998 68.7456C115.934 68.016 115.038 67.7408 114.347 67.5008C113.656 67.2608 112.9 66.4864 113.358 65.9008C113.764 65.392 114.574 65.7472 115.099 66.1312C113.076 64.7904 108.689 64.2272 106.443 65.0752Z" fill="#4B66E3"/>
<path opacity="0.8" d="M26.4521 90.0889C28.6377 86.8313 32.3081 84.0313 33.0025 80.1689L34.0969 74.0889C34.0969 74.0889 31.4953 82.1177 30.2793 83.1993C29.0633 84.2809 25.4121 89.1321 25.4121 89.1321L26.4521 90.0889Z" fill="white"/>
<path opacity="0.8" d="M46.7015 82.8443L46.2599 81.1867C45.5879 82.9318 44.9148 84.6747 44.2407 86.4155C43.8599 87.4043 43.4727 88.4219 43.4663 89.4811C43.499 90.0354 43.6729 90.5722 43.9714 91.0404C44.2699 91.5086 44.6832 91.8927 45.1719 92.1563C44.9419 90.3856 45.3295 88.5897 46.2695 87.0715C47.2039 85.5355 48.3751 84.1499 49.2135 82.5627C51.0247 79.1419 51.6263 75.0171 52.9639 71.4043C51.7831 71.4395 50.4039 75.4875 49.8759 76.5531L46.7015 82.8443Z" fill="white"/>
<g opacity="0.8">
<path d="M65.105 64.1725C65.4954 62.5149 65.7226 60.2846 66.113 58.627C63.825 61.3374 63.4826 65.2926 61.2106 68.0158C60.2282 69.1966 58.9354 70.083 57.9242 71.2382C56.3754 73.0206 55.5946 75.3246 54.849 77.5646C53.1914 82.5502 51.5114 87.7662 52.289 92.963C53.8474 89.283 53.8634 87.5933 56.753 83.9453C58.4394 81.8173 59.0762 76.9054 60.4298 74.5662C61.9306 71.9678 63.3642 71.6478 63.6298 69.715C63.8371 68.0501 64.2465 66.4167 64.849 64.851L65.105 64.1725Z" fill="white"/>
</g>
<path opacity="0.8" d="M87.8379 54.1855C89.2203 57.2735 90.9579 59.9167 92.6379 62.6527C94.1419 65.1167 98.4971 65.8687 99.9083 68.3871C103.428 74.6687 105.611 76.7807 107.767 81.3855L110.967 80.7199C108.629 76.1729 105.708 71.9505 102.276 68.1599C104.059 68.6207 107.716 68.8287 107.745 68.4799C104.446 67.6063 103.291 66.7391 100.385 64.9439C96.2667 62.3839 90.6699 58.4991 87.9307 54.5055" fill="white"/>
<path opacity="0.8" d="M106.443 65.0752C106.552 65.3728 106.66 65.6704 106.763 65.968L102.161 65.5232C104.308 66.5056 106.526 67.5424 108.065 69.3344C108.801 70.192 109.425 71.2544 110.481 71.6608C111.032 71.8688 111.636 71.872 112.203 72.032C114.036 72.5504 115.003 74.5088 115.748 76.2656L118.971 74.5312C118.011 74.576 117.108 74.0224 116.491 73.2896C115.913 72.5229 115.455 71.6726 115.134 70.768C114.895 70.3295 114.803 69.8259 114.872 69.3312C114.993 68.848 115.588 68.4672 115.998 68.7456C115.934 68.016 115.038 67.7408 114.347 67.5008C113.656 67.2608 112.9 66.4864 113.358 65.9008C113.764 65.392 114.574 65.7472 115.099 66.1312C113.076 64.7904 108.689 64.2272 106.443 65.0752Z" fill="white"/>
<path d="M47.4472 70.1501L46.756 71.1517C47.8042 70.5773 48.9985 70.3246 50.1896 70.4253C50.0456 70.6685 49.8984 70.9117 49.7544 71.1581L52.6344 69.5581C52.6824 69.9261 52.7272 70.2941 52.772 70.6621L56.8328 66.3965C51.636 67.1069 46.228 68.1309 41.3096 69.9933C42.02 70.0605 47.1144 70.6333 47.4472 70.1501Z" fill="#4B66E3"/>
<path opacity="0.8" d="M47.4472 70.1501L46.756 71.1517C47.8042 70.5773 48.9985 70.3246 50.1896 70.4253C50.0456 70.6685 49.8984 70.9117 49.7544 71.1581L52.6344 69.5581C52.6824 69.9261 52.7272 70.2941 52.772 70.6621L56.8328 66.3965C51.636 67.1069 46.228 68.1309 41.3096 69.9933C42.02 70.0605 47.1144 70.6333 47.4472 70.1501Z" fill="white"/>
<path d="M66.3019 39.8399C66.8811 39.3727 67.8091 39.7791 68.1707 40.4319C68.5323 41.0847 68.4907 41.8687 68.5323 42.6111C68.5739 43.3535 68.6827 44.1695 69.2363 44.6655C68.6859 43.3855 69.4795 41.8271 70.6539 41.0591C71.8283 40.2911 73.2811 40.0991 74.6763 39.9487C74.2727 39.3846 73.7534 38.9133 73.1529 38.5661C72.5525 38.219 71.8849 38.0041 71.1947 37.9359C70.7403 37.8943 70.2347 37.8911 69.9147 37.5583C69.7401 37.3313 69.6296 37.0617 69.5947 36.7775C69.1574 34.6975 68.72 32.6175 68.2827 30.5375C68.2021 31.5993 67.9604 32.6427 67.5659 33.6319C68.1163 32.2559 65.6267 28.6719 64.1963 29.4239C66.4779 31.7183 66.5515 36.7999 66.3019 39.8399Z" fill="#4B66E3"/>
<path opacity="0.8" d="M66.3019 39.8399C66.8811 39.3727 67.8091 39.7791 68.1707 40.4319C68.5323 41.0847 68.4907 41.8687 68.5323 42.6111C68.5739 43.3535 68.6827 44.1695 69.2363 44.6655C68.6859 43.3855 69.4795 41.8271 70.6539 41.0591C71.8283 40.2911 73.2811 40.0991 74.6763 39.9487C74.2727 39.3846 73.7534 38.9133 73.1529 38.5661C72.5525 38.219 71.8849 38.0041 71.1947 37.9359C70.7403 37.8943 70.2347 37.8911 69.9147 37.5583C69.7401 37.3313 69.6296 37.0617 69.5947 36.7775C69.1574 34.6975 68.72 32.6175 68.2827 30.5375C68.2021 31.5993 67.9604 32.6427 67.5659 33.6319C68.1163 32.2559 65.6267 28.6719 64.1963 29.4239C66.4779 31.7183 66.5515 36.7999 66.3019 39.8399Z" fill="white"/>
<path d="M69.252 24.3896C71.4152 26.3096 72.6696 29.0552 73.8664 31.7016L77.476 39.7016C77.8581 39.2478 78.1043 38.6953 78.1864 38.1077C78.2685 37.5201 78.1831 36.9213 77.94 36.38C78.0232 38.364 80.0104 40.0472 81.9784 39.8072C81.925 38.3246 81.8717 36.843 81.8184 35.3624L83.7384 38.9656C83.7604 37.0513 83.5017 35.1441 82.9704 33.3048C84.0744 34.22 84.4232 35.7272 84.9608 37.0552C85.4984 38.3832 86.5447 39.7688 87.9751 39.724C88.4199 39.6472 88.6152 40.396 88.2536 40.684C87.892 40.972 87.38 40.8664 86.9736 40.668C86.5672 40.4696 86.1863 40.188 85.7351 40.1432C84.5959 40.0344 83.9688 41.3752 83.1944 42.22C81.8696 43.6664 79.6744 43.7816 77.7064 43.7976C77.5272 40.7224 73.0695 37.596 72.8583 36.8056C71.1847 30.5688 72.0712 27.7656 69.364 24.9176L70.1192 25.7048" fill="#4B66E3"/>
<path opacity="0.8" d="M69.252 24.3896C71.4152 26.3096 72.6696 29.0552 73.8664 31.7016L77.476 39.7016C77.8581 39.2478 78.1043 38.6953 78.1864 38.1077C78.2685 37.5201 78.1831 36.9213 77.94 36.38C78.0232 38.364 80.0104 40.0472 81.9784 39.8072C81.925 38.3246 81.8717 36.843 81.8184 35.3624L83.7384 38.9656C83.7604 37.0513 83.5017 35.1441 82.9704 33.3048C84.0744 34.22 84.4232 35.7272 84.9608 37.0552C85.4984 38.3832 86.5447 39.7688 87.9751 39.724C88.4199 39.6472 88.6152 40.396 88.2536 40.684C87.892 40.972 87.38 40.8664 86.9736 40.668C86.5672 40.4696 86.1863 40.188 85.7351 40.1432C84.5959 40.0344 83.9688 41.3752 83.1944 42.22C81.8696 43.6664 79.6744 43.7816 77.7064 43.7976C77.5272 40.7224 73.0695 37.596 72.8583 36.8056C71.1847 30.5688 72.0712 27.7656 69.364 24.9176L70.1192 25.7048" fill="white"/>
<path d="M76.5739 23.0683C77.5787 23.3883 78.6859 23.3627 79.6843 23.7083C79.8018 23.1554 79.7908 22.5828 79.6523 22.0347C80.2956 23.0391 80.6764 24.1889 80.7595 25.3787L72.7435 25.4683L72.1035 24.7611L73.4987 23.8939C73.7421 24.1662 74.065 24.3551 74.4216 24.4337C74.7782 24.5124 75.1506 24.4769 75.4859 24.3323C75.0123 23.6411 74.4875 22.6587 74.6891 21.8779C75.3803 22.0443 75.7995 22.8091 76.5739 23.0683Z" fill="#4B66E3"/>
<path opacity="0.8" d="M76.5739 23.0683C77.5787 23.3883 78.6859 23.3627 79.6843 23.7083C79.8018 23.1554 79.7908 22.5828 79.6523 22.0347C80.2956 23.0391 80.6764 24.1889 80.7595 25.3787L72.7435 25.4683L72.1035 24.7611L73.4987 23.8939C73.7421 24.1662 74.065 24.3551 74.4216 24.4337C74.7782 24.5124 75.1506 24.4769 75.4859 24.3323C75.0123 23.6411 74.4875 22.6587 74.6891 21.8779C75.3803 22.0443 75.7995 22.8091 76.5739 23.0683Z" fill="white"/>
<path d="M55.8282 50.6391C55.8282 50.6391 56.1322 53.2247 55.5082 55.2023C54.8842 57.1799 56.4202 57.6343 58.0938 55.3527C59.7674 53.0711 60.0714 52.0055 58.3978 51.2471C56.7242 50.4887 55.8282 50.6391 55.8282 50.6391Z" fill="#4B66E3"/>
<path opacity="0.8" d="M55.8282 50.6391C55.8282 50.6391 56.1322 53.2247 55.5082 55.2023C54.8842 57.1799 56.4202 57.6343 58.0938 55.3527C59.7674 53.0711 60.0714 52.0055 58.3978 51.2471C56.7242 50.4887 55.8282 50.6391 55.8282 50.6391Z" fill="white"/>
<path d="M43.3579 51.2471C43.3579 51.2471 44.4235 53.8327 44.2699 55.6567C44.1163 57.4807 45.6395 55.5063 45.6395 55.5063L45.1819 58.2391C45.1819 58.2391 47.4635 55.1991 47.1595 53.5255C46.8555 51.8519 43.3579 51.2471 43.3579 51.2471Z" fill="#4B66E3"/>
<path opacity="0.8" d="M43.3579 51.2471C43.3579 51.2471 44.4235 53.8327 44.2699 55.6567C44.1163 57.4807 45.6395 55.5063 45.6395 55.5063L45.1819 58.2391C45.1819 58.2391 47.4635 55.1991 47.1595 53.5255C46.8555 51.8519 43.3579 51.2471 43.3579 51.2471Z" fill="white"/>
<path d="M106.42 60.6426C106.215 59.9386 105.041 59.8426 104.724 60.5018C105.044 59.8842 104.286 59.3018 103.796 58.809C102.542 57.529 102.82 55.465 103.185 53.7178C102.459 54.204 101.889 54.889 101.542 55.6909C101.195 56.4927 101.087 57.3775 101.23 58.2394C101.077 57.9242 100.81 57.6795 100.482 57.5559C100.154 57.4322 99.7919 57.4391 99.4692 57.5749C99.1465 57.7108 98.8883 57.9654 98.7478 58.2861C98.6074 58.6069 98.5954 58.9693 98.7144 59.2986C97.8741 59.4817 97.01 59.5303 96.1544 59.4426C95.7292 59.3943 95.3213 59.247 94.9634 59.0125C94.6055 58.7779 94.3076 58.4627 94.0936 58.0922C93.908 57.7178 93.7096 57.1962 93.2936 57.2378C93.0088 57.2666 92.8424 57.5578 92.6184 57.7306C91.8984 58.2842 90.8776 57.4874 90.548 56.6426C90.2184 55.7978 90.1224 54.7738 89.4056 54.2202C89.3608 54.8122 89.316 55.4042 89.2744 55.9962L89.3864 56.777C90.4915 58.9103 91.5976 61.0372 92.7048 63.1578C92.9736 62.4218 93.3448 61.5898 94.0936 61.3658C94.7496 61.1706 95.428 61.5258 96.0392 61.8298C98.6944 63.1383 101.663 63.676 104.609 63.3818C104.752 62.842 104.894 62.3012 105.034 61.7594L109.3 63.3338L106.42 60.6426Z" fill="#4B66E3"/>
<path opacity="0.8" d="M106.42 60.6426C106.215 59.9386 105.041 59.8426 104.724 60.5018C105.044 59.8842 104.286 59.3018 103.796 58.809C102.542 57.529 102.82 55.465 103.185 53.7178C102.459 54.204 101.889 54.889 101.542 55.6909C101.195 56.4927 101.087 57.3775 101.23 58.2394C101.077 57.9242 100.81 57.6795 100.482 57.5559C100.154 57.4322 99.7919 57.4391 99.4692 57.5749C99.1465 57.7108 98.8883 57.9654 98.7478 58.2861C98.6074 58.6069 98.5954 58.9693 98.7144 59.2986C97.8741 59.4817 97.01 59.5303 96.1544 59.4426C95.7292 59.3943 95.3213 59.247 94.9634 59.0125C94.6055 58.7779 94.3076 58.4627 94.0936 58.0922C93.908 57.7178 93.7096 57.1962 93.2936 57.2378C93.0088 57.2666 92.8424 57.5578 92.6184 57.7306C91.8984 58.2842 90.8776 57.4874 90.548 56.6426C90.2184 55.7978 90.1224 54.7738 89.4056 54.2202C89.3608 54.8122 89.316 55.4042 89.2744 55.9962L89.3864 56.777C90.4915 58.9103 91.5976 61.0372 92.7048 63.1578C92.9736 62.4218 93.3448 61.5898 94.0936 61.3658C94.7496 61.1706 95.428 61.5258 96.0392 61.8298C98.6944 63.1383 101.663 63.676 104.609 63.3818C104.752 62.842 104.894 62.3012 105.034 61.7594L109.3 63.3338L106.42 60.6426Z" fill="white"/>
</g>
<path d="M10.5098 89.1166L23.1562 70.899L30.5898 68.659L32.2442 62.9374C32.6319 61.5983 33.2926 60.3541 34.1848 59.2829C35.077 58.2117 36.1813 57.3369 37.4282 56.7134L40.5002 47.3598L49.9146 45.1198L60.7658 23.1038L67.9498 22.8574L74.6378 19.6382L80.5834 17.1582L87.025 24.5918L92.9802 38.7198L101.7 44.8798L110.609 62.7198C118.281 65.5352 124.812 70.7996 129.191 77.699L137.46 90.723L54.8682 95.1774L10.5098 89.1166Z" stroke="#4B66E3" stroke-linecap="round" stroke-linejoin="round"/>
<path d="M45.8983 81.7822C45.0045 85.0078 44.1127 88.2334 43.2231 91.459" stroke="#4B66E3" stroke-linecap="round" stroke-linejoin="round"/>
<path d="M86.0747 45.9933L91.7227 43.0781" stroke="#4B66E3" stroke-linecap="round" stroke-linejoin="round"/>
<path d="M90.3691 50.7834C91.5376 49.6919 92.8769 48.799 94.3339 48.1402C95.5883 47.5738 97.0891 48.0506 98.4651 48.0378" stroke="#4B66E3" stroke-linecap="round" stroke-linejoin="round"/>
<path d="M26.4521 90.0898C28.6377 86.8322 32.3081 84.0322 33.0025 80.1698L34.0969 74.0898" stroke="#4B66E3" stroke-linecap="round" stroke-linejoin="round"/>
<path d="M61.9114 24.4834L63.585 27.3634C62.9582 27.7458 62.418 28.2546 61.9987 28.8573C61.5794 29.4601 61.2903 30.1436 61.1498 30.8642C60.6954 33.2962 60.5418 38.6178 60.5418 38.6178C60.5418 38.6178 58.8714 39.2258 58.2634 40.749C57.6554 42.2722 57.1978 46.2242 57.1978 46.2242L66.4778 47.1362L72.8778 45.917" stroke="#4B66E3" stroke-linecap="round" stroke-linejoin="round"/>
<path d="M68.4521 24.3193L70.4265 26.4473L72.7081 36.7993L75.5881 38.7769L77.4153 43.7945L83.1946 43.0361C83.1946 43.0361 83.4985 40.9049 85.0185 40.6009C85.432 40.5009 85.8653 40.5193 86.2688 40.6539C86.6723 40.7886 87.0297 41.0342 87.3001 41.3625L88.8201 40.4505" stroke="#4B66E3" stroke-linecap="round" stroke-linejoin="round"/>
<path d="M73.0122 25.8492H80.161L81.8346 25.0908C81.8346 25.0908 83.2042 25.8492 84.1162 25.5452C84.8079 25.3435 85.5237 25.2358 86.2442 25.2252" fill="white"/>
<path d="M73.0122 25.8492H80.161L81.8346 25.0908C81.8346 25.0908 83.2042 25.8492 84.1162 25.5452C84.8079 25.3435 85.5237 25.2358 86.2442 25.2252" stroke="#4B66E3" stroke-linecap="round" stroke-linejoin="round"/>
<path d="M100.388 45.4688L96.8905 46.3808C96.8905 46.3808 92.0233 46.0768 90.8105 46.0768C89.5977 46.0768 87.1593 50.032 87.1593 50.032L78.0361 50.4864L68.7561 52.6175C68.7561 52.6175 61.7609 52.768 60.6953 51.7024C59.6297 50.6368 55.6777 49.7279 55.6777 49.7279L52.1769 51.856L48.3753 52.48L42.9033 49.6" stroke="#4B66E3" stroke-linecap="round" stroke-linejoin="round"/>
<path d="M31.9531 68.8892L40.0139 69.6476L46.2603 66.9116C46.2603 66.9116 49.7579 65.846 55.3867 65.542" stroke="#4B66E3" stroke-linecap="round" stroke-linejoin="round"/>
<path d="M96.2827 62.0442C96.2827 62.0442 102.212 63.4138 104.648 63.1098C104.648 63.1098 104.328 61.5898 105.56 61.5898C106.792 61.5898 107.841 63.1098 107.841 63.1098L109.665 62.9562" stroke="#4B66E3" stroke-linecap="round" stroke-linejoin="round"/>
<path d="M87.7642 54.1377L92.6314 62.6529L99.9306 68.1281L105.863 78.3169L107.383 81.0561" stroke="#4B66E3" stroke-linecap="round" stroke-linejoin="round"/>
<path d="M115.898 76.0354C115.898 76.0354 114.986 74.365 113.924 72.8354C112.862 71.3058 110.423 71.773 110.423 71.773L107.991 68.573L100.084 64.7842" stroke="#4B66E3" stroke-linecap="round" stroke-linejoin="round"/>
<path d="M54.6122 68.7354C54.6122 68.7354 52.177 72.9945 51.265 76.6425C50.7276 78.8113 50.0685 80.948 49.2906 83.0426C49.2906 83.0426 47.313 85.017 46.4106 86.5402C45.5082 88.0634 45.1914 91.5577 45.1914 91.5577" stroke="#4B66E3" stroke-linecap="round" stroke-linejoin="round"/>
<path d="M52.7051 93.0527C53.1035 89.6257 54.5317 86.4001 56.8011 83.8015L59.4507 75.2735C60.1451 73.0335 61.6043 72.0735 63.5691 70.7935V69.8335L65.2427 63.5967" stroke="#4B66E3" stroke-linecap="round" stroke-linejoin="round"/>
<path d="M152.132 80.5215C152.044 82.0148 151.898 83.4996 151.693 84.9759C151.424 86.9142 151.052 88.8369 150.58 90.7359C149.479 95.1493 147.857 99.4161 145.748 103.446C144.762 105.347 143.673 107.193 142.487 108.976C118.455 109.705 68.9156 110.291 53.3636 103.453C53.2068 103.385 53.0436 103.315 52.9092 103.245C52.7748 103.174 52.6148 103.104 52.474 103.033C52.2756 102.934 52.0836 102.832 51.9012 102.713C51.7188 102.611 51.5428 102.505 51.37 102.393L51.3412 102.374L50.8804 102.07C50.5861 101.862 50.304 101.636 50.0356 101.395L49.8564 101.222C49.7956 101.165 49.7444 101.11 49.69 101.049C49.576 100.936 49.4691 100.815 49.37 100.688C49.3231 100.626 49.2783 100.565 49.2356 100.505C49.1492 100.381 49.0724 100.256 49.002 100.131C48.9636 100.064 48.9316 99.9935 48.8964 99.9295C48.8612 99.8655 48.8804 99.8911 48.8708 99.8687C48.8388 99.7919 48.8068 99.7183 48.778 99.6415C48.7492 99.5647 48.7236 99.4783 48.698 99.3951C48.6724 99.3119 48.6564 99.2287 48.6404 99.1455C48.6244 99.0623 48.6052 98.9439 48.5956 98.8415C48.5484 98.3345 48.6128 97.8233 48.7844 97.3439C48.81 97.2575 48.842 97.1775 48.874 97.0943C48.9761 96.8304 49.1003 96.5757 49.2452 96.3327C49.3444 96.1599 49.4564 95.9871 49.5652 95.8143C49.626 95.7279 49.69 95.6351 49.7604 95.5455C49.9751 95.2615 50.2047 94.9891 50.4484 94.7295C50.538 94.6335 50.6244 94.5439 50.7172 94.4511L50.8836 94.3615L50.9988 94.2975C51.3668 94.1055 52.106 93.7471 53.2836 93.2639L53.498 93.1775L54.026 92.9631C54.7129 92.69 55.5236 92.3913 56.458 92.0671L56.778 91.9519C57.5556 91.6831 58.4228 91.4015 59.3732 91.1071L59.7892 90.9791C59.962 90.9279 60.138 90.8703 60.3204 90.8191C60.6852 90.7071 61.0596 90.5951 61.45 90.4991C62.8676 90.0895 64.442 89.6607 66.1892 89.2191L67.354 88.9311L68.5636 88.6431C70.0036 88.2996 71.5481 87.9562 73.1972 87.6127C73.6676 87.5167 74.1572 87.4143 74.6372 87.3183L75.3764 87.1679L76.4452 86.9599L77.6772 86.7231L80.0996 86.2783L82.298 85.8975C82.8932 85.7983 83.498 85.6959 84.1188 85.5967L85.3476 85.4015L86.4164 85.2319L88.1284 84.9727L89.0884 84.8287C90.0484 84.6879 91.05 84.5471 92.0708 84.4095L94.0772 84.1375L95.1844 83.9967L96.25 83.8591C97.7092 83.6799 99.2121 83.5007 100.759 83.3215C101.493 83.2383 102.239 83.1561 102.999 83.0751C103.149 83.0751 103.296 83.0431 103.447 83.0271L104.173 82.9503C104.964 82.8671 105.773 82.7839 106.58 82.7039C106.765 82.6847 106.954 82.6687 107.14 82.6463C107.78 82.5855 108.404 82.5215 109.06 82.4639C109.882 82.3839 110.72 82.3071 111.565 82.2335L112.983 82.1087L115.005 81.9391C116.944 81.7833 118.937 81.6308 120.983 81.4815L122.391 81.3823L123.818 81.2863L126.836 81.0943C127.776 81.0367 128.73 80.9791 129.693 80.9279C130.199 80.8991 130.701 80.8671 131.21 80.8447L132.96 80.7487L135.84 80.6079L137.44 80.5343L152.132 80.5215Z" fill="#4B66E3"/>
<path opacity="0.2" d="M152.132 80.5215C152.044 82.0148 151.898 83.4996 151.693 84.9759C151.424 86.9142 151.052 88.8369 150.58 90.7359C149.479 95.1493 147.857 99.4161 145.748 103.446C144.762 105.347 143.673 107.193 142.487 108.976C118.455 109.705 68.9156 110.291 53.3636 103.453C53.2068 103.385 53.0436 103.315 52.9092 103.245C52.7748 103.174 52.6148 103.104 52.474 103.033C52.2756 102.934 52.0836 102.832 51.9012 102.713C51.7188 102.611 51.5428 102.505 51.37 102.393L51.3412 102.374L50.8804 102.07C50.5861 101.862 50.304 101.636 50.0356 101.395L49.8564 101.222C49.7956 101.165 49.7444 101.11 49.69 101.049C49.576 100.936 49.4691 100.815 49.37 100.688C49.3231 100.626 49.2783 100.565 49.2356 100.505C49.1492 100.381 49.0724 100.256 49.002 100.131C48.9636 100.064 48.9316 99.9935 48.8964 99.9295C48.8612 99.8655 48.8804 99.8911 48.8708 99.8687C48.8388 99.7919 48.8068 99.7183 48.778 99.6415C48.7492 99.5647 48.7236 99.4783 48.698 99.3951C48.6724 99.3119 48.6564 99.2287 48.6404 99.1455C48.6244 99.0623 48.6052 98.9439 48.5956 98.8415C48.5484 98.3345 48.6128 97.8233 48.7844 97.3439C48.81 97.2575 48.842 97.1775 48.874 97.0943C48.9761 96.8304 49.1003 96.5757 49.2452 96.3327C49.3444 96.1599 49.4564 95.9871 49.5652 95.8143C49.626 95.7279 49.69 95.6351 49.7604 95.5455C49.9751 95.2615 50.2047 94.9891 50.4484 94.7295C50.538 94.6335 50.6244 94.5439 50.7172 94.4511L50.8836 94.3615L50.9988 94.2975C51.3668 94.1055 52.106 93.7471 53.2836 93.2639L53.498 93.1775L54.026 92.9631C54.7129 92.69 55.5236 92.3913 56.458 92.0671L56.778 91.9519C57.5556 91.6831 58.4228 91.4015 59.3732 91.1071L59.7892 90.9791C59.962 90.9279 60.138 90.8703 60.3204 90.8191C60.6852 90.7071 61.0596 90.5951 61.45 90.4991C62.8676 90.0895 64.442 89.6607 66.1892 89.2191L67.354 88.9311L68.5636 88.6431C70.0036 88.2996 71.5481 87.9562 73.1972 87.6127C73.6676 87.5167 74.1572 87.4143 74.6372 87.3183L75.3764 87.1679L76.4452 86.9599L77.6772 86.7231L80.0996 86.2783L82.298 85.8975C82.8932 85.7983 83.498 85.6959 84.1188 85.5967L85.3476 85.4015L86.4164 85.2319L88.1284 84.9727L89.0884 84.8287C90.0484 84.6879 91.05 84.5471 92.0708 84.4095L94.0772 84.1375L95.1844 83.9967L96.25 83.8591C97.7092 83.6799 99.2121 83.5007 100.759 83.3215C101.493 83.2383 102.239 83.1561 102.999 83.0751C103.149 83.0751 103.296 83.0431 103.447 83.0271L104.173 82.9503C104.964 82.8671 105.773 82.7839 106.58 82.7039C106.765 82.6847 106.954 82.6687 107.14 82.6463C107.78 82.5855 108.404 82.5215 109.06 82.4639C109.882 82.3839 110.72 82.3071 111.565 82.2335L112.983 82.1087L115.005 81.9391C116.944 81.7833 118.937 81.6308 120.983 81.4815L122.391 81.3823L123.818 81.2863L126.836 81.0943C127.776 81.0367 128.73 80.9791 129.693 80.9279C130.199 80.8991 130.701 80.8671 131.21 80.8447L132.96 80.7487L135.84 80.6079L137.44 80.5343L152.132 80.5215Z" fill="white"/>
<path d="M152.132 80.5215C152.045 82.0148 151.898 83.4996 151.694 84.9759C151.424 86.9142 151.053 88.8369 150.58 90.7359H137.46C113.063 91.8303 95.012 93.9359 81.892 96.1759C65.9528 98.9055 57.2904 101.849 53.3768 103.453C53.22 103.385 53.0568 103.315 52.9224 103.245C52.788 103.174 52.628 103.104 52.4872 103.033C52.2888 102.934 52.0968 102.832 51.9144 102.713C51.732 102.611 51.556 102.505 51.3832 102.393L51.3544 102.374L50.8936 102.07C50.5966 101.865 50.3143 101.64 50.0488 101.395L49.8696 101.222C49.8088 101.165 49.7576 101.11 49.7032 101.049C49.5892 100.936 49.4823 100.815 49.3832 100.688C49.3362 100.626 49.2914 100.565 49.2488 100.505C49.1626 100.386 49.0846 100.261 49.0152 100.131C48.9768 100.064 48.9448 99.9935 48.9096 99.9295C48.8744 99.8655 48.8936 99.8911 48.884 99.8687C48.852 99.7919 48.82 99.7183 48.7912 99.6415C48.7624 99.5647 48.7368 99.4783 48.7112 99.3951C48.6856 99.3119 48.6696 99.2287 48.6536 99.1455C48.6376 99.0623 48.6184 98.9439 48.6088 98.8415C48.5615 98.3345 48.626 97.8233 48.7976 97.3439C48.8232 97.2575 48.8552 97.1775 48.8872 97.0943C48.9893 96.8304 49.1135 96.5757 49.2584 96.3327C49.3549 96.1538 49.4617 95.9807 49.5784 95.8143C49.6392 95.7279 49.7032 95.6351 49.7736 95.5455C49.9883 95.2615 50.2179 94.9891 50.4616 94.7295C50.5448 94.6399 50.6344 94.5439 50.7272 94.4511L50.8936 94.3615L51.0088 94.2975C51.3768 94.1055 52.116 93.7471 53.2936 93.2639L53.508 93.1775L54.036 92.9631C54.7229 92.69 55.5336 92.3913 56.468 92.0671L56.788 91.9519C57.5656 91.6831 58.4328 91.4015 59.3832 91.1071L59.7992 90.9791C59.972 90.9279 60.148 90.8703 60.3304 90.8191C60.6952 90.7071 61.0696 90.5951 61.46 90.4991C62.8776 90.0895 64.452 89.6607 66.1992 89.2191L67.364 88.9311L68.5736 88.6431C70.0136 88.2996 71.5581 87.9562 73.2072 87.6127C73.6776 87.5167 74.1672 87.4143 74.6472 87.3183L75.3864 87.1679L76.4552 86.9599L77.6872 86.7231L80.1096 86.2783L82.308 85.8975C82.9032 85.7983 83.508 85.6959 84.1288 85.5967L85.3576 85.4015L86.4264 85.2319L88.1384 84.9727L89.0984 84.8287C90.0584 84.6879 91.06 84.5471 92.0808 84.4095L94.0872 84.1375L95.1944 83.9967L96.26 83.8591C97.7192 83.6799 99.2221 83.5007 100.769 83.3215L103.009 83.0751C103.159 83.0751 103.306 83.0431 103.457 83.0271L104.183 82.9503L106.59 82.7039C106.775 82.6847 106.964 82.6687 107.15 82.6463L109.07 82.4639L111.575 82.2335L112.993 82.1087L115.015 81.9391C116.954 81.7833 118.947 81.6308 120.993 81.4815L122.401 81.3823L123.828 81.2863L126.846 81.0943C127.786 81.0367 128.74 80.9791 129.703 80.9279C130.209 80.8991 130.711 80.8671 131.22 80.8447L132.97 80.7487L135.85 80.6079L137.45 80.5343L152.132 80.5215Z" fill="#4B66E3"/>
<path opacity="0.3" d="M152.132 80.5215C152.045 82.0148 151.898 83.4996 151.694 84.9759C151.424 86.9142 151.053 88.8369 150.58 90.7359H137.46C113.063 91.8303 95.012 93.9359 81.892 96.1759C65.9528 98.9055 57.2904 101.849 53.3768 103.453C53.22 103.385 53.0568 103.315 52.9224 103.245C52.788 103.174 52.628 103.104 52.4872 103.033C52.2888 102.934 52.0968 102.832 51.9144 102.713C51.732 102.611 51.556 102.505 51.3832 102.393L51.3544 102.374L50.8936 102.07C50.5966 101.865 50.3143 101.64 50.0488 101.395L49.8696 101.222C49.8088 101.165 49.7576 101.11 49.7032 101.049C49.5892 100.936 49.4823 100.815 49.3832 100.688C49.3362 100.626 49.2914 100.565 49.2488 100.505C49.1626 100.386 49.0846 100.261 49.0152 100.131C48.9768 100.064 48.9448 99.9935 48.9096 99.9295C48.8744 99.8655 48.8936 99.8911 48.884 99.8687C48.852 99.7919 48.82 99.7183 48.7912 99.6415C48.7624 99.5647 48.7368 99.4783 48.7112 99.3951C48.6856 99.3119 48.6696 99.2287 48.6536 99.1455C48.6376 99.0623 48.6184 98.9439 48.6088 98.8415C48.5615 98.3345 48.626 97.8233 48.7976 97.3439C48.8232 97.2575 48.8552 97.1775 48.8872 97.0943C48.9893 96.8304 49.1135 96.5757 49.2584 96.3327C49.3549 96.1538 49.4617 95.9807 49.5784 95.8143C49.6392 95.7279 49.7032 95.6351 49.7736 95.5455C49.9883 95.2615 50.2179 94.9891 50.4616 94.7295C50.5448 94.6399 50.6344 94.5439 50.7272 94.4511L50.8936 94.3615L51.0088 94.2975C51.3768 94.1055 52.116 93.7471 53.2936 93.2639L53.508 93.1775L54.036 92.9631C54.7229 92.69 55.5336 92.3913 56.468 92.0671L56.788 91.9519C57.5656 91.6831 58.4328 91.4015 59.3832 91.1071L59.7992 90.9791C59.972 90.9279 60.148 90.8703 60.3304 90.8191C60.6952 90.7071 61.0696 90.5951 61.46 90.4991C62.8776 90.0895 64.452 89.6607 66.1992 89.2191L67.364 88.9311L68.5736 88.6431C70.0136 88.2996 71.5581 87.9562 73.2072 87.6127C73.6776 87.5167 74.1672 87.4143 74.6472 87.3183L75.3864 87.1679L76.4552 86.9599L77.6872 86.7231L80.1096 86.2783L82.308 85.8975C82.9032 85.7983 83.508 85.6959 84.1288 85.5967L85.3576 85.4015L86.4264 85.2319L88.1384 84.9727L89.0984 84.8287C90.0584 84.6879 91.06 84.5471 92.0808 84.4095L94.0872 84.1375L95.1944 83.9967L96.26 83.8591C97.7192 83.6799 99.2221 83.5007 100.769 83.3215L103.009 83.0751C103.159 83.0751 103.306 83.0431 103.457 83.0271L104.183 82.9503L106.59 82.7039C106.775 82.6847 106.964 82.6687 107.15 82.6463L109.07 82.4639L111.575 82.2335L112.993 82.1087L115.015 81.9391C116.954 81.7833 118.947 81.6308 120.993 81.4815L122.401 81.3823L123.828 81.2863L126.846 81.0943C127.786 81.0367 128.74 80.9791 129.703 80.9279C130.209 80.8991 130.711 80.8671 131.22 80.8447L132.97 80.7487L135.85 80.6079L137.45 80.5343L152.132 80.5215Z" fill="white"/>
<path d="M150.58 90.7236H137.46C113.063 91.818 95.0117 93.9236 81.8917 96.1636C65.9525 98.8932 57.2901 101.837 53.3765 103.44" stroke="#515B60" stroke-miterlimit="10"/>
<path d="M142.452 109.014L71.8182 111.254L21.3222 112.835C15.5426 105.512 11.5933 96.9154 9.80225 87.7598C10.7942 87.8782 20.535 89.0398 34.3942 90.6686L44.2822 91.8398L54.0422 92.9758C62.9414 94.0126 72.4646 95.107 81.8822 96.1758C104.282 98.7358 126.113 101.123 137.585 102.15C140.334 102.378 143.063 102.812 145.748 103.446C144.762 105.347 143.674 107.193 142.487 108.976L142.452 109.014Z" fill="#4B66E3"/>
<path opacity="0.1" d="M142.452 109.014L71.8182 111.254L21.3222 112.835C15.5426 105.512 11.5933 96.9154 9.80225 87.7598C10.7942 87.8782 20.535 89.0398 34.3942 90.6686L44.2822 91.8398L54.0422 92.9758C62.9414 94.0126 72.4646 95.107 81.8822 96.1758C104.282 98.7358 126.113 101.123 137.585 102.15C140.334 102.378 143.063 102.812 145.748 103.446C144.762 105.347 143.674 107.193 142.487 108.976L142.452 109.014Z" fill="#263238"/>
<path d="M9.77979 87.7539C10.7718 87.8723 20.5126 89.0339 34.3718 90.6627L44.2822 91.8403L54.0422 92.9763C62.9414 94.0131 72.4646 95.1075 81.8822 96.1763C104.282 98.7363 126.113 101.124 137.585 102.151C140.334 102.379 143.063 102.812 145.748 103.447" stroke="#515B60" stroke-miterlimit="10"/>
<path d="M110.033 100.531L113.028 95.2607L116.094 100.49L110.033 100.531Z" fill="white"/>
<path d="M110.865 100.471L113.022 96.6787L115.226 100.442L110.865 100.471Z" fill="#263238"/>
<path d="M113.021 96.6787L113.047 100.512" stroke="#3C464C" stroke-linecap="round" stroke-linejoin="round"/>
<path d="M113.028 95.2613L116.093 100.49L122.445 100.449L119.377 95.2197L113.028 95.2613Z" fill="#263238"/>
<path d="M115.892 96.599L117.104 98.6694L119.616 98.6534L118.404 96.583L115.892 96.599Z" fill="#263238"/>
<path d="M152.231 77.213C152.231 77.533 152.231 77.8306 152.231 78.1346C152.231 78.2658 152.231 78.4002 152.231 78.5314C152.231 78.7458 152.231 78.9634 152.215 79.1714C152.215 79.2994 152.215 79.4306 152.199 79.5586C152.199 79.8786 152.174 80.1986 152.151 80.5186C152.129 80.8386 152.11 81.1938 152.084 81.5266C152.068 81.7282 152.052 81.9298 152.03 82.1314C152.007 82.333 151.998 82.541 151.975 82.7426C151.943 83.0626 151.908 83.405 151.866 83.7314C151.844 83.9586 151.815 84.1922 151.783 84.4226C151.783 84.5442 151.754 84.6626 151.735 84.7842C151.735 84.845 151.735 84.9122 151.713 84.973C145.882 86.8258 132.302 88.5602 102.177 83.4562C102.177 83.4562 102.647 83.325 103.492 83.0114C107.556 81.5138 120.254 75.8978 130.407 61.2802C136.094 53.0946 141.953 55.2002 146.602 59.7954C150.132 66.1218 152.231 72.1378 152.231 77.213Z" fill="#4B66E3"/>
<g opacity="0.2">
<path d="M152.231 77.213C152.231 77.533 152.231 77.8306 152.231 78.1346C152.231 78.2658 152.231 78.4002 152.231 78.5314C152.231 78.7458 152.231 78.9634 152.215 79.1714C152.215 79.2994 152.215 79.4306 152.199 79.5586C152.199 79.8786 152.174 80.1986 152.151 80.5186C152.129 80.8386 152.11 81.1938 152.084 81.5266C152.068 81.7282 152.052 81.9298 152.03 82.1314C152.007 82.333 151.998 82.541 151.975 82.7426C151.943 83.0626 151.908 83.405 151.866 83.7314C151.844 83.9586 151.815 84.1922 151.783 84.4226C151.783 84.5442 151.754 84.6626 151.735 84.7842C151.735 84.845 151.735 84.9122 151.713 84.973C145.882 86.8258 132.302 88.5602 102.177 83.4562C102.177 83.4562 102.647 83.325 103.492 83.0114C107.556 81.5138 120.254 75.8978 130.407 61.2802C136.094 53.0946 141.953 55.2002 146.602 59.7954C150.132 66.1218 152.231 72.1378 152.231 77.213Z" fill="white"/>
</g>
<path d="M151.687 84.9758C145.856 86.8286 132.276 88.563 102.151 83.459" stroke="#515B60" stroke-miterlimit="10"/>
<path d="M8.41992 98.0353L13.2135 84.4577H9.78312L13.8951 72.8097H11.1431L18.0071 53.3633L24.8711 72.8097H22.1191L26.2311 84.4577H22.8007L27.5943 98.0353H8.41992Z" fill="#4B66E3"/>
<path d="M18.6441 106.573L17.8697 66.7686L17.6777 106.333L18.6441 106.573Z" fill="#515B60"/>
<path d="M17.7797 67.0781C17.7797 67.0781 16.2565 69.6957 13.5205 70.4893C13.5205 70.4893 16.4005 69.8493 17.8533 67.5837L17.7797 67.0781Z" fill="#515B60"/>
<path d="M18.2088 88.4766C18.2088 88.4766 15.4888 93.0654 10.9448 94.3902C10.9448 94.3902 15.7896 93.1326 18.1896 89.3886L18.2088 88.4766Z" fill="#515B60"/>
<path d="M17.8056 76.6562C17.8056 76.6562 15.428 80.701 11.332 81.8882C11.332 81.8882 15.6552 80.909 17.8184 77.5362L17.8056 76.6562Z" fill="#515B60"/>
<path d="M18.0424 79.5137C18.0424 79.5137 20.2376 83.4273 24.1928 84.6337C24.1928 84.6337 20.0328 83.6513 17.9336 80.2849L18.0424 79.5137Z" fill="#515B60"/>
<path d="M18.3913 90.6113C18.3913 90.6113 20.8297 94.9537 25.2169 96.2849C25.2169 96.2849 20.5865 95.1969 18.2729 91.4593L18.3913 90.6113Z" fill="#515B60"/>
<path d="M17.9974 68.1602C17.9974 68.1602 19.4662 70.7746 22.1094 71.5746C22.1094 71.5746 19.319 70.9346 17.9238 68.669L17.9974 68.1602Z" fill="#515B60"/>
<path d="M121.364 98.0227L123.114 93.0595H121.86L123.364 88.8003H122.359L124.868 81.6963L127.377 88.8003H126.369L127.873 93.0595H126.618L128.369 98.0227H121.364Z" fill="#4B66E3"/>
<path d="M125.098 101.143L124.816 86.5957L124.746 101.057L125.098 101.143Z" fill="#515B60"/>
<path d="M124.782 86.7197C124.42 87.3019 123.87 87.7424 123.223 87.9677C123.858 87.8081 124.418 87.4325 124.807 86.9053L124.782 86.7197Z" fill="#515B60"/>
<path d="M124.938 94.5283C124.938 94.5283 123.946 96.2051 122.286 96.6915C122.286 96.6915 124.055 96.2307 124.932 94.8611L124.938 94.5283Z" fill="#515B60"/>
<path d="M124.794 90.208C124.794 90.208 123.924 91.6864 122.426 92.128C122.426 92.128 124.007 91.7728 124.797 90.528L124.794 90.208Z" fill="#515B60"/>
<path d="M124.881 91.251C124.881 91.251 125.681 92.6846 127.121 93.1198C127.121 93.1198 125.594 92.7614 124.833 91.5198L124.881 91.251Z" fill="#515B60"/>
<path d="M125.005 95.3086C125.005 95.3086 125.898 96.9086 127.501 97.3822C127.501 97.3822 125.809 96.9854 124.964 95.619L125.005 95.3086Z" fill="#515B60"/>
<path d="M124.862 87.0977C125.206 87.6731 125.736 88.1135 126.366 88.3457C125.746 88.1833 125.204 87.8069 124.836 87.2833L124.862 87.0977Z" fill="#515B60"/>
<path d="M31.0664 102.871L35.348 90.7363H32.2824L35.956 80.3235H33.4984L39.6328 62.9443L45.7672 80.3235H43.3096L46.9832 90.7363H43.9176L48.1992 102.871H31.0664Z" fill="#4B66E3"/>
<path d="M40.2024 110.502L39.5112 74.9248L39.3384 110.288L40.2024 110.502Z" fill="#515B60"/>
<path d="M39.4247 75.2002C39.4247 75.2002 38.0615 77.5394 35.6167 78.2498C35.6167 78.2498 38.1991 77.6642 39.4919 75.6514L39.4247 75.2002Z" fill="#515B60"/>
<path d="M39.8121 94.3262C39.8121 94.3262 37.3833 98.4286 33.3193 99.6126C33.3193 99.6126 37.6489 98.4862 39.7961 95.1326L39.8121 94.3262Z" fill="#515B60"/>
<path d="M39.4536 83.7637C39.4536 83.7637 37.3288 87.3765 33.668 88.4389C33.668 88.4389 37.5304 87.5653 39.4632 84.5509L39.4536 83.7637Z" fill="#515B60"/>
<path d="M39.6648 86.3164C39.6648 86.3164 41.6265 89.814 45.1625 90.886C45.1625 90.886 41.4312 90.0092 39.5688 86.998L39.6648 86.3164Z" fill="#515B60"/>
<path d="M39.9752 96.2334C39.9752 96.2334 42.1544 100.118 46.0776 101.305C46.0776 101.305 41.9368 100.345 39.8696 96.9918L39.9752 96.2334Z" fill="#515B60"/>
<path d="M39.6231 76.1602C39.6231 76.1602 40.9351 78.4994 43.2999 79.213C43.2999 79.213 40.8039 78.6274 39.5591 76.6178L39.6231 76.1602Z" fill="#515B60"/>
<path d="M127.972 96.2818L131.677 85.7826H129.024L132.205 76.7714H130.077L135.386 61.7314L140.695 76.7714H138.567L141.748 85.7826H139.092L142.8 96.2818H127.972Z" fill="#4B66E3"/>
<path d="M135.876 102.887L135.278 72.0996L135.13 102.701L135.876 102.887Z" fill="#515B60"/>
<path d="M135.22 72.3389C135.22 72.3389 134.042 74.3645 131.924 74.9789C131.924 74.9789 134.164 74.4733 135.277 72.7389L135.22 72.3389Z" fill="#515B60"/>
<path d="M135.54 88.8896C135.54 88.8896 133.437 92.4384 129.924 93.4656C129.924 93.4656 133.668 92.4897 135.527 89.5937L135.54 88.8896Z" fill="#515B60"/>
<path d="M135.22 79.7471C135.22 79.7471 133.38 82.8735 130.212 83.7919C130.212 83.7919 133.556 83.0367 135.23 80.4287L135.22 79.7471Z" fill="#515B60"/>
<path d="M135.412 81.958C135.412 81.958 137.111 84.9852 140.17 85.9132C140.17 85.9132 136.941 85.1548 135.329 82.5468L135.412 81.958Z" fill="#515B60"/>
<path d="M135.684 90.541C135.684 90.541 137.569 93.901 140.964 94.9282C140.964 94.9282 137.38 94.0866 135.591 91.197L135.684 90.541Z" fill="#515B60"/>
<path d="M135.377 73.1621C135.377 73.1621 136.513 75.1877 138.557 75.8053C138.557 75.8053 136.401 75.2997 135.322 73.5653L135.377 73.1621Z" fill="#515B60"/>
<path d="M141.694 109.184C129.246 127.868 106.174 140.412 79.764 140.412C55.188 140.412 33.4984 129.532 20.564 112.976L141.694 109.184Z" fill="#757575"/>
<path d="M51.9146 109.322L53.3258 110.547L52.3658 106.726C52.961 107.942 53.554 109.158 54.145 110.374C54.066 109.054 53.9871 107.734 53.9081 106.416C54.2537 107.807 54.6004 109.199 54.9481 110.592C55.3001 109.158 55.6543 107.724 56.0106 106.288C56.0276 108.705 56.0458 111.121 56.065 113.536C54.9802 113.574 53.5786 114.022 52.9994 112.989C52.4202 111.955 52.7146 110.48 51.9146 109.322Z" fill="#4B66E3"/>
<path d="M109.898 107.622L111.774 109.254C111.347 107.558 110.927 105.863 110.513 104.169C111.3 105.786 112.088 107.403 112.878 109.021L112.558 103.757L113.94 109.312C114.412 107.405 114.883 105.496 115.354 103.587C115.376 106.8 115.399 110.014 115.425 113.229C113.985 113.28 112.122 113.869 111.348 112.499C110.551 111.075 110.961 109.161 109.898 107.622Z" fill="#4B66E3"/>
<path d="M135.911 102.4C136.698 103.087 137.488 103.773 138.279 104.457L136.679 98.0414C137.675 100.083 138.67 102.125 139.662 104.166C139.531 101.952 139.399 99.7363 139.265 97.5198C139.847 99.8665 140.428 102.205 141.009 104.534L142.794 97.3086C142.822 101.362 142.852 105.415 142.884 109.469C141.063 109.533 138.724 110.281 137.738 108.547C136.734 106.749 137.252 104.336 135.911 102.4Z" fill="#4B66E3"/>
<path d="M56.311 136.791L60.903 128.439L68.855 127.079L72.871 123.84C72.871 123.84 77.351 122.589 81.8054 122.826C86.2598 123.063 88.7238 124.106 88.7238 124.106L90.5126 125.786L94.7942 126.679C94.7942 126.679 98.8678 130.199 99.367 130.055C99.8662 129.911 106.132 130.493 106.132 130.493L109.031 135.162C109.031 135.162 86.4134 155.271 56.311 136.791Z" fill="#263238"/>
<path d="M72.6886 127.04C73.5505 126.246 74.6398 125.743 75.803 125.601C76.9661 125.459 78.1444 125.686 79.1718 126.25C79.2422 125.763 79.3158 125.274 79.3862 124.787L81.6742 125.405C81.7606 125.888 81.8502 126.365 81.9366 126.858C84.4511 126.651 86.9704 127.196 89.175 128.423C89.1494 129.027 89.1238 129.632 89.095 130.237C89.2958 129.788 89.6413 129.42 90.0763 129.191C90.5113 128.962 91.0106 128.886 91.4941 128.974C91.9776 129.063 92.4174 129.311 92.7431 129.679C93.0688 130.047 93.2614 130.514 93.2902 131.005C93.682 130.882 94.0998 130.865 94.4999 130.958C94.9001 131.051 95.268 131.25 95.5654 131.533L97.7542 130.186C96.1542 128.355 93.5366 127.904 91.2582 127.043C87.7382 125.712 84.3622 123.143 80.6278 123.667L81.319 124.394C81.1388 124.519 80.9318 124.6 80.7146 124.63C80.4973 124.661 80.276 124.64 80.0682 124.57C79.8604 124.5 79.672 124.382 79.518 124.226C79.364 124.069 79.2487 123.879 79.1814 123.671L72.903 124.343C72.9207 124.64 72.9207 124.938 72.903 125.235C72.7654 125.143 72.583 125.034 72.471 124.938C72.455 125.328 73.063 126.663 72.6886 127.04Z" fill="#5C5C5C"/>
<path d="M66.8232 133.59L64.868 130.239C67.2328 130.172 69.348 131.587 71.2872 132.943L69.0056 129.011C68.9693 128.889 68.9083 128.775 68.8264 128.677C68.7445 128.58 68.6434 128.5 68.5294 128.443C68.4154 128.386 68.291 128.353 68.1637 128.346C68.0364 128.339 67.9091 128.358 67.7896 128.403C66.4136 128.655 63.0472 128.671 62.1416 129.683C62.6952 130.508 63.6616 131.193 64.436 131.827C65.0376 132.307 66.4488 132.953 66.8232 133.59Z" fill="#5C5C5C"/>
<path d="M98.1576 133.161C98.5974 133.261 98.9862 133.517 99.252 133.881C99.4728 134.269 99.2776 134.899 98.8296 134.918L104.113 133.12C103.645 134.041 102.878 134.774 101.937 135.2L104.097 134.336C104.401 134.976 104.705 135.593 105.012 136.221C104.979 135.018 105.254 133.827 105.812 132.761C105.959 133.876 106.532 134.89 107.412 135.59C107.26 134.65 106.966 133.738 106.542 132.886C106.074 132.057 105.297 131.347 104.356 131.206C103.511 131.081 102.673 131.417 101.825 131.526C100.586 131.702 99.3256 131.414 98.0808 131.504C97.0632 131.577 95.7672 132.035 95.396 133.059C96.2792 133.2 97.14 132.8 98.1576 133.161Z" fill="#5C5C5C"/>
<path d="M19.4984 105.241C19.4984 105.241 11.4536 105.628 11.4536 109.267V112.908L18.3752 113.625L19.4984 105.241Z" fill="white" stroke="#676F74" stroke-linecap="round" stroke-linejoin="round"/>
<path d="M21.393 100.035C20.6122 101.12 20.2506 102.442 19.905 103.731L17.2554 113.574C24.3991 115.505 31.9232 115.535 39.0826 113.664C40.3114 113.344 41.7066 112.787 42.0554 111.565C42.449 110.202 41.3098 108.915 40.2698 107.949L36.1098 104.083C33.0858 101.29 25.1018 94.88 21.393 100.035Z" fill="white" stroke="#676F74" stroke-linecap="round" stroke-linejoin="round"/>
<path d="M40.8363 105.735C40.3937 106.437 40.0815 107.213 39.9147 108.026L38.2603 114.131C42.69 115.331 47.3565 115.351 51.7963 114.189C52.5611 113.987 53.4251 113.645 53.6427 112.887C53.8859 112.042 53.1787 111.242 52.5323 110.647L49.9467 108.247C48.0907 106.512 43.1403 102.538 40.8363 105.735Z" fill="white" stroke="#676F74" stroke-linecap="round" stroke-linejoin="round"/>
<path d="M130.468 102.32C128.071 102.445 125.582 103.059 123.828 104.697C122.074 106.336 121.316 109.193 122.602 111.219C123.342 112.381 124.625 113.113 125.959 113.459C127.294 113.805 128.686 113.83 130.062 113.849L137.319 113.936C138.529 113.952 139.754 113.965 140.922 113.651C142.09 113.337 143.21 112.649 143.774 111.577C144.734 109.753 143.614 108.864 142.42 107.798C141.226 106.733 140.836 106.048 139.892 104.918C137.796 102.438 133.658 102.16 130.468 102.32Z" fill="white" stroke="#676F74" stroke-linecap="round" stroke-linejoin="round"/>
<path d="M115.195 113.51C116.062 114.931 118.052 115.043 119.719 114.989L128.446 114.71C129.71 114.672 131.217 114.48 131.771 113.344C132.388 112.064 131.316 110.627 130.171 109.786C127.502 107.805 124.299 106.992 121.092 107.702C118.811 108.211 113.067 110.026 115.195 113.51Z" fill="white" stroke="#676F74" stroke-linecap="round" stroke-linejoin="round"/>
<path d="M103.111 138.832H101.828L101.025 64.3203H103.915L103.111 138.832Z" fill="#263238"/>
<path d="M105.46 63.9136C105.3 63.616 104.964 63.6608 104.58 63.0208C104.196 62.3808 103.438 62.6432 103.194 62.5696C102.951 62.496 102.941 62.3936 103.005 62.064C103.069 61.7344 103.188 60.6624 102.685 60.7296C102.183 60.7968 101.956 61.9392 101.885 62.2144C101.649 62.7248 101.382 63.2206 101.085 63.6992C100.854 63.7876 100.615 63.8551 100.372 63.9008C100.097 63.936 99.8375 64.5024 99.8247 64.768C99.8247 64.9376 100.167 65.4304 100.433 65.7728C100.574 66.0719 100.734 66.3616 100.913 66.64C100.913 66.64 101.233 66.96 102.071 66.752C102.91 66.544 104.631 67.3664 104.823 67.1808C105.015 66.9952 105.383 65.9936 105.524 65.4432C105.661 64.939 105.639 64.4045 105.46 63.9136Z" fill="white" stroke="#263238" stroke-linecap="round" stroke-linejoin="round"/>
<path d="M99.6714 66.1728C99.669 65.8834 99.7489 65.5993 99.9018 65.3536C100.129 65.1104 100.427 64.3136 100.705 64.16C100.983 64.0064 102.83 63.5808 103.873 64.3424C104.916 65.104 104.788 66.224 104.875 66.7616C104.961 67.2992 103.62 69.0912 103.275 69.1552C102.929 69.2192 104.167 66.7264 102.833 65.9744C102.481 65.7664 100.811 66.0096 99.6714 66.1728Z" fill="white" stroke="#263238" stroke-linecap="round" stroke-linejoin="round"/>
<path d="M84.5995 39.1162C84.5995 39.1162 85.1243 38.3098 85.3131 39.3594C85.5019 40.409 85.0475 41.5354 84.4427 41.9386C83.8379 42.3418 83.5723 41.9386 83.5723 41.5354C83.5723 41.1322 84.5995 39.1162 84.5995 39.1162Z" fill="white" stroke="#263238" stroke-linecap="round" stroke-linejoin="round"/>
<path d="M74.42 39.5196C74.2464 39.4556 74.0549 39.46 73.8844 39.5319C73.7139 39.6038 73.5771 39.7378 73.5016 39.9068C73.4572 40.014 73.4439 40.1315 73.4632 40.246C73.4632 41.206 74.8552 42.5884 75.4632 42.2652C76.0712 41.942 74.42 39.5196 74.42 39.5196Z" fill="white" stroke="#263238" stroke-linecap="round" stroke-linejoin="round"/>
<path d="M79.4697 30.0799C79.4697 30.0799 78.1129 32.1791 76.6921 32.7455C74.8649 33.4719 73.3865 35.6543 73.4921 37.4271C73.5977 39.1999 76.3721 45.0175 76.7945 45.1807C77.2169 45.3439 82.7081 44.9375 82.8745 44.6975C83.0409 44.4575 83.8345 42.0319 84.5257 39.6895C85.2169 37.3471 85.2201 36.1375 85.2201 36.1375C85.4717 35.3839 85.5918 34.5926 85.5753 33.7983C85.5241 32.8383 83.7993 31.3663 83.7993 31.3663C83.7993 31.3663 82.3049 29.7407 81.6745 30.0863C81.0605 30.4628 80.5044 30.9263 80.0233 31.4623L79.4697 30.0799Z" fill="#263238" stroke="#263238" stroke-linecap="round" stroke-linejoin="round"/>
<path d="M68.1415 82.4706C68.1415 82.4706 69.3191 84.125 69.3831 84.765C69.4471 85.405 69.4439 86.6082 69.5047 87.005C69.5257 87.0834 69.529 87.1654 69.5146 87.2452C69.5002 87.325 69.4683 87.4007 69.4212 87.4667C69.3741 87.5328 69.313 87.5876 69.2422 87.6273C69.1715 87.6669 69.0928 87.6905 69.0119 87.6962C68.913 87.6885 68.817 87.6585 68.7311 87.6087C68.6453 87.5588 68.5717 87.4903 68.5159 87.4082C68.5529 87.7325 68.615 88.0535 68.7015 88.3682C68.8231 88.7714 69.5047 89.117 69.4439 89.517C69.3831 89.917 68.7015 90.093 67.7703 90.093C67.2233 90.0995 66.6863 89.9464 66.2249 89.6526C65.7634 89.3588 65.3975 88.937 65.1719 88.4386C64.6183 87.2322 64.0615 83.7826 64.0615 83.1426C64.0615 82.5026 67.5239 82.0098 68.1415 82.4706Z" fill="white" stroke="#263238" stroke-linecap="round" stroke-linejoin="round"/>
<path d="M66.8455 84.5947C66.8455 84.5947 67.0919 85.1099 66.5959 85.9163C66.2636 86.3886 66.0126 86.9132 65.8535 87.4683C65.9914 87.8726 66.1784 88.2584 66.4103 88.6171C66.6599 89.0779 67.4791 89.0235 67.5239 89.4267C67.5478 89.5363 67.5491 89.6496 67.5277 89.7596C67.5062 89.8697 67.4625 89.9742 67.3991 90.0667" stroke="#515B60" stroke-linecap="round" stroke-linejoin="round"/>
<path d="M67.6265 87.04C67.679 87.493 67.7864 87.9379 67.9465 88.3648C68.1961 88.9408 69.4953 89.2832 69.0153 89.9168" stroke="#515B60" stroke-linecap="round" stroke-linejoin="round"/>
<path d="M66.8457 87.2959C66.9079 87.6712 67.0154 88.0376 67.1657 88.3871C67.3513 88.7071 68.5897 89.0751 68.3401 89.9871" stroke="#515B60" stroke-linecap="round" stroke-linejoin="round"/>
<path d="M68.5162 87.4109C68.5162 87.4109 68.3914 86.4893 68.3306 86.1309C68.2869 85.801 68.2655 85.4685 68.2666 85.1357" stroke="#515B60" stroke-linecap="round" stroke-linejoin="round"/>
<path d="M88.82 47.2064C87.1681 46.0139 85.266 45.2139 83.2584 44.8672C79.78 44.2272 75.172 45.2704 73.3384 46.4C72.8044 46.7373 72.3493 47.1858 72.0042 47.7148C71.6591 48.2438 71.432 48.8409 71.3384 49.4656L88.82 47.2064Z" fill="white" stroke="#263238" stroke-linecap="round" stroke-linejoin="round"/>
<path d="M104.062 66.8801C104.209 69.2065 99.0633 71.7473 96.6281 68.8161C94.8297 66.6529 92.0425 57.5073 92.0425 57.5073C92.0425 57.5073 91.3801 71.6385 91.3801 72.5281C91.3315 73.2874 91.1973 74.0389 90.9801 74.7681C90.9801 74.7681 90.8425 75.7537 90.2345 76.1537C89.6265 76.5537 89.3737 77.7537 81.8889 78.3169C77.4271 78.6786 72.9363 78.3242 68.5865 77.2673C68.2441 77.1841 68.0681 75.3281 68.0681 75.3281L67.8089 80.7361C67.493 81.0616 67.1065 81.3101 66.6793 81.4625C65.9849 81.7057 63.9817 81.5425 63.5497 81.2993C63.1177 81.0561 62.2345 74.5217 62.3305 73.3921C62.4265 72.2625 63.1529 56.6081 64.6985 52.9409C65.9561 49.9617 68.0521 48.6113 71.0089 47.8017C73.9657 46.9921 79.9497 47.1297 80.2889 47.0497C80.2889 47.0497 86.0809 47.3697 88.8713 46.8929C88.8713 46.8929 94.0937 46.6817 95.6937 49.6641C96.8393 51.7825 98.1961 55.8657 98.8937 58.0417C99.2188 59.068 99.6111 60.0717 100.068 61.0465L101.21 63.4849C102.634 63.9457 103.975 65.5137 104.062 66.8801Z" fill="#4B66E3" stroke="#263238" stroke-linecap="round" stroke-linejoin="round"/>
<path d="M77.4507 52.5186C77.4507 52.5186 78.6283 56.8226 82.0843 58.5794" stroke="#515B60" stroke-linecap="round" stroke-linejoin="round"/>
<path d="M82.5386 60.4795C82.801 60.6043 83.0698 60.7259 83.3418 60.8443" stroke="#515B60" stroke-linecap="round" stroke-linejoin="round"/>
<path d="M77.4507 56.9795C78.6097 58.0713 79.8932 59.023 81.2747 59.8147" stroke="#515B60" stroke-linecap="round" stroke-linejoin="round"/>
<path d="M93.1783 74.2751C79.8759 79.8431 67.9688 75.3247 67.9688 75.3247C67.9688 75.3247 68.1416 77.1807 68.4872 77.2639C72.8339 78.3197 77.3214 78.6741 81.78 78.3135C89.2616 77.7471 92.3848 76.7135 92.9799 76.2943C93.5752 75.8751 93.5048 74.6943 93.5048 74.6943C93.5078 74.5359 93.5195 74.3778 93.54 74.2207L93.1783 74.2751Z" fill="white" stroke="#263238" stroke-linecap="round" stroke-linejoin="round"/>
<path d="M62.4902 80.4897C62.4902 80.4897 64.4902 81.2961 66.1414 80.8097C67.7926 80.3233 68.2278 79.8497 68.487 79.9201C68.7462 79.9905 68.7526 81.9361 68.487 82.5025C68.2214 83.0689 67.6166 83.4625 65.7926 83.6353C63.9686 83.8081 63.0118 82.9729 62.839 82.5025C62.6773 81.8402 62.5608 81.1677 62.4902 80.4897Z" fill="white" stroke="#263238" stroke-linecap="round" stroke-linejoin="round"/>
<path d="M67.7896 55.4307C67.8126 59.6347 68.2607 63.8256 69.1272 67.9395" stroke="#515B60" stroke-linecap="round" stroke-linejoin="round"/>
<path d="M73.3864 34.4706C72.5704 36.2274 72.5608 37.3506 73.2776 39.1394C74.18 41.3794 76.2792 42.0994 77.556 42.2178C79.908 42.4418 82.1992 42.3266 84.1864 41.1266C86.1736 39.9266 87.0344 37.2642 86.6472 35.069C86.3272 33.181 85.1176 30.589 83.2232 29.9042C78.8488 28.3106 75.1816 30.5986 73.3864 34.4706Z" fill="#BFBFBF" stroke="#263238" stroke-linecap="round" stroke-linejoin="round"/>
<path d="M74.1895 32.8062C73.2935 34.3806 73.1399 35.4558 73.5495 37.2606C73.7398 38.1706 74.2142 38.9967 74.9044 39.6196C75.5946 40.2424 76.4648 40.63 77.3895 40.7262C79.7383 40.979 82.0263 40.8222 83.8759 39.3726C85.6199 38.0062 86.0007 35.2606 85.3543 33.235C84.8455 31.635 83.6327 29.6382 82.1255 29.1486C78.8039 28.067 75.9495 29.7054 74.1895 32.8062Z" fill="#999999" stroke="#263238" stroke-linecap="round" stroke-linejoin="round"/>
<path d="M79.7483 33.2387C80.3085 33.2387 80.7627 32.839 80.7627 32.3459C80.7627 31.8528 80.3085 31.4531 79.7483 31.4531C79.188 31.4531 78.7339 31.8528 78.7339 32.3459C78.7339 32.839 79.188 33.2387 79.7483 33.2387Z" fill="#263238" stroke="#263238" stroke-linecap="round" stroke-linejoin="round"/>
<path d="M77.1433 33.8555C75.9401 35.7499 75.9785 38.1947 76.2441 40.5371" stroke="#263238" stroke-linecap="round" stroke-linejoin="round"/>
<path d="M80.2471 34.2715C80.5839 36.4065 80.6815 38.5724 80.5383 40.7291" stroke="#263238" stroke-linecap="round" stroke-linejoin="round"/>
<path d="M83.0923 33.4336C84.0923 35.0088 84.5005 36.8879 84.2443 38.736" stroke="#263238" stroke-linecap="round" stroke-linejoin="round"/>
<path d="M101.217 65.1455C101.307 65.6281 101.275 66.1253 101.126 66.5928C100.976 67.0603 100.713 67.4833 100.359 67.8239" stroke="#515B60" stroke-linecap="round" stroke-linejoin="round"/>
<path d="M96.3275 55.0781C96.2923 55.3117 96.2475 55.5453 96.1963 55.7757" stroke="#515B60" stroke-linecap="round" stroke-linejoin="round"/>
<path d="M95.9111 49.9395C96.3878 51.3905 96.5567 52.925 96.4071 54.4451" stroke="#515B60" stroke-linecap="round" stroke-linejoin="round"/>
<path d="M69.4057 78.2683C69.4057 78.2683 67.8761 84.3899 68.1257 86.9755C68.3753 89.5611 67.9305 97.2571 68.9001 103.164C70.2761 111.536 69.8857 119.51 70.0361 123.564C70.1119 124.966 69.9352 126.369 69.5145 127.708C69.1945 128.646 69.1081 130.105 70.2345 131.948C70.2537 132.268 70.9609 132.169 71.0569 132.486C71.0569 132.486 72.3625 133.296 73.1465 133.372C73.9305 133.449 72.9449 134.252 76.9865 132.006C77.8889 131.504 78.3817 128.604 78.0105 127.417C77.4377 125.59 78.3305 122.745 78.1225 113.904C78.0265 109.868 77.7609 111.388 78.8457 105.177C80.5449 95.4555 80.1929 88.7323 80.1929 88.7323C80.3233 89.4738 80.4162 90.2214 80.4713 90.9723C80.6025 94.9147 81.5497 106.547 81.7513 116.425C81.9017 124.518 82.7817 134.16 82.7817 134.806C82.7817 135.452 82.6217 136.857 82.6217 137.424C82.6217 137.99 82.5705 139.024 82.8297 139.414C83.0421 139.799 83.2168 140.204 83.3513 140.624C83.3513 140.624 86.4809 141.107 87.3481 141.107C88.2153 141.107 89.1945 140.428 89.1945 140.428L89.3513 139.788C89.7257 138.272 90.3881 137.945 90.5513 136.396C91.5689 126.716 92.2281 123.04 92.2889 94.5499C92.2889 93.4267 91.2489 78.9979 91.2489 78.9979L91.0729 77.0587C91.0729 77.0587 81.9465 78.1915 77.6009 77.6251C73.2553 77.0587 69.6873 76.8955 69.6873 76.8955L69.4057 78.2683Z" fill="white" stroke="#263238" stroke-linecap="round" stroke-linejoin="round"/>
<path d="M76.9322 140.604C76.9322 141.267 75.5626 141.542 74.193 141.593C73.3357 141.605 72.4922 141.376 71.7578 140.934C71.7578 140.934 70.5898 141.024 70.1802 140.556C69.7706 140.089 69.9818 139.001 70.2378 138.636C70.4938 138.272 71.4826 137.388 71.8378 136.716C72.065 136.281 71.0762 134.662 70.9706 131.776C71.2332 131.521 71.5688 131.354 71.9306 131.299L72.113 133.18C72.113 133.18 75.489 132.624 76.305 133.28C76.4138 133.369 76.5066 133.379 76.5834 133.328C76.347 134.327 76.3646 135.37 76.6346 136.361C77.4762 139.2 76.9322 140.332 76.9322 140.604Z" fill="#757575" stroke="#263238" stroke-linecap="round" stroke-linejoin="round"/>
<path d="M76.5737 133.325C76.4969 133.376 76.4041 133.366 76.2953 133.277C75.4793 132.621 72.1033 133.178 72.1033 133.178L71.9209 131.296C72.9714 131.068 74.0509 131.004 75.1209 131.107C75.8537 131.184 76.7209 131.632 76.8649 131.981C76.9161 132.077 76.7209 132.589 76.5737 133.325Z" fill="#263238"/>
<path d="M71.764 140.922C72.4986 141.364 73.3419 141.592 74.1992 141.581C75.5688 141.53 76.9384 141.261 76.9384 140.592V140.07C76.2253 140.358 75.467 140.517 74.6984 140.541C72.8744 140.637 72.0616 140.118 71.7064 140.074C71.4184 140.035 70.6312 140.211 69.9624 139.93C69.9727 140.152 70.0509 140.365 70.1864 140.541C70.58 141.011 71.764 140.922 71.764 140.922Z" fill="#BFBFBF" stroke="#263238" stroke-linecap="round" stroke-linejoin="round"/>
<path d="M71.7578 138.656L71.9594 140.922" stroke="#515B60" stroke-linecap="round" stroke-linejoin="round"/>
<path d="M82.7402 148.675C82.7402 149.408 84.2538 149.715 85.7706 149.773C86.7201 149.785 87.6541 149.532 88.4682 149.043C88.4682 149.043 89.7482 149.139 90.2122 148.624C90.6762 148.109 90.4362 146.899 90.1514 146.487C89.8666 146.074 88.7722 145.107 88.3754 144.368C88.129 143.885 89.2234 142.093 89.3354 138.896C89.046 138.618 88.6789 138.434 88.2826 138.368L88.081 140.455C88.081 140.455 84.3434 139.837 83.441 140.563C83.3194 140.663 83.217 140.672 83.121 140.615C83.3852 141.721 83.3665 142.877 83.0666 143.975C82.1418 147.136 82.7402 148.375 82.7402 148.675Z" fill="#757575" stroke="#263238" stroke-linecap="round" stroke-linejoin="round"/>
<path d="M83.14 140.614C83.2264 140.672 83.3288 140.662 83.46 140.563C84.3624 139.837 88.1 140.454 88.1 140.454L88.3016 138.368C87.1344 138.115 85.9351 138.045 84.7464 138.16C83.9368 138.246 82.98 138.739 82.8264 139.12C82.7624 139.235 82.98 139.798 83.14 140.614Z" fill="#263238"/>
<path d="M90.2183 148.607C90.3661 148.41 90.4518 148.172 90.4647 147.926C89.7223 148.246 88.8647 148.044 88.5447 148.086C88.1543 148.137 87.2647 148.726 85.2327 148.607C84.3807 148.579 83.5402 148.401 82.7495 148.083V148.659C82.7495 149.388 84.2663 149.702 85.7831 149.753C86.732 149.768 87.6661 149.516 88.4775 149.023C88.4775 149.023 89.7799 149.119 90.2183 148.607Z" fill="#BFBFBF" stroke="#263238" stroke-linecap="round" stroke-linejoin="round"/>
<path d="M88.2505 149.024L88.4745 146.519" stroke="#515B60" stroke-linecap="round" stroke-linejoin="round"/>
<path d="M71.0635 107.616C71.767 110.47 73.3621 113.024 75.6171 114.909" stroke="#515B60" stroke-linecap="round" stroke-linejoin="round"/>
<path d="M70.7114 104.982C70.7247 105.527 70.775 106.07 70.8618 106.608" stroke="#515B60" stroke-linecap="round" stroke-linejoin="round"/>
<path d="M72.8394 108.621C73.2774 109.166 73.8251 109.612 74.447 109.932C75.0689 110.251 75.751 110.436 76.449 110.474" stroke="#515B60" stroke-linecap="round" stroke-linejoin="round"/>
<path d="M83.5176 120.112C85.7756 119.583 87.7579 118.237 89.0824 116.333" stroke="#515B60" stroke-linecap="round" stroke-linejoin="round"/>
<path d="M84.2217 116.892C85.5133 116.802 86.7275 116.244 87.6361 115.321" stroke="#515B60" stroke-linecap="round" stroke-linejoin="round"/>
<path d="M71.3256 61.133L68.5864 47.901L72.388 47.1426L73.6072 60.829L71.3256 61.133Z" fill="#263238"/>
<path d="M89.0123 60.5246L91.7515 47.2926L87.9499 46.5342L86.7339 60.2206L89.0123 60.5246Z" fill="#263238"/>
<path d="M77.3289 58.5469V66.4125H77.2969L76.2217 68.1469L75.1497 66.4125H75.1145V60.8157H75.1113V58.5469H77.3289Z" fill="#263238" stroke="#263238" stroke-linecap="round" stroke-linejoin="round"/>
<path d="M85.3255 46.3809H83.1079V49.6225H85.3255V46.3809Z" fill="#263238" stroke="#263238" stroke-linecap="round" stroke-linejoin="round"/>
<path d="M85.3255 51.248H83.1079V56.9248H85.3255V51.248Z" fill="#263238" stroke="#263238" stroke-linecap="round" stroke-linejoin="round"/>
<path d="M90.3495 52.8289L89.0439 56.6689C88.5639 58.4897 87.1239 59.9233 85.3287 60.8609V66.4033V58.5601H86.5127V56.9377H85.3287V51.2481H86.5127V49.6225H85.3287V46.3809H83.1111V49.6225H81.9271V51.2481H83.1111V56.9249H81.9271V58.5601H83.1111V61.7601L82.7495 61.8497L82.4103 61.9233C82.3932 61.9218 82.3761 61.9218 82.3591 61.9233L82.2087 61.9521L81.9911 61.9905H81.9111L81.7127 62.0225L81.4887 62.0513H81.4599L81.2359 62.0737H81.1847L80.9639 62.0961H80.9383H80.7111C80.6375 62.0961 80.5639 62.0961 80.4839 62.0961H80.2215C79.2474 62.0965 78.278 61.9608 77.3415 61.6929V66.3841V58.5601H78.5255V56.9377H77.3415V51.2481H78.5255V49.6225H77.3415V46.3809H75.1239V49.6225H73.9399V51.2481H75.1239V56.9249H73.9399V58.5601H75.1239V60.8289C73.3415 59.8497 71.9239 58.3745 71.4471 56.5569L70.0967 52.8417L73.7799 46.3457H86.5799L90.3495 52.8289Z" fill="white" stroke="#263238" stroke-linecap="round" stroke-linejoin="round"/>
<path d="M87.3384 68.1475V68.2115H73.3736L80.356 71.7507L87.3384 68.2115V76.7811H73.124V68.1475H87.3384Z" fill="white" stroke="#263238" stroke-linecap="round" stroke-linejoin="round"/>
<path d="M95.2199 85.7594L88.4039 84.9434C83.2472 84.321 78.0343 84.321 72.8775 84.9434L66.1927 85.7594L66.0071 84.7994C65.5592 82.4723 65.6225 80.0756 66.1927 77.7754L76.7207 78.7738C79.3346 79.0218 81.9661 79.0218 84.5799 78.7738L95.2199 77.785C95.8252 80.3587 95.8372 83.0363 95.2551 85.6154L95.2199 85.7594Z" fill="#263238"/>
<path d="M82.1832 77.3535H79.3896V85.5999H82.1832V77.3535Z" fill="white" stroke="#263238" stroke-linecap="round" stroke-linejoin="round"/>
<path d="M90.3496 52.8291V76.5859C90.3496 78.0515 89.0696 79.2419 87.4984 79.2419H72.9448C71.364 79.2419 70.084 78.0515 70.084 76.5859V52.8291L71.4344 56.5443C71.924 58.3619 73.3288 59.8371 75.1112 60.8163V66.4131H75.1432L76.2184 68.1475H73.14V76.7875H87.3544V68.1603H84.2376L85.3128 66.4259H85.3448V60.8707C87.1496 59.9331 88.58 58.4995 89.06 56.6787L90.3496 52.8291Z" fill="#757575" stroke="#263238" stroke-linecap="round" stroke-linejoin="round"/>
<path d="M75.1145 60.8154H75.1113V66.4154H75.1145V60.8154Z" stroke="#515B60" stroke-linecap="round" stroke-linejoin="round"/>
<path d="M76.2215 68.1475L75.1431 66.4131H75.1495L76.2215 68.1475Z" stroke="#515B60" stroke-linecap="round" stroke-linejoin="round"/>
<path d="M84.2153 68.1601H76.2153L77.2905 66.4257H77.3257V61.7217C78.2623 61.9896 79.2316 62.1253 80.2057 62.1249H80.5001C80.5801 62.1249 80.6537 62.1249 80.7273 62.1249H80.9545H80.9801L81.2009 62.1025H81.2521L81.4761 62.0801H81.5017L81.7257 62.0513L81.9241 62.0193H82.0041L82.2217 61.9809L82.3721 61.9521C82.3892 61.9506 82.4063 61.9506 82.4233 61.9521L82.7625 61.8785L83.1241 61.7889V66.4673H83.1561L84.2153 68.1601Z" fill="#757575" stroke="#263238" stroke-linecap="round" stroke-linejoin="round"/>
<path d="M83.1111 61.7275V66.4123H83.1079V61.7339L83.1111 61.7275Z" stroke="#515B60" stroke-linecap="round" stroke-linejoin="round"/>
<path d="M84.2153 68.1475L83.1401 66.4131H83.1433L84.2153 68.1475Z" stroke="#515B60" stroke-linecap="round" stroke-linejoin="round"/>
<path d="M87.3383 68.2109L83.4759 70.8573C82.5572 71.4868 81.4696 71.8237 80.3559 71.8237C79.2423 71.8237 78.1546 71.4868 77.2359 70.8573L73.3735 68.2109H87.3383Z" fill="white" stroke="#263238" stroke-linecap="round" stroke-linejoin="round"/>
<path d="M94.5608 71.229V76.781H90.3496V68.1602H91.2456C93.076 68.1602 94.5608 69.5266 94.5608 71.229Z" fill="white" stroke="#263238" stroke-linecap="round" stroke-linejoin="round"/>
<path d="M70.084 68.1603V76.8003H65.876V71.2291C65.876 69.5267 67.3608 68.1475 69.188 68.1475L70.084 68.1603Z" fill="white" stroke="#263238" stroke-linecap="round" stroke-linejoin="round"/>
<path d="M77.3289 51.248H75.1113V56.9248H77.3289V51.248Z" fill="#263238" stroke="#263238" stroke-linecap="round" stroke-linejoin="round"/>
<path d="M75.1145 60.8154H75.1113V66.4154H75.1145V60.8154Z" stroke="#515B60" stroke-linecap="round" stroke-linejoin="round"/>
<path d="M76.2215 68.1475L75.1431 66.4131H75.1495L76.2215 68.1475Z" stroke="#515B60" stroke-linecap="round" stroke-linejoin="round"/>
<path d="M77.3289 46.3809H75.1113V49.6225H77.3289V46.3809Z" fill="#263238" stroke="#263238" stroke-linecap="round" stroke-linejoin="round"/>
<path d="M85.3255 58.5469V66.4125H85.2935L84.2151 68.1469L83.1431 66.4125H83.1111V61.7277L83.1079 61.7341V58.5469H85.3255Z" fill="#263238" stroke="#263238" stroke-linecap="round" stroke-linejoin="round"/>
<path d="M83.1111 61.7275V66.4123H83.1079V61.7339L83.1111 61.7275Z" stroke="#515B60" stroke-linecap="round" stroke-linejoin="round"/>
<path d="M84.2153 68.1475L83.1401 66.4131H83.1433L84.2153 68.1475Z" stroke="#515B60" stroke-linecap="round" stroke-linejoin="round"/>
<path d="M78.5128 49.6221H73.9272V51.2477H78.5128V49.6221Z" fill="#4B66E3" stroke="#263238" stroke-linecap="round" stroke-linejoin="round"/>
<path d="M86.5099 49.6221H81.9243V51.2477H86.5099V49.6221Z" fill="#4B66E3" stroke="#263238" stroke-linecap="round" stroke-linejoin="round"/>
<path d="M78.5128 56.9248H73.9272V58.5504H78.5128V56.9248Z" fill="#4B66E3" stroke="#263238" stroke-linecap="round" stroke-linejoin="round"/>
<path d="M86.5099 56.9248H81.9243V58.5504H86.5099V56.9248Z" fill="#4B66E3" stroke="#263238" stroke-linecap="round" stroke-linejoin="round"/>
<path d="M80.2153 89.9648C81.333 90.8232 82.6528 91.3795 84.0478 91.5802C85.4427 91.7808 86.8658 91.619 88.1801 91.1104" stroke="#515B60" stroke-linecap="round" stroke-linejoin="round"/>
<path d="M80.4457 91.4531C79.2301 94.5396 77.3975 97.3457 75.0601 99.6995" stroke="#515B60" stroke-linecap="round" stroke-linejoin="round"/>
<path d="M80.2375 89.3242L79.9175 90.4666C79.4759 92.0954 79.1527 93.3722 78.4167 94.8922L77.0503 97.4778L80.2823 92.2906L80.2375 89.3242Z" fill="#263238" stroke="#263238" stroke-linecap="round" stroke-linejoin="round"/>
<path d="M80.2153 89.9648L80.8553 96.4896L81.1753 95.2672C81.3993 93.7536 82.4553 92.5664 83.6329 91.5872C82.6984 91.3851 81.8096 91.0107 81.0121 90.4832C80.8201 90.3392 80.5385 90.1696 80.2153 89.9648Z" fill="#263238" stroke="#263238" stroke-linecap="round" stroke-linejoin="round"/>
<path d="M68.3398 85.4561C68.4774 88.0161 69.7638 89.6705 71.4854 90.3329" stroke="#515B60" stroke-linecap="round" stroke-linejoin="round"/>
<path d="M91.5655 85.3789C91.4727 87.9389 90.6055 89.5933 89.4375 90.2557" stroke="#515B60" stroke-linecap="round" stroke-linejoin="round"/>
<path d="M66.7402 65.5713C67.2073 66.4851 67.5815 67.4435 67.857 68.4321" stroke="#515B60" stroke-linecap="round" stroke-linejoin="round"/>
<path d="M65.7163 63.8682C65.8571 64.0762 65.9915 64.2842 66.1227 64.5082" stroke="#515B60" stroke-linecap="round" stroke-linejoin="round"/>
<path d="M62.6795 69.3438C62.6233 70.8324 62.9858 72.3069 63.7259 73.5998" stroke="#515B60" stroke-linecap="round" stroke-linejoin="round"/>
<path d="M91.207 54.6367L92.4262 58.7423" stroke="#515B60" stroke-linecap="round" stroke-linejoin="round"/>
</svg>
