<svg width="161" height="160" viewBox="0 0 161 160" fill="none" xmlns="http://www.w3.org/2000/svg">
<path d="M14.8367 62.1874C14.8367 62.1874 9.17558 87.1565 25.5424 109.054C41.9093 130.951 70.2403 139.601 93.0189 147.22C115.798 154.84 137.031 146.353 144.879 127.212C152.727 108.071 136.538 97.6229 132.817 72.5268C129.096 47.4307 131.889 40.2319 115.174 21.0291C98.4588 1.82626 64.4014 2.06199 41.5212 21.5114C18.641 40.9609 14.8367 62.1874 14.8367 62.1874Z" fill="#4B66E3"/>
<path opacity="0.7" d="M14.8367 62.1874C14.8367 62.1874 9.17558 87.1565 25.5424 109.054C41.9093 130.951 70.2403 139.601 93.0189 147.22C115.798 154.84 137.031 146.353 144.879 127.212C152.727 108.071 136.538 97.6229 132.817 72.5268C129.096 47.4307 131.889 40.2319 115.174 21.0291C98.4588 1.82626 64.4014 2.06199 41.5212 21.5114C18.641 40.9609 14.8367 62.1874 14.8367 62.1874Z" fill="white"/>
<path d="M118.522 8.28125H91.4658V112.81H118.522V8.28125Z" stroke="#263238" stroke-linecap="round" stroke-linejoin="round"/>
<path d="M116.653 11.5254H93.3281V109.799H116.653V11.5254Z" stroke="#263238" stroke-linecap="round" stroke-linejoin="round"/>
<path d="M96.1074 55.8545V61.2042" stroke="#263238" stroke-linecap="round" stroke-linejoin="round"/>
<path d="M96.1074 11.5771V52.3731" stroke="#263238" stroke-linecap="round" stroke-linejoin="round"/>
<path d="M99.5889 22.9727V86.6065" stroke="#263238" stroke-linecap="round" stroke-linejoin="round"/>
<path d="M99.5889 11.5771V19.4915" stroke="#263238" stroke-linecap="round" stroke-linejoin="round"/>
<path d="M103.07 63.7861V65.5268" stroke="#263238" stroke-linecap="round" stroke-linejoin="round"/>
<path d="M103.07 11.5771V60.3049" stroke="#263238" stroke-linecap="round" stroke-linejoin="round"/>
<path d="M106.552 11.5771V61.2042" stroke="#263238" stroke-linecap="round" stroke-linejoin="round"/>
<path d="M110.033 11.5771V61.2042" stroke="#263238" stroke-linecap="round" stroke-linejoin="round"/>
<path d="M113.515 31.293V70.1684" stroke="#263238" stroke-linecap="round" stroke-linejoin="round"/>
<path d="M113.515 11.5771V27.6147" stroke="#263238" stroke-linecap="round" stroke-linejoin="round"/>
<path d="M89.1505 8.28125H39.3262V112.723H89.1505V8.28125Z" stroke="#263238" stroke-linecap="round" stroke-linejoin="round"/>
<path d="M85.4602 27.8408H65.5293V43.7101H85.4602V27.8408Z" stroke="#263238" stroke-linecap="round" stroke-linejoin="round"/>
<path d="M85.4602 45.9268H65.5293V61.796H85.4602V45.9268Z" stroke="#263238" stroke-linecap="round" stroke-linejoin="round"/>
<path d="M85.4602 82.0928H65.5293V97.9621H85.4602V82.0928Z" stroke="#263238" stroke-linecap="round" stroke-linejoin="round"/>
<path d="M85.4602 64.0068H65.5293V79.8761H85.4602V64.0068Z" stroke="#263238" stroke-linecap="round" stroke-linejoin="round"/>
<path d="M85.4602 11.6006H65.5293V25.6247H85.4602V11.6006Z" stroke="#263238" stroke-linecap="round" stroke-linejoin="round"/>
<path d="M62.9475 11.6006H43.0166V25.6247H62.9475V11.6006Z" stroke="#263238" stroke-linecap="round" stroke-linejoin="round"/>
<path d="M62.9475 27.8408H43.0166V43.7101H62.9475V27.8408Z" stroke="#263238" stroke-linecap="round" stroke-linejoin="round"/>
<path d="M85.4602 100.179H65.5293V112.729H85.4602V100.179Z" stroke="#263238" stroke-linecap="round" stroke-linejoin="round"/>
<path d="M62.9475 100.179H43.0166V112.729H62.9475V100.179Z" stroke="#263238" stroke-linecap="round" stroke-linejoin="round"/>
<path d="M62.9475 45.9268H43.0166V61.796H62.9475V45.9268Z" stroke="#263238" stroke-linecap="round" stroke-linejoin="round"/>
<path d="M62.9475 82.0928H43.0166V97.9621H62.9475V82.0928Z" stroke="#263238" stroke-linecap="round" stroke-linejoin="round"/>
<path d="M62.9475 64.0068H43.0166V79.8761H62.9475V64.0068Z" stroke="#263238" stroke-linecap="round" stroke-linejoin="round"/>
<path d="M104.521 95.5127C104.35 95.0071 104.079 94.5411 103.724 94.1424C103.369 93.7436 102.938 93.4204 102.455 93.1918C101.351 92.8383 100.171 92.7961 99.0437 93.0699C96.9723 93.4239 95.1678 94.2304 93.2124 94.9499C93.2124 94.9499 94.0479 94.6423 97.4771 96.3134C98.7602 96.9917 100.186 97.3556 101.637 97.3752C102.798 97.3404 104.579 97.0097 104.521 95.5127Z" fill="#4B66E3"/>
<path d="M104.707 90.4704C104.692 89.9347 104.568 89.4076 104.344 88.9209C104.12 88.4342 103.799 87.9981 103.401 87.6389C102.445 86.9827 101.327 86.5995 100.169 86.5307C98.0862 86.2812 96.1076 86.5307 94.042 86.6525C94.042 86.6525 94.9355 86.6003 97.7381 89.1939C98.7725 90.2094 100.03 90.9685 101.411 91.4104C102.519 91.7179 104.329 91.9152 104.707 90.4704Z" fill="#4B66E3"/>
<path d="M108.258 97.1376C107.849 96.7914 107.514 96.3664 107.272 95.8879C107.031 95.4094 106.889 94.8872 106.854 94.3525C106.937 93.1946 107.338 92.0822 108.014 91.1381C109.111 89.3451 110.538 87.9758 111.913 86.4092C111.913 86.4092 111.333 87.0764 111.611 90.8827C111.766 92.3241 111.577 93.7816 111.06 95.1358C110.59 96.2093 109.627 97.7411 108.258 97.1376Z" fill="#4B66E3"/>
<path d="M113.219 99.894C113.173 99.361 113.235 98.8242 113.402 98.3158C113.568 97.8073 113.835 97.3377 114.188 96.9349C115.063 96.1719 116.131 95.6623 117.274 95.4611C119.311 94.9737 121.295 95.0085 123.373 94.8809C123.373 94.8809 122.479 94.9273 119.996 97.8284C119.087 98.957 117.926 99.8572 116.607 100.457C115.528 100.886 113.764 101.292 113.219 99.894Z" fill="#4B66E3"/>
<path d="M112.894 93.5346C112.365 93.4491 111.859 93.2575 111.406 92.9713C110.953 92.6852 110.563 92.3103 110.259 91.8693C109.733 90.8358 109.501 89.6779 109.586 88.5214C109.586 86.421 110.132 84.5062 110.509 82.458C110.509 82.458 110.335 83.3341 112.54 86.4558C113.422 87.6095 114.018 88.9556 114.28 90.384C114.42 91.5386 114.379 93.3489 112.894 93.5346Z" fill="#4B66E3"/>
<path d="M118.017 90.3369C118.405 90.7003 118.861 90.9826 119.359 91.1669C119.857 91.3513 120.388 91.434 120.918 91.4103C122.058 91.1934 123.117 90.6698 123.982 89.8959C125.63 88.5962 126.831 86.9948 128.218 85.4688C128.218 85.4688 127.637 86.136 123.814 86.2985C122.364 86.3107 120.939 86.6667 119.653 87.3371C118.667 87.9115 117.257 89.043 118.017 90.3369Z" fill="#4B66E3"/>
<path d="M116.532 89.0901C117.066 89.1307 117.602 89.0632 118.11 88.8918C118.617 88.7203 119.085 88.4483 119.485 88.0921C120.237 87.2092 120.735 86.138 120.924 84.9937C121.394 82.9513 121.336 80.9669 121.452 78.8896C121.452 78.8896 121.411 79.7774 118.551 82.2956C117.427 83.2127 116.538 84.3842 115.957 85.7131C115.516 86.7924 115.133 88.5621 116.532 89.0901Z" fill="#4B66E3"/>
<path d="M110.155 106.485L107.068 98.8902L103.511 90.1113" stroke="#263238" stroke-linecap="round" stroke-linejoin="round"/>
<path d="M110.863 105.18L113.95 94.6194L117.269 88.0977" stroke="#263238" stroke-linecap="round" stroke-linejoin="round"/>
<path d="M112.052 101.026L115.133 99.25" stroke="#263238" stroke-linecap="round" stroke-linejoin="round"/>
<path d="M113.95 94.6195L112.406 91.1787" stroke="#263238" stroke-linecap="round" stroke-linejoin="round"/>
<path d="M115.876 91.1964L119.642 89.5195" stroke="#263238" stroke-linecap="round" stroke-linejoin="round"/>
<path d="M107.66 100.317L108.966 95.0947" stroke="#263238" stroke-linecap="round" stroke-linejoin="round"/>
<path d="M105.931 96.3485L102.914 94.7412" stroke="#263238" stroke-linecap="round" stroke-linejoin="round"/>
<path d="M113.23 110.28H107.666L106.476 103.99H114.425L113.23 110.28Z" fill="#263238" stroke="#263238" stroke-linecap="round" stroke-linejoin="round"/>
<path d="M96.8152 56.3362C96.8152 56.3362 92.2778 58.0769 91.1115 58.3322C89.9452 58.5875 87.9492 53.8934 86.5045 50.7892C85.0597 47.685 84.0269 48.6249 83.3306 48.7178C82.6343 48.8106 84.9901 56.0519 85.3324 58.6629C85.6748 61.274 86.3652 64.4652 88.7036 63.7515C91.0419 63.0379 97.3664 57.369 97.9176 56.3942C98.4688 55.4194 96.8152 56.3362 96.8152 56.3362Z" fill="white" stroke="#263238" stroke-linecap="round" stroke-linejoin="round"/>
<path d="M67.9316 51.0674C67.1824 51.0939 66.461 51.3581 65.8718 51.8217C64.9782 52.576 58.0967 66.194 58.236 66.7452C58.3752 67.2964 58.9265 67.366 60.7136 66.4667C62.5007 65.5673 68.4828 57.7342 68.8948 56.156C69.3068 54.5778 68.8252 51.3865 67.9316 51.0674Z" fill="white" stroke="#263238" stroke-linecap="round" stroke-linejoin="round"/>
<path d="M71.8887 109.091C72.02 110.201 72.3132 111.286 72.759 112.311C73.3392 113.39 74.639 113.251 74.7086 112.247C74.7782 111.243 73.3625 108.887 73.3625 108.887C73.1319 108.743 72.8581 108.685 72.5887 108.722C72.3194 108.759 72.0716 108.889 71.8887 109.091Z" fill="white" stroke="#263238" stroke-linecap="round" stroke-linejoin="round"/>
<path d="M79.2694 109.154C79.2694 109.154 78.3295 110.494 78.7356 110.964C79.1418 111.434 79.8961 111.098 80.4763 111.545C80.8803 111.832 81.3387 112.035 81.8235 112.14C82.3084 112.244 82.8095 112.249 83.2962 112.154C84.2362 111.881 83.4297 111.481 82.6232 110.808C81.9894 110.305 81.4255 109.719 80.9463 109.067C80.749 108.748 79.5421 108.411 79.2694 109.154Z" fill="white" stroke="#263238" stroke-linecap="round" stroke-linejoin="round"/>
<path d="M69.6665 74.1896C69.6665 74.1896 71.4826 84.6047 71.8888 90.2446C72.2949 95.8844 71.5522 108.522 71.8888 109.061C71.9784 109.199 72.0999 109.314 72.2429 109.395C72.3859 109.476 72.5463 109.522 72.7107 109.528C72.875 109.534 73.0384 109.501 73.1872 109.431C73.336 109.361 73.4658 109.256 73.5656 109.125C74.1459 108.545 77.5634 94.8516 77.8361 90.6855C78.1088 86.5195 77.1283 77.9959 77.9348 76.7194C78.7413 75.4429 79.0952 75.733 79.0952 75.733C79.0952 75.733 81.5728 86.8966 81.5728 88.3762C81.5728 89.8558 81.5032 89.8558 81.9036 90.3258L82.3097 90.7958C82.3097 90.7958 81.0158 101.692 80.2093 104.988C79.4028 108.284 78.9328 109.015 79.4028 109.485C79.52 109.591 79.6576 109.672 79.8072 109.723C79.9569 109.774 80.1153 109.794 80.2729 109.781C80.4304 109.769 80.5838 109.724 80.7235 109.65C80.8632 109.576 80.9864 109.475 81.0854 109.352C81.625 108.818 87.468 91.7938 88.1468 89.0435C88.8257 86.2932 85.3907 69.4897 85.3907 69.4897C85.3907 69.4897 85.5242 68.3293 80.7489 69.2925C75.9736 70.2556 72.6257 71.2362 71.1403 72.7158L69.6665 74.1896Z" fill="#263238" stroke="#263238" stroke-linecap="round" stroke-linejoin="round"/>
<path d="M87.8449 57.6479C88.7849 57.439 89.5856 57.0677 90.0498 56.9864C89.2316 55.3502 87.6128 52.391 86.8469 50.6039C85.9475 48.5499 84.7175 47.7898 84.0212 47.8768C84.0212 47.8768 79.2111 47.6969 78.1318 47.8768V47.958L75.2307 48.0799L74.6505 48.2946V48.1495C73.3101 48.0103 67.328 50.6329 67.328 50.6329C67.328 50.6329 66.3822 51.335 65.8832 51.7586C65.3842 52.1821 63.4752 55.7621 61.6533 59.3422C62.5331 59.459 63.3811 59.7489 64.1483 60.1951L65.6453 61.1003C66.6491 59.7889 67.5717 58.4834 68.1867 57.497L70.1479 73.2735L86.609 72.8035L85.3499 59.3015C85.6922 58.9824 86.8527 57.8684 87.8449 57.6479Z" fill="#4B66E3" stroke="#263238" stroke-linecap="round" stroke-linejoin="round"/>
<path d="M74.0472 46.379C73.0719 45.9301 72.196 45.291 71.471 44.4991C69.9798 43.0079 70.0784 40.5361 70.2815 39.5439C70.4846 38.5517 70.7051 36.9793 71.7901 36.0625C72.8752 35.1458 76.432 34.8615 79.2983 35.8537C82.1646 36.8459 79.2983 36.9445 79.2983 36.9445C79.2983 36.9445 81.7759 38.2326 81.0796 38.6272C80.6213 38.8709 80.113 39.0059 79.5942 39.0217C79.5942 39.0217 79.9888 40.4143 79.1997 40.5129C78.4105 40.6115 78.9966 44.0755 77.8071 44.7718C76.5925 45.3939 75.3362 45.931 74.0472 46.379Z" fill="#263238" stroke="#263238" stroke-linecap="round" stroke-linejoin="round"/>
<path d="M72.6547 43.3101C72.6547 43.3101 71.7669 42.2193 71.6683 43.606C71.5696 44.9927 73.055 45.4859 73.055 45.4859L72.6547 43.3101Z" fill="white" stroke="#263238" stroke-linecap="round" stroke-linejoin="round"/>
<path d="M78.6138 42.5028C78.6138 42.5028 79.2462 41.2436 79.6466 42.5782C80.0469 43.9127 78.7066 44.7192 78.7066 44.7192L78.6138 42.5028Z" fill="white" stroke="#263238" stroke-linecap="round" stroke-linejoin="round"/>
<path d="M74.3027 45.7703C74.5531 46.7808 74.6893 47.8162 74.7089 48.8571C74.7089 50.4063 76.525 51.9497 77.0588 52.0194C77.5926 52.089 78.4688 50.4701 78.3353 49.1936C78.1342 47.8904 77.8649 46.5986 77.5288 45.3235C77.5288 45.3235 76.2523 44.4241 74.3027 45.7703Z" fill="white" stroke="#263238" stroke-linecap="round" stroke-linejoin="round"/>
<path d="M74.0183 39.7412C73.1189 40.658 72.3994 41.2963 72.3994 41.2963C72.3994 41.2963 72.7186 44.8589 73.1711 46.089C73.6237 47.319 75.7647 48.6768 76.7337 48.3519C77.3185 48.1606 77.8337 47.8008 78.2146 47.3177C78.5956 46.8345 78.8252 46.2496 78.8748 45.6364C79.0024 44.1452 78.2945 40.4143 77.9638 39.8689C76.4204 39.4453 75.2309 39.4453 74.5405 38.4531C74.5405 38.4531 74.8364 38.8825 74.0183 39.7412Z" fill="white" stroke="#263238" stroke-linecap="round" stroke-linejoin="round"/>
<path d="M81.1956 58.5585C80.3068 58.6336 79.4615 58.9754 78.7703 59.5391L78.6832 59.6203L78.4743 59.7944C77.5724 60.526 76.5624 61.1132 75.4803 61.5351C74.0298 62.0863 72.1556 61.8252 71.2679 61.6511H71.1867C70.9197 61.5989 70.7631 61.5525 70.7631 61.5525V61.6105C70.4658 61.5844 70.1668 61.5844 69.8695 61.6105C66.3069 61.8658 63.6553 65.4575 63.957 69.6351C64.2587 73.8128 67.392 76.9924 70.9546 76.7371C72.5176 76.6039 73.9658 75.8621 74.9872 74.6715C76.0902 73.401 77.3748 72.3002 78.7993 71.4048C79.5322 70.9494 80.3099 70.5702 81.1202 70.2734C81.8919 69.9891 82.8029 70.0007 83.5339 69.6525C84.17 69.3398 84.7304 68.8924 85.176 68.3412C86.144 67.1027 86.6083 65.5442 86.4757 63.9779C86.2726 60.775 83.8937 58.367 81.1956 58.5585Z" fill="#263238" stroke="#263238" stroke-linecap="round" stroke-linejoin="round"/>
<path d="M80.1166 56.6786C79.2298 56.7549 78.3866 57.0966 77.697 57.6592L77.61 57.7347C77.5404 57.7985 77.4649 57.8507 77.4011 57.9145C76.4949 58.643 75.4835 59.2299 74.4013 59.6552C72.9507 60.2355 71.0824 59.9453 70.1947 59.7713H70.1076L69.6899 59.6726V59.7248C69.3925 59.7016 69.0937 59.7016 68.7963 59.7248C65.2337 59.9801 62.582 63.5718 62.8837 67.7494C63.1855 71.9271 66.3129 75.1067 69.8813 74.8514C71.4432 74.7198 72.8901 73.9776 73.9081 72.7858C75.0147 71.5149 76.3009 70.4125 77.726 69.5133C78.4607 69.061 79.2381 68.682 80.0469 68.3819C80.8245 68.1034 81.7296 68.115 82.4665 67.7668C83.1026 67.4542 83.6629 67.0067 84.1086 66.4555C85.075 65.2163 85.5391 63.6583 85.4083 62.0922C85.1936 58.8951 82.8205 56.4872 80.1166 56.6786Z" fill="white" stroke="#263238" stroke-linecap="round" stroke-linejoin="round"/>
<path d="M72.0858 70.3639L70.0045 64.3671C69.9772 64.2884 69.8913 64.2468 69.8126 64.2741L69.4617 64.3958C69.383 64.4231 69.3414 64.5091 69.3687 64.5878L71.4499 70.5846C71.4773 70.6633 71.5632 70.705 71.6419 70.6777L71.9928 70.5559C72.0715 70.5286 72.1131 70.4426 72.0858 70.3639Z" fill="#263238" stroke="#263238" stroke-linecap="round" stroke-linejoin="round"/>
<path d="M71.5522 65.5733C71.5522 65.5733 72.7127 69.5363 73.7687 69.9366C74.8247 70.337 77.5982 68.6601 78.602 67.6563C79.1766 67.1384 79.5811 66.4588 79.7625 65.7067C79.0059 66.39 78.0769 66.8535 77.076 67.0471C75.3992 67.3836 74.2561 65.8402 73.85 64.9002C73.4438 63.9602 72.0222 63.7049 71.5522 65.5733Z" fill="white" stroke="#263238" stroke-linecap="round" stroke-linejoin="round"/>
<path d="M76.9948 66.4613C78.2189 66.4613 79.2113 65.4689 79.2113 64.2448C79.2113 63.0207 78.2189 62.0283 76.9948 62.0283C75.7707 62.0283 74.7783 63.0207 74.7783 64.2448C74.7783 65.4689 75.7707 66.4613 76.9948 66.4613Z" fill="#263238" stroke="#263238" stroke-linecap="round" stroke-linejoin="round"/>
<path d="M79.6812 61.6915L80.3542 63.8441L101.289 52.7211L100.552 51.375L79.6812 61.6915Z" fill="white" stroke="#263238" stroke-linecap="round" stroke-linejoin="round"/>
<path d="M103.799 52.6118L103.554 52.7188L104.015 53.7714L104.259 53.6644L103.799 52.6118Z" fill="white" stroke="#263238" stroke-linecap="round" stroke-linejoin="round"/>
<path d="M105.777 51.8589L105.533 51.9658L105.993 53.0184L106.238 52.9115L105.777 51.8589Z" fill="white" stroke="#263238" stroke-linecap="round" stroke-linejoin="round"/>
<path d="M107.592 50.769L107.348 50.876L107.808 51.9286L108.053 51.8216L107.592 50.769Z" fill="white" stroke="#263238" stroke-linecap="round" stroke-linejoin="round"/>
<path d="M100.552 51.3746L101.492 50.336L107.956 47.168C108.458 47.4808 108.881 47.9058 109.192 48.4097C109.527 48.9247 109.674 49.5394 109.61 50.1503C109.47 50.4927 104.933 52.1463 104.243 52.5583C103.552 52.9703 103.21 53.0399 102.867 52.9006C102.35 52.795 101.823 52.7425 101.295 52.744L100.552 51.3746Z" fill="white" stroke="#263238" stroke-linecap="round" stroke-linejoin="round"/>
<path d="M104.84 54.0669C104.841 53.9597 104.81 53.8545 104.751 53.7649C104.693 53.6753 104.608 53.6052 104.51 53.5637C104.411 53.5221 104.302 53.5109 104.196 53.5316C104.091 53.5522 103.995 53.6037 103.919 53.6795C103.843 53.7553 103.791 53.852 103.771 53.9572C103.75 54.0625 103.761 54.1714 103.803 54.2703C103.844 54.3691 103.915 54.4533 104.004 54.5122C104.094 54.571 104.199 54.6018 104.306 54.6007C104.448 54.6007 104.583 54.5444 104.684 54.4443C104.784 54.3442 104.84 54.2084 104.84 54.0669Z" fill="white" stroke="#263238" stroke-linecap="round" stroke-linejoin="round"/>
<path d="M106.732 53.2602C106.733 53.153 106.702 53.0479 106.643 52.9583C106.584 52.8687 106.5 52.7986 106.401 52.757C106.302 52.7155 106.193 52.7043 106.088 52.7249C105.983 52.7456 105.886 52.7971 105.81 52.8729C105.735 52.9487 105.683 53.0454 105.662 53.1506C105.642 53.2558 105.653 53.3648 105.695 53.4636C105.736 53.5625 105.806 53.6467 105.896 53.7055C105.985 53.7644 106.091 53.7952 106.198 53.794C106.339 53.794 106.475 53.7378 106.575 53.6377C106.675 53.5376 106.732 53.4018 106.732 53.2602Z" fill="white" stroke="#263238" stroke-linecap="round" stroke-linejoin="round"/>
<path d="M108.617 52.2281C108.617 52.1214 108.586 52.017 108.526 51.9283C108.467 51.8396 108.383 51.7704 108.284 51.7296C108.186 51.6887 108.077 51.678 107.972 51.6988C107.868 51.7197 107.772 51.7711 107.696 51.8465C107.621 51.922 107.569 52.0181 107.548 52.1228C107.528 52.2275 107.538 52.336 107.579 52.4346C107.62 52.5332 107.689 52.6175 107.778 52.6768C107.867 52.7361 107.971 52.7677 108.078 52.7677C108.149 52.7677 108.219 52.7537 108.284 52.7266C108.35 52.6995 108.409 52.6598 108.459 52.6097C108.509 52.5595 108.549 52.5001 108.576 52.4346C108.603 52.3691 108.617 52.299 108.617 52.2281Z" fill="white" stroke="#263238" stroke-linecap="round" stroke-linejoin="round"/>
<path d="M103.511 51.8044C103.52 51.7615 103.519 51.7172 103.508 51.6746C103.498 51.6321 103.478 51.5925 103.45 51.5586C103.422 51.5247 103.387 51.4974 103.348 51.4787C103.308 51.4599 103.265 51.4502 103.221 51.4502C103.177 51.4502 103.134 51.4599 103.095 51.4787C103.055 51.4974 103.02 51.5247 102.992 51.5586C102.965 51.5925 102.945 51.6321 102.934 51.6746C102.923 51.7172 102.922 51.7615 102.931 51.8044C102.922 51.8474 102.923 51.8917 102.934 51.9342C102.945 51.9767 102.965 52.0163 102.992 52.0502C103.02 52.0841 103.055 52.1114 103.095 52.1302C103.134 52.1489 103.177 52.1587 103.221 52.1587C103.265 52.1587 103.308 52.1489 103.348 52.1302C103.387 52.1114 103.422 52.0841 103.45 52.0502C103.478 52.0163 103.498 51.9767 103.508 51.9342C103.519 51.8917 103.52 51.8474 103.511 51.8044Z" fill="white" stroke="#263238" stroke-linecap="round" stroke-linejoin="round"/>
<path d="M105.589 50.7481C105.588 50.6899 105.569 50.6332 105.536 50.5853C105.503 50.5374 105.456 50.5004 105.402 50.4789C105.348 50.4574 105.289 50.4524 105.232 50.4644C105.175 50.4765 105.123 50.5051 105.082 50.5467C105.041 50.5883 105.013 50.6411 105.002 50.6983C104.991 50.7555 104.998 50.8147 105.02 50.8685C105.043 50.9222 105.081 50.9681 105.129 51.0003C105.178 51.0326 105.235 51.0498 105.293 51.0498C105.332 51.0499 105.371 51.042 105.408 51.0268C105.444 51.0115 105.477 50.9892 105.504 50.9611C105.532 50.933 105.553 50.8997 105.568 50.8631C105.583 50.8266 105.59 50.7875 105.589 50.7481Z" fill="white" stroke="#263238" stroke-linecap="round" stroke-linejoin="round"/>
<path d="M107.741 49.6983C107.741 49.6397 107.724 49.5825 107.691 49.5339C107.659 49.4852 107.613 49.4473 107.559 49.4249C107.505 49.4025 107.445 49.3966 107.388 49.408C107.33 49.4194 107.277 49.4476 107.236 49.489C107.195 49.5304 107.167 49.5831 107.155 49.6405C107.144 49.6979 107.15 49.7574 107.172 49.8115C107.194 49.8656 107.232 49.9118 107.281 49.9443C107.33 49.9768 107.387 49.9942 107.445 49.9942C107.524 49.9942 107.599 49.963 107.655 49.9075C107.71 49.852 107.741 49.7767 107.741 49.6983Z" fill="white" stroke="#263238" stroke-linecap="round" stroke-linejoin="round"/>
<path d="M102.983 50.4232C102.97 50.3561 102.934 50.2958 102.881 50.2525C102.828 50.2092 102.762 50.1855 102.693 50.1855C102.625 50.1855 102.559 50.2092 102.506 50.2525C102.453 50.2958 102.417 50.3561 102.403 50.4232C102.395 50.4661 102.396 50.5104 102.406 50.5529C102.417 50.5954 102.437 50.6351 102.464 50.669C102.492 50.7029 102.527 50.7302 102.567 50.7489C102.606 50.7677 102.65 50.7774 102.693 50.7774C102.737 50.7774 102.78 50.7677 102.82 50.7489C102.86 50.7302 102.895 50.7029 102.922 50.669C102.95 50.6351 102.97 50.5954 102.981 50.5529C102.991 50.5104 102.992 50.4661 102.983 50.4232Z" fill="white" stroke="#263238" stroke-linecap="round" stroke-linejoin="round"/>
<path d="M105.061 49.3672C105.061 49.3087 105.043 49.2515 105.011 49.2028C104.978 49.1541 104.932 49.1162 104.878 49.0938C104.824 49.0714 104.764 49.0656 104.707 49.077C104.65 49.0884 104.597 49.1166 104.555 49.158C104.514 49.1994 104.486 49.2521 104.474 49.3095C104.463 49.3669 104.469 49.4264 104.491 49.4805C104.514 49.5345 104.552 49.5807 104.6 49.6133C104.649 49.6458 104.706 49.6631 104.765 49.6631C104.843 49.6631 104.918 49.6319 104.974 49.5765C105.029 49.521 105.061 49.4457 105.061 49.3672Z" fill="white" stroke="#263238" stroke-linecap="round" stroke-linejoin="round"/>
<path d="M107.236 48.3115C107.236 48.253 107.219 48.1958 107.186 48.1471C107.154 48.0985 107.108 48.0605 107.054 48.0382C107 48.0158 106.94 48.0099 106.883 48.0213C106.825 48.0327 106.773 48.0609 106.731 48.1023C106.69 48.1437 106.662 48.1964 106.65 48.2538C106.639 48.3112 106.645 48.3707 106.667 48.4248C106.689 48.4789 106.727 48.5251 106.776 48.5576C106.825 48.5901 106.882 48.6075 106.94 48.6075C107.019 48.6075 107.094 48.5763 107.15 48.5208C107.205 48.4653 107.236 48.39 107.236 48.3115Z" fill="white" stroke="#263238" stroke-linecap="round" stroke-linejoin="round"/>
<path d="M96.0614 57.4503L96.4733 55.315C96.4733 55.315 95.5101 54.0095 95.5798 53.6672C95.6494 53.3248 97.5758 52.1528 98.3301 52.3617C99.0844 52.5705 99.9141 53.8703 99.4905 54.6826C99.0669 55.4949 97.3553 57.2936 96.8737 57.3633" fill="white"/>
<path d="M96.0614 57.4503L96.4733 55.315C96.4733 55.315 95.5101 54.0095 95.5798 53.6672C95.6494 53.3248 97.5758 52.1528 98.3301 52.3617C99.0844 52.5705 99.9141 53.8703 99.4905 54.6826C99.0669 55.4949 97.3553 57.2936 96.8737 57.3633" stroke="#263238" stroke-linecap="round" stroke-linejoin="round"/>
<path d="M96.27 53.2432C96.7804 53.7644 97.2212 54.3495 97.5813 54.9839C97.6521 55.3131 97.6027 55.6568 97.4421 55.9528" stroke="#263238" stroke-linecap="round" stroke-linejoin="round"/>
<path d="M97.1694 52.5527C97.1694 52.5527 98.2719 53.9337 98.3299 54.4153C98.3879 54.8969 98.4691 55.5177 98.4691 55.5177" stroke="#263238" stroke-linecap="round" stroke-linejoin="round"/>
<path d="M97.8774 52.3496C97.8774 52.3496 99.2584 53.864 99.2584 54.276C99.2625 54.5135 99.215 54.7491 99.1191 54.9664" stroke="#263238" stroke-linecap="round" stroke-linejoin="round"/>
<path d="M59.6111 64.6561C60.6304 63.8792 61.9138 63.5333 63.1853 63.6929C65.3206 63.9714 66.2838 64.3834 68.7556 64.3834C71.2273 64.3834 72.266 64.2441 72.6779 63.9714C73.0899 63.6987 73.6643 63.0198 74.2155 62.9502C74.868 62.9964 75.5096 63.1412 76.1187 63.3796C76.1187 63.3796 76.3914 63.5188 76.0491 63.7219C75.6114 63.8647 75.1511 63.9257 74.6913 63.9018C75.6437 64.1329 76.5679 64.4675 77.4474 64.8998C77.6215 65.01 77.517 65.2769 77.4938 65.3291C77.3778 65.6018 74.7609 64.9578 74.7609 64.9578C75.2645 65.3037 75.7986 65.6028 76.3566 65.8513C76.6989 65.921 77.3023 66.5186 76.7685 66.5708C76.0216 66.4854 75.2873 66.3121 74.5811 66.0544L76.1419 67.064C76.211 67.0907 76.2679 67.1419 76.3017 67.2078C76.3355 67.2737 76.3439 67.3497 76.3253 67.4214C76.3066 67.4931 76.2622 67.5554 76.2006 67.5965C76.139 67.6376 76.0644 67.6546 75.991 67.6443C75.2881 67.4871 74.6049 67.2516 73.9544 66.9422C73.9544 66.9422 75.1149 68.2187 75.0452 68.2477C74.5869 68.5552 74.407 68.0504 73.5135 67.5688C72.9235 67.2179 72.4246 66.7328 72.0571 66.1531C69.1876 66.9699 66.2715 67.6132 63.3246 68.0794C59.0599 68.7003 58.0213 67.1917 58.294 66.4374C58.4665 65.9693 58.7006 65.5264 58.9903 65.1203" fill="white"/>
<path d="M59.6111 64.6561C60.6304 63.8792 61.9138 63.5333 63.1853 63.6929C65.3206 63.9714 66.2838 64.3834 68.7556 64.3834C71.2273 64.3834 72.266 64.2441 72.6779 63.9714C73.0899 63.6987 73.6643 63.0198 74.2155 62.9502C74.868 62.9964 75.5096 63.1412 76.1187 63.3796C76.1187 63.3796 76.3914 63.5188 76.0491 63.7219C75.6114 63.8647 75.1511 63.9257 74.6913 63.9018C75.6437 64.1329 76.5679 64.4675 77.4474 64.8998C77.6215 65.01 77.517 65.2769 77.4938 65.3291C77.3778 65.6018 74.7609 64.9578 74.7609 64.9578C75.2645 65.3037 75.7986 65.6028 76.3566 65.8513C76.6989 65.921 77.3023 66.5186 76.7685 66.5708C76.0216 66.4854 75.2873 66.3121 74.5811 66.0544L76.1419 67.064C76.211 67.0907 76.2679 67.1419 76.3017 67.2078C76.3355 67.2737 76.3439 67.3497 76.3253 67.4214C76.3066 67.4931 76.2622 67.5554 76.2006 67.5965C76.139 67.6376 76.0644 67.6546 75.991 67.6443C75.2881 67.4871 74.6049 67.2516 73.9544 66.9422C73.9544 66.9422 75.1149 68.2187 75.0452 68.2477C74.5869 68.5552 74.407 68.0504 73.5135 67.5688C72.9235 67.2179 72.4246 66.7328 72.0571 66.1531C69.1876 66.9699 66.2715 67.6132 63.3246 68.0794C59.0599 68.7003 58.0213 67.1917 58.294 66.4374C58.4665 65.9693 58.7006 65.5264 58.9903 65.1203" stroke="#263238" stroke-linecap="round" stroke-linejoin="round"/>
<path opacity="0.3" d="M36.6396 131.47L44.8499 149.027H138L129.505 123.544V117.033L126.511 107.924L36.6396 131.47Z" fill="black"/>
<path d="M35.2764 109.822V73.0586H123.28V110.582" stroke="#263238" stroke-width="2" stroke-linecap="round" stroke-linejoin="round"/>
<path d="M64.125 78.4424V109.461" stroke="#263238" stroke-width="3" stroke-linecap="round" stroke-linejoin="round"/>
<path d="M93.6357 78.4424V109.461" stroke="#263238" stroke-width="3" stroke-linecap="round" stroke-linejoin="round"/>
<path d="M35.6592 78.3672H122.142" stroke="#263238" stroke-linecap="round" stroke-linejoin="round"/>
<path d="M124.794 110.204H33.3789V132.961H124.794V110.204Z" fill="white" stroke="#263238" stroke-linecap="round" stroke-linejoin="round"/>
<path d="M124.8 110.204H114.35V132.961H124.8V110.204Z" fill="#ABABAB" stroke="#263238" stroke-linecap="round" stroke-linejoin="round"/>
<path d="M116.311 110.204H41.8677V132.961H116.311V110.204Z" fill="white" stroke="#263238" stroke-linecap="round" stroke-linejoin="round"/>
<path d="M124.794 110.204H33.3789V115.943H124.794V110.204Z" fill="#263238" stroke="#263238" stroke-linecap="round" stroke-linejoin="round"/>
<path d="M126.192 107.924H31.9922V114.37H126.192V107.924Z" fill="white" stroke="#263238" stroke-linecap="round" stroke-linejoin="round"/>
<path d="M126.193 107.924H112.911V114.37H126.193V107.924Z" fill="#ABABAB" stroke="#263238" stroke-linecap="round" stroke-linejoin="round"/>
<path d="M117.071 107.924H41.1074V114.37H117.071V107.924Z" fill="white" stroke="#263238" stroke-linecap="round" stroke-linejoin="round"/>
</svg>
