<svg width="241" height="160" viewBox="0 0 241 160" fill="none" xmlns="http://www.w3.org/2000/svg">
<path d="M44.593 151.162H197.147C199.652 148.17 214.215 129.216 207.687 100.42C200.561 68.9668 196.366 68.5476 164.913 48.8356C133.46 29.1236 122.558 12.3524 86.4906 25.77C50.4234 39.1876 49.1658 64.3524 50.8458 84.4804C52.5258 104.608 29.457 120.128 28.1994 132.711C27.1882 142.81 35.9082 149.389 44.593 151.162Z" fill="#4B66E3"/>
<path opacity="0.7" d="M44.593 151.162H197.147C199.652 148.17 214.215 129.216 207.687 100.42C200.561 68.9668 196.366 68.5476 164.913 48.8356C133.46 29.1236 122.558 12.3524 86.4906 25.77C50.4234 39.1876 49.1658 64.3524 50.8458 84.4804C52.5258 104.608 29.457 120.128 28.1994 132.711C27.1882 142.81 35.9082 149.389 44.593 151.162Z" fill="white"/>
<path d="M189.331 100.963C189.331 100.963 185.636 98.9097 185.362 103.561C185.088 108.212 184.403 138.468 184.403 138.468" stroke="#263238" stroke-width="2" stroke-linecap="round" stroke-linejoin="round"/>
<path d="M183.432 103.973C183.432 103.973 186.438 110.68 185.076 138.056" stroke="#263238" stroke-width="2" stroke-linecap="round" stroke-linejoin="round"/>
<path d="M186.405 101.898C186.405 101.898 184.989 102.8 184.186 101.768C183.384 100.737 184.731 98.8308 183.543 98.019C182.355 97.2072 180.302 98.4459 180.302 98.4459C180.302 98.4459 181.88 98.9089 181.829 99.7718C181.778 100.635 181.017 100.974 180.927 100.584C180.837 100.193 180.07 98.3076 178.786 99.0984C178.417 99.3172 178.096 99.6084 177.842 99.9546C177.589 100.301 177.408 100.695 177.31 101.113C177.31 101.113 180.296 100.794 180.476 101.919C180.657 103.043 179.252 101.723 178.02 101.651C176.787 101.579 175.663 101.759 175.744 102.505C175.771 103.165 175.732 103.825 175.626 104.477C176.301 103.915 177.154 103.614 178.032 103.629C179.388 103.708 179.337 104.57 178.104 104.498C176.871 104.426 175.813 105.599 175.813 105.599C175.813 105.599 176.937 107.52 178.366 108.47C179.794 109.42 180.308 109.071 180.47 108.347C180.633 107.622 180.254 105.737 181.117 105.788C181.98 105.839 179.688 109.044 180.789 109.234C181.889 109.423 182.776 109.101 183.065 108.377L183.366 107.652C183.366 107.652 182.981 105.776 183.149 105.042C183.317 104.309 183.519 105.064 183.714 105.944C183.91 106.825 184.033 108.933 184.409 108.831C184.785 108.729 185.99 107.192 186.273 106.591C186.556 105.99 184.685 104.147 184.707 103.777C184.728 103.407 186.171 104.11 186.396 104.495C186.56 104.788 186.707 105.089 186.838 105.397C186.838 105.397 187.74 104.832 187.716 103.1C187.692 101.368 186.405 101.898 186.405 101.898Z" fill="#4B66E3"/>
<path opacity="0.3" d="M186.405 101.898C186.405 101.898 184.989 102.8 184.186 101.768C183.384 100.737 184.731 98.8308 183.543 98.019C182.355 97.2072 180.302 98.4459 180.302 98.4459C180.302 98.4459 181.88 98.9089 181.829 99.7718C181.778 100.635 181.017 100.974 180.927 100.584C180.837 100.193 180.07 98.3076 178.786 99.0984C178.417 99.3172 178.096 99.6084 177.842 99.9546C177.589 100.301 177.408 100.695 177.31 101.113C177.31 101.113 180.296 100.794 180.476 101.919C180.657 103.043 179.252 101.723 178.02 101.651C176.787 101.579 175.663 101.759 175.744 102.505C175.771 103.165 175.732 103.825 175.626 104.477C176.301 103.915 177.154 103.614 178.032 103.629C179.388 103.708 179.337 104.57 178.104 104.498C176.871 104.426 175.813 105.599 175.813 105.599C175.813 105.599 176.937 107.52 178.366 108.47C179.794 109.42 180.308 109.071 180.47 108.347C180.633 107.622 180.254 105.737 181.117 105.788C181.98 105.839 179.688 109.044 180.789 109.234C181.889 109.423 182.776 109.101 183.065 108.377L183.366 107.652C183.366 107.652 182.981 105.776 183.149 105.042C183.317 104.309 183.519 105.064 183.714 105.944C183.91 106.825 184.033 108.933 184.409 108.831C184.785 108.729 185.99 107.192 186.273 106.591C186.556 105.99 184.685 104.147 184.707 103.777C184.728 103.407 186.171 104.11 186.396 104.495C186.56 104.788 186.707 105.089 186.838 105.397C186.838 105.397 187.74 104.832 187.716 103.1C187.692 101.368 186.405 101.898 186.405 101.898Z" fill="#263238"/>
<path d="M179.237 105.96C180.16 104.82 181.516 103.278 182.656 102.541" stroke="#263238" stroke-linecap="round" stroke-linejoin="round"/>
<path d="M178.167 107.349C178.167 107.349 178.405 107.018 178.789 106.525" stroke="#263238" stroke-linecap="round" stroke-linejoin="round"/>
<path d="M183.257 102.824C183.257 102.824 184.628 104.76 184.881 106.754" stroke="#263238" stroke-linecap="round" stroke-linejoin="round"/>
<path d="M181.706 103.97C181.706 103.97 182.091 103.748 181.947 106.21" stroke="#263238" stroke-linecap="round" stroke-linejoin="round"/>
<path d="M182.707 101.672C182.707 101.672 183.489 100.975 183.077 99.5918" stroke="#263238" stroke-linecap="round" stroke-linejoin="round"/>
<path d="M181.649 102.854L181.089 101.832" stroke="#263238" stroke-linecap="round" stroke-linejoin="round"/>
<path d="M180.473 103.897C180.473 103.897 178.699 102.556 177.59 102.49" stroke="#263238" stroke-linecap="round" stroke-linejoin="round"/>
<path d="M191.444 98.2449C191.444 98.2449 191.387 100.277 189.8 100.377C188.212 100.476 187.232 97.833 185.608 98.4674C183.985 99.1018 183.828 102.003 183.828 102.003C183.828 102.003 185.368 100.737 186.198 101.378C187.028 102.018 186.835 103.001 186.387 102.845C185.939 102.689 183.525 102.151 183.444 103.973C183.41 104.492 183.482 105.012 183.655 105.502C183.828 105.993 184.099 106.443 184.451 106.826C184.451 106.826 186.168 103.621 187.418 104.204C188.669 104.787 186.387 105.295 185.473 106.48C184.559 107.665 183.97 108.912 184.779 109.342C185.457 109.765 186.092 110.254 186.673 110.804C186.673 110.804 186.456 109.126 187.46 107.824C188.465 106.522 189.292 107.16 188.381 108.344C187.47 109.529 187.92 111.387 187.92 111.387C187.92 111.387 190.608 111.573 192.533 110.786C194.457 109.998 194.469 109.255 193.85 108.588C193.23 107.92 191.09 107.027 191.727 106.197C192.364 105.368 194.012 109.848 194.953 108.873C195.894 107.899 196.174 106.796 195.648 106.011L195.118 105.226C195.118 105.226 192.978 104.324 192.358 103.666C191.739 103.007 192.632 103.308 193.645 103.711C194.658 104.114 196.85 105.428 197.007 104.983C197.163 104.538 196.444 102.277 196.035 101.591C195.627 100.906 192.506 101.513 192.151 101.239C191.796 100.966 193.483 100.001 194.021 100.037C194.559 100.073 195.224 100.202 195.224 100.202C195.224 100.202 195.272 98.9184 193.522 97.7578C191.772 96.5972 191.444 98.2449 191.444 98.2449Z" fill="#4B66E3"/>
<path opacity="0.2" d="M191.444 98.2449C191.444 98.2449 191.387 100.277 189.8 100.377C188.212 100.476 187.232 97.833 185.608 98.4674C183.985 99.1018 183.828 102.003 183.828 102.003C183.828 102.003 185.368 100.737 186.198 101.378C187.028 102.018 186.835 103.001 186.387 102.845C185.939 102.689 183.525 102.151 183.444 103.973C183.41 104.492 183.482 105.012 183.655 105.502C183.828 105.993 184.099 106.443 184.451 106.826C184.451 106.826 186.168 103.621 187.418 104.204C188.669 104.787 186.387 105.295 185.473 106.48C184.559 107.665 183.97 108.912 184.779 109.342C185.457 109.765 186.092 110.254 186.673 110.804C186.673 110.804 186.456 109.126 187.46 107.824C188.465 106.522 189.292 107.16 188.381 108.344C187.47 109.529 187.92 111.387 187.92 111.387C187.92 111.387 190.608 111.573 192.533 110.786C194.457 109.998 194.469 109.255 193.85 108.588C193.23 107.92 191.09 107.027 191.727 106.197C192.364 105.368 194.012 109.848 194.953 108.873C195.894 107.899 196.174 106.796 195.648 106.011L195.118 105.226C195.118 105.226 192.978 104.324 192.358 103.666C191.739 103.007 192.632 103.308 193.645 103.711C194.658 104.114 196.85 105.428 197.007 104.983C197.163 104.538 196.444 102.277 196.035 101.591C195.627 100.906 192.506 101.513 192.151 101.239C191.796 100.966 193.483 100.001 194.021 100.037C194.559 100.073 195.224 100.202 195.224 100.202C195.224 100.202 195.272 98.9184 193.522 97.7578C191.772 96.5972 191.444 98.2449 191.444 98.2449Z" fill="#263238"/>
<path d="M190.624 108.191C190.113 106.489 189.493 104.078 189.535 102.437" stroke="#263238" stroke-linecap="round" stroke-linejoin="round"/>
<path d="M191.285 110.205C191.285 110.205 191.117 109.745 190.885 109.023" stroke="#263238" stroke-linecap="round" stroke-linejoin="round"/>
<path d="M190.227 102.028C190.227 102.028 193.098 101.977 195.266 103.08" stroke="#263238" stroke-linecap="round" stroke-linejoin="round"/>
<path d="M190.317 104.36C190.317 104.36 190.353 103.825 192.722 105.65" stroke="#263238" stroke-linecap="round" stroke-linejoin="round"/>
<path d="M188.705 101.799C188.705 101.799 188.543 100.539 186.874 100.01" stroke="#263238" stroke-linecap="round" stroke-linejoin="round"/>
<path d="M189.159 103.66L187.755 103.521" stroke="#263238" stroke-linecap="round" stroke-linejoin="round"/>
<path d="M189.403 105.545C189.403 105.545 186.85 106.411 186.029 107.475" stroke="#263238" stroke-linecap="round" stroke-linejoin="round"/>
<path d="M174.412 111.774C174.412 111.774 182.487 117.114 182.349 137.782" stroke="#263238" stroke-width="2" stroke-linecap="round" stroke-linejoin="round"/>
<path d="M184.37 110.365C184.37 110.365 184.111 112.704 182.265 112.671C180.419 112.638 179.541 109.49 177.611 110.07C175.68 110.65 175.22 113.979 175.22 113.979C175.22 113.979 177.118 112.665 178.017 113.48C178.916 114.294 178.597 115.413 178.095 115.19C177.593 114.968 174.86 114.12 174.592 116.216C174.505 116.812 174.54 117.42 174.695 118.003C174.85 118.585 175.122 119.13 175.494 119.604C175.494 119.604 177.779 116.065 179.165 116.856C180.551 117.647 177.872 118.02 176.706 119.301C175.539 120.581 174.748 121.967 175.632 122.539C176.378 123.089 177.065 123.713 177.683 124.403C177.683 124.403 177.59 122.445 178.885 121.038C180.181 119.631 181.062 120.437 179.899 121.724C178.735 123.011 179.081 125.194 179.081 125.194C179.081 125.194 182.169 125.663 184.463 124.941C186.757 124.219 186.838 123.359 186.186 122.536C185.533 121.712 183.149 120.473 183.964 119.577C184.779 118.681 186.255 124.003 187.433 122.969C188.612 121.934 189.039 120.687 188.504 119.73L187.941 118.774C187.941 118.774 185.557 117.539 184.905 116.712C184.252 115.885 185.254 116.327 186.384 116.886C187.515 117.445 189.923 119.171 190.142 118.669C190.362 118.167 189.745 115.503 189.352 114.664C188.958 113.825 185.287 114.243 184.902 113.895C184.517 113.546 186.558 112.59 187.175 112.692C187.634 112.768 188.088 112.869 188.537 112.993C188.537 112.993 188.711 111.513 186.802 110.01C184.893 108.507 184.37 110.365 184.37 110.365Z" fill="#4B66E3"/>
<path opacity="0.3" d="M184.37 110.365C184.37 110.365 184.111 112.704 182.265 112.671C180.419 112.638 179.541 109.49 177.611 110.07C175.68 110.65 175.22 113.979 175.22 113.979C175.22 113.979 177.118 112.665 178.017 113.48C178.916 114.294 178.597 115.413 178.095 115.19C177.593 114.968 174.86 114.12 174.592 116.216C174.505 116.812 174.54 117.42 174.695 118.003C174.85 118.585 175.122 119.13 175.494 119.604C175.494 119.604 177.779 116.065 179.165 116.856C180.551 117.647 177.872 118.02 176.706 119.301C175.539 120.581 174.748 121.967 175.632 122.539C176.378 123.089 177.065 123.713 177.683 124.403C177.683 124.403 177.59 122.445 178.885 121.038C180.181 119.631 181.062 120.437 179.899 121.724C178.735 123.011 179.081 125.194 179.081 125.194C179.081 125.194 182.169 125.663 184.463 124.941C186.757 124.219 186.838 123.359 186.186 122.536C185.533 121.712 183.149 120.473 183.964 119.577C184.779 118.681 186.255 124.003 187.433 122.969C188.612 121.934 189.039 120.687 188.504 119.73L187.941 118.774C187.941 118.774 185.557 117.539 184.905 116.712C184.252 115.885 185.254 116.327 186.384 116.886C187.515 117.445 189.923 119.171 190.142 118.669C190.362 118.167 189.745 115.503 189.352 114.664C188.958 113.825 185.287 114.243 184.902 113.895C184.517 113.546 186.558 112.59 187.175 112.692C187.634 112.768 188.088 112.869 188.537 112.993C188.537 112.993 188.711 111.513 186.802 110.01C184.893 108.507 184.37 110.365 184.37 110.365Z" fill="#263238"/>
<path d="M182.488 121.763C182.055 119.755 181.571 116.914 181.769 115.022" stroke="#263238" stroke-linecap="round" stroke-linejoin="round"/>
<path d="M183.059 124.15C183.059 124.15 182.908 123.603 182.707 122.749" stroke="#263238" stroke-linecap="round" stroke-linejoin="round"/>
<path d="M182.608 114.602C182.608 114.602 185.915 114.815 188.321 116.294" stroke="#263238" stroke-linecap="round" stroke-linejoin="round"/>
<path d="M182.491 117.307C182.491 117.307 182.584 116.705 185.146 119.02" stroke="#263238" stroke-linecap="round" stroke-linejoin="round"/>
<path d="M180.873 114.208C180.873 114.208 180.804 112.74 178.931 111.971" stroke="#263238" stroke-linecap="round" stroke-linejoin="round"/>
<path d="M181.222 116.396L179.616 116.104" stroke="#263238" stroke-linecap="round" stroke-linejoin="round"/>
<path d="M181.327 118.597C181.327 118.597 178.299 119.351 177.25 120.503" stroke="#263238" stroke-linecap="round" stroke-linejoin="round"/>
<path d="M177.56 128.065C177.56 128.065 182.761 132.034 183.308 137.921L182.229 118.209" stroke="#263238" stroke-width="2" stroke-linecap="round" stroke-linejoin="round"/>
<path d="M190.152 125.19C183.309 123.958 183.309 137.92 183.309 137.92" stroke="#263238" stroke-width="2" stroke-linecap="round" stroke-linejoin="round"/>
<path d="M184.129 137.782C184.129 137.782 180.16 108.9 191.646 108.9" stroke="#263238" stroke-width="2" stroke-linecap="round" stroke-linejoin="round"/>
<path d="M187.545 124.358C186.61 123.308 184.623 123.308 183.456 125.996C182.289 128.684 183.339 128.215 183.339 128.215C183.339 128.215 185.558 127.515 186.947 127.046C188.336 126.577 190.218 125.41 190.335 126.114C190.452 126.817 189.4 127.515 188.113 127.749C186.826 127.984 183.441 128.916 183.79 129.619C184.139 130.323 184.959 132.422 184.959 132.422C185.958 131.574 187.012 130.794 188.113 130.085C189.635 129.15 190.57 129.502 189.752 130.551C188.934 131.601 186.595 132.773 187.064 134.174C187.533 135.575 190.347 137.331 190.347 137.331C190.347 137.331 190.696 134.409 191.517 133.474C192.338 132.539 192.335 133.591 192.1 135.227C191.983 135.923 191.904 136.626 191.866 137.331L195.137 138.498C195.672 137.683 196.257 136.903 196.89 136.162L197.491 135.578C197.491 135.578 194.92 133.357 194.803 131.971C194.686 130.584 196.556 131.971 197.139 132.205C197.723 132.44 198.658 134.072 198.658 134.072C198.658 134.072 199.244 131.387 199.361 130.464L199.478 129.529C199.478 129.529 197.022 128.594 196.087 128.594C195.152 128.594 194.686 129.295 194.686 128.36C194.686 127.424 195.621 126.841 196.673 126.958C197.626 127.116 198.564 127.35 199.478 127.659C199.478 127.659 200.179 127.073 199.944 125.32C199.71 123.567 199.127 123.567 197.726 124.036C196.324 124.505 195.386 125.539 194.334 125.539C193.282 125.539 193.868 124.255 194.569 123.904C195.269 123.552 197.022 122.851 197.374 122.734C197.726 122.617 195.504 120.981 194.334 120.75C193.164 120.518 191.652 121.351 191.763 122.503C191.986 124.944 188.48 125.425 187.545 124.358Z" fill="#4B66E3"/>
<path d="M195.067 136.39C195.103 136.741 195.128 137.096 195.14 137.448" stroke="#263238" stroke-linecap="round" stroke-linejoin="round"/>
<path d="M192.719 128.002C193.746 130.317 194.485 132.75 194.92 135.245" stroke="#263238" stroke-linecap="round" stroke-linejoin="round"/>
<path d="M192.298 127.063C191.721 125.819 191.285 125.061 191.285 125.061C191.917 124.756 192.441 124.267 192.788 123.657C193.062 123.104 193.463 122.624 193.958 122.256" stroke="#263238" stroke-linecap="round" stroke-linejoin="round"/>
<path d="M187.193 129.033C187.193 129.033 191.402 127.28 191.402 127.632" stroke="#263238" stroke-linecap="round" stroke-linejoin="round"/>
<path d="M193.738 126.814C193.738 126.814 195.608 125.879 197.244 125.879" stroke="#263238" stroke-linecap="round" stroke-linejoin="round"/>
<path d="M193.053 129.635C192.242 130.301 191.498 131.044 190.831 131.854C190.149 132.659 189.597 133.566 189.195 134.542" stroke="#263238" stroke-linecap="round" stroke-linejoin="round"/>
<path d="M194.322 130.086C194.322 130.086 196.778 129.385 198.062 130.552" stroke="#263238" stroke-linecap="round" stroke-linejoin="round"/>
<path d="M198.766 114.301C197.494 113.549 196.087 113.531 195.395 112.737C194.704 111.943 196.06 111.534 196.784 111.835C197.509 112.136 199.19 112.999 199.505 113.188C199.821 113.378 199.605 110.626 199.015 109.58C198.426 108.534 196.811 107.942 196.009 108.786C194.31 110.572 191.658 108.23 191.838 106.835C192.019 105.44 190.717 103.94 187.93 104.821C185.143 105.702 186.177 106.186 186.177 106.186C186.177 106.186 188.161 107.403 189.436 108.158C190.711 108.913 192.816 109.556 192.362 110.103C191.908 110.651 190.69 110.317 189.671 109.502C188.651 108.687 185.726 106.739 185.425 107.463C185.125 108.188 184.072 110.169 184.072 110.169C185.367 110.368 186.648 110.652 187.906 111.02C189.607 111.553 189.956 112.488 188.627 112.56C187.298 112.632 184.881 111.634 184.117 112.905C183.354 114.177 183.88 117.446 183.88 117.446C183.88 117.446 186.315 115.795 187.557 115.801C188.799 115.807 188.005 116.495 186.616 117.391C186.014 117.76 185.433 118.162 184.875 118.594L186.138 121.832C187.104 121.701 188.077 121.632 189.051 121.625L189.875 121.682C189.875 121.682 189.875 118.284 190.849 117.277C191.823 116.27 191.998 118.6 192.205 119.195C192.413 119.791 191.79 121.568 191.79 121.568C191.79 121.568 194.196 120.248 194.983 119.725L195.768 119.198C195.768 119.198 194.866 116.733 194.265 116.026C193.663 115.32 192.819 115.425 193.522 114.824C194.226 114.222 195.284 114.523 195.885 115.404C196.389 116.227 196.826 117.089 197.193 117.981C197.193 117.981 198.095 118.128 199.265 116.802C200.434 115.476 200.041 115.049 198.766 114.301ZM187.707 118.041C186.772 117.575 188.991 116.64 188.991 116.64C189.812 116.516 188.642 118.51 187.71 118.035L187.707 118.041ZM189.28 113.678C188.883 113.48 190.076 113.077 190.076 113.077C191.808 113.399 189.683 113.874 189.283 113.672L189.28 113.678Z" fill="#4B66E3"/>
<path d="M187.683 120.416C187.441 120.675 187.191 120.924 186.935 121.165" stroke="#263238" stroke-linecap="round" stroke-linejoin="round"/>
<path d="M192.479 113.143C191.405 115.436 190.053 117.589 188.453 119.553" stroke="#263238" stroke-linecap="round" stroke-linejoin="round"/>
<path d="M192.912 112.21C193.474 110.957 193.759 110.13 193.759 110.13C194.405 110.415 195.123 110.495 195.816 110.358C196.413 110.202 197.038 110.19 197.641 110.322" stroke="#263238" stroke-linecap="round" stroke-linejoin="round"/>
<path d="M191.896 111.895C192.16 111.666 188.08 109.637 188.08 109.637" stroke="#263238" stroke-linecap="round" stroke-linejoin="round"/>
<path d="M194.045 113.134C194.045 113.134 195.979 113.934 197.052 115.169" stroke="#263238" stroke-linecap="round" stroke-linejoin="round"/>
<path d="M191.469 114.442C190.434 114.268 189.385 114.195 188.336 114.222C187.281 114.234 186.235 114.412 185.236 114.749" stroke="#263238" stroke-linecap="round" stroke-linejoin="round"/>
<path d="M191.958 115.72C191.958 115.72 194.096 117.115 194.063 118.85" stroke="#263238" stroke-linecap="round" stroke-linejoin="round"/>
<path d="M180.609 130.488C179.586 129.887 178.453 129.869 177.903 129.228C177.352 128.588 178.435 128.266 179.018 128.51C179.601 128.753 180.951 129.445 181.21 129.595C181.468 129.745 181.288 127.536 180.813 126.703C180.338 125.87 179.039 125.383 178.408 126.065C177.04 127.5 174.905 125.617 175.052 124.493C175.2 123.368 174.15 122.163 171.898 122.872C169.646 123.582 170.488 123.973 170.488 123.973C170.488 123.973 172.085 124.953 173.11 125.557C174.135 126.162 175.816 126.682 175.464 127.124C175.112 127.566 174.12 127.295 173.299 126.637C172.479 125.978 170.124 124.412 169.881 124.995C169.637 125.578 168.795 127.187 168.795 127.187C169.838 127.346 170.868 127.574 171.88 127.869C173.248 128.299 173.528 129.054 172.457 129.111C171.387 129.168 169.451 128.365 168.85 129.388C168.248 130.41 168.66 133.041 168.66 133.041C168.66 133.041 170.62 131.715 171.619 131.718C172.617 131.721 171.979 132.277 170.864 132.999C170.378 133.294 169.91 133.616 169.46 133.964L170.476 136.571C171.253 136.465 172.037 136.409 172.821 136.402L173.486 136.45C173.486 136.45 173.486 133.714 174.271 132.905C175.055 132.097 175.194 133.97 175.359 134.448C175.524 134.926 175.025 136.357 175.025 136.357C175.025 136.357 176.967 135.296 177.596 134.872L178.227 134.451C178.227 134.451 177.5 132.467 177.007 131.898C176.513 131.33 175.84 131.414 176.405 130.921C176.97 130.428 177.821 130.69 178.305 131.39C178.711 132.053 179.064 132.746 179.361 133.465C179.361 133.465 180.085 133.582 181.026 132.515C181.968 131.447 181.628 131.092 180.609 130.488ZM171.709 133.495C170.957 133.119 172.743 132.367 172.743 132.367C173.402 132.274 172.461 133.874 171.706 133.498L171.709 133.495ZM172.978 129.983C172.656 129.824 173.618 129.502 173.618 129.502C175.013 129.773 173.296 130.148 172.978 129.986V129.983Z" fill="#4B66E3"/>
<path d="M171.706 135.413C171.51 135.621 171.309 135.822 171.104 136.014" stroke="#263238" stroke-linecap="round" stroke-linejoin="round"/>
<path d="M175.548 129.562C174.682 131.407 173.594 133.139 172.307 134.719" stroke="#263238" stroke-linecap="round" stroke-linejoin="round"/>
<path d="M175.897 128.81C176.348 127.803 176.579 127.136 176.579 127.136C177.099 127.365 177.676 127.429 178.233 127.319C178.713 127.194 179.216 127.184 179.7 127.289" stroke="#263238" stroke-linecap="round" stroke-linejoin="round"/>
<path d="M172.006 126.748C172.006 126.748 175.293 128.381 175.079 128.552" stroke="#263238" stroke-linecap="round" stroke-linejoin="round"/>
<path d="M176.817 129.553C176.817 129.553 178.371 130.196 179.222 131.188" stroke="#263238" stroke-linecap="round" stroke-linejoin="round"/>
<path d="M174.733 130.605C173.901 130.464 173.057 130.405 172.214 130.428C171.365 130.438 170.523 130.581 169.718 130.852" stroke="#263238" stroke-linecap="round" stroke-linejoin="round"/>
<path d="M175.127 131.634C175.127 131.634 176.85 132.755 176.817 134.153" stroke="#263238" stroke-linecap="round" stroke-linejoin="round"/>
<path d="M176.435 111.191C176.435 111.191 175.148 112.127 174.331 111.191C173.513 110.256 174.682 108.386 173.51 107.686C172.337 106.985 170.473 108.269 170.473 108.269C170.473 108.269 171.991 108.621 171.991 109.439C171.991 110.256 171.291 110.605 171.174 110.256C171.056 109.908 170.239 108.152 169.069 108.97C168.732 109.197 168.444 109.49 168.223 109.832C168.003 110.173 167.854 110.556 167.785 110.957C167.785 110.957 170.587 110.488 170.822 111.54C171.056 112.593 169.652 111.423 168.486 111.423C167.319 111.423 166.264 111.657 166.381 112.358C166.445 112.98 166.445 113.606 166.381 114.228C166.986 113.661 167.774 113.33 168.603 113.293C169.887 113.293 169.887 114.111 168.72 114.111C167.554 114.111 166.616 115.281 166.616 115.281C166.616 115.281 167.785 117.033 169.186 117.851C170.587 118.669 171.056 118.32 171.174 117.617C171.291 116.913 170.822 115.163 171.64 115.163C172.457 115.163 170.473 118.32 171.522 118.434C172.572 118.549 173.393 118.203 173.627 117.499L173.862 116.799C173.862 116.799 173.393 115.046 173.51 114.345C173.627 113.645 173.862 114.345 174.093 115.163C174.325 115.981 174.562 117.968 174.911 117.851C175.26 117.734 176.315 116.216 176.549 115.632C176.784 115.049 174.911 113.41 174.911 113.062C174.911 112.713 176.315 113.293 176.549 113.645C176.719 113.909 176.874 114.182 177.016 114.463C177.016 114.463 177.833 113.879 177.716 112.241C177.599 110.602 176.435 111.191 176.435 111.191Z" fill="#4B66E3"/>
<path d="M169.902 115.427C170.711 114.3 171.907 112.766 172.945 112.009" stroke="#263238" stroke-linecap="round" stroke-linejoin="round"/>
<path d="M168.955 116.799C168.955 116.799 169.162 116.474 169.496 115.987" stroke="#263238" stroke-linecap="round" stroke-linejoin="round"/>
<path d="M173.51 112.24C173.51 112.24 174.911 113.993 175.263 115.863" stroke="#263238" stroke-linecap="round" stroke-linejoin="round"/>
<path d="M172.112 113.398C172.112 113.398 172.461 113.164 172.461 115.503" stroke="#263238" stroke-linecap="round" stroke-linejoin="round"/>
<path d="M172.93 111.191C172.93 111.191 173.63 110.488 173.161 109.204" stroke="#263238" stroke-linecap="round" stroke-linejoin="round"/>
<path d="M171.995 112.358L171.408 111.423" stroke="#263238" stroke-linecap="round" stroke-linejoin="round"/>
<path d="M170.942 113.398C170.942 113.398 169.189 112.229 168.137 112.229" stroke="#263238" stroke-linecap="round" stroke-linejoin="round"/>
<path d="M188.236 137.37H179.201V150.374H188.236V137.37Z" fill="#263238" stroke="#263238" stroke-width="2" stroke-linecap="round" stroke-linejoin="round"/>
<path d="M106.858 37.4449C106.858 37.4449 106.966 33.6024 106.831 30.2981C106.696 26.9938 106.969 19.9102 106.969 19.9102" stroke="#263238" stroke-miterlimit="10"/>
<path d="M106.906 24.0771L105.406 22.8955" stroke="#263238" stroke-miterlimit="10"/>
<path d="M106.888 24.8893L107.423 24.0264" stroke="#263238" stroke-miterlimit="10"/>
<path d="M106.768 28.3075L108.1 27.2041" stroke="#263238" stroke-miterlimit="10"/>
<path d="M106.969 21.3621L106.266 20.7217" stroke="#263238" stroke-miterlimit="10"/>
<path d="M106.756 28.906L105.875 27.9619" stroke="#263238" stroke-miterlimit="10"/>
<path d="M106.831 32.616L105 30.9443" stroke="#263238" stroke-miterlimit="10"/>
<path d="M106.879 34.6754C107.346 34.4945 107.8 34.2825 108.238 34.041" stroke="#263238" stroke-miterlimit="10"/>
<path d="M105.86 24.6689C105.123 24.1006 102.651 24.1999 102.176 25.3815C101.701 26.5631 103.214 28.4903 104.657 28.355C105.225 28.3009 105.472 28.2618 105.694 27.9431L103.665 25.9588L105.863 27.7267C105.924 27.6116 105.975 27.4907 106.013 27.3659C106.037 27.2787 106.061 27.1825 106.079 27.0832C106.232 26.3767 106.554 25.2011 105.86 24.6689Z" fill="#4B66E3"/>
<path d="M110.643 23.2988V23.3409C110.445 24.2219 109.441 24.721 108.59 24.6458C108.472 24.6358 108.355 24.6147 108.241 24.5827C108.042 24.8975 107.919 25.2541 107.881 25.6245C107.844 25.995 107.893 26.3691 108.024 26.7174C108.06 26.817 108.107 26.9119 108.166 27C108.415 26.7956 111.085 24.5165 111.085 24.5165L108.313 27.1864C109.149 28.0884 111.109 27.9591 111.792 26.3025C112.474 24.6458 111.605 23.5364 110.643 23.2988Z" fill="#4B66E3"/>
<path d="M109.284 20.2171C107.847 19.9165 106.56 20.5539 106.578 22.0542C106.586 22.3849 106.662 22.7106 106.8 23.011C106.939 23.3114 107.138 23.5803 107.384 23.801L108.866 21.7806L107.622 23.9844C107.901 24.1747 108.223 24.2906 108.56 24.3212C109.408 24.3933 110.415 23.8942 110.613 23.0133C110.821 22.0301 110.721 20.5328 109.284 20.2171Z" fill="#4B66E3"/>
<path d="M107.607 15C107.607 15 107.459 15.0451 106.539 15.4931C106.001 15.7901 105.602 16.2883 105.429 16.8787C105.257 17.4692 105.325 18.1039 105.619 18.6441C105.874 19.1487 106.315 19.5347 106.849 19.7204L107.219 16.1455L107.063 19.7685C107.133 19.7757 107.203 19.7757 107.273 19.7685C107.874 19.7084 108.815 18.9928 108.906 17.5286C108.996 16.0644 107.607 15 107.607 15Z" fill="#4B66E3"/>
<path d="M103.407 18.2502L106.182 20.4691C106.209 20.3714 106.218 20.2694 106.209 20.1684C106.08 18.8996 104.814 18.163 103.978 17.8984C103.142 17.6338 102.562 18.1058 103.1 19.3205C103.638 20.5352 105.048 21.1245 105.677 20.9411C105.826 20.9043 105.96 20.8224 106.061 20.7066L103.407 18.2502Z" fill="#4B66E3"/>
<path d="M105.315 21.0942C104.89 21.0636 104.477 20.9367 104.108 20.7231C103.739 20.5096 103.423 20.215 103.184 19.8615C102.889 19.8335 102.595 19.922 102.365 20.108C102.134 20.294 101.986 20.5627 101.951 20.8567C101.668 22.1796 102.624 23.5627 104.005 23.3943C104.438 23.3717 104.849 23.1959 105.165 22.8982L102.7 20.6463L105.339 22.6577C105.391 22.5649 105.424 22.4627 105.436 22.357C105.521 21.9334 105.479 21.4941 105.315 21.0942Z" fill="#4B66E3"/>
<path d="M105.301 28.4518C105.076 28.5478 104.837 28.6048 104.594 28.6202C103.692 28.7044 102.772 27.9978 102.315 27.168C102.047 27.1861 101.792 27.2937 101.592 27.4736C101.392 27.6535 101.258 27.8952 101.212 28.1602C100.938 29.7086 102.372 31.7501 103.821 31.4254C104.198 31.352 104.547 31.175 104.829 30.9142L101.666 27.8715L105.012 30.7158C105.203 30.4704 105.327 30.1791 105.37 29.8709C105.528 29.4064 105.504 28.8988 105.301 28.4518Z" fill="#4B66E3"/>
<path d="M111.666 31.6177C110.601 30.385 109.335 31.4884 109.335 31.4884C109.335 31.4884 108.56 31.744 108.265 32.8444C108.175 33.1783 108.188 33.5317 108.304 33.8577L111.503 31.9935L108.382 34.032C108.683 34.5853 109.308 34.934 110.186 34.6785C111.587 34.2936 112.727 32.8595 111.666 31.6177Z" fill="#4B66E3"/>
<path d="M109.014 36.2842H104.585V42.8417H109.014V36.2842Z" fill="#263238"/>
<path d="M157.896 42.7871H99.4829V150.795H157.896V42.7871Z" fill="#4B66E3" stroke="#263238" stroke-miterlimit="10"/>
<path d="M149.658 44.1553H100.698V149.15H149.658V44.1553Z" fill="#263238" stroke="#263238" stroke-linecap="round" stroke-linejoin="round"/>
<path d="M149.658 60.4395H100.698V61.9879H149.658V60.4395Z" fill="#4B66E3" stroke="#263238" stroke-miterlimit="10"/>
<path d="M149.658 78.3408H100.698V79.8892H149.658V78.3408Z" fill="#4B66E3" stroke="#263238" stroke-miterlimit="10"/>
<path d="M133.879 44.1738H132.839V60.4368H133.879V44.1738Z" fill="#4B66E3" stroke="#263238" stroke-miterlimit="10"/>
<path d="M117.234 44.1738H116.194V60.4368H117.234V44.1738Z" fill="#4B66E3" stroke="#263238" stroke-miterlimit="10"/>
<path d="M133.879 79.9072H132.839V96.1702H133.879V79.9072Z" fill="#4B66E3" stroke="#263238" stroke-miterlimit="10"/>
<path d="M117.234 79.9072H116.194V96.1702H117.234V79.9072Z" fill="#4B66E3" stroke="#263238" stroke-miterlimit="10"/>
<path d="M125.475 62.0752H124.435V78.3381H125.475V62.0752Z" fill="#4B66E3" stroke="#263238" stroke-miterlimit="10"/>
<path d="M149.658 96.1738H100.698V97.7222H149.658V96.1738Z" fill="#4B66E3" stroke="#263238" stroke-miterlimit="10"/>
<path d="M149.658 114.015H100.698V149.698H149.658V114.015Z" fill="#4B66E3" stroke="#263238" stroke-miterlimit="10"/>
<path d="M125.475 97.749H124.435V114.012H125.475V97.749Z" fill="#4B66E3" stroke="#263238" stroke-miterlimit="10"/>
<path d="M150.857 42.7783V150.771L157.899 150.795V42.7783H150.857Z" fill="#263238" stroke="#263238" stroke-linecap="round" stroke-linejoin="round"/>
<path d="M137.114 45.4365H134.601V60.4006H137.114V45.4365Z" fill="white" stroke="#263238" stroke-miterlimit="10"/>
<path d="M137.114 57.1865H134.601V58.4132H137.114V57.1865Z" fill="white" stroke="#263238" stroke-miterlimit="10"/>
<path d="M137.114 46.9541H134.601V48.1808H137.114V46.9541Z" fill="white" stroke="#263238" stroke-miterlimit="10"/>
<path d="M139.684 45.4365H137.171V60.4006H139.684V45.4365Z" fill="white" stroke="#263238" stroke-miterlimit="10"/>
<path d="M139.684 57.1865H137.171V58.4132H139.684V57.1865Z" fill="white" stroke="#263238" stroke-miterlimit="10"/>
<path d="M139.684 46.9541H137.171V48.1808H139.684V46.9541Z" fill="white" stroke="#263238" stroke-miterlimit="10"/>
<path d="M142.259 45.4365H139.745V60.4006H142.259V45.4365Z" fill="white" stroke="#263238" stroke-miterlimit="10"/>
<path d="M142.259 57.1865H139.745V58.4132H142.259V57.1865Z" fill="white" stroke="#263238" stroke-miterlimit="10"/>
<path d="M142.259 46.9541H139.745V48.1808H142.259V46.9541Z" fill="white" stroke="#263238" stroke-miterlimit="10"/>
<path d="M144.829 45.4365H142.315V60.4006H144.829V45.4365Z" fill="white" stroke="#263238" stroke-miterlimit="10"/>
<path d="M149.017 45.4365H144.808V60.4006H149.017V45.4365Z" fill="white" stroke="#263238" stroke-miterlimit="10"/>
<path d="M144.829 57.1865H142.315V58.4132H144.829V57.1865Z" fill="white" stroke="#263238" stroke-miterlimit="10"/>
<path d="M144.829 46.9541H142.315V48.1808H144.829V46.9541Z" fill="white" stroke="#263238" stroke-miterlimit="10"/>
<path d="M120.298 45.4365H117.784V60.4006H120.298V45.4365Z" fill="white" stroke="#263238" stroke-miterlimit="10"/>
<path d="M120.298 57.1865H117.784V58.4132H120.298V57.1865Z" fill="white" stroke="#263238" stroke-miterlimit="10"/>
<path d="M120.298 46.9541H117.784V48.1808H120.298V46.9541Z" fill="white" stroke="#263238" stroke-miterlimit="10"/>
<path d="M122.869 45.4365H120.355V60.4006H122.869V45.4365Z" fill="white" stroke="#263238" stroke-miterlimit="10"/>
<path d="M122.869 57.1865H120.355V58.4132H122.869V57.1865Z" fill="white" stroke="#263238" stroke-miterlimit="10"/>
<path d="M122.869 46.9541H120.355V48.1808H122.869V46.9541Z" fill="white" stroke="#263238" stroke-miterlimit="10"/>
<path d="M125.442 45.4365H122.929V60.4006H125.442V45.4365Z" fill="white" stroke="#263238" stroke-miterlimit="10"/>
<path d="M125.442 57.1865H122.929V58.4132H125.442V57.1865Z" fill="white" stroke="#263238" stroke-miterlimit="10"/>
<path d="M125.442 46.9541H122.929V48.1808H125.442V46.9541Z" fill="white" stroke="#263238" stroke-miterlimit="10"/>
<path d="M128.013 45.4365H125.5V60.4006H128.013V45.4365Z" fill="white" stroke="#263238" stroke-miterlimit="10"/>
<path d="M132.201 45.4365H127.992V60.4006H132.201V45.4365Z" fill="white" stroke="#263238" stroke-miterlimit="10"/>
<path d="M128.013 57.1865H125.5V58.4132H128.013V57.1865Z" fill="white" stroke="#263238" stroke-miterlimit="10"/>
<path d="M128.013 46.9541H125.5V48.1808H128.013V46.9541Z" fill="white" stroke="#263238" stroke-miterlimit="10"/>
<path d="M120.298 81.2246H117.784V96.1887H120.298V81.2246Z" fill="white" stroke="#263238" stroke-miterlimit="10"/>
<path d="M120.298 92.9746H117.784V94.2013H120.298V92.9746Z" fill="white" stroke="#263238" stroke-miterlimit="10"/>
<path d="M120.298 82.7461H117.784V83.9728H120.298V82.7461Z" fill="white" stroke="#263238" stroke-miterlimit="10"/>
<path d="M122.869 81.2246H120.355V96.1887H122.869V81.2246Z" fill="white" stroke="#263238" stroke-miterlimit="10"/>
<path d="M122.869 92.9746H120.355V94.2013H122.869V92.9746Z" fill="white" stroke="#263238" stroke-miterlimit="10"/>
<path d="M122.869 82.7461H120.355V83.9728H122.869V82.7461Z" fill="white" stroke="#263238" stroke-miterlimit="10"/>
<path d="M125.442 81.2246H122.929V96.1887H125.442V81.2246Z" fill="white" stroke="#263238" stroke-miterlimit="10"/>
<path d="M125.442 92.9746H122.929V94.2013H125.442V92.9746Z" fill="white" stroke="#263238" stroke-miterlimit="10"/>
<path d="M125.442 82.7461H122.929V83.9728H125.442V82.7461Z" fill="white" stroke="#263238" stroke-miterlimit="10"/>
<path d="M128.013 81.2246H125.5V96.1887H128.013V81.2246Z" fill="white" stroke="#263238" stroke-miterlimit="10"/>
<path d="M132.201 81.2246H127.992V96.1887H132.201V81.2246Z" fill="white" stroke="#263238" stroke-miterlimit="10"/>
<path d="M128.013 92.9746H125.5V94.2013H128.013V92.9746Z" fill="white" stroke="#263238" stroke-miterlimit="10"/>
<path d="M128.013 82.7461H125.5V83.9728H128.013V82.7461Z" fill="white" stroke="#263238" stroke-miterlimit="10"/>
<path d="M136.898 81.2246H134.384V96.1887H136.898V81.2246Z" fill="white" stroke="#263238" stroke-miterlimit="10"/>
<path d="M136.898 92.9746H134.384V94.2013H136.898V92.9746Z" fill="white" stroke="#263238" stroke-miterlimit="10"/>
<path d="M136.898 82.7461H134.384V83.9728H136.898V82.7461Z" fill="white" stroke="#263238" stroke-miterlimit="10"/>
<path d="M139.471 81.2246H136.958V96.1887H139.471V81.2246Z" fill="white" stroke="#263238" stroke-miterlimit="10"/>
<path d="M139.471 92.9746H136.958V94.2013H139.471V92.9746Z" fill="white" stroke="#263238" stroke-miterlimit="10"/>
<path d="M139.471 82.7461H136.958V83.9728H139.471V82.7461Z" fill="white" stroke="#263238" stroke-miterlimit="10"/>
<path d="M142.042 81.2246H139.528V96.1887H142.042V81.2246Z" fill="white" stroke="#263238" stroke-miterlimit="10"/>
<path d="M142.042 92.9746H139.528V94.2013H142.042V92.9746Z" fill="white" stroke="#263238" stroke-miterlimit="10"/>
<path d="M142.042 82.7461H139.528V83.9728H142.042V82.7461Z" fill="white" stroke="#263238" stroke-miterlimit="10"/>
<path d="M144.616 81.2246H142.102V96.1887H144.616V81.2246Z" fill="white" stroke="#263238" stroke-miterlimit="10"/>
<path d="M148.801 81.2246H144.592V96.1887H148.801V81.2246Z" fill="white" stroke="#263238" stroke-miterlimit="10"/>
<path d="M144.616 92.9746H142.102V94.2013H144.616V92.9746Z" fill="white" stroke="#263238" stroke-miterlimit="10"/>
<path d="M144.616 82.7461H142.102V83.9728H144.616V82.7461Z" fill="white" stroke="#263238" stroke-miterlimit="10"/>
<path d="M103.804 81.2246H101.29V96.1887H103.804V81.2246Z" fill="white" stroke="#263238" stroke-miterlimit="10"/>
<path d="M103.804 92.9746H101.29V94.2013H103.804V92.9746Z" fill="white" stroke="#263238" stroke-miterlimit="10"/>
<path d="M103.804 82.7461H101.29V83.9728H103.804V82.7461Z" fill="white" stroke="#263238" stroke-miterlimit="10"/>
<path d="M106.377 81.2246H103.864V96.1887H106.377V81.2246Z" fill="white" stroke="#263238" stroke-miterlimit="10"/>
<path d="M106.377 92.9746H103.864V94.2013H106.377V92.9746Z" fill="white" stroke="#263238" stroke-miterlimit="10"/>
<path d="M106.377 82.7461H103.864V83.9728H106.377V82.7461Z" fill="white" stroke="#263238" stroke-miterlimit="10"/>
<path d="M108.948 81.2246H106.434V96.1887H108.948V81.2246Z" fill="white" stroke="#263238" stroke-miterlimit="10"/>
<path d="M108.948 92.9746H106.434V94.2013H108.948V92.9746Z" fill="white" stroke="#263238" stroke-miterlimit="10"/>
<path d="M108.948 82.7461H106.434V83.9728H108.948V82.7461Z" fill="white" stroke="#263238" stroke-miterlimit="10"/>
<path d="M111.521 81.2246H109.008V96.1887H111.521V81.2246Z" fill="white" stroke="#263238" stroke-miterlimit="10"/>
<path d="M115.707 81.2246H111.498V96.1887H115.707V81.2246Z" fill="white" stroke="#263238" stroke-miterlimit="10"/>
<path d="M111.521 92.9746H109.008V94.2013H111.521V92.9746Z" fill="white" stroke="#263238" stroke-miterlimit="10"/>
<path d="M111.521 82.7461H109.008V83.9728H111.521V82.7461Z" fill="white" stroke="#263238" stroke-miterlimit="10"/>
<path d="M103.482 45.4365H100.968V60.4006H103.482V45.4365Z" fill="white" stroke="#263238" stroke-miterlimit="10"/>
<path d="M103.482 57.1865H100.968V58.4132H103.482V57.1865Z" fill="white" stroke="#263238" stroke-miterlimit="10"/>
<path d="M103.482 46.9541H100.968V48.1808H103.482V46.9541Z" fill="white" stroke="#263238" stroke-miterlimit="10"/>
<path d="M106.053 45.4365H103.539V60.4006H106.053V45.4365Z" fill="white" stroke="#263238" stroke-miterlimit="10"/>
<path d="M106.053 57.1865H103.539V58.4132H106.053V57.1865Z" fill="white" stroke="#263238" stroke-miterlimit="10"/>
<path d="M106.053 46.9541H103.539V48.1808H106.053V46.9541Z" fill="white" stroke="#263238" stroke-miterlimit="10"/>
<path d="M108.626 45.4365H106.113V60.4006H108.626V45.4365Z" fill="white" stroke="#263238" stroke-miterlimit="10"/>
<path d="M108.626 57.1865H106.113V58.4132H108.626V57.1865Z" fill="white" stroke="#263238" stroke-miterlimit="10"/>
<path d="M108.626 46.9541H106.113V48.1808H108.626V46.9541Z" fill="white" stroke="#263238" stroke-miterlimit="10"/>
<path d="M111.197 45.4365H108.683V60.4006H111.197V45.4365Z" fill="white" stroke="#263238" stroke-miterlimit="10"/>
<path d="M115.385 45.4365H111.176V60.4006H115.385V45.4365Z" fill="white" stroke="#263238" stroke-miterlimit="10"/>
<path d="M111.197 57.1865H108.683V58.4132H111.197V57.1865Z" fill="white" stroke="#263238" stroke-miterlimit="10"/>
<path d="M111.197 46.9541H108.683V48.1808H111.197V46.9541Z" fill="white" stroke="#263238" stroke-miterlimit="10"/>
<path d="M110.92 63.2686H108.407V78.2326H110.92V63.2686Z" fill="white" stroke="#263238" stroke-miterlimit="10"/>
<path d="M110.92 75.0186H108.407V76.2453H110.92V75.0186Z" fill="white" stroke="#263238" stroke-miterlimit="10"/>
<path d="M110.92 64.79H108.407V66.0168H110.92V64.79Z" fill="white" stroke="#263238" stroke-miterlimit="10"/>
<path d="M108.44 63.2686H105.926V78.2326H108.44V63.2686Z" fill="white" stroke="#263238" stroke-miterlimit="10"/>
<path d="M108.44 75.0186H105.926V76.2453H108.44V75.0186Z" fill="white" stroke="#263238" stroke-miterlimit="10"/>
<path d="M108.44 64.79H105.926V66.0168H108.44V64.79Z" fill="white" stroke="#263238" stroke-miterlimit="10"/>
<path d="M105.959 63.2686H103.446V78.2326H105.959V63.2686Z" fill="white" stroke="#263238" stroke-miterlimit="10"/>
<path d="M105.959 75.0186H103.446V76.2453H105.959V75.0186Z" fill="white" stroke="#263238" stroke-miterlimit="10"/>
<path d="M105.959 64.79H103.446V66.0168H105.959V64.79Z" fill="white" stroke="#263238" stroke-miterlimit="10"/>
<path d="M103.482 63.2686H100.968V78.2326H103.482V63.2686Z" fill="white" stroke="#263238" stroke-miterlimit="10"/>
<path d="M103.482 75.0186H100.968V76.2453H103.482V75.0186Z" fill="white" stroke="#263238" stroke-miterlimit="10"/>
<path d="M103.482 64.79H100.968V66.0168H103.482V64.79Z" fill="white" stroke="#263238" stroke-miterlimit="10"/>
<path d="M113.491 63.2686H110.978V78.2326H113.491V63.2686Z" fill="white" stroke="#263238" stroke-miterlimit="10"/>
<path d="M113.491 75.0186H110.978V76.2453H113.491V75.0186Z" fill="white" stroke="#263238" stroke-miterlimit="10"/>
<path d="M113.491 64.79H110.978V66.0168H113.491V64.79Z" fill="white" stroke="#263238" stroke-miterlimit="10"/>
<path d="M116.061 63.2686H113.548V78.2326H116.061V63.2686Z" fill="white" stroke="#263238" stroke-miterlimit="10"/>
<path d="M116.061 75.0186H113.548V76.2453H116.061V75.0186Z" fill="white" stroke="#263238" stroke-miterlimit="10"/>
<path d="M116.061 64.79H113.548V66.0168H116.061V64.79Z" fill="white" stroke="#263238" stroke-miterlimit="10"/>
<path d="M118.635 63.2686H116.122V78.2326H118.635V63.2686Z" fill="white" stroke="#263238" stroke-miterlimit="10"/>
<path d="M122.824 63.2686H118.614V78.2326H122.824V63.2686Z" fill="white" stroke="#263238" stroke-miterlimit="10"/>
<path d="M118.635 75.0186H116.122V76.2453H118.635V75.0186Z" fill="white" stroke="#263238" stroke-miterlimit="10"/>
<path d="M118.635 64.79H116.122V66.0168H118.635V64.79Z" fill="white" stroke="#263238" stroke-miterlimit="10"/>
<path d="M128.792 63.2686H126.278V78.2326H128.792V63.2686Z" fill="white" stroke="#263238" stroke-miterlimit="10"/>
<path d="M128.792 75.0186H126.278V76.2453H128.792V75.0186Z" fill="white" stroke="#263238" stroke-miterlimit="10"/>
<path d="M128.792 64.79H126.278V66.0168H128.792V64.79Z" fill="white" stroke="#263238" stroke-miterlimit="10"/>
<path d="M131.365 63.2686H128.852V78.2326H131.365V63.2686Z" fill="white" stroke="#263238" stroke-miterlimit="10"/>
<path d="M131.365 75.0186H128.852V76.2453H131.365V75.0186Z" fill="white" stroke="#263238" stroke-miterlimit="10"/>
<path d="M131.365 64.79H128.852V66.0168H131.365V64.79Z" fill="white" stroke="#263238" stroke-miterlimit="10"/>
<path d="M136.512 63.2645L134.168 64.2539L140.061 78.2113L142.405 77.222L136.512 63.2645Z" fill="white" stroke="#263238" stroke-miterlimit="10"/>
<path d="M141.139 74.2235L138.796 75.2129L139.279 76.3569L141.622 75.3675L141.139 74.2235Z" fill="white" stroke="#263238" stroke-miterlimit="10"/>
<path d="M137.111 64.6835L134.768 65.6729L135.251 66.8168L137.594 65.8274L137.111 64.6835Z" fill="white" stroke="#263238" stroke-miterlimit="10"/>
<path d="M140.063 78.206H145.31L147.67 77.2228L142.406 77.2168L140.063 78.206Z" fill="white" stroke="#263238" stroke-miterlimit="10"/>
<path d="M136.513 63.2598H141.441L147.67 77.2226L142.406 77.2166L136.513 63.2598Z" fill="white" stroke="#263238" stroke-miterlimit="10"/>
<path d="M133.846 63.2686H131.333V78.2326H133.846V63.2686Z" fill="white" stroke="#263238" stroke-miterlimit="10"/>
<path d="M133.846 75.0186H131.333V76.2453H133.846V75.0186Z" fill="white" stroke="#263238" stroke-miterlimit="10"/>
<path d="M133.846 64.79H131.333V66.0168H133.846V64.79Z" fill="white" stroke="#263238" stroke-miterlimit="10"/>
<path d="M133.846 63.2686H136.513L134.167 64.2487L140.063 78.2056H133.846V63.2686Z" fill="white" stroke="#263238" stroke-miterlimit="10"/>
<path d="M110.92 98.9932H108.407V113.957H110.92V98.9932Z" fill="white" stroke="#263238" stroke-miterlimit="10"/>
<path d="M110.92 110.743H108.407V111.97H110.92V110.743Z" fill="white" stroke="#263238" stroke-miterlimit="10"/>
<path d="M110.92 100.512H108.407V101.738H110.92V100.512Z" fill="white" stroke="#263238" stroke-miterlimit="10"/>
<path d="M108.44 98.9932H105.926V113.957H108.44V98.9932Z" fill="white" stroke="#263238" stroke-miterlimit="10"/>
<path d="M108.44 110.743H105.926V111.97H108.44V110.743Z" fill="white" stroke="#263238" stroke-miterlimit="10"/>
<path d="M108.44 100.512H105.926V101.738H108.44V100.512Z" fill="white" stroke="#263238" stroke-miterlimit="10"/>
<path d="M105.959 98.9932H103.446V113.957H105.959V98.9932Z" fill="white" stroke="#263238" stroke-miterlimit="10"/>
<path d="M105.959 110.743H103.446V111.97H105.959V110.743Z" fill="white" stroke="#263238" stroke-miterlimit="10"/>
<path d="M105.959 100.512H103.446V101.738H105.959V100.512Z" fill="white" stroke="#263238" stroke-miterlimit="10"/>
<path d="M103.482 98.9932H100.968V113.957H103.482V98.9932Z" fill="white" stroke="#263238" stroke-miterlimit="10"/>
<path d="M103.482 110.743H100.968V111.97H103.482V110.743Z" fill="white" stroke="#263238" stroke-miterlimit="10"/>
<path d="M103.482 100.512H100.968V101.738H103.482V100.512Z" fill="white" stroke="#263238" stroke-miterlimit="10"/>
<path d="M113.491 98.9932H110.978V113.957H113.491V98.9932Z" fill="white" stroke="#263238" stroke-miterlimit="10"/>
<path d="M113.491 110.743H110.978V111.97H113.491V110.743Z" fill="white" stroke="#263238" stroke-miterlimit="10"/>
<path d="M113.491 100.512H110.978V101.738H113.491V100.512Z" fill="white" stroke="#263238" stroke-miterlimit="10"/>
<path d="M116.061 98.9932H113.548V113.957H116.061V98.9932Z" fill="white" stroke="#263238" stroke-miterlimit="10"/>
<path d="M116.061 110.743H113.548V111.97H116.061V110.743Z" fill="white" stroke="#263238" stroke-miterlimit="10"/>
<path d="M116.061 100.512H113.548V101.738H116.061V100.512Z" fill="white" stroke="#263238" stroke-miterlimit="10"/>
<path d="M118.635 98.9932H116.122V113.957H118.635V98.9932Z" fill="white" stroke="#263238" stroke-miterlimit="10"/>
<path d="M122.824 98.9932H118.614V113.957H122.824V98.9932Z" fill="white" stroke="#263238" stroke-miterlimit="10"/>
<path d="M118.635 110.743H116.122V111.97H118.635V110.743Z" fill="white" stroke="#263238" stroke-miterlimit="10"/>
<path d="M118.635 100.512H116.122V101.738H118.635V100.512Z" fill="white" stroke="#263238" stroke-miterlimit="10"/>
<path d="M128.792 98.9932H126.278V113.957H128.792V98.9932Z" fill="white" stroke="#263238" stroke-miterlimit="10"/>
<path d="M128.792 110.743H126.278V111.97H128.792V110.743Z" fill="white" stroke="#263238" stroke-miterlimit="10"/>
<path d="M128.792 100.512H126.278V101.738H128.792V100.512Z" fill="white" stroke="#263238" stroke-miterlimit="10"/>
<path d="M131.365 98.9932H128.852V113.957H131.365V98.9932Z" fill="white" stroke="#263238" stroke-miterlimit="10"/>
<path d="M131.365 110.743H128.852V111.97H131.365V110.743Z" fill="white" stroke="#263238" stroke-miterlimit="10"/>
<path d="M131.365 100.512H128.852V101.738H131.365V100.512Z" fill="white" stroke="#263238" stroke-miterlimit="10"/>
<path d="M136.509 98.9882L134.166 99.9775L140.059 113.935L142.402 112.946L136.509 98.9882Z" fill="white" stroke="#263238" stroke-miterlimit="10"/>
<path d="M141.078 109.681L138.738 110.673L139.222 111.815L141.562 110.823L141.078 109.681Z" fill="white" stroke="#263238" stroke-width="0.99925" stroke-miterlimit="10"/>
<path d="M137.109 100.406L134.766 101.396L135.249 102.539L137.592 101.55L137.109 100.406Z" fill="white" stroke="#263238" stroke-miterlimit="10"/>
<path d="M140.063 113.931H145.31L147.67 112.947L142.406 112.938L140.063 113.931Z" fill="white" stroke="#263238" stroke-miterlimit="10"/>
<path d="M136.513 98.9814H141.441L147.67 112.947L142.406 112.938L136.513 98.9814Z" fill="white" stroke="#263238" stroke-miterlimit="10"/>
<path d="M133.846 98.9932H131.333V113.957H133.846V98.9932Z" fill="white" stroke="#263238" stroke-miterlimit="10"/>
<path d="M133.846 110.743H131.333V111.97H133.846V110.743Z" fill="white" stroke="#263238" stroke-miterlimit="10"/>
<path d="M133.846 100.512H131.333V101.738H133.846V100.512Z" fill="white" stroke="#263238" stroke-miterlimit="10"/>
<path d="M133.846 98.9932H136.513L134.167 99.9703L140.063 113.93H133.846V98.9932Z" fill="white" stroke="#263238" stroke-miterlimit="10"/>
<path d="M124.435 114.012V149.099" stroke="#263238" stroke-miterlimit="10"/>
<path d="M101.094 118.356H149.646" stroke="#263238" stroke-miterlimit="10"/>
<path d="M111.059 121.324V127.686" stroke="#263238" stroke-width="2" stroke-miterlimit="10"/>
<path d="M113.178 121.324V127.686" stroke="#263238" stroke-width="2" stroke-miterlimit="10"/>
<path d="M135.442 121.324V127.686" stroke="#263238" stroke-width="2" stroke-miterlimit="10"/>
<path d="M137.562 121.324V127.686" stroke="#263238" stroke-width="2" stroke-miterlimit="10"/>
<path d="M27.9561 151.161H208.436" stroke="#263238" stroke-linecap="round" stroke-linejoin="round"/>
<path d="M45.6672 108.703C45.6672 108.703 43.8633 84.6498 44.7653 81.9439C45.6672 79.2379 51.2295 79.3882 52.2819 79.3882C53.3342 79.3882 75.2827 79.3882 78.4397 80.8915C81.5966 82.3949 82.0476 119.377 82.0476 119.377H47.1706L45.6672 108.703Z" fill="#263238" stroke="#263238" stroke-miterlimit="10"/>
<path d="M83.2469 106.748C83.2469 106.748 79.639 106.748 78.9174 110.356C78.1958 113.964 81.0371 128.847 81.2475 133.056C81.458 137.265 82.1976 143.128 82.1976 143.128H94.9759L97.8322 106.748H83.2469Z" fill="#263238" stroke="#263238" stroke-miterlimit="10"/>
<path d="M97.8323 106.748C97.8323 106.748 94.2244 106.748 93.3224 110.356C92.4204 113.964 94.525 128.847 94.525 133.056C94.525 137.265 94.976 143.128 94.976 143.128H99.486C99.486 143.128 99.937 132.305 99.937 130.801C99.937 129.298 101.741 113.663 100.839 110.506C99.937 107.349 99.1853 107.049 97.8323 106.748Z" fill="#636363" stroke="#263238" stroke-miterlimit="10"/>
<path d="M59.7234 80.9658C59.7234 80.9658 47.772 85.8516 47.772 86.3778C47.772 86.9039 51.8309 101.035 53.3343 103.215C54.8376 105.395 55.8899 107.8 56.3409 108.702C56.7919 109.604 58.7462 111.859 60.3247 111.859C61.9032 111.859 63.7824 109.98 68.8185 109.228C73.8546 108.477 78.3646 108.552 79.2666 107.875C80.1686 107.199 79.0411 105.395 78.8907 105.019C78.7404 104.643 78.1391 103.29 78.1391 103.29C78.1391 103.29 83.0249 107.349 84.9792 107.499C86.9335 107.65 88.3617 106.673 88.6623 105.395C88.963 104.117 87.8355 101.035 87.0838 99.3815C86.3322 97.7279 82.7994 95.0971 81.2209 93.0676C79.6424 91.0381 77.6129 88.6328 76.1848 86.9791C74.9402 85.5234 73.4037 84.3454 71.6748 83.5215C70.3218 82.9201 66.8642 81.4168 64.6843 81.1913C62.5045 80.9658 59.7234 80.9658 59.7234 80.9658Z" fill="#4B66E3" stroke="#263238" stroke-miterlimit="10"/>
<path d="M83.148 98.5791C83.148 98.5791 81.4463 103.291 82.0476 104.493C82.6489 105.696 84.2515 106.096 84.2515 106.096" stroke="#263238" stroke-miterlimit="10"/>
<path d="M57.9189 82.5449L67.8409 92.1662L69.3442 84.9502" stroke="#263238" stroke-miterlimit="10"/>
<path d="M83.6262 99.1568C83.6262 99.1568 86.0315 100.886 86.8583 100.284C87.6851 99.683 87.4596 98.5555 86.9335 97.3528C86.4073 96.1501 84.6785 95.4736 84.002 95.9998C83.3255 96.526 83.1 98.6306 83.6262 99.1568Z" fill="white" stroke="#263238" stroke-miterlimit="10"/>
<path d="M58.9717 77.8096L59.3475 82.3195L67.3151 90.1368L68.5178 84.5745L69.0439 82.2444C69.0439 82.2444 63.8575 81.3424 62.2038 80.2149C60.5502 79.0874 58.9717 77.8096 58.9717 77.8096Z" fill="white" stroke="#263238" stroke-miterlimit="10"/>
<path d="M69.0439 82.2444C69.0439 82.2444 63.8575 81.3424 62.2038 80.2149C60.5502 79.0874 58.9717 77.8096 58.9717 77.8096L59.3475 82.3195L61.362 84.2949C62.9284 84.7369 64.4889 84.9504 65.5502 84.5414C66.7279 84.1132 67.8535 83.5535 68.9056 82.8728L69.0439 82.2444Z" fill="#263238" stroke="#263238" stroke-miterlimit="10"/>
<path d="M56.5901 74.3275C56.5901 74.3275 55.186 67.9113 55.186 66.8109C55.186 65.7105 58.9955 60.0941 64.206 60.9961C69.4165 61.8981 72.3239 64.9047 72.5254 65.8067C72.7268 66.7087 71.924 68.5127 71.924 68.5127C72.0826 69.0353 72.1835 69.5737 72.2247 70.1182C72.2247 70.7196 71.3227 73.3233 71.3227 73.3233L71.022 70.6173C71.022 70.6173 68.5175 71.3209 67.1134 71.3209C65.7093 71.3209 63.304 70.4189 63.304 70.4189C63.304 70.4189 63.8061 72.0214 63.304 72.8242C62.8019 73.627 61.3015 74.3275 61.3015 74.3275C61.3015 74.3275 61.1001 75.9301 60.4988 75.9301C59.757 75.8925 59.0197 75.7919 58.2949 75.6294C57.892 75.5302 56.5901 74.3275 56.5901 74.3275Z" fill="#263238" stroke="#263238" stroke-miterlimit="10"/>
<path d="M58.8963 75.0282C58.8963 75.0282 58.6948 72.6229 56.6894 73.2242C54.684 73.8256 55.9888 76.0294 57.0923 77.1329C58.1957 78.2363 58.4934 77.4335 58.4934 77.4335C58.4934 77.4335 58.794 79.7396 60.2974 81.0415C61.8007 82.3434 64.1068 84.7487 66.5121 84.448C68.9174 84.1474 70.6222 81.1407 70.9229 78.9368C71.2235 76.733 71.422 71.5195 71.422 70.9181C71.3495 70.2399 71.2157 69.5697 71.0221 68.9157C71.0221 68.9157 68.9174 70.419 67.0142 70.0161C65.111 69.6132 63.1056 68.8135 62.2036 68.8135C61.3016 68.8135 61.5 70.1184 61.8007 70.5182C62.1014 70.9181 62.9041 71.7209 62.0021 72.223C61.1001 72.7251 59.8975 73.2242 59.8975 73.2242V75.3289L58.8963 75.0282Z" fill="white" stroke="#263238" stroke-miterlimit="10"/>
<path d="M68.4845 73.9336L67.9914 79.3666L65.5229 78.651" stroke="#263238" stroke-miterlimit="10"/>
<path d="M66.4009 79.0898C66.4009 79.0898 65.1983 79.0898 64.5368 79.147C64.1395 79.2127 63.7358 79.2309 63.3342 79.2011C63.0606 79.147 62.7328 78.9275 63.2801 79.4747C63.8273 80.0219 65.4749 80.6774 66.3528 80.7916C67.2308 80.9059 67.8351 80.6262 68.4906 80.1903C69.146 79.7543 69.6932 79.3123 69.3685 79.2041C68.9161 79.1236 68.457 79.0863 67.9975 79.0928V79.3695L66.4009 79.0898Z" fill="#263238" stroke="#263238" stroke-miterlimit="10"/>
<path d="M64.6722 75.7976C64.8698 75.7976 65.03 75.4665 65.03 75.058C65.03 74.6495 64.8698 74.3184 64.6722 74.3184C64.4746 74.3184 64.3145 74.6495 64.3145 75.058C64.3145 75.4665 64.4746 75.7976 64.6722 75.7976Z" fill="#263238"/>
<path d="M70.0207 74.9497C70.0207 75.3586 69.8613 75.6893 69.6659 75.6893C69.4705 75.6893 69.3081 75.3586 69.3081 74.9497C69.3081 74.5408 69.4675 74.207 69.6659 74.207C69.8643 74.207 70.0207 74.5408 70.0207 74.9497Z" fill="#263238"/>
<path d="M63.3281 73.9341C63.3281 73.9341 64.8104 72.8908 66.0161 73.3328" stroke="#263238" stroke-miterlimit="10"/>
<path d="M68.7612 73.3864C68.7612 73.3864 70.2976 72.6709 70.9561 73.3293" stroke="#263238" stroke-miterlimit="10"/>
<path d="M65.6342 76.417C65.6342 76.417 65.3035 76.8018 64.2061 77.1296" stroke="#263238" stroke-miterlimit="10"/>
<path d="M68.6499 76.1826C68.9746 76.4068 69.3248 76.5915 69.6932 76.7328" stroke="#263238" stroke-miterlimit="10"/>
<path d="M73.3281 90.4374L73.8543 89.0844C73.8543 89.0844 74.5308 89.7609 76.3348 89.7609C78.1388 89.7609 81.0702 91.0387 81.0702 91.0387L81.2957 91.4145C81.2957 91.4145 81.8219 89.836 82.7991 89.5354C83.7762 89.2347 85.3547 88.1824 85.5802 87.8817L85.8057 87.5811L86.858 88.483L82.1977 94.6467L73.4785 91.2642L73.3281 90.4374Z" fill="white" stroke="#263238" stroke-miterlimit="10"/>
<path d="M73.4034 89.9111L71.1484 101.863L78.9657 103.667L81.822 92.091L73.4034 89.9111Z" fill="white" stroke="#263238" stroke-miterlimit="10"/>
<path d="M81.8221 92.0904L86.8583 88.4824L83.8516 100.058L78.9658 103.666L81.8221 92.0904Z" fill="white" stroke="#263238" stroke-miterlimit="10"/>
<path d="M63.707 99.6821L67.1136 98.278C67.1136 98.278 70.1202 95.0729 70.4209 94.7722C70.7215 94.4716 73.7282 94.1709 73.7282 94.1709L77.0355 96.3748C77.0355 96.3748 77.6368 96.8769 77.0355 97.0753C76.4342 97.2738 75.1323 96.6754 75.1323 96.6754L73.8274 95.8727L73.0276 96.2755L74.7294 97.6766C74.7294 97.6766 75.2315 98.9815 75.2315 99.6821C75.2223 100.132 75.1199 100.575 74.9308 100.984L73.9296 102.388L70.923 100.885C70.923 100.885 69.119 102.187 68.7161 102.388C68.3132 102.59 64.5068 102.289 64.5068 102.289L63.707 99.6821Z" fill="white" stroke="#263238" stroke-miterlimit="10"/>
<path d="M70.896 96.1712L71.9603 95.9697L72.8744 96.2223" stroke="#263238" stroke-miterlimit="10"/>
<path d="M69.8828 98.1488C69.8828 98.1488 72.2641 97.4873 72.4174 97.4873C72.5708 97.4873 74.3447 99.3123 74.3447 99.3123L74.5461 101.291" stroke="#263238" stroke-miterlimit="10"/>
<path d="M69.9849 99.415L71.9091 99.4662L73.683 100.633C73.863 101.2 73.9463 101.794 73.9296 102.389" stroke="#263238" stroke-miterlimit="10"/>
<path d="M49.8764 84.9502C49.8764 84.9502 47.6696 85.2509 47.3689 87.1541C47.0682 89.0573 45.0658 105.095 45.6671 106.899C46.2685 108.703 57.3931 105.597 57.7929 105.395C58.1928 105.194 64.5068 103.291 64.609 102.891C64.7112 102.491 64.9097 99.1806 64.0077 98.9822C63.1057 98.7838 54.4856 99.0814 54.4856 99.0814L53.283 88.6574" fill="#4B66E3"/>
<path d="M49.8764 84.9502C49.8764 84.9502 47.6696 85.2509 47.3689 87.1541C47.0682 89.0573 45.0658 105.095 45.6671 106.899C46.2685 108.703 57.3931 105.597 57.7929 105.395C58.1928 105.194 64.5068 103.291 64.609 102.891C64.7112 102.491 64.9097 99.1806 64.0077 98.9822C63.1057 98.7838 54.4856 99.0814 54.4856 99.0814L53.283 88.6574" stroke="#263238" stroke-miterlimit="10"/>
<path d="M54.4856 99.0811L49.1729 99.983" stroke="#263238" stroke-miterlimit="10"/>
<path d="M48.1714 98.7803L52.7806 99.3816" stroke="#263238" stroke-miterlimit="10"/>
<path d="M85.5052 93.4433C85.5052 93.4433 83.4757 95.548 83.5509 96.0741C83.626 96.6003 84.6784 95.7735 84.9039 95.548C85.1293 95.3225 86.1817 94.7211 86.1817 94.1198C86.1817 93.5185 85.9562 92.842 85.5052 93.4433Z" fill="white" stroke="#263238" stroke-miterlimit="10"/>
<path d="M85.7305 94.7217C85.7305 94.7217 86.3318 95.323 86.3318 95.8492C86.3318 96.3753 85.054 98.1042 84.4527 98.1042C83.8513 98.1042 84.3023 96.9015 84.603 96.3753C84.9036 95.8492 85.7305 94.7217 85.7305 94.7217Z" fill="white" stroke="#263238" stroke-miterlimit="10"/>
<path d="M86.3322 95.8486C86.3322 95.8486 87.0838 96.0741 87.0838 96.7506C87.0838 97.4271 85.6557 98.5546 85.2799 98.6298C84.904 98.7049 84.9792 98.0285 85.2799 97.5023C85.5805 96.9761 86.3322 95.8486 86.3322 95.8486Z" fill="white" stroke="#263238" stroke-miterlimit="10"/>
<path d="M87.0838 96.751C87.2377 97.1319 87.2895 97.5465 87.2341 97.9536C87.1589 98.7053 86.0314 99.1563 85.6556 99.1563C85.2798 99.1563 85.2798 98.6301 85.2798 98.6301C85.9159 98.0381 86.5182 97.4107 87.0838 96.751Z" fill="white" stroke="#263238" stroke-miterlimit="10"/>
<path d="M63.4425 150.795H62.0143L61.3018 141.324H64.1581L63.4425 150.795Z" fill="white" stroke="#263238" stroke-miterlimit="10"/>
<path d="M50.3634 150.795H48.9352L48.2227 141.324H51.079L50.3634 150.795Z" fill="white" stroke="#263238" stroke-miterlimit="10"/>
<path d="M97.568 150.795H96.1398L95.4272 141.324H98.2836L97.568 150.795Z" fill="white" stroke="#263238" stroke-miterlimit="10"/>
<path d="M84.4889 150.795H83.0607L82.3481 141.324H85.2045L84.4889 150.795Z" fill="white" stroke="#263238" stroke-miterlimit="10"/>
<path d="M95.5776 123.204H61.4521V143.048H95.5776V123.204Z" fill="#263238" stroke="#263238" stroke-miterlimit="10"/>
<path d="M120.331 120.029C120.331 120.029 123.939 118.525 124.742 117.924C125.545 117.323 126.645 118.625 126.143 120.029C125.641 121.433 124.339 123.937 122.336 125.14C120.334 126.343 118.728 127.344 118.326 127.744C117.923 128.144 118.025 129.65 116.323 130.251C114.621 130.853 112.514 129.65 111.311 127.744C110.108 125.837 109.306 124.539 109.306 124.539C109.306 124.539 109.408 123.134 111.41 122.434C113.413 121.733 116.822 121.43 116.822 121.43L120.331 120.029Z" fill="white" stroke="#263238" stroke-miterlimit="10"/>
<path d="M79.2664 107.876C79.2664 107.876 81.6447 107.299 82.246 107.599C82.8473 107.9 84.8528 109.806 84.8528 109.806C84.8528 109.806 96.9785 110.005 97.8805 110.408C98.7825 110.81 108.103 117.924 110.109 118.925C112.114 119.927 113.816 120.829 113.816 120.829L112.312 127.443V128.045L112.415 129.049C112.415 129.049 107.201 127.443 105.899 127.143C104.597 126.842 99.1854 124.037 98.6833 124.037C98.1812 124.037 94.0741 122.834 94.0741 122.834C94.0741 122.834 93.4728 122.434 86.9574 121.833C80.442 121.232 73.1268 120.528 70.5201 120.429C67.9133 120.33 64.5068 120.128 63.2049 119.626C61.903 119.124 59.5969 115.618 59.1971 113.513C58.7972 111.409 63.0035 109.605 64.8075 108.802C66.6114 107.999 73.3283 106.998 74.5309 106.998C75.7336 106.998 79.2664 107.876 79.2664 107.876Z" fill="white" stroke="#263238" stroke-miterlimit="10"/>
<path d="M81.5455 110.808L79.54 113.715L82.246 111.911" fill="white"/>
<path d="M81.5455 110.808L79.54 113.715L82.246 111.911" stroke="#263238" stroke-miterlimit="10"/>
<path d="M112.312 119.526C112.312 119.526 115.22 117.22 115.821 116.52C116.422 115.819 118.428 112.01 118.828 110.807C119.228 109.604 120.232 109.003 120.932 109.905C121.633 110.807 122.135 112.611 122.535 113.414C122.935 114.217 122.337 118.122 121.134 119.427C119.931 120.732 118.269 123.892 117.926 124.538C117.024 126.24 115.62 126.442 114.718 126.541C113.816 126.64 111.612 124.238 111.612 124.238L112.312 119.526Z" fill="white" stroke="#263238" stroke-miterlimit="10"/>
<path d="M67.7149 112.813C67.7149 112.813 70.7216 112.211 73.4276 112.512C76.1335 112.813 81.6447 114.514 83.9508 115.116C86.2569 115.717 90.364 116.018 92.2702 116.721C94.1764 117.425 99.1855 118.324 102.992 118.324C106.798 118.324 112.613 118.826 112.613 118.826C112.613 118.826 111.813 124.638 112.012 125.741C112.21 126.629 112.478 127.5 112.815 128.345C112.815 128.345 105.097 128.946 102.893 129.247C100.689 129.548 91.7681 128.146 90.2648 127.744C88.7615 127.341 86.5576 126.742 85.1535 126.742C83.7494 126.742 81.0434 127.344 77.1348 127.744C73.2261 128.143 67.7149 126.442 67.0144 126.342C66.3138 126.243 63.8063 125.338 63.205 124.938C62.6036 124.539 59.0949 118.324 60.2976 115.717C61.5002 113.11 63.0035 112.71 63.0035 112.71" fill="white"/>
<path d="M67.7149 112.813C67.7149 112.813 70.7216 112.211 73.4276 112.512C76.1335 112.813 81.6447 114.514 83.9508 115.116C86.2569 115.717 90.364 116.018 92.2702 116.721C94.1764 117.425 99.1855 118.324 102.992 118.324C106.798 118.324 112.613 118.826 112.613 118.826C112.613 118.826 111.813 124.638 112.012 125.741C112.21 126.629 112.478 127.5 112.815 128.345C112.815 128.345 105.097 128.946 102.893 129.247C100.689 129.548 91.7681 128.146 90.2648 127.744C88.7615 127.341 86.5576 126.742 85.1535 126.742C83.7494 126.742 81.0434 127.344 77.1348 127.744C73.2261 128.143 67.7149 126.442 67.0144 126.342C66.3138 126.243 63.8063 125.338 63.205 124.938C62.6036 124.539 59.0949 118.324 60.2976 115.717C61.5002 113.11 63.0035 112.71 63.0035 112.71" stroke="#263238" stroke-miterlimit="10"/>
<path d="M86.1514 122.924C88.0846 123.309 90.1322 124.481 92.9013 125.567C96.5964 127.013 103.993 126.881 104.946 127.013C105.899 127.145 108.319 127.013 108.319 127.013" fill="white"/>
<path d="M86.1514 122.924C88.0846 123.309 90.1322 124.481 92.9013 125.567C96.5964 127.013 103.993 126.881 104.946 127.013C105.899 127.145 108.319 127.013 108.319 127.013" stroke="#263238" stroke-miterlimit="10"/>
<path d="M71.2446 124.283L72.3481 124.442C75.5592 124.924 81.6687 123.159 84.2303 122.837" fill="white"/>
<path d="M71.2446 124.283L72.3481 124.442C75.5592 124.924 81.6687 123.159 84.2303 122.837" stroke="#263238" stroke-miterlimit="10"/>
<path d="M68.0127 123.961C68.0127 123.961 68.59 123.961 70.0963 124.138L68.0127 123.961Z" fill="white"/>
<path d="M68.0127 123.961C68.0127 123.961 68.59 123.961 70.0963 124.138" stroke="#263238" stroke-miterlimit="10"/>
<path d="M48.5204 106.748C48.5204 106.748 44.9124 106.748 44.1908 110.356C43.4692 113.964 46.2955 128.847 46.521 133.056C46.7465 137.265 47.4711 143.128 47.4711 143.128H60.2493L63.1056 106.748H48.5204Z" fill="#263238" stroke="#263238" stroke-miterlimit="10"/>
<path d="M63.1058 106.748C63.1058 106.748 59.4978 106.748 58.5958 110.356C57.6938 113.964 59.7985 128.847 59.7985 133.056C59.7985 137.265 60.2495 143.128 60.2495 143.128H64.7594C64.7594 143.128 65.2104 132.305 65.2104 130.801C65.2104 129.298 67.0144 113.663 66.1124 110.506C65.2104 107.349 64.4588 107.049 63.1058 106.748Z" fill="#636363" stroke="#263238" stroke-miterlimit="10"/>
<path d="M92.4567 150.795H91.0285L90.3159 141.324H93.1722L92.4567 150.795Z" fill="white" stroke="#263238" stroke-miterlimit="10"/>
<path d="M104.633 150.795H103.205L102.493 141.324H105.349L104.633 150.795Z" fill="white" stroke="#263238" stroke-miterlimit="10"/>
<path d="M110.346 150.795H108.918L108.205 141.324H111.061L110.346 150.795Z" fill="white" stroke="#263238" stroke-miterlimit="10"/>
<path d="M122.373 150.795H120.945L120.232 141.324H123.088L122.373 150.795Z" fill="white" stroke="#263238" stroke-miterlimit="10"/>
<path d="M90.6914 128.997H122.096C122.674 128.997 123.228 129.227 123.637 129.636C124.046 130.044 124.276 130.599 124.276 131.177V146.586H88.4966V131.177C88.4966 130.889 88.5534 130.605 88.6639 130.339C88.7744 130.074 88.9363 129.833 89.1403 129.63C89.3443 129.428 89.5864 129.267 89.8526 129.159C90.1188 129.05 90.4039 128.995 90.6914 128.997Z" fill="#263238" stroke="#263238" stroke-miterlimit="10"/>
<path d="M122.111 128.997H110.686C110.108 128.997 109.553 129.227 109.144 129.636C108.736 130.044 108.506 130.599 108.506 131.177V146.586H124.291V131.177C124.29 130.599 124.06 130.045 123.651 129.636C123.243 129.228 122.689 128.998 122.111 128.997Z" fill="#636363" stroke="#263238" stroke-miterlimit="10"/>
</svg>
