<svg width="241" height="160" viewBox="0 0 241 160" fill="none" xmlns="http://www.w3.org/2000/svg">
<path d="M222.404 68.576C220.912 65.4907 218.721 62.7963 216.004 60.7072C204.529 51.7664 150.826 11.0336 124.404 10.1888C94.7209 9.2288 -2.40232 120.374 6.62168 130.829C15.6457 141.283 127.262 156.947 140.314 153.869C153.367 150.79 214.874 91.744 220.577 85.0048C225.594 79.0752 224.478 72.96 222.404 68.576Z" fill="#4B66E3"/>
<path opacity="0.7" d="M222.404 68.576C220.912 65.4907 218.721 62.7963 216.004 60.7072C204.529 51.7664 150.826 11.0336 124.404 10.1888C94.7209 9.2288 -2.40232 120.374 6.62168 130.829C15.6457 141.283 127.262 156.947 140.314 153.869C153.367 150.79 214.874 91.744 220.577 85.0048C225.594 79.0752 224.478 72.96 222.404 68.576Z" fill="white"/>
<path opacity="0.3" d="M212.267 44.6199C212.267 44.6199 210.129 34.1719 203.003 34.8855C199.764 35.2055 197.598 36.8311 195.719 39.3655C193.31 42.6007 192.446 40.7191 188.999 41.7815C185.915 42.7415 186.388 45.3431 184.487 45.8167C182.587 46.2903 181.166 44.1559 178.551 44.6295C175.937 45.1031 174.516 47.7175 174.516 47.7175H222.001C221.877 46.8293 221.497 45.9966 220.906 45.3217C220.315 44.6469 219.54 44.1594 218.676 43.9191C215.591 42.9591 214.164 45.3335 212.267 44.6199Z" stroke="black" stroke-miterlimit="10"/>
<path opacity="0.3" d="M66.8298 22.5499C66.8298 22.5499 65.3706 15.4075 60.5002 15.8971C58.2858 16.1179 56.8074 17.2283 55.5242 18.9499C53.8762 21.1611 53.2842 19.8747 50.929 20.6011C48.8202 21.2507 49.1402 23.0395 47.8602 23.3595C46.5802 23.6795 45.5882 22.2235 43.8058 22.5499C42.0234 22.8763 41.0474 24.6587 41.0474 24.6587H73.4826C73.3964 24.0556 73.1366 23.4907 72.7349 23.0327C72.3332 22.5747 71.8069 22.2435 71.2202 22.0795C69.1018 21.4139 68.129 23.0395 66.8298 22.5499Z" stroke="black" stroke-miterlimit="10"/>
<g opacity="0.3">
<path d="M165.212 13.3491L158.62 27.1943L182.589 38.6065L189.181 24.7613L165.212 13.3491Z" stroke="black" stroke-miterlimit="10"/>
<path d="M168.007 16.32C167.796 16.7624 167.418 17.1029 166.956 17.2667C166.494 17.4306 165.986 17.4043 165.543 17.1936C165.473 17.1614 165.406 17.1239 165.342 17.0816L161.556 25.04C161.629 25.063 161.701 25.0908 161.771 25.1232C162.213 25.335 162.554 25.7137 162.718 26.1762C162.881 26.6387 162.855 27.1473 162.644 27.5904C162.628 27.6245 162.61 27.6576 162.59 27.6896L179.716 35.84C179.716 35.8048 179.745 35.7696 179.761 35.7344C179.971 35.2915 180.349 34.9503 180.811 34.7858C181.273 34.6214 181.782 34.6472 182.225 34.8576C182.294 34.8922 182.362 34.9307 182.427 34.9728L186.212 27.024C186.139 26.9999 186.067 26.9711 185.998 26.9376C185.559 26.7243 185.223 26.3461 185.062 25.8857C184.902 25.4252 184.93 24.9199 185.14 24.48C185.172 24.4101 185.21 24.3427 185.252 24.2784L168.091 16.1152C168.067 16.1852 168.039 16.2536 168.007 16.32ZM176.647 27.2768C176.39 27.8198 175.978 28.2743 175.462 28.5825C174.946 28.8908 174.351 29.039 173.751 29.0084C173.151 28.9778 172.574 28.7697 172.092 28.4106C171.61 28.0514 171.246 27.5574 171.046 26.991C170.845 26.4247 170.818 25.8116 170.966 25.2294C171.114 24.6473 171.432 24.1223 171.879 23.721C172.326 23.3198 172.883 23.0603 173.477 22.9755C174.072 22.8908 174.679 22.9845 175.22 23.2448C175.579 23.4165 175.901 23.6571 176.167 23.9532C176.433 24.2492 176.638 24.5947 176.771 24.97C176.903 25.3453 176.961 25.7431 176.94 26.1405C176.918 26.538 176.819 26.9274 176.647 27.2864V27.2768Z" stroke="black" stroke-miterlimit="10"/>
</g>
<g opacity="0.3">
<path d="M22.5114 21.1929L15.9194 35.0381L39.8885 46.4502L46.4805 32.605L22.5114 21.1929Z" stroke="black" stroke-miterlimit="10"/>
<path d="M25.2998 24.1695C25.1956 24.3888 25.0492 24.5855 24.8689 24.7481C24.6886 24.9108 24.4779 25.0363 24.2491 25.1174C24.0202 25.1986 23.7775 25.2338 23.535 25.221C23.2925 25.2083 23.0549 25.1478 22.8358 25.0431C22.7659 25.0108 22.6985 24.9734 22.6342 24.9311L18.8486 32.8799C18.9207 32.902 18.9912 32.9287 19.0598 32.9599C19.2792 33.0641 19.4758 33.2105 19.6385 33.3908C19.8011 33.5711 19.9266 33.7818 20.0078 34.0106C20.0889 34.2395 20.1241 34.4822 20.1114 34.7247C20.0986 34.9672 20.0382 35.2048 19.9334 35.4239C19.9174 35.4591 19.8982 35.4911 19.879 35.5263L37.0054 43.6799L37.0502 43.5743C37.1544 43.3549 37.3009 43.1583 37.4812 42.9956C37.6615 42.833 37.8721 42.7075 38.101 42.6263C38.3299 42.5452 38.5725 42.51 38.815 42.5227C39.0575 42.5355 39.2951 42.596 39.5142 42.7007C39.5841 42.7329 39.6515 42.7704 39.7158 42.8127L43.5046 34.8799C43.431 34.8543 43.3606 34.8287 43.2902 34.7967C43.0698 34.6919 42.8724 34.5445 42.7092 34.3631C42.546 34.1817 42.4203 33.9697 42.3394 33.7395C42.2585 33.5092 42.224 33.2653 42.2378 33.0216C42.2516 32.778 42.3134 32.5395 42.4198 32.3199C42.4521 32.251 42.4895 32.1847 42.5318 32.1215L25.383 23.9551C25.3614 24.0288 25.3336 24.1005 25.2998 24.1695ZM33.9398 35.1263C33.6824 35.6672 33.2703 36.1197 32.7558 36.4265C32.2413 36.7334 31.6474 36.8808 31.0491 36.8503C30.4508 36.8198 29.875 36.6126 29.3944 36.255C28.9138 35.8973 28.55 35.4053 28.349 34.8409C28.1479 34.2766 28.1186 33.6654 28.2648 33.0844C28.411 32.5035 28.7261 31.9789 29.1702 31.5769C29.6144 31.1749 30.1678 30.9136 30.7604 30.826C31.353 30.7384 31.9583 30.8284 32.4998 31.0847C32.8598 31.2555 33.1826 31.4955 33.4497 31.7911C33.7169 32.0866 33.9232 32.4319 34.057 32.8072C34.1907 33.1825 34.2492 33.5805 34.2291 33.9784C34.209 34.3763 34.1107 34.7664 33.9398 35.1263Z" stroke="black" stroke-miterlimit="10"/>
</g>
<g opacity="0.3">
<path d="M193.715 63.9263L187.123 77.7715L211.092 89.1836L217.684 75.3384L193.715 63.9263Z" stroke="black" stroke-miterlimit="10"/>
<path d="M196.512 66.9124C196.408 67.1321 196.261 67.3291 196.081 67.4922C195.901 67.6552 195.69 67.781 195.46 67.8625C195.231 67.9439 194.988 67.9794 194.745 67.9668C194.503 67.9542 194.265 67.8938 194.045 67.7892C193.975 67.754 193.911 67.7156 193.847 67.6772L190.061 75.626C190.134 75.6495 190.206 75.6773 190.275 75.7092C190.718 75.9209 191.059 76.2996 191.222 76.7621C191.386 77.2247 191.36 77.7333 191.149 78.1764L191.095 78.2756L208.221 86.4324C208.233 86.3959 208.248 86.3605 208.266 86.3268C208.369 86.1051 208.515 85.9061 208.695 85.7413C208.876 85.5765 209.087 85.4492 209.317 85.3667C209.548 85.2842 209.792 85.2483 210.036 85.2609C210.28 85.2736 210.519 85.3346 210.739 85.4404C210.81 85.4756 210.877 85.514 210.941 85.5524L214.723 77.6036C214.651 77.58 214.581 77.5522 214.512 77.5204C214.069 77.3092 213.728 76.9308 213.563 76.4682C213.399 76.0056 213.425 75.4967 213.635 75.0532C213.671 74.986 213.709 74.9188 213.751 74.8548L196.595 66.7012C196.572 66.7733 196.545 66.8439 196.512 66.9124ZM205.152 77.8724C204.894 78.4143 204.482 78.8675 203.966 79.1748C203.451 79.482 202.856 79.6295 202.256 79.5985C201.657 79.5676 201.08 79.3596 200.599 79.0008C200.118 78.6421 199.754 78.1487 199.554 77.5831C199.353 77.0176 199.325 76.4052 199.472 75.8235C199.62 75.2418 199.936 74.7169 200.382 74.3152C200.828 73.9135 201.383 73.6531 201.977 73.5669C202.571 73.4806 203.177 73.5725 203.719 73.8308C204.444 74.1775 205.002 74.7978 205.27 75.5556C205.538 76.3134 205.495 77.1467 205.149 77.8724H205.152Z" stroke="black" stroke-miterlimit="10"/>
</g>
<g opacity="0.3">
<path d="M118.305 41.1375L127.306 53.5527L148.799 37.9712L139.799 25.556L118.305 41.1375Z" stroke="black" stroke-miterlimit="10"/>
<path d="M122.247 40.115C122.535 40.5122 122.653 41.0074 122.575 41.4917C122.498 41.9759 122.231 42.4096 121.834 42.6974C121.773 42.7432 121.707 42.7839 121.639 42.819L126.807 49.9486C126.863 49.8961 126.922 49.847 126.983 49.8014C127.381 49.5136 127.877 49.3955 128.361 49.4729C128.846 49.5503 129.28 49.8169 129.569 50.2142C129.591 50.245 129.611 50.277 129.63 50.3102L144.99 39.1742L144.919 39.0878C144.631 38.6905 144.512 38.195 144.589 37.7103C144.666 37.2255 144.932 36.791 145.329 36.5022C145.393 36.4574 145.46 36.419 145.524 36.3806L140.34 29.2542C140.284 29.3065 140.225 29.3557 140.164 29.4014C139.766 29.6882 139.272 29.8057 138.787 29.7284C138.303 29.651 137.87 29.385 137.582 28.9886C137.537 28.9283 137.497 28.8652 137.46 28.7998L122.1 39.9454C122.153 39.9984 122.202 40.0551 122.247 40.115ZM136.007 37.7758C136.359 38.2611 136.558 38.8398 136.581 39.4386C136.604 40.0374 136.449 40.6296 136.135 41.1402C135.821 41.6507 135.363 42.0568 134.819 42.3071C134.274 42.5573 133.668 42.6405 133.076 42.5461C132.484 42.4518 131.933 42.184 131.494 41.7768C131.054 41.3696 130.745 40.8412 130.606 40.2583C130.466 39.6755 130.503 39.0644 130.711 38.5024C130.919 37.9403 131.288 37.4525 131.774 37.1006C132.424 36.6296 133.234 36.4362 134.027 36.5628C134.82 36.6894 135.53 37.1258 136.001 37.7758H136.007Z" stroke="black" stroke-miterlimit="10"/>
</g>
<g opacity="0.15">
<path d="M16.0074 65.0366C18.0362 65.1038 22.2282 63.3246 22.2314 63.3246C22.2346 63.3246 20.2186 60.9182 20.0714 60.7838C18.3722 59.2126 14.161 57.1742 11.905 58.4478C10.2762 59.3662 10.0042 61.4686 11.0378 62.9278C12.0714 64.387 14.2794 64.9822 16.0074 65.0366Z" fill="black"/>
<path d="M22.3436 76.7038C24.2412 76.2526 27.5788 73.6542 27.8444 73.4462C29.3217 75.3581 30.9253 77.1691 32.6444 78.867C33.6428 79.8654 34.6796 80.835 35.7292 81.795C35.1852 81.4302 34.6956 81.1038 34.622 81.0654C32.5644 79.9998 27.966 79.1454 26.126 80.9726C24.798 82.2878 25.0924 84.3838 26.4748 85.5262C27.8572 86.6686 30.142 86.6462 31.8252 86.243C33.5084 85.8398 36.4204 83.683 37.1788 83.0974L38.3948 84.195C40.3564 85.9358 42.318 87.6638 44.19 89.4174C44.8492 90.035 45.47 90.6686 46.11 91.299C45.6236 90.979 45.214 90.7038 45.15 90.659C43.0956 89.5934 38.4972 88.739 36.654 90.5662C35.326 91.8782 35.6204 93.9774 37.0028 95.1166C38.3852 96.2558 40.67 96.2398 42.3532 95.8366C43.982 95.4494 46.6668 93.4814 47.5692 92.7966C48.2092 93.4622 48.8236 94.1278 49.3996 94.7998C49.7836 95.267 50.1868 95.6926 50.5452 96.1854L51.63 97.6094C52.27 98.5406 52.9708 99.4974 53.5884 100.422C54.0236 101.062 54.4236 101.677 54.8332 102.301C54.1932 101.661 52.8844 100.483 52.7628 100.381C50.894 99.0142 46.478 97.475 44.3788 99.0014C42.8684 100.099 42.8428 102.217 44.0364 103.555C45.23 104.893 47.4924 105.216 49.214 105.075C51.1116 104.918 54.67 102.953 55.1116 102.707C55.7836 103.734 56.4236 104.742 57.0156 105.705C57.5468 106.563 58.0396 107.385 58.5036 108.169L60.014 107.571C59.486 106.717 58.9228 105.824 58.3116 104.883C57.6364 103.837 56.894 102.729 56.1196 101.6C57.0673 100.699 57.9616 99.7439 58.798 98.739C60.5612 99.5838 64.3436 99.8878 64.83 99.923C64.83 101.152 64.8012 102.345 64.7628 103.475C64.7414 104.249 64.7126 104.996 64.6764 105.715L66.2764 105.075C66.2764 104.563 66.2956 104.045 66.2988 103.507C66.3148 102.259 66.2988 100.925 66.2988 99.555C66.7884 99.4718 70.798 98.7454 72.3788 97.6702C73.806 96.691 75.3484 95.0494 75.4348 93.219C75.5212 91.3886 74.1548 89.8046 72.2924 89.907C69.7036 90.0478 67.2492 94.0286 66.6636 96.2686C66.6284 96.3998 66.4108 97.8686 66.2924 98.8094C66.2924 98.2494 66.2732 97.7086 66.254 97.1326C66.222 95.9934 66.158 94.8574 66.0908 93.635C66.0396 93.0462 65.9884 92.4542 65.934 91.8526C65.8796 91.251 65.7772 90.6302 65.7004 90.0126C65.4892 88.5854 65.2108 87.1486 64.894 85.7086C65.8924 85.6766 69.4284 85.523 70.9932 84.7678C72.558 84.0126 74.3276 82.627 74.6892 80.8318C75.0508 79.0366 73.9436 77.2606 72.0844 77.0814C69.5052 76.8286 66.478 80.3934 65.5564 82.5214C65.4988 82.6526 65.0092 84.2526 64.7596 85.1358C64.5612 84.2718 64.3692 83.4078 64.142 82.5374C63.502 80.0318 62.7468 77.5166 62.0204 75.0014C61.7964 74.2302 61.5852 73.4622 61.3804 72.691C61.7356 72.691 65.9436 72.5886 67.6972 71.731C69.2556 70.9822 71.0316 69.5934 71.3932 67.7982C71.7548 66.003 70.6476 64.227 68.7884 64.0478C66.2092 63.795 63.1788 67.3598 62.2604 69.4878C62.19 69.6478 61.4892 71.9518 61.342 72.5438C60.8652 70.8478 60.4044 69.155 60.0204 67.4654C59.4904 65.1874 59.1088 62.8775 58.878 60.5502C59.0412 60.5502 63.438 60.4702 65.2332 59.5902C66.7884 58.8414 68.5644 57.4526 68.926 55.6574C69.2876 53.8622 68.1804 52.0862 66.3212 51.9038C63.742 51.6542 60.7148 55.219 59.7932 57.3438C59.7228 57.5134 58.9708 59.987 58.8652 60.4478C58.8652 60.3134 58.8236 60.1726 58.814 60.0382C58.6453 57.6925 58.686 55.3366 58.9356 52.9982C59.0572 51.7182 59.2556 50.483 59.454 49.2926C60.2764 49.363 64.0268 49.6382 65.7292 49.0366C67.358 48.4606 69.278 47.2766 69.8316 45.5326C70.3852 43.7886 69.4828 41.9006 67.6556 41.5166C65.118 40.9854 61.7164 44.195 60.5708 46.2046C60.5068 46.3134 59.9948 47.4846 59.6364 48.3614C59.7388 47.827 59.8348 47.2702 59.9564 46.7614C60.3596 44.8414 60.846 43.1102 61.2908 41.5806C61.55 40.7102 61.8028 39.9294 62.046 39.203C62.8844 38.851 66.254 37.3918 67.4636 36.099C68.6732 34.8062 69.8028 32.899 69.4924 31.0942C69.182 29.2894 67.5116 28.035 65.71 28.5342C63.214 29.2318 61.6748 33.6542 61.582 35.9614C61.582 36.1598 61.8092 39.3022 61.8508 39.283L61.902 39.2638C61.6524 39.9582 61.3964 40.707 61.1308 41.5294C60.6508 43.0526 60.126 44.7806 59.678 46.6974C59.1743 48.7587 58.7907 50.8476 58.5292 52.9534C58.2259 55.3095 58.1328 57.6879 58.2508 60.0606V60.147C57.982 59.4366 57.166 57.475 57.086 57.331C55.9596 55.3086 52.606 52.0606 50.046 52.5662C48.2156 52.9278 47.3036 54.8414 47.8284 56.5566C48.3532 58.2718 50.2668 59.5134 51.8924 60.1054C53.726 60.7742 57.9404 60.451 58.2764 60.4254C58.4571 62.8379 58.7982 65.2357 59.2972 67.603C59.582 68.9822 59.9084 70.3646 60.2572 71.7438C60.0044 71.139 59.774 70.5982 59.7324 70.5246C58.606 68.5022 55.2524 65.2542 52.6924 65.7598C50.862 66.1246 49.9468 68.035 50.4716 69.7502C50.9964 71.4654 52.9132 72.707 54.5388 73.299C56.1644 73.891 59.7868 73.699 60.7372 73.619C60.878 74.147 61.0092 74.675 61.15 75.219C61.822 77.7534 62.5068 80.275 63.102 82.7742C63.31 83.6542 63.486 84.5278 63.662 85.4014C63.438 84.8606 63.246 84.4094 63.2076 84.3454C62.0812 82.3198 58.7276 79.0718 56.1676 79.5774C54.3372 79.9422 53.422 81.8558 53.9468 83.571C54.4716 85.2862 56.3884 86.5278 58.014 87.1198C59.5852 87.6926 62.91 87.5358 64.0428 87.4622C64.1964 88.3614 64.3628 89.2638 64.4652 90.1438C64.526 90.7454 64.6252 91.3214 64.654 91.9294C64.6828 92.5374 64.734 93.1262 64.7724 93.715C64.8076 94.8542 64.8492 96.0286 64.8556 97.1422C64.8556 97.9134 64.8556 98.6526 64.8556 99.3822C64.6572 98.5054 64.2156 96.7934 64.1804 96.6558C63.4022 94.7712 62.1526 93.1183 60.5516 91.8558C60.4752 91.6423 60.3788 91.4366 60.2636 91.2414C59.342 89.7022 57.3132 89.0974 55.8124 90.211C53.7324 91.7566 53.8924 96.4318 54.6284 98.6238C54.6732 98.7518 55.3068 100.102 55.7196 100.947C55.3996 100.489 55.0956 100.038 54.7596 99.5678C54.1196 98.6366 53.4252 97.7246 52.6956 96.7422L51.582 95.3406C51.2172 94.867 50.7756 94.4094 50.3692 93.9358C49.4092 92.8606 48.382 91.8174 47.3228 90.7902C48.1388 90.2142 51.0028 88.1342 51.8924 86.6302C52.782 85.1262 53.4924 83.0078 52.8044 81.3118C52.1164 79.6158 50.2124 78.7518 48.5612 79.619C46.27 80.8318 45.7132 85.475 46.1164 87.7534C46.142 87.8974 46.6156 89.5006 46.894 90.3774C46.254 89.763 45.614 89.1486 44.9484 88.5502C43.0284 86.819 41.0124 85.1294 39.0188 83.4302C38.4076 82.9118 37.806 82.387 37.2012 81.8654C37.4924 81.6638 40.9516 79.2606 41.9468 77.5902C42.8332 76.1054 43.5468 73.9646 42.8588 72.2686C42.1708 70.5726 40.2668 69.7086 38.6156 70.5758C36.3244 71.7918 35.7644 76.435 36.1708 78.7134C36.1996 78.8862 36.8844 81.1902 37.0892 81.7694C35.758 80.6174 34.4396 79.4558 33.1884 78.2494C31.4894 76.6415 29.8957 74.926 28.4172 73.1134C28.5548 73.0174 32.174 70.5278 33.1948 68.8158C34.0812 67.331 34.7948 65.1934 34.1068 63.4974C33.4188 61.8014 31.5148 60.9374 29.8668 61.8046C27.5724 63.0174 27.0156 67.6606 27.4188 69.939C27.4508 70.1182 28.19 72.5982 28.3564 73.0398C28.27 72.9342 28.1708 72.835 28.0876 72.7198C26.6542 70.8891 25.3863 68.9348 24.2988 66.8798C23.6876 65.7374 23.1692 64.611 22.6988 63.5038C23.4188 63.1102 26.6988 61.2638 27.7868 59.8302C28.83 58.451 29.7772 56.403 29.278 54.643C28.7788 52.883 26.9836 51.8078 25.2492 52.4958C22.8364 53.4558 21.7708 58.003 21.9212 60.3134C21.9212 60.4382 22.1548 61.7054 22.334 62.627C22.1228 62.1246 21.8988 61.6094 21.694 61.123C20.9708 59.299 20.414 57.603 19.95 56.0638C19.6876 55.1966 19.4668 54.4062 19.2684 53.667C19.774 52.9086 21.7772 49.827 22.0748 48.0862C22.3724 46.3454 22.2604 44.131 21.006 42.7966C19.7516 41.4622 17.6652 41.3374 16.4396 42.7454C14.7404 44.7038 15.8924 49.2382 17.0796 51.219C17.182 51.3886 19.1116 53.8782 19.1372 53.8398L19.1692 53.795C19.3452 54.5118 19.5436 55.2798 19.774 56.1118C20.2156 57.6478 20.734 59.3758 21.4156 61.2318C22.1305 63.2301 22.9629 65.1844 23.9084 67.0846C24.9546 69.2171 26.1893 71.2519 27.598 73.1646L27.6524 73.2318C27.0348 72.787 25.2716 71.603 25.1244 71.5262C23.07 70.4606 18.4716 69.6062 16.6316 71.4334C15.3036 72.7486 15.5948 74.8446 16.9804 75.987C18.366 77.1294 20.6604 77.1198 22.3436 76.7038Z" fill="black"/>
<path d="M59.1464 48.9371C59.1944 48.9371 58.7976 45.8203 58.7496 45.6283C58.196 43.3883 55.8088 39.3563 53.2232 39.1739C51.3608 39.0395 49.9752 40.6459 50.0232 42.4347C50.0712 44.2235 51.5944 45.9323 53.0056 46.9339C54.6664 48.1083 59.1432 48.9371 59.1464 48.9371Z" fill="black"/>
</g>
<g opacity="0.15">
<path d="M125.771 98.3267C128.119 98.4035 132.971 96.3459 132.977 96.3427C132.983 96.3395 130.647 93.5587 130.478 93.4019C128.507 91.5811 123.633 89.2227 121.019 90.6979C119.134 91.7603 118.82 94.1923 120.017 95.8883C121.214 97.5843 123.767 98.2627 125.771 98.3267Z" fill="black"/>
<path d="M173.258 145.443L173.444 145.763H175.566C175.306 145.351 175.038 144.935 174.762 144.506C173.978 143.293 173.118 142.01 172.222 140.704C173.319 139.661 174.354 138.555 175.322 137.392C177.364 138.368 181.742 138.72 182.308 138.762C182.308 140.186 182.273 141.568 182.231 142.874C182.202 143.773 182.167 144.634 182.129 145.466L183.982 144.73C183.982 144.138 184.004 143.536 184.01 142.909C184.01 141.466 184.01 139.923 183.988 138.336C184.558 138.237 189.198 137.402 191.028 136.154C192.679 135.021 194.468 133.117 194.567 131.002C194.666 128.887 193.089 127.047 190.926 127.162C187.93 127.325 185.089 131.936 184.41 134.522C184.369 134.675 184.119 136.384 183.978 137.463C183.978 136.823 183.956 136.183 183.934 135.52C183.898 134.202 183.825 132.887 183.748 131.472C183.686 130.792 183.625 130.104 183.566 129.408C183.521 128.717 183.383 127.994 183.294 127.277C183.05 125.626 182.727 123.962 182.362 122.295C183.514 122.259 187.614 122.077 189.425 121.203C191.236 120.33 193.284 118.727 193.703 116.65C194.122 114.573 192.839 112.515 190.689 112.304C187.7 112.013 184.193 116.144 183.127 118.599C183.06 118.752 182.487 120.605 182.202 121.626C181.975 120.627 181.754 119.626 181.492 118.621C180.734 115.719 179.876 112.803 179.034 109.891C178.775 109.002 178.529 108.109 178.279 107.219C178.689 107.219 183.562 107.101 185.591 106.122C187.396 105.255 189.454 103.645 189.87 101.568C190.286 99.4913 189.009 97.4337 186.855 97.2225C183.866 96.9313 180.362 101.063 179.297 103.517C179.217 103.703 178.404 106.368 178.231 107.056C177.681 105.091 177.15 103.13 176.705 101.175C176.09 98.5395 175.648 95.8671 175.38 93.1745C175.569 93.1745 180.66 93.0817 182.74 92.0801C184.545 91.2097 186.599 89.6001 187.018 87.5233C187.438 85.4465 186.158 83.3889 184.004 83.1809C181.015 82.8865 177.511 87.0209 176.442 89.4753C176.359 89.6673 175.482 92.5345 175.367 93.0657C175.367 92.9089 175.322 92.7457 175.31 92.5921C175.114 89.883 175.162 87.1617 175.45 84.4609C175.591 82.9665 175.809 81.5457 176.052 80.1697C177.012 80.2497 181.345 80.5665 183.316 79.8721C185.204 79.2065 187.425 77.8337 188.065 75.8145C188.705 73.7953 187.665 71.6129 185.546 71.1649C182.609 70.5473 178.673 74.2657 177.342 76.6049C177.271 76.7329 176.676 78.0993 176.26 79.1041C176.378 78.4833 176.49 77.8433 176.615 77.2513C177.082 75.0113 177.649 73.0241 178.161 71.2513C178.462 70.2465 178.753 69.3313 179.038 68.4993C179.998 68.0929 183.908 66.4001 185.31 64.9057C186.711 63.4113 188.02 61.2001 187.658 59.1137C187.297 57.0273 185.364 55.5681 183.281 56.1473C180.401 56.9537 178.606 62.0673 178.5 64.7457C178.5 64.9761 178.759 68.6145 178.82 68.5857L178.881 68.5633C178.593 69.3665 178.295 70.2337 177.985 71.1873C177.431 72.9505 176.823 74.9505 176.305 77.1713C175.722 79.5575 175.277 81.9754 174.974 84.4129C174.624 87.1416 174.517 89.8958 174.654 92.6433C174.654 92.6753 174.654 92.7105 174.654 92.7425C174.334 91.9201 173.396 89.6481 173.303 89.4817C172.001 87.1393 168.103 83.3793 165.159 83.9649C163.038 84.3873 161.982 86.6017 162.599 88.5857C163.217 90.5697 165.425 92.0097 167.303 92.6945C169.425 93.4721 174.308 93.0945 174.695 93.0625C174.905 95.859 175.301 98.6385 175.879 101.383C176.199 102.983 176.586 104.583 176.99 106.183C176.695 105.479 176.43 104.851 176.385 104.768C175.079 102.426 171.185 98.6657 168.238 99.2513C166.116 99.6737 165.06 101.888 165.678 103.872C166.295 105.856 168.503 107.296 170.385 107.981C172.266 108.666 176.465 108.442 177.566 108.365C177.726 108.976 177.886 109.591 178.039 110.202C178.82 113.133 179.614 116.055 180.302 118.947C180.545 119.965 180.746 120.976 180.942 121.987C180.682 121.367 180.458 120.842 180.414 120.765C179.111 118.423 175.217 114.663 172.27 115.248C170.148 115.671 169.092 117.885 169.71 119.869C170.327 121.853 172.535 123.293 174.417 123.978C176.238 124.643 180.087 124.461 181.399 124.375C181.578 125.418 181.758 126.461 181.886 127.479C181.956 128.176 182.071 128.842 182.106 129.549C182.142 130.256 182.199 130.935 182.244 131.616C182.282 132.935 182.334 134.295 182.34 135.584C182.34 136.477 182.34 137.331 182.34 138.192C182.11 137.175 181.617 135.194 181.559 135.034C180.656 132.855 179.209 130.943 177.358 129.482C177.267 129.235 177.155 128.998 177.022 128.771C175.956 126.989 173.604 126.288 171.87 127.578C169.46 129.367 169.63 134.781 170.497 137.319C170.548 137.469 171.281 139.031 171.777 140.01C171.406 139.479 171.054 138.957 170.67 138.41C169.911 137.331 169.124 136.275 168.279 135.136L166.999 133.514C166.58 132.963 166.068 132.435 165.598 131.888C164.484 130.643 163.297 129.434 162.078 128.247C163.022 127.581 166.34 125.168 167.367 123.447C168.394 121.725 169.22 119.251 168.423 117.287C167.626 115.322 165.425 114.314 163.511 115.328C160.858 116.733 160.212 122.109 160.679 124.749C160.708 124.912 161.258 126.768 161.578 127.783C160.836 127.072 160.1 126.362 159.338 125.667C157.098 123.664 154.785 121.706 152.474 119.744C151.767 119.143 151.07 118.538 150.369 117.93C150.708 117.696 154.711 114.915 155.866 112.983C156.89 111.261 157.719 108.784 156.919 106.823C156.119 104.861 153.921 103.85 152.01 104.861C149.358 106.269 148.708 111.642 149.175 114.282C149.21 114.48 150.004 117.162 150.241 117.821C148.698 116.487 147.172 115.143 145.722 113.76C143.755 111.898 141.911 109.911 140.199 107.811C140.359 107.703 144.551 104.819 145.732 102.839C146.759 101.117 147.585 98.6433 146.788 96.6785C145.991 94.7137 143.786 93.7057 141.876 94.7201C139.223 96.1249 138.577 101.501 139.044 104.138C139.079 104.346 139.937 107.219 140.129 107.728C140.03 107.607 139.914 107.491 139.809 107.367C138.127 105.208 136.642 102.903 135.37 100.48C134.663 99.1553 134.062 97.8529 133.505 96.5697C134.34 96.1121 138.138 93.9809 139.399 92.3169C140.606 90.7169 141.7 88.3489 141.124 86.3105C140.548 84.2721 138.468 83.0241 136.458 83.8209C133.665 84.9281 132.433 90.1985 132.618 92.8737C132.618 93.0209 132.89 94.4737 133.095 95.5553C132.852 94.9729 132.59 94.3745 132.369 93.8113C131.534 91.7025 130.897 89.7185 130.35 87.9553C130.046 86.9505 129.79 86.0353 129.562 85.1777C130.148 84.3009 132.468 80.7393 132.81 78.7169C133.146 76.7425 133.025 74.1345 131.575 72.5921C130.126 71.0497 127.703 70.9025 126.286 72.5345C124.318 74.8033 125.646 80.0513 127.041 82.3425C127.162 82.5409 129.393 85.4241 129.425 85.3793L129.46 85.3281C129.665 86.1569 129.892 87.0465 130.164 88.0097C130.673 89.7857 131.268 91.7921 132.062 93.9265C132.889 96.239 133.85 98.501 134.942 100.701C136.154 103.17 137.584 105.526 139.214 107.741L139.278 107.818C138.564 107.303 136.519 105.933 136.353 105.843C133.972 104.608 128.647 103.623 126.516 105.735C124.98 107.258 125.319 109.687 126.919 111.008C128.519 112.33 131.166 112.304 133.114 111.84C135.31 111.315 139.175 108.32 139.482 108.067C141.196 110.282 143.057 112.379 145.05 114.346C146.206 115.498 147.406 116.621 148.622 117.735C147.982 117.309 147.425 116.935 147.342 116.89C144.961 115.655 139.639 114.669 137.505 116.781C135.969 118.301 136.308 120.733 137.911 122.051C139.514 123.37 142.154 123.351 144.103 122.883C146.052 122.416 149.425 119.917 150.302 119.242C150.775 119.664 151.239 120.09 151.713 120.522C153.982 122.538 156.254 124.538 158.433 126.57C159.198 127.283 159.924 128.016 160.654 128.749C160.09 128.371 159.617 128.058 159.54 128.016C157.159 126.784 151.834 125.795 149.703 127.907C148.164 129.431 148.506 131.859 150.106 133.181C151.706 134.503 154.353 134.477 156.302 134.013C158.186 133.562 161.297 131.287 162.34 130.493C163.066 131.264 163.793 132.035 164.462 132.816C164.906 133.357 165.37 133.85 165.786 134.416L167.041 136.064C167.802 137.143 168.593 138.25 169.31 139.322C169.812 140.061 170.27 140.775 170.75 141.495C169.998 140.775 168.494 139.392 168.356 139.293C166.19 137.712 161.076 135.93 158.647 137.693C156.897 138.973 156.865 141.421 158.25 142.967C159.636 144.512 162.25 144.887 164.244 144.727C166.442 144.547 170.561 142.272 171.073 141.984C171.831 143.165 172.574 144.32 173.258 145.443Z" fill="black"/>
<path d="M175.72 79.6803C175.774 79.6803 175.313 76.0707 175.259 75.8403C174.619 73.2355 171.854 68.5795 168.859 68.3683C166.699 68.2147 165.096 70.0707 165.16 72.1443C165.224 74.2179 166.98 76.1923 168.612 77.3539C170.532 78.7203 175.716 79.6803 175.72 79.6803Z" fill="black"/>
</g>
<path d="M55.2842 108.316H18.209V115.571H55.2842V108.316Z" fill="white" stroke="#263238" stroke-linecap="round" stroke-linejoin="round"/>
<path d="M65.5498 100.694H28.4746V108.317H65.5498V100.694Z" fill="white" stroke="#263238" stroke-linecap="round" stroke-linejoin="round"/>
<path d="M75.8184 93.0684H38.7432V100.691H75.8184V93.0684Z" fill="white" stroke="#263238" stroke-linecap="round" stroke-linejoin="round"/>
<path d="M86.084 85.4463H49.0088V93.0687H86.084V85.4463Z" fill="white" stroke="#263238" stroke-linecap="round" stroke-linejoin="round"/>
<path d="M96.7338 145.75V85.4463H86.0874V93.0687H75.8186V100.694H65.553V108.317H55.2842V145.75H96.7338Z" fill="#263238" stroke="#263238" stroke-linecap="round" stroke-linejoin="round"/>
<path d="M96.7339 138.493H59.6587V145.748H96.7339V138.493Z" fill="white" stroke="#263238" stroke-linecap="round" stroke-linejoin="round"/>
<path d="M49.3931 138.493H86.4683V130.871H49.3931V138.493Z" fill="white" stroke="#263238" stroke-linecap="round" stroke-linejoin="round"/>
<path d="M39.124 130.87H76.1992V123.245H39.124V130.87Z" fill="white" stroke="#263238" stroke-linecap="round" stroke-linejoin="round"/>
<path d="M28.8555 123.245H65.9307V115.623H28.8555V123.245Z" fill="white" stroke="#263238" stroke-linecap="round" stroke-linejoin="round"/>
<path d="M18.209 145.75V115.622H28.8554V123.244H39.121V130.87H49.3898V138.492H59.6586V145.75H18.209Z" fill="#263238" stroke="#263238" stroke-linecap="round" stroke-linejoin="round"/>
<path d="M208.033 99.9399L205.62 107.841L200.269 103.729C200.189 103.216 200.082 102.707 199.949 102.205C199.844 101.956 199.207 101.213 199.063 100.925C198.919 100.637 198.711 100.89 198.711 101.105C198.711 101.319 199.207 102.026 199.207 102.026L198.957 102.273L196.973 101.329C196.95 101.318 196.925 101.312 196.9 101.311C196.875 101.31 196.849 101.314 196.825 101.323C196.802 101.332 196.78 101.346 196.761 101.363C196.743 101.381 196.728 101.401 196.717 101.425C196.699 101.464 196.694 101.508 196.705 101.55C196.715 101.592 196.74 101.629 196.775 101.655L197.86 102.487L197.719 102.769L195.911 102.026C195.888 102.017 195.864 102.013 195.839 102.013C195.814 102.014 195.79 102.019 195.768 102.029C195.745 102.04 195.725 102.054 195.709 102.072C195.692 102.091 195.679 102.112 195.671 102.135C195.659 102.174 195.66 102.216 195.674 102.255C195.689 102.293 195.716 102.325 195.751 102.346L197.399 103.306L196.324 103.517C196.299 103.523 196.275 103.533 196.254 103.548C196.233 103.563 196.216 103.582 196.203 103.604C196.19 103.626 196.182 103.65 196.179 103.676C196.176 103.701 196.179 103.727 196.186 103.751C196.199 103.787 196.222 103.818 196.253 103.841C196.284 103.863 196.321 103.875 196.359 103.876H197.469L196.509 104.228C196.509 104.228 196.634 104.506 196.829 104.497L197.965 104.442L199.633 104.548C199.633 104.548 205.05 110.228 205.229 110.401C205.409 110.573 206.471 110.961 206.682 110.749C206.893 110.538 209.271 107.665 209.271 107.665L208.916 100.225C208.916 100.225 208.564 99.5207 208.033 99.9399Z" fill="white" stroke="#263238" stroke-linecap="round" stroke-linejoin="round"/>
<path d="M209.313 90.8255C209.313 90.8255 208.279 90.8959 207.793 89.2255C207.306 87.5551 208.554 87.0815 209.246 86.9439C209.937 86.8063 210.074 85.2863 211.249 85.0783C212.423 84.8703 213.665 85.8399 213.943 86.6783C214.222 87.5167 216.017 86.2623 217.05 87.3695C218.084 88.4767 218.01 90.6143 218.01 91.3759C218.01 92.1375 220.359 92.2751 220.359 94.0703C220.359 95.8655 220.081 96.7647 220.218 97.0399C220.356 97.3151 221.393 102.973 221.393 102.973H208.5C208.5 102.973 208.087 98.8383 208.57 97.8015C209.054 96.7647 209.47 96.6943 209.674 95.7279C209.879 94.7615 209.674 93.2415 209.537 92.5503C209.433 91.9796 209.358 91.4039 209.313 90.8255Z" fill="#263238" stroke="#263238" stroke-linecap="round" stroke-linejoin="round"/>
<path d="M211.802 98.0799L207.934 98.1503L208.692 107.613L216.017 108.166L219.47 98.3551L215.326 98.0127L211.802 98.0799Z" fill="#263238" stroke="#263238" stroke-linecap="round" stroke-linejoin="round"/>
<path d="M210.558 88.6145C210.558 88.6145 209.521 90.0673 209.313 90.8257C209.041 91.7026 208.981 92.6317 209.14 93.5361C209.348 94.5729 209.937 96.2849 210.35 96.4161C210.762 96.5473 211.87 96.4161 211.87 96.4161L211.802 98.0737H211.249L211.316 100.56L213.943 100.698L215.326 98.0033L214.634 97.8657L214.151 93.7921C214.151 93.7921 214.839 93.0305 214.91 92.4769C214.949 92.2022 214.972 91.9255 214.98 91.6481C214.98 91.6481 214.151 92.2721 213.46 91.6481C212.769 91.0241 212.561 90.3361 212.353 89.6449C212.145 88.9537 211.732 88.4033 211.393 88.4033C211.105 88.4285 210.823 88.4998 210.558 88.6145Z" fill="white" stroke="#263238" stroke-linecap="round" stroke-linejoin="round"/>
<path d="M211.87 96.4228L213.044 96.0068L211.94 97.2516L211.87 96.4228Z" fill="#263238" stroke="#263238" stroke-linecap="round" stroke-linejoin="round"/>
<path d="M208.692 107.613L207.934 110.032C207.934 110.032 205.169 113.002 204.615 118.528C204.062 124.055 204.961 129.514 205.239 131.725C205.518 133.936 208.18 143.709 208.18 143.709H209.978C209.978 143.709 209.313 134.628 209.313 133.728V128.685L214.391 142.65L216.052 142.72C216.052 142.72 215.386 136.125 214.974 133.44C214.688 131.676 214.298 129.93 213.806 128.212C213.806 128.212 217.46 120.96 217.46 115.975C217.46 110.989 216.215 109.895 216.215 109.895L216.01 108.167L208.692 107.613Z" fill="#BABABA" stroke="#263238" stroke-linecap="round" stroke-linejoin="round"/>
<path d="M210.909 115.2C211.149 114.122 211.316 113.411 211.316 113.411" stroke="#263238" stroke-linecap="round" stroke-linejoin="round"/>
<path d="M209.312 128.685C209.312 128.685 209.037 127.303 209.245 124.333C209.367 122.58 210.064 119.098 210.618 116.538" stroke="#263238" stroke-linecap="round" stroke-linejoin="round"/>
<path d="M208.18 143.709C208.18 143.709 204.935 145.229 204.935 145.575C204.935 145.92 210.116 145.575 210.116 145.575C210.236 145.243 210.283 144.889 210.253 144.538C210.211 144.247 210.118 143.967 209.978 143.709H208.18Z" fill="white" stroke="#263238" stroke-linecap="round" stroke-linejoin="round"/>
<path d="M214.391 142.65C214.391 142.65 212.874 144.586 212.388 145.07C211.901 145.553 212.042 145.898 212.458 145.898C212.874 145.898 215.223 145.761 215.636 145.486C215.87 145.334 216.08 145.148 216.257 144.932L216.052 142.721L214.391 142.65Z" fill="white" stroke="#263238" stroke-linecap="round" stroke-linejoin="round"/>
<path d="M219.06 99.6006C219.06 99.6006 219.684 108.788 219.13 109.757C218.577 110.727 216.99 110.17 216.852 109.757C216.714 109.345 216.99 105.748 216.99 105.748L219.06 99.6006Z" fill="white" stroke="#263238" stroke-linecap="round" stroke-linejoin="round"/>
<path d="M202.234 77.6276L172.95 81.8945L180.337 132.594L209.621 128.327L202.234 77.6276Z" fill="#4B66E3" stroke="#263238" stroke-linecap="round" stroke-linejoin="round"/>
<path d="M200.442 85.3C199.978 85.368 199.505 85.3438 199.051 85.2289C198.596 85.114 198.169 84.9106 197.793 84.6303C197.417 84.3501 197.1 83.9984 196.86 83.5956C196.62 83.1927 196.462 82.7465 196.394 82.2824C196.376 82.1359 196.365 81.9885 196.362 81.8408L179.546 84.2888C179.588 84.4305 179.62 84.5748 179.642 84.7208C179.778 85.6581 179.536 86.6108 178.969 87.3697C178.403 88.1287 177.558 88.6319 176.621 88.7688C176.548 88.7688 176.477 88.7848 176.404 88.7912L181.677 125.015C181.751 124.999 181.821 124.983 181.895 124.974C182.36 124.906 182.833 124.93 183.288 125.046C183.744 125.161 184.171 125.366 184.547 125.647C184.924 125.928 185.24 126.281 185.48 126.685C185.719 127.089 185.877 127.536 185.943 128.001C185.964 128.147 185.976 128.295 185.978 128.442L202.791 125.994C202.75 125.852 202.719 125.706 202.698 125.559C202.63 125.095 202.654 124.623 202.769 124.168C202.884 123.714 203.088 123.287 203.368 122.911C203.648 122.535 204 122.219 204.403 121.979C204.806 121.739 205.252 121.581 205.716 121.514C205.862 121.493 206.01 121.481 206.157 121.479L200.874 85.2072C200.732 85.2464 200.588 85.2774 200.442 85.3ZM192.122 110.9C190.977 111.067 189.808 110.891 188.762 110.393C187.717 109.896 186.843 109.099 186.25 108.105C185.658 107.111 185.373 105.963 185.433 104.807C185.493 103.651 185.894 102.539 186.585 101.611C187.277 100.682 188.229 99.9804 189.319 99.593C190.41 99.2057 191.591 99.1505 192.714 99.4344C193.836 99.7184 194.849 100.329 195.624 101.188C196.399 102.048 196.902 103.118 197.069 104.263C197.182 105.025 197.144 105.801 196.956 106.548C196.768 107.295 196.435 107.997 195.976 108.615C195.516 109.232 194.939 109.753 194.278 110.148C193.617 110.542 192.884 110.802 192.122 110.913V110.9Z" fill="white" stroke="#263238" stroke-linecap="round" stroke-linejoin="round"/>
<path d="M197.369 78.7109L168.664 86.4053L181.985 136.103L210.691 128.409L197.369 78.7109Z" fill="#4B66E3" stroke="#263238" stroke-width="1.00424" stroke-linecap="round" stroke-linejoin="round"/>
<path d="M195.553 86.5186C194.638 86.763 193.664 86.6343 192.845 86.1609C192.025 85.6875 191.427 84.908 191.182 83.9938C191.145 83.8503 191.117 83.705 191.095 83.5586L174.682 87.949C174.738 88.0858 174.787 88.2258 174.826 88.3682C174.948 88.8212 174.979 89.2937 174.917 89.7587C174.856 90.2236 174.703 90.6719 174.469 91.0779C174.234 91.4839 173.921 91.8396 173.549 92.1247C173.177 92.4098 172.752 92.6187 172.298 92.7394C172.228 92.7586 172.154 92.7714 172.084 92.7874L181.543 128.151L181.754 128.083C182.207 127.962 182.679 127.931 183.144 127.992C183.609 128.053 184.057 128.205 184.463 128.44C184.869 128.674 185.225 128.987 185.51 129.359C185.795 129.731 186.005 130.155 186.126 130.608C186.164 130.751 186.192 130.897 186.212 131.043L202.625 126.653C202.569 126.516 202.521 126.376 202.481 126.234C202.237 125.319 202.366 124.344 202.84 123.525C203.314 122.705 204.094 122.107 205.009 121.863C205.151 121.823 205.297 121.794 205.444 121.776L195.972 86.3746C195.835 86.4312 195.695 86.4793 195.553 86.5186ZM190.26 112.925C189.141 113.221 187.96 113.178 186.866 112.803C185.771 112.427 184.812 111.736 184.111 110.816C183.409 109.896 182.996 108.788 182.923 107.634C182.85 106.479 183.122 105.328 183.703 104.328C184.284 103.327 185.148 102.521 186.187 102.012C187.226 101.502 188.393 101.312 189.54 101.465C190.687 101.619 191.762 102.108 192.631 102.873C193.5 103.637 194.122 104.642 194.42 105.76C194.618 106.504 194.668 107.279 194.567 108.042C194.465 108.805 194.213 109.54 193.827 110.206C193.441 110.872 192.927 111.454 192.314 111.921C191.702 112.388 191.004 112.729 190.26 112.925Z" fill="white" stroke="#263238" stroke-linecap="round" stroke-linejoin="round"/>
<path d="M217.46 108.237L207.166 108.029C207.166 108.029 205.092 107.338 204.746 107.338C204.261 107.416 203.783 107.537 203.319 107.699C203.275 107.714 203.237 107.744 203.213 107.784C203.19 107.824 203.182 107.871 203.191 107.917C203.201 107.965 203.23 108.007 203.27 108.035C203.311 108.062 203.36 108.073 203.409 108.064L204.404 107.891L204.679 108.096L202.686 109.376C202.645 109.403 202.616 109.443 202.604 109.49C202.592 109.537 202.598 109.587 202.622 109.629C202.645 109.672 202.683 109.705 202.73 109.72C202.776 109.736 202.827 109.733 202.871 109.712L204.369 109.008L204.42 109.386L202.82 110.221C202.769 110.248 202.73 110.292 202.71 110.346C202.69 110.4 202.69 110.459 202.711 110.512C202.732 110.564 202.771 110.606 202.82 110.631C202.869 110.657 202.926 110.665 202.98 110.653L203.566 110.519C203.633 110.601 203.723 110.663 203.825 110.695C203.927 110.727 204.035 110.73 204.138 110.701L205.23 110.381L204.538 110.823C204.511 110.839 204.489 110.861 204.472 110.887C204.455 110.914 204.445 110.944 204.442 110.975C204.439 111.007 204.444 111.038 204.456 111.067C204.467 111.096 204.486 111.122 204.51 111.143C204.544 111.17 204.587 111.184 204.631 111.184C204.675 111.184 204.718 111.17 204.753 111.143L206.135 110.199L207.319 109.443L217.751 111.28C217.751 111.28 218.631 111.357 218.785 111.181C218.938 111.005 219.236 109.341 219.262 108.912" fill="white"/>
<path d="M217.46 108.237L207.166 108.029C207.166 108.029 205.092 107.338 204.746 107.338C204.261 107.416 203.783 107.537 203.319 107.699C203.275 107.714 203.237 107.744 203.213 107.784C203.19 107.824 203.182 107.871 203.191 107.917C203.201 107.965 203.23 108.007 203.27 108.035C203.311 108.062 203.36 108.073 203.409 108.064L204.404 107.891L204.679 108.096L202.686 109.376C202.645 109.403 202.616 109.443 202.604 109.49C202.592 109.537 202.598 109.587 202.622 109.629C202.645 109.672 202.683 109.705 202.73 109.72C202.776 109.736 202.827 109.733 202.871 109.712L204.369 109.008L204.42 109.386L202.82 110.221C202.769 110.248 202.73 110.292 202.71 110.346C202.69 110.4 202.69 110.459 202.711 110.512C202.732 110.564 202.771 110.606 202.82 110.631C202.869 110.657 202.926 110.665 202.98 110.653L203.566 110.519C203.633 110.601 203.723 110.663 203.825 110.695C203.927 110.727 204.035 110.73 204.138 110.701L205.23 110.381L204.538 110.823C204.511 110.839 204.489 110.861 204.472 110.887C204.455 110.914 204.445 110.944 204.442 110.975C204.439 111.007 204.444 111.038 204.456 111.067C204.467 111.096 204.486 111.122 204.51 111.143C204.544 111.17 204.587 111.184 204.631 111.184C204.675 111.184 204.718 111.17 204.753 111.143L206.135 110.199L207.319 109.443L217.751 111.28C217.751 111.28 218.631 111.357 218.785 111.181C218.938 111.005 219.236 109.341 219.262 108.912" stroke="#263238" stroke-linecap="round" stroke-linejoin="round"/>
<path d="M203.568 110.525L204.98 109.997" stroke="#263238" stroke-linecap="round" stroke-linejoin="round"/>
<path d="M210.237 91.7315C210.237 91.9683 210.116 92.1635 209.962 92.1635C209.809 92.1635 209.687 91.9683 209.687 91.7315C209.687 91.4947 209.812 91.3027 209.962 91.3027C210.113 91.3027 210.237 91.4947 210.237 91.7315Z" fill="#263238"/>
<path d="M211.783 92.0577C211.783 92.2945 211.658 92.4865 211.508 92.4865C211.357 92.4865 211.232 92.2945 211.232 92.0577C211.232 91.8209 211.357 91.6289 211.508 91.6289C211.658 91.6289 211.783 91.8209 211.783 92.0577Z" fill="#263238"/>
<path d="M209.62 90.7559C209.62 90.7559 209.895 90.4103 210.442 90.7879" stroke="#263238" stroke-linecap="round" stroke-linejoin="round"/>
<path d="M211.197 90.9606C211.385 90.8866 211.594 90.8882 211.78 90.9652C211.966 91.0423 212.115 91.1886 212.196 91.3734" stroke="#263238" stroke-linecap="round" stroke-linejoin="round"/>
<path d="M210.512 91.751C210.549 91.9568 210.537 92.1683 210.477 92.3686C210.375 92.6086 209.895 93.0534 209.93 93.159C209.965 93.2646 210.202 93.3286 210.202 93.3286" stroke="#263238" stroke-linecap="round" stroke-linejoin="round"/>
<path d="M209.895 94.1542C209.895 94.1542 210.855 94.599 211.61 93.9814" stroke="#263238" stroke-linecap="round" stroke-linejoin="round"/>
<path d="M103.098 67.9899C109.189 67.9899 114.126 63.0529 114.126 56.9627C114.126 50.8726 109.189 45.9355 103.098 45.9355C97.0083 45.9355 92.0713 50.8726 92.0713 56.9627C92.0713 63.0529 97.0083 67.9899 103.098 67.9899Z" fill="white" stroke="#263238" stroke-linecap="round" stroke-linejoin="round"/>
<path d="M104.212 67.9899C110.302 67.9899 115.239 63.0529 115.239 56.9627C115.239 50.8726 110.302 45.9355 104.212 45.9355C98.1221 45.9355 93.1851 50.8726 93.1851 56.9627C93.1851 63.0529 98.1221 67.9899 104.212 67.9899Z" fill="white" stroke="#263238" stroke-linecap="round" stroke-linejoin="round"/>
<path d="M110.83 63.5791C114.484 59.9251 114.484 54.0007 110.83 50.3466C107.176 46.6926 101.252 46.6926 97.5977 50.3466C93.9436 54.0007 93.9436 59.9251 97.5977 63.5791C101.252 67.2332 107.176 67.2332 110.83 63.5791Z" fill="white" stroke="#263238" stroke-linecap="round" stroke-linejoin="round"/>
<path d="M104.318 63.5419V62.3098C103.409 62.2757 102.73 61.9845 102.279 61.4362C101.829 60.888 101.586 60.0709 101.55 58.985L103.419 58.665C103.427 59.0368 103.473 59.4067 103.556 59.769C103.606 60.0169 103.724 60.2461 103.895 60.4314C103.973 60.5056 104.064 60.5634 104.164 60.6014C104.264 60.6393 104.371 60.6566 104.478 60.6522C104.587 60.6639 104.697 60.6453 104.797 60.5985C104.896 60.5516 104.981 60.4783 105.041 60.3867C105.144 60.1995 105.195 59.9888 105.191 59.7754C105.203 59.375 105.091 58.9807 104.871 58.6458C104.629 58.3023 104.341 57.9924 104.017 57.7242L102.894 56.7642C102.647 56.5372 102.416 56.2934 102.203 56.0346C101.997 55.7808 101.834 55.4955 101.719 55.1898C101.594 54.8279 101.533 54.4466 101.54 54.0634C101.519 53.7087 101.571 53.3535 101.693 53.0198C101.816 52.6862 102.005 52.3813 102.251 52.1242C102.768 51.6404 103.443 51.3597 104.151 51.3338V50.1562H104.791V51.3338C105.202 51.3418 105.605 51.4518 105.963 51.6538C106.253 51.8275 106.493 52.0733 106.66 52.3674C106.82 52.6624 106.936 52.9795 107.003 53.3082C107.071 53.6331 107.116 53.9625 107.137 54.2938L105.243 54.5722C105.237 54.2816 105.21 53.9918 105.163 53.705C105.133 53.4924 105.052 53.2902 104.926 53.1163C104.86 53.0427 104.777 52.9863 104.685 52.9517C104.592 52.9172 104.493 52.9055 104.395 52.9178C104.284 52.9166 104.175 52.9425 104.077 52.9932C103.979 53.044 103.894 53.1181 103.831 53.209C103.701 53.3966 103.634 53.6207 103.639 53.849C103.624 54.1989 103.727 54.5437 103.931 54.8282C104.133 55.0823 104.355 55.3208 104.593 55.5419L105.694 56.5019C105.985 56.7667 106.255 57.0545 106.5 57.3626C106.748 57.6739 106.949 58.02 107.095 58.3898C107.252 58.7982 107.329 59.2326 107.323 59.6698C107.329 60.1129 107.231 60.5512 107.038 60.9498C106.853 61.3297 106.569 61.6525 106.215 61.8842C105.837 62.1309 105.402 62.2774 104.951 62.3098V63.5546L104.318 63.5419Z" fill="white" stroke="#263238" stroke-linecap="round" stroke-linejoin="round"/>
<path d="M76.5127 55.6003L76.8615 71.7667L76.7207 83.2611L78.6023 82.9827C78.6023 82.9827 80.6247 72.1827 80.6247 71.5555C80.6247 70.9283 81.7383 62.9155 81.7383 62.9155L83.8279 73.2963L84.9127 83.2579L86.7943 82.9795C86.7943 82.9795 87.0343 72.1795 87.0343 70.2307C87.0343 68.2819 86.9383 55.7347 86.9383 55.7347L81.0407 54.2051L76.5127 55.6003Z" fill="#263238" stroke="#263238" stroke-linecap="round" stroke-linejoin="round"/>
<path d="M78.6023 82.9824C78.6023 82.9824 81.3895 84.7936 80.9735 85.2224C80.5575 85.6512 78.2535 85.2224 77.6263 85.152C77.3366 85.1408 77.0523 85.07 76.7911 84.944L76.7207 83.2704L78.6023 82.9824Z" fill="white" stroke="#263238" stroke-linecap="round" stroke-linejoin="round"/>
<path d="M86.7947 82.9824C86.7947 82.9824 89.5819 84.7936 89.1627 85.2224C88.7435 85.6512 86.4459 85.2224 85.8187 85.152C85.529 85.1408 85.2447 85.07 84.9835 84.944L84.9131 83.2704L86.7947 82.9824Z" fill="white" stroke="#263238" stroke-linecap="round" stroke-linejoin="round"/>
<path d="M101.159 45.6026L103.671 45.0234C103.671 45.0234 106.084 46.3034 106.286 46.4858C106.487 46.6682 106.084 46.6874 105.646 46.6874C104.958 46.5955 104.277 46.4598 103.607 46.281C103.607 46.281 104.66 46.601 104.49 46.7578C104.395 46.8316 104.286 46.8848 104.169 46.914C104.052 46.9432 103.931 46.9478 103.812 46.9274C103.642 46.8922 102.996 46.7898 102.996 46.7898C102.996 46.7898 101.876 46.7578 101.537 46.6874L101.198 46.6202L101.159 45.6026Z" fill="white" stroke="#263238" stroke-linecap="round" stroke-linejoin="round"/>
<path d="M84.9097 35.6417C84.9097 35.6417 79.1945 38.8417 78.4585 39.7601C77.7225 40.6785 77.4761 45.2897 76.9833 48.5473C76.661 50.9722 76.4761 53.4135 76.4297 55.8593C76.4297 55.8593 80.5481 56.4129 82.8297 56.3521C84.2218 56.3094 85.6041 56.1032 86.9481 55.7377C86.9481 55.7377 87.7481 51.6193 87.9305 51.0049C88.1129 50.3905 89.5913 43.0049 89.5913 43.0049L94.1385 46.6305H101.159V45.5905C101.159 45.5905 95.6041 44.3105 95.5433 44.1089C95.4825 43.9073 90.8105 37.2257 89.3961 36.4289C87.9817 35.6321 85.8953 34.9025 84.9097 35.6417Z" fill="#4B66E3" stroke="#263238" stroke-linecap="round" stroke-linejoin="round"/>
<path d="M85.4632 33.8594L84.42 36.3778C84.42 36.3778 83.9272 36.5026 84.052 37.485C84.1768 38.4674 85.4024 41.2322 85.8312 41.1714C86.26 41.1106 87.6136 37.4402 87.6136 37.4402L85.4632 33.8594Z" fill="white" stroke="#263238" stroke-linecap="round" stroke-linejoin="round"/>
<path d="M86.0522 36.6396L86.4874 39.9964L87.3066 38.3452L86.0522 36.6396Z" fill="#263238" stroke="#263238" stroke-linecap="round" stroke-linejoin="round"/>
<path d="M91.3034 32.3838C91.5058 32.5542 91.7559 32.6577 92.0195 32.68C92.2831 32.7024 92.5472 32.6425 92.7754 32.5086C93.7002 32.0766 94.129 31.155 93.329 30.419C92.529 29.683 92.1002 30.4798 91.8538 29.4974C91.6074 28.515 90.625 27.8398 89.7802 28.083C88.9354 28.3262 89.2298 28.6366 88.6154 28.819C88.001 29.0014 87.201 28.451 86.401 29.251C85.601 30.051 85.4794 31.955 85.297 32.8158C85.1146 33.6766 85.9114 33.9198 86.577 33.859C87.2426 33.7982 87.8058 32.3838 88.3594 31.939C88.913 31.4942 91.3034 32.3838 91.3034 32.3838Z" fill="#263238" stroke="#263238" stroke-linecap="round" stroke-linejoin="round"/>
<path d="M85.3418 34.1057C85.3418 34.1057 85.4026 35.4561 85.6618 35.8881C85.921 36.3201 86.9417 38.3457 87.3193 38.3457C87.713 38.3731 88.1084 38.3309 88.4873 38.2209C88.7337 38.0993 89.7162 36.8097 90.3306 35.7025C90.945 34.5953 91.3161 32.3841 91.3161 32.3841C91.3161 32.3841 88.3657 30.5409 88.1801 30.9089C87.9945 31.2769 88.0586 31.8305 87.7514 31.8913C87.4442 31.9521 86.7689 32.0161 86.7689 32.0161C86.7689 32.0161 86.9514 32.8769 86.705 33.0593C86.4586 33.2417 85.8442 32.8769 85.8442 32.8769C85.8442 32.8769 85.0954 32.9985 85.3418 34.1057Z" fill="white" stroke="#263238" stroke-linecap="round" stroke-linejoin="round"/>
<path d="M88.7591 34.3227C88.7047 34.5563 88.5543 34.7227 88.4391 34.6939C88.3239 34.6651 88.2471 34.4475 88.3015 34.2139C88.3559 33.9803 88.5063 33.8107 88.6375 33.8427C88.7687 33.8747 88.8199 34.0891 88.7591 34.3227Z" fill="#263238"/>
<path d="M90.3656 34.771C90.308 35.0078 90.1608 35.171 90.0296 35.1422C89.8984 35.1134 89.8376 34.8958 89.892 34.6622C89.9464 34.4286 90.0968 34.259 90.212 34.291C90.3272 34.323 90.42 34.5374 90.3656 34.771Z" fill="#263238"/>
<path d="M88.0874 33.4432C88.0874 33.4432 88.3306 33.248 89.0474 33.4432" stroke="#263238" stroke-linecap="round" stroke-linejoin="round"/>
<path d="M90.1255 33.8818C90.2538 33.8965 90.3774 33.9386 90.4878 34.0055C90.5983 34.0723 90.693 34.1622 90.7655 34.269" stroke="#263238" stroke-linecap="round" stroke-linejoin="round"/>
<path d="M89.5913 34.7549L89.3481 36.0637L88.5737 35.9677" stroke="#263238" stroke-linecap="round" stroke-linejoin="round"/>
<path d="M88.3306 36.7422C88.3306 36.7422 87.601 36.7422 87.3706 35.7246" stroke="#263238" stroke-linecap="round" stroke-linejoin="round"/>
<path d="M86.1385 33.43C86.1385 33.43 86.0169 32.0156 85.4633 32.0156C84.9097 32.0156 84.4201 33.2956 84.7273 33.8588C85.0345 34.422 85.8313 34.5948 85.8313 34.5948" fill="white"/>
<path d="M86.1385 33.43C86.1385 33.43 86.0169 32.0156 85.4633 32.0156C84.9097 32.0156 84.4201 33.2956 84.7273 33.8588C85.0345 34.422 85.8313 34.5948 85.8313 34.5948" stroke="#263238" stroke-linecap="round" stroke-linejoin="round"/>
<path d="M81.2361 40.8604L82.3017 49.6924L91.2617 52.7548L91.4025 53.7916L79.4217 52.1596L77.5017 42.2204C77.2681 41.014 77.8889 39.7052 78.7497 38.9724C79.6105 38.2396 80.9609 38.2012 80.9609 38.2012" fill="#4B66E3"/>
<path d="M81.2361 40.8604L82.3017 49.6924L91.2617 52.7548L91.4025 53.7916L79.4217 52.1596L77.5017 42.2204C77.2681 41.014 77.8889 39.7052 78.7497 38.9724C79.6105 38.2396 80.9609 38.2012 80.9609 38.2012" stroke="#263238" stroke-linecap="round" stroke-linejoin="round"/>
<path d="M91.249 52.7548C91.249 52.7548 92.6762 52.3548 92.849 52.3196C93.0218 52.2844 93.9914 53.0364 94.1834 53.062C94.3754 53.0876 94.7018 53.1484 94.6858 53.4012C94.6698 53.654 94.5866 53.8588 94.1194 53.6988C93.8534 53.6122 93.5946 53.5052 93.345 53.3788C93.784 53.828 94.25 54.2501 94.7402 54.6428C94.9168 54.7536 95.0782 54.887 95.2202 55.0396C95.2419 55.0627 95.2579 55.0907 95.2667 55.1212C95.2755 55.1517 95.2771 55.1838 95.2712 55.215C95.2652 55.2462 95.252 55.2755 95.2326 55.3007C95.2132 55.3258 95.1881 55.346 95.1594 55.3596C94.7767 55.5417 94.3631 55.6503 93.9402 55.6796C93.2554 55.6796 91.3802 53.7948 91.3802 53.7948L91.249 52.7548Z" fill="white" stroke="#263238" stroke-linecap="round" stroke-linejoin="round"/>
<path d="M147.124 78.9633C147.124 78.9633 156.282 73.7985 157.617 74.2977C158.951 74.7969 156.449 84.9569 156.116 85.6225C155.783 86.2881 147.124 78.9633 147.124 78.9633Z" fill="#4B66E3" stroke="#263238" stroke-linecap="round" stroke-linejoin="round"/>
<path d="M157.114 75.6318C157.114 75.6318 156.718 76.2494 156.212 77.139C155.329 78.6942 154.119 81.0814 154.119 82.4606C154.119 84.6238 155.45 84.4574 155.783 82.7806L156.948 77.9486" stroke="#263238" stroke-linecap="round" stroke-linejoin="round"/>
<path d="M80.1351 106.061C82.6464 106.061 84.6823 103.41 84.6823 100.141C84.6823 96.8712 82.6464 94.2207 80.1351 94.2207C77.6237 94.2207 75.5879 96.8712 75.5879 100.141C75.5879 103.41 77.6237 106.061 80.1351 106.061Z" fill="#4B66E3" stroke="#263238" stroke-linecap="round" stroke-linejoin="round"/>
<path d="M121.351 142.621C145.28 142.621 164.679 126.198 164.679 105.939C164.679 85.6807 145.28 69.2578 121.351 69.2578C97.4216 69.2578 78.0229 85.6807 78.0229 105.939C78.0229 126.198 97.4216 142.621 121.351 142.621Z" fill="#4B66E3" stroke="#263238" stroke-linecap="round" stroke-linejoin="round"/>
<path d="M149.492 131.226C142.132 137.088 132.244 140.682 121.351 140.682C101.911 140.682 85.6264 129.236 81.3896 113.869" fill="#4B66E3"/>
<path d="M149.492 131.226C142.132 137.088 132.244 140.682 121.351 140.682C101.911 140.682 85.6264 129.236 81.3896 113.869" stroke="#263238" stroke-width="2" stroke-linecap="round" stroke-linejoin="round"/>
<path d="M80.3398 107.091C80.3238 106.71 80.3174 106.326 80.3174 105.939C80.3184 101.75 81.197 97.608 82.8966 93.7793" fill="#4B66E3"/>
<path d="M80.3398 107.091C80.3238 106.71 80.3174 106.326 80.3174 105.939C80.3184 101.75 81.197 97.608 82.8966 93.7793" stroke="#263238" stroke-width="2" stroke-linecap="round" stroke-linejoin="round"/>
<path d="M108.34 73.2962C116.866 70.8856 125.894 70.8856 134.42 73.2962" stroke="#263238" stroke-width="5" stroke-linecap="round" stroke-linejoin="round"/>
<path d="M162.279 94.6176C162.279 94.6176 167.777 92.784 168.609 93.7856C169.441 94.7872 169.441 106.442 168.775 108.608C168.11 110.774 163.61 110.272 160.455 107.942C159.551 107.307 158.819 106.457 158.325 105.468C157.831 104.479 157.591 103.383 157.626 102.278" fill="#4B66E3"/>
<path d="M162.279 94.6176C162.279 94.6176 167.777 92.784 168.609 93.7856C169.441 94.7872 169.441 106.442 168.775 108.608C168.11 110.774 163.61 110.272 160.455 107.942C159.551 107.307 158.819 106.457 158.325 105.468C157.831 104.479 157.591 103.383 157.626 102.278" stroke="#263238" stroke-linecap="round" stroke-linejoin="round"/>
<path d="M158.948 101.779L155.617 102.278" stroke="#263238" stroke-linecap="round" stroke-linejoin="round"/>
<path d="M158.116 105.443C158.116 105.443 157.284 111.274 158.282 111.44C159.281 111.607 160.948 108.608 160.948 108.608C160.948 108.608 158.615 105.943 158.116 105.443Z" fill="#263238" stroke="#263238" stroke-linecap="round" stroke-linejoin="round"/>
<path d="M155.086 91.789C155.406 92.989 155.21 94.077 154.676 94.2146C154.142 94.3522 153.46 93.4882 153.15 92.2946C152.839 91.101 153.025 90.0066 153.559 89.869C154.094 89.7314 154.778 90.5858 155.086 91.789Z" fill="#263238"/>
<path d="M137.584 75.648C137.584 75.648 148.064 65.168 150.109 67.2128C152.154 69.2576 151.389 78.2048 151.389 79.4848V83.0624" fill="#4B66E3"/>
<path d="M137.584 75.648C137.584 75.648 148.064 65.168 150.109 67.2128C152.154 69.2576 151.389 78.2048 151.389 79.4848V83.0624" stroke="#263238" stroke-linecap="round" stroke-linejoin="round"/>
<path d="M150.455 69.4687C150.455 69.4687 150.621 66.8031 149.453 68.4703C148.285 70.1375 144.957 81.6255 145.956 82.9599C146.954 84.2943 149.796 83.6255 150.455 81.1263C151.114 78.6271 150.621 71.4655 150.621 71.4655" stroke="#263238" stroke-linecap="round" stroke-linejoin="round"/>
<path d="M93.0889 130.253L98.8233 145.751H105.153L107.982 137.754" fill="#4B66E3"/>
<path d="M93.0889 130.253L98.8233 145.751H105.153L107.982 137.754" stroke="#263238" stroke-linecap="round" stroke-linejoin="round"/>
<path d="M145.956 132.259L140.461 145.75H134.132L131.3 137.753" fill="#4B66E3"/>
<path d="M145.956 132.259L140.461 145.75H134.132L131.3 137.753" stroke="#263238" stroke-linecap="round" stroke-linejoin="round"/>
<path d="M119.236 124.109V120.874C116.849 120.78 115.064 120.015 113.882 118.579C112.7 117.143 112.06 114.999 111.962 112.147L116.868 111.312C116.889 112.289 117.011 113.262 117.233 114.214C117.362 114.864 117.669 115.466 118.119 115.952C118.322 116.146 118.563 116.296 118.825 116.395C119.088 116.494 119.368 116.539 119.649 116.528C120.365 116.528 120.858 116.298 121.127 115.83C121.4 115.342 121.538 114.79 121.527 114.23C121.563 113.179 121.277 112.142 120.708 111.258C120.071 110.357 119.318 109.545 118.468 108.842L115.511 106.301C114.866 105.702 114.262 105.061 113.703 104.381C113.155 103.711 112.722 102.953 112.423 102.141C112.091 101.191 111.931 100.19 111.953 99.184C111.953 97.008 112.573 95.3109 113.815 94.0928C115.057 92.8746 116.72 92.1845 118.804 92.0224V88.96H120.5V92.0544C121.58 92.0761 122.637 92.3688 123.575 92.9056C124.335 93.3646 124.964 94.0115 125.402 94.784C125.826 95.5573 126.13 96.3902 126.305 97.2544C126.481 98.1067 126.595 98.9709 126.644 99.84L121.671 100.57C121.657 99.8061 121.587 99.0446 121.463 98.2912C121.384 97.73 121.164 97.1981 120.823 96.7456C120.651 96.553 120.435 96.4049 120.193 96.3141C119.951 96.2232 119.691 96.1923 119.434 96.224C119.144 96.2199 118.857 96.2875 118.599 96.4209C118.341 96.5543 118.12 96.7494 117.956 96.9888C117.621 97.468 117.445 98.0396 117.45 98.624C117.408 99.5397 117.679 100.443 118.218 101.184C118.747 101.855 119.328 102.483 119.956 103.062L122.836 105.565C123.611 106.264 124.328 107.025 124.98 107.84C125.632 108.657 126.159 109.566 126.545 110.538C126.955 111.617 127.154 112.765 127.13 113.92C127.145 115.081 126.889 116.229 126.381 117.274C125.896 118.27 125.153 119.118 124.228 119.728C123.232 120.372 122.089 120.754 120.906 120.838V124.109H119.236Z" fill="#263238"/>
<path opacity="0.35" d="M131.537 105.52C137.291 105.52 141.956 101.003 141.956 95.4304C141.956 89.8581 137.291 85.3408 131.537 85.3408C125.783 85.3408 121.118 89.8581 121.118 95.4304C121.118 101.003 125.783 105.52 131.537 105.52Z" fill="white"/>
<path d="M5.62939 145.75H236.455" stroke="#263238" stroke-linecap="round" stroke-linejoin="round"/>
</svg>
