<svg width="161" height="160" viewBox="0 0 161 160" fill="none" xmlns="http://www.w3.org/2000/svg">
<path d="M107.959 24.4163C96.4393 22.6403 84.5513 24.5763 75.6681 31.7763C67.0281 38.7811 63.1081 50.5059 54.0969 57.0179C40.1801 67.0947 20.4137 63.7475 12.3401 81.8371C9.46007 88.2947 8.71767 95.5107 8.82007 102.58C8.93847 111.434 10.3817 120.394 14.2057 128.378C18.0297 136.362 24.3977 143.328 32.5449 146.791C44.5705 151.911 58.5065 148.848 70.5769 143.853C75.5561 141.796 80.5545 139.373 85.9369 139.098C92.7145 138.743 99.1305 141.799 105.569 143.946C113.294 146.528 121.85 147.828 129.521 145.082C135.524 142.935 140.458 138.484 144.417 133.485C151.489 124.518 155.838 113.709 156.945 102.343C160.014 70.1379 143.396 29.8723 107.959 24.4163Z" fill="#4B66E3"/>
<path opacity="0.7" d="M107.959 24.4163C96.4393 22.6403 84.5513 24.5763 75.6681 31.7763C67.0281 38.7811 63.1081 50.5059 54.0969 57.0179C40.1801 67.0947 20.4137 63.7475 12.3401 81.8371C9.46007 88.2947 8.71767 95.5107 8.82007 102.58C8.93847 111.434 10.3817 120.394 14.2057 128.378C18.0297 136.362 24.3977 143.328 32.5449 146.791C44.5705 151.911 58.5065 148.848 70.5769 143.853C75.5561 141.796 80.5545 139.373 85.9369 139.098C92.7145 138.743 99.1305 141.799 105.569 143.946C113.294 146.528 121.85 147.828 129.521 145.082C135.524 142.935 140.458 138.484 144.417 133.485C151.489 124.518 155.838 113.709 156.945 102.343C160.014 70.1379 143.396 29.8723 107.959 24.4163Z" fill="white"/>
<path d="M91.3963 74.9886C89.5851 75.6542 85.2747 75.3086 85.2715 75.3086C85.2683 75.3086 86.3691 72.5374 86.4619 72.371C87.5275 70.451 90.7211 67.3566 93.1371 67.8334C94.8811 68.1758 95.7515 69.9934 95.2555 71.6222C94.7595 73.251 92.9387 74.4222 91.3963 74.9886Z" fill="#4B66E3"/>
<path d="M35.7354 56.8862C38.1962 56.771 40.9002 60.2974 41.6746 62.355C41.7386 62.5342 42.465 65.4398 42.4202 65.4366H42.3658C42.7978 65.9902 43.2554 66.5886 43.7386 67.2542C44.625 68.4862 45.6138 69.8878 46.5866 71.4846C47.6566 73.1934 48.6247 74.964 49.4858 76.787C50.4619 78.8222 51.2544 80.9404 51.8538 83.1166L51.873 83.1966C51.9018 82.4766 52.0554 80.4638 52.0842 80.3166C52.5002 78.1566 54.5674 74.2366 57.0122 73.9166C58.7754 73.699 60.1674 75.1518 60.2122 76.8542C60.257 78.5566 58.8906 80.2494 57.601 81.2702C56.1482 82.419 52.2442 83.379 51.9338 83.4558C52.4897 85.6854 52.896 87.9496 53.1498 90.2334C53.3066 91.5646 53.4218 92.9086 53.5178 94.259C53.5658 93.619 53.6106 93.0782 53.6266 93.0014C54.0394 90.8414 56.1098 86.9214 58.5546 86.6014C60.3178 86.3838 61.7098 87.8398 61.7546 89.5422C61.7994 91.2446 60.433 92.9342 59.1466 93.955C57.8602 94.9758 54.529 95.875 53.649 96.099C53.681 96.6174 53.7194 97.1326 53.7482 97.651C53.8954 100.137 54.0298 102.621 54.2378 105.049C54.3114 105.904 54.4138 106.745 54.513 107.587C54.5546 107.033 54.5962 106.569 54.609 106.499C55.0218 104.339 57.0922 100.419 59.537 100.099C61.297 99.8814 62.6922 101.334 62.737 103.037C62.7818 104.739 61.4154 106.432 60.1258 107.453C58.8362 108.473 55.8314 109.286 54.7882 109.555C54.9162 110.413 55.0442 111.273 55.2074 112.099C55.329 112.662 55.4122 113.209 55.5658 113.769C55.7194 114.329 55.8506 114.873 55.9914 115.417C56.3114 116.454 56.6122 117.526 56.9354 118.531C57.1594 119.232 57.3834 119.894 57.6074 120.563C57.5242 119.712 57.3994 118.041 57.4026 117.901C57.5473 115.971 58.1829 114.111 59.249 112.496C59.2565 112.28 59.2833 112.066 59.329 111.856C59.7002 110.192 61.3514 109.04 63.0378 109.6C65.377 110.377 66.6314 114.64 66.6122 116.838C66.6122 116.969 66.4394 118.374 66.3178 119.261C66.4714 118.752 66.609 118.256 66.7722 117.731C67.0922 116.694 67.4122 115.67 67.7898 114.566L68.3818 112.966C68.5674 112.429 68.8298 111.888 69.057 111.341C69.6042 110.083 70.2186 108.835 70.8682 107.593C69.9594 107.318 66.7562 106.291 65.5082 105.209C64.2602 104.128 62.9866 102.416 63.1018 100.681C63.217 98.947 64.6762 97.5934 66.4266 97.891C68.8554 98.3038 70.7434 102.326 71.057 104.502C71.0762 104.64 71.1242 106.227 71.137 107.101C71.5306 106.355 71.921 105.613 72.3466 104.861C73.5722 102.723 74.8778 100.601 76.1866 98.4766C76.5834 97.8366 76.9706 97.1742 77.361 96.5246C77.041 96.4286 73.201 95.2926 71.8058 94.0798C70.5642 93.0014 69.281 91.2862 69.3994 89.5518C69.5178 87.8174 70.9706 86.4638 72.721 86.7614C75.1498 87.1742 77.0378 91.1966 77.3514 93.3726C77.377 93.539 77.4442 95.8238 77.4314 96.403C78.2922 94.9694 79.1338 93.523 79.9082 92.0766C80.9638 90.121 81.8906 88.0986 82.6826 86.0222C82.5322 85.9774 78.5226 84.8094 77.0922 83.5678C75.8506 82.4926 74.5706 80.7742 74.6858 79.0398C74.801 77.3054 76.2602 75.9518 78.0106 76.2494C80.4394 76.6622 82.3242 80.6846 82.641 82.8638C82.6634 83.0334 82.737 85.491 82.7178 85.939C82.7626 85.8174 82.8234 85.699 82.8682 85.5774C83.6045 83.4733 84.1528 81.308 84.5066 79.107C84.7178 77.8942 84.849 76.723 84.9546 75.587C84.1866 75.4462 80.6794 74.7614 79.2682 73.7854C77.9146 72.851 76.4522 71.2862 76.3882 69.5486C76.3242 67.811 77.6138 66.307 79.3834 66.4094C81.8442 66.5534 84.161 70.3454 84.7114 72.4894C84.7434 72.6046 84.9162 73.8142 85.0314 74.7006C85.0698 74.1822 85.121 73.651 85.1498 73.155C85.2586 71.2958 85.2426 69.587 85.217 68.0702C85.1946 67.2094 85.1594 66.4318 85.1178 65.7054C84.4362 65.171 81.713 62.9918 80.9226 61.507C80.1322 60.0222 79.5786 57.987 80.3114 56.4126C81.0442 54.8382 82.8938 54.1022 84.417 55.0078C86.5354 56.2878 86.8458 60.7038 86.353 62.8478C86.3082 63.0334 85.313 65.8526 85.2746 65.827L85.233 65.795C85.2874 66.4926 85.3386 67.2446 85.377 68.067C85.4346 69.5838 85.489 71.2958 85.4186 73.1646C85.3668 75.1801 85.198 77.191 84.913 79.187C84.6028 81.424 84.0941 83.629 83.393 85.7758C83.3853 85.801 83.3757 85.8256 83.3642 85.8494C83.7866 85.267 85.0282 83.6702 85.137 83.5582C86.673 81.987 90.577 79.8462 92.7722 80.9438C94.3722 81.7374 94.7242 83.7182 93.8122 85.1582C92.9002 86.5982 90.8394 87.2606 89.201 87.3982C87.3546 87.555 83.569 86.2046 83.2682 86.0958C82.4878 88.265 81.5631 90.3796 80.5002 92.4254C79.8986 93.619 79.2522 94.803 78.5802 95.9838C78.961 95.491 79.3098 95.0526 79.3642 94.995C80.9002 93.4206 84.8042 91.283 86.9994 92.3806C88.5994 93.171 88.9482 95.1518 88.0426 96.595C87.137 98.0382 85.0666 98.6974 83.4282 98.835C81.7898 98.9726 78.5162 97.891 77.6682 97.5902C77.409 98.0414 77.1562 98.4926 76.8938 98.9438C75.6458 101.097 74.3882 103.241 73.2202 105.382C72.8106 106.134 72.433 106.893 72.049 107.651C72.3914 107.213 72.689 106.848 72.7306 106.793C74.2666 105.222 78.1706 103.081 80.369 104.179C81.969 104.973 82.3178 106.953 81.409 108.393C80.5002 109.833 78.433 110.496 76.7978 110.633C75.1978 110.768 72.2026 109.792 71.1818 109.443C70.817 110.23 70.449 111.017 70.129 111.795C69.921 112.333 69.6842 112.835 69.5082 113.395C69.3322 113.955 69.137 114.473 68.9546 114.995C68.6346 116.032 68.3146 117.097 68.0234 118.115C67.8218 118.822 67.6426 119.501 67.4602 120.182C67.8602 119.424 68.6794 117.961 68.7594 117.849C70.0394 116.061 73.5594 113.369 75.9146 114.105C77.6042 114.649 78.2602 116.55 77.5786 118.112C76.897 119.673 74.9578 120.643 73.361 121.027C71.601 121.449 67.8058 120.739 67.3322 120.646C67.0346 121.776 66.7562 122.886 66.5098 123.917C66.4554 124.141 66.4106 124.342 66.3594 124.557H64.8202C64.9034 124.237 64.9866 123.897 65.0762 123.558C65.3738 122.409 65.7162 121.19 66.0778 119.942C64.9557 119.41 63.8648 118.813 62.8106 118.157C61.4698 119.437 58.1482 120.845 57.7194 121.037C58.0938 122.141 58.4682 123.213 58.8362 124.217L58.9674 124.569H57.4282C57.057 123.485 56.6858 122.329 56.3146 121.136C55.8442 121.203 52.0138 121.744 50.273 121.241C48.6954 120.784 46.8106 119.76 46.1898 118.134C45.569 116.509 46.3274 114.672 48.0394 114.211C50.417 113.571 53.8154 116.429 55.0154 118.275C55.0858 118.384 55.7194 119.651 56.1066 120.457C55.9498 119.949 55.7866 119.456 55.6394 118.931C55.3194 117.894 55.0506 116.851 54.7466 115.731C54.6154 115.184 54.4874 114.63 54.3562 114.073C54.225 113.517 54.1354 112.925 54.0202 112.342C53.7834 110.992 53.6106 109.613 53.4634 108.221C52.5578 108.489 49.3034 109.401 47.681 109.181C46.0586 108.96 44.0362 108.243 43.1754 106.729C42.3146 105.216 42.785 103.286 44.4074 102.569C46.6474 101.574 50.4554 103.888 51.9178 105.533C52.0106 105.635 52.9258 106.931 53.4154 107.654C53.3354 106.816 53.2522 105.977 53.1978 105.126C53.041 102.672 52.961 100.179 52.8778 97.6926C52.8522 96.931 52.8138 96.1726 52.7818 95.4142C52.4618 95.5134 48.6218 96.6942 46.7978 96.4414C45.169 96.2302 43.153 95.5038 42.2922 93.9902C41.4314 92.4766 41.9018 90.547 43.5242 89.8302C45.7802 88.835 49.5722 91.1486 51.0346 92.7934C51.1466 92.9182 52.4618 94.7838 52.7754 95.2766C52.6986 93.603 52.609 91.939 52.4554 90.3006C52.2574 88.0874 51.9142 85.8896 51.4282 83.7214C51.281 83.7694 47.2906 85.0014 45.4122 84.7582C43.7834 84.5438 41.7674 83.8206 40.9098 82.307C40.0522 80.7934 40.5162 78.8638 42.1418 78.147C44.3818 77.1518 48.1866 79.4654 49.6522 81.1102C49.7642 81.2382 51.1818 83.2478 51.4122 83.6318C51.3834 83.507 51.3674 83.3726 51.3354 83.2478C50.7912 81.086 50.0544 78.9773 49.1338 76.947C48.641 75.8206 48.1066 74.7678 47.5626 73.747C46.8426 74.067 43.5402 75.4206 41.8282 75.3854C40.1834 75.3502 38.1002 74.851 37.0794 73.443C36.0586 72.035 36.3146 70.0638 37.8474 69.1742C39.9786 67.9358 44.0042 69.8142 45.6394 71.2926C45.7258 71.3726 46.5418 72.2878 47.1242 72.9598C46.8714 72.5086 46.6186 72.0382 46.369 71.6094C45.4346 70.0094 44.4778 68.579 43.6234 67.331C43.1306 66.6238 42.6634 65.9966 42.2314 65.411C41.3706 65.3438 37.8986 65.027 36.417 64.2238C34.9354 63.4206 33.3578 62.0318 33.0986 60.3134C32.8394 58.595 33.9626 56.9598 35.7354 56.8862Z" fill="#4B66E3"/>
<path d="M47.6778 73.3058C47.6394 73.3282 47.0666 70.3906 47.0378 70.2018C46.865 68.0066 47.825 63.6674 50.1034 62.733C51.745 62.0578 53.473 63.0914 53.9434 64.7234C54.4138 66.3554 53.5658 68.349 52.593 69.6706C51.473 71.2258 47.681 73.3026 47.6778 73.3058Z" fill="#4B66E3"/>
<path d="M46.3142 119.206C46.3142 119.206 36.6118 119.085 34.343 115.456H8.99902C8.99902 115.456 11.0598 119.174 14.2598 119.206H46.3142Z" fill="white" stroke="#263238" stroke-miterlimit="10"/>
<path d="M33.6072 116.653H12.9608C12.9608 116.653 13.3448 117.492 12.292 117.953C12.9557 118.566 13.7886 118.965 14.6824 119.098H40.9672C40.9672 119.098 37.62 118.778 35.8056 117.722C35.8056 117.722 33.7032 118.029 33.6072 116.653Z" fill="white" stroke="#263238" stroke-miterlimit="10"/>
<path d="M42.487 148.215H100.733V141.008H42.487V148.215Z" fill="#263238" stroke="#263238" stroke-miterlimit="10"/>
<path d="M10.4328 148.215H68.6792V141.008H10.4328V148.215Z" fill="white" stroke="#263238" stroke-miterlimit="10"/>
<path d="M68.2758 142.932H54.0518" stroke="#263238" stroke-miterlimit="10"/>
<path d="M65.4695 144.534H44.8359" stroke="#263238" stroke-miterlimit="10"/>
<path d="M57.2549 145.975H60.8613" stroke="#263238" stroke-miterlimit="10"/>
<path d="M62.2661 145.975H68.0741" stroke="#263238" stroke-miterlimit="10"/>
<path d="M10.7749 145.654H29.0053" stroke="#263238" stroke-miterlimit="10"/>
<path d="M12.3784 144.694H14.7816" stroke="#263238" stroke-miterlimit="10"/>
<path d="M26.0006 144.534H17.9878" stroke="#263238" stroke-miterlimit="10"/>
<path d="M10.7749 142.611H17.7861" stroke="#263238" stroke-miterlimit="10"/>
<path d="M99.9301 144.051H96.3237" stroke="#8A8A8A" stroke-miterlimit="10"/>
<path d="M100.733 145.654H89.5142" stroke="#8A8A8A" stroke-miterlimit="10"/>
<path d="M69.2773 146.614H74.6885" stroke="#8A8A8A" stroke-miterlimit="10"/>
<path d="M68.6758 144.051H83.303" stroke="#8A8A8A" stroke-miterlimit="10"/>
<path d="M95.924 141.972H87.5112" stroke="#8A8A8A" stroke-miterlimit="10"/>
<path d="M37.0183 148.055H43.8311V141.008H37.0183V148.055Z" fill="white" stroke="#263238" stroke-miterlimit="10"/>
<path d="M41.738 140.95H99.9844V133.744H41.738V140.95Z" fill="#263238" stroke="#263238" stroke-miterlimit="10"/>
<path d="M9.68378 140.95H67.9302V133.744H9.68378V140.95Z" fill="white" stroke="#263238" stroke-miterlimit="10"/>
<path d="M67.5272 135.664H53.3032" stroke="#263238" stroke-miterlimit="10"/>
<path d="M64.7237 137.264H44.0869" stroke="#263238" stroke-miterlimit="10"/>
<path d="M56.5093 138.707H60.1157" stroke="#263238" stroke-miterlimit="10"/>
<path d="M61.5176 138.707H67.3288" stroke="#263238" stroke-miterlimit="10"/>
<path d="M10.0264 138.388H28.26" stroke="#263238" stroke-miterlimit="10"/>
<path d="M11.6294 137.424H14.0326" stroke="#263238" stroke-miterlimit="10"/>
<path d="M25.2553 137.264H17.2393" stroke="#263238" stroke-miterlimit="10"/>
<path d="M10.0264 135.344H17.0408" stroke="#263238" stroke-miterlimit="10"/>
<path d="M99.1845 136.784H95.5781" stroke="#8A8A8A" stroke-miterlimit="10"/>
<path d="M99.9848 138.388H88.7656" stroke="#8A8A8A" stroke-miterlimit="10"/>
<path d="M68.5317 139.348H73.9397" stroke="#8A8A8A" stroke-miterlimit="10"/>
<path d="M67.9302 136.784H82.5542" stroke="#8A8A8A" stroke-miterlimit="10"/>
<path d="M95.1782 134.704H86.7622" stroke="#8A8A8A" stroke-miterlimit="10"/>
<path d="M36.2726 140.79H43.0854V133.744H36.2726V140.79Z" fill="white" stroke="#263238" stroke-miterlimit="10"/>
<path d="M44.1061 133.684H102.353V126.477H44.1061V133.684Z" fill="#263238" stroke="#263238" stroke-miterlimit="10"/>
<path d="M12.0519 133.684H70.2983V126.477H12.0519V133.684Z" fill="white" stroke="#263238" stroke-miterlimit="10"/>
<path d="M69.8949 128.396H55.6709" stroke="#263238" stroke-miterlimit="10"/>
<path d="M67.0887 129.997H46.4551" stroke="#263238" stroke-miterlimit="10"/>
<path d="M58.874 131.44H62.4804" stroke="#263238" stroke-miterlimit="10"/>
<path d="M63.8853 131.44H69.6933" stroke="#263238" stroke-miterlimit="10"/>
<path d="M12.394 131.12H30.6244" stroke="#263238" stroke-miterlimit="10"/>
<path d="M13.9976 130.157H16.4008" stroke="#263238" stroke-miterlimit="10"/>
<path d="M27.6197 129.997H19.6069" stroke="#263238" stroke-miterlimit="10"/>
<path d="M12.394 128.077H19.4052" stroke="#263238" stroke-miterlimit="10"/>
<path d="M101.549 129.517H97.9429" stroke="#8A8A8A" stroke-miterlimit="10"/>
<path d="M102.352 131.12H91.1333" stroke="#8A8A8A" stroke-miterlimit="10"/>
<path d="M70.8965 132.08H76.3077" stroke="#8A8A8A" stroke-miterlimit="10"/>
<path d="M70.2949 129.517H84.9221" stroke="#8A8A8A" stroke-miterlimit="10"/>
<path d="M97.5432 127.437H89.1304" stroke="#8A8A8A" stroke-miterlimit="10"/>
<path d="M38.6374 133.523H45.4502V126.477H38.6374V133.523Z" fill="white" stroke="#263238" stroke-miterlimit="10"/>
<path d="M42.298 126.413L100.544 126.413V119.207H42.298V126.413Z" fill="#263238" stroke="#263238" stroke-miterlimit="10"/>
<path d="M10.2438 126.413L68.4902 126.413V119.207H10.2438V126.413Z" fill="white" stroke="#263238" stroke-miterlimit="10"/>
<path d="M68.09 121.13H53.8628" stroke="#263238" stroke-miterlimit="10"/>
<path d="M65.2838 122.729H44.647" stroke="#263238" stroke-miterlimit="10"/>
<path d="M57.0693 124.17H60.6757" stroke="#263238" stroke-miterlimit="10"/>
<path d="M62.0776 124.17H67.8888" stroke="#263238" stroke-miterlimit="10"/>
<path d="M10.5864 123.85H28.82" stroke="#263238" stroke-miterlimit="10"/>
<path d="M12.1895 122.89H14.5959" stroke="#263238" stroke-miterlimit="10"/>
<path d="M25.8148 122.729H17.7988" stroke="#263238" stroke-miterlimit="10"/>
<path d="M10.5864 120.81H17.6008" stroke="#263238" stroke-miterlimit="10"/>
<path d="M99.7446 122.25H96.1382" stroke="#8A8A8A" stroke-miterlimit="10"/>
<path d="M100.544 123.85H89.3252" stroke="#8A8A8A" stroke-miterlimit="10"/>
<path d="M69.0918 124.812H74.4998" stroke="#8A8A8A" stroke-miterlimit="10"/>
<path d="M68.4902 122.25H83.1142" stroke="#8A8A8A" stroke-miterlimit="10"/>
<path d="M95.7383 120.166H87.3223" stroke="#8A8A8A" stroke-miterlimit="10"/>
<path d="M36.8327 126.253H43.6455V119.207H36.8327V126.253Z" fill="white" stroke="#263238" stroke-miterlimit="10"/>
<path d="M146.906 37.958H91.1494V148.217H146.906V37.958Z" fill="#263238" stroke="#263238" stroke-miterlimit="10"/>
<path d="M140.877 38.46V57.548" stroke="#8A8A8A" stroke-miterlimit="10"/>
<path d="M144.394 43.2314V51.2698" stroke="#8A8A8A" stroke-miterlimit="10"/>
<path d="M142.637 41.4746V70.105" stroke="#8A8A8A" stroke-miterlimit="10"/>
<path d="M145.652 37.958V75.382" stroke="#8A8A8A" stroke-miterlimit="10"/>
<path d="M141.38 147.964V128.374" stroke="#8A8A8A" stroke-miterlimit="10"/>
<path d="M143.389 148.217V143.945" stroke="#8A8A8A" stroke-miterlimit="10"/>
<path d="M143.892 142.438V125.11" stroke="#8A8A8A" stroke-miterlimit="10"/>
<path d="M141.632 125.862V97.4814" stroke="#8A8A8A" stroke-miterlimit="10"/>
<path d="M139.121 37.958H83.3638V148.217H139.121V37.958Z" fill="#4B66E3" stroke="#263238" stroke-miterlimit="10"/>
<path d="M134.349 45.7598C133.259 45.7573 132.212 45.3378 131.422 44.5875C130.632 43.8371 130.158 42.8128 130.1 41.7246H92.3908C92.3334 42.8144 91.8599 43.8406 91.068 44.5914C90.276 45.3423 89.2261 45.7605 88.1348 45.7598C87.8825 45.7592 87.6308 45.7356 87.3828 45.6894V138.24C87.6311 138.195 87.8826 138.172 88.1348 138.169C88.8721 138.169 89.5968 138.36 90.2383 138.724C90.8799 139.087 91.4164 139.61 91.7957 140.242C92.1749 140.874 92.384 141.594 92.4025 142.331C92.421 143.068 92.2483 143.797 91.9012 144.448H130.583C130.235 143.797 130.061 143.068 130.079 142.331C130.097 141.593 130.306 140.873 130.686 140.241C131.065 139.608 131.602 139.085 132.244 138.722C132.886 138.359 133.612 138.168 134.349 138.169C134.601 138.172 134.853 138.195 135.101 138.24V45.6734C134.854 45.725 134.602 45.7539 134.349 45.7598ZM110.112 109.789C101.303 109.789 94.1636 102.032 94.1636 92.4606C94.1636 82.8894 101.303 75.1294 110.112 75.1294C118.922 75.1294 126.061 82.8894 126.061 92.4606C126.061 102.032 118.919 109.789 110.112 109.789Z" fill="white" stroke="#263238" stroke-miterlimit="10"/>
<path d="M146.804 86.4316H83.6133V97.734H146.804V86.4316Z" fill="white" stroke="#263238" stroke-miterlimit="10"/>
<path d="M146.804 86.4316H139.242V97.734H146.804V86.4316Z" fill="#3D3D3D" stroke="#8A8A8A" stroke-miterlimit="10"/>
<path d="M22.4774 141.361L20.615 144.154L16.9766 147.034V148.221H29.4214L28.9958 144.061V142.199C28.9958 142.199 23.9174 140.004 22.4774 141.361Z" fill="#263238" stroke="#263238" stroke-miterlimit="10"/>
<path d="M29.3094 147.117H16.9766V148.218H29.4214L29.3094 147.117Z" fill="white" stroke="#263238" stroke-miterlimit="10"/>
<path d="M43.0278 141.361L45.0118 144.154L48.8934 147.034V148.221H35.6294L36.0806 144.061V142.199C36.0806 142.199 41.495 140.004 43.0278 141.361Z" fill="#263238" stroke="#263238" stroke-miterlimit="10"/>
<path d="M35.7478 147.117H48.8934V148.218H35.6294L35.7478 147.117Z" fill="white" stroke="#263238" stroke-miterlimit="10"/>
<path d="M16.9253 83.4177C16.9253 83.4177 19.8309 116.211 20.0389 122.438C20.2469 128.666 22.2181 137.072 22.2181 137.072L21.2997 138.525L22.2341 141.741C22.2341 141.741 24.4133 141.222 25.5557 141.638C26.6981 142.054 28.7557 142.573 28.7557 142.573C28.7557 142.573 29.7957 139.77 29.8981 138.525C30.0005 137.28 28.6597 134.269 28.6597 134.269L28.4517 96.8065H30.3205L35.0885 136.448L34.8805 138.835L35.8149 142.573C35.8149 142.573 41.3157 141.43 41.7285 141.325C42.0438 141.277 42.3661 141.314 42.6629 141.43C42.6629 141.43 43.3029 140.08 43.3029 139.664C43.3029 139.248 42.4709 136.864 42.4709 136.864L42.2629 118.288V83.1073L16.9413 82.5889L16.9253 83.4177Z" fill="#4B66E3" stroke="#263238" stroke-miterlimit="10"/>
<path d="M41.3701 97.9014L41.9365 110.308L39.5205 110.525V112.065L41.2773 112.173" stroke="#263238" stroke-linecap="round" stroke-linejoin="round"/>
<path d="M40.9478 88.6729L41.3158 96.6857" stroke="#263238" stroke-linecap="round" stroke-linejoin="round"/>
<path d="M39.8921 119.428C39.9721 121.645 40.1481 123.569 40.5097 123.703C41.3897 124.023 41.6073 124.362 41.6073 124.362" stroke="#263238" stroke-linecap="round" stroke-linejoin="round"/>
<path d="M39.8601 112.503C39.8601 112.503 39.8025 115.306 39.8601 118.109" stroke="#263238" stroke-linecap="round" stroke-linejoin="round"/>
<path d="M25.9048 95.6992L30.2952 96.0288" stroke="#263238" stroke-linecap="round" stroke-linejoin="round"/>
<path d="M27.332 85.1592L27.4408 91.3064L29.4184 92.7368" stroke="#263238" stroke-linecap="round" stroke-linejoin="round"/>
<path d="M29.4185 87.3545L29.7481 94.9321" stroke="#263238" stroke-linecap="round" stroke-linejoin="round"/>
<path d="M28.0615 122.5L28.2087 130.074" stroke="#263238" stroke-linecap="round" stroke-linejoin="round"/>
<path d="M27.5493 96.1377L28.0261 120.627" stroke="#263238" stroke-linecap="round" stroke-linejoin="round"/>
<path d="M36.4453 88.3428C36.4453 88.3428 37.9845 91.5268 40.8389 90.538" stroke="#263238" stroke-linecap="round" stroke-linejoin="round"/>
<path d="M21.0729 88.3428C21.0729 88.3428 19.9721 90.7588 18.2153 91.0884" stroke="#263238" stroke-linecap="round" stroke-linejoin="round"/>
<path d="M27.5943 46.8262L24.2951 47.8246L21.5303 83.2806L36.1127 83.5142L36.8807 47.0566L27.5943 46.8262Z" fill="white" stroke="#263238" stroke-miterlimit="10"/>
<path d="M26.4197 45.4402H25.6453L25.2549 46.4514L25.4117 55.0114L30.2373 51.901L34.9829 56.413L35.6069 46.2178C35.6069 46.2178 35.8405 45.7506 35.1397 45.4402C34.4389 45.1298 34.2053 45.0498 34.2053 45.0498L26.4197 45.4402Z" fill="white" stroke="#263238" stroke-miterlimit="10"/>
<path d="M25.956 42.9446L26.1896 46.4646C26.1896 46.4646 28.4296 51.367 29.924 52.0678C31.4184 52.7686 34.8296 46.231 34.8296 46.231L34.596 42.3398H25.876L25.956 42.9446Z" fill="white" stroke="#263238" stroke-miterlimit="10"/>
<path d="M25.9561 42.9441C25.9561 42.9441 28.7561 49.0241 30.3913 49.2513C32.0265 49.4785 34.6729 43.6449 34.6729 43.1009C34.6729 42.5569 25.9561 42.9441 25.9561 42.9441Z" fill="#263238" stroke="#263238" stroke-miterlimit="10"/>
<path d="M24.4775 37.7346C24.4775 37.7346 23.1271 36.6274 22.9415 38.1634C22.7559 39.6994 24.7239 41.1138 24.7239 41.1138L24.4775 37.7346Z" fill="white" stroke="#263238" stroke-miterlimit="10"/>
<path d="M35.4536 37.7346C35.4536 37.7346 36.8072 36.6274 36.9928 38.1634C37.1784 39.6994 35.2104 41.1138 35.2104 41.1138L35.4536 37.7346Z" fill="white" stroke="#263238" stroke-miterlimit="10"/>
<path d="M24.231 37.9173C24.231 37.9173 24.9702 42.2213 25.5846 43.0181C26.199 43.8149 28.103 46.5829 29.8854 47.0757C31.6678 47.5685 34.4358 44.1253 34.9862 42.9573C35.5366 41.7893 35.7254 36.6277 35.7254 36.6277L35.6646 33.8629C35.6646 33.8629 35.479 31.8341 34.679 30.7269C33.879 29.6197 30.439 28.8837 28.167 29.7605C25.895 30.6373 23.9878 34.5989 23.9878 35.3989C23.9878 36.1989 24.231 37.9173 24.231 37.9173Z" fill="white" stroke="#263238" stroke-miterlimit="10"/>
<path d="M28.2885 33.1236C28.2885 33.1236 26.3685 35.338 25.5237 35.7668C25.1398 35.9437 24.7697 36.1491 24.4165 36.3812L24.5381 38.9636L23.5557 35.4436C23.5557 35.4436 22.3269 31.7092 22.5797 30.0516C22.8325 28.394 28.4165 26.794 30.3845 26.1796C32.3525 25.5652 33.0885 26.794 34.3781 27.7796C35.6677 28.7652 37.0213 29.5012 36.8389 31.162C36.68 32.3172 36.3912 33.4508 35.9781 34.5412C35.9781 34.5412 35.6581 39.1492 35.6581 39.3412C35.6581 39.5332 35.1045 34.794 35.1045 34.794C34.7906 34.7115 34.5075 34.5397 34.2894 34.2994C34.0713 34.0591 33.9276 33.7607 33.8757 33.4404C33.7123 32.6296 33.6054 31.8084 33.5557 30.9828C33.5557 30.9828 32.7557 32.6436 31.9557 33.4404C31.1557 34.2372 29.1909 34.9764 28.8837 34.9156C28.5765 34.8548 29.2037 33.3796 29.2037 33.3796L28.0965 34.426L28.2885 33.1236Z" fill="#263238" stroke="#263238" stroke-miterlimit="10"/>
<path d="M28.7817 41.7286C29.0861 41.9994 29.4405 42.2081 29.8249 42.343C30.3177 42.4646 31.1785 41.7286 31.4249 41.543" stroke="#263238" stroke-miterlimit="10"/>
<path d="M28.5957 43.4502C28.5957 43.4502 30.0101 44.5542 31.9141 43.2646L28.5957 43.4502Z" fill="white"/>
<path d="M28.5957 43.4502C28.5957 43.4502 30.0101 44.5542 31.9141 43.2646" stroke="#263238" stroke-miterlimit="10"/>
<path d="M27.6422 39.5145C27.8631 39.5145 28.0422 39.2122 28.0422 38.8393C28.0422 38.4664 27.8631 38.1641 27.6422 38.1641C27.4213 38.1641 27.2422 38.4664 27.2422 38.8393C27.2422 39.2122 27.4213 39.5145 27.6422 39.5145Z" fill="#263238"/>
<path d="M32.3141 39.5145C32.535 39.5145 32.7141 39.2122 32.7141 38.8393C32.7141 38.4664 32.535 38.1641 32.3141 38.1641C32.0931 38.1641 31.9141 38.4664 31.9141 38.8393C31.9141 39.2122 32.0931 39.5145 32.3141 39.5145Z" fill="#263238"/>
<path d="M31.3608 36.6881C31.757 36.4805 32.209 36.4043 32.6513 36.4705C33.0936 36.5366 33.5035 36.7417 33.8216 37.0561" stroke="#263238" stroke-miterlimit="10"/>
<path d="M28.103 36.6278C27.7899 36.4424 27.4217 36.3728 27.0625 36.4313C26.7034 36.4898 26.3762 36.6726 26.1382 36.9478" stroke="#263238" stroke-miterlimit="10"/>
<path d="M32.4678 40.0064L33.8214 39.6992" stroke="#263238" stroke-miterlimit="10"/>
<path d="M26.2598 39.6387L27.367 40.0067" stroke="#263238" stroke-miterlimit="10"/>
<path d="M25.3321 54.4008L24.6313 88.0008L16.6313 87.6136L16.1481 86.6888C16.1481 86.6888 15.0601 86.6888 14.9033 85.8312C14.7465 84.9736 15.9913 66.1416 15.9913 66.1416L9.14014 65.5176L13.7321 56.5576C13.7321 56.5576 15.1337 50.3304 15.4441 49.8632C15.7545 49.396 25.4857 46.0488 25.4857 46.0488L25.3321 54.4008Z" fill="#263238" stroke="#263238" stroke-miterlimit="10"/>
<path d="M35.2967 45.8496L34.1543 88.0896L44.4263 87.984L44.8423 86.4288L45.8791 85.7024V82.3808C45.8791 80.72 43.9079 68.6816 43.9079 68.6816C43.9079 68.6816 49.0983 67.9552 49.2007 66.9184C49.3031 65.8816 47.0215 50.2112 45.7767 49.0688C44.5319 47.9264 35.2967 45.8496 35.2967 45.8496Z" fill="#263238" stroke="#263238" stroke-miterlimit="10"/>
<path d="M37.8726 69.9362L39.239 73.8722C39.239 73.8722 40.0294 71.9714 39.911 70.7746C39.7926 69.5778 39.7894 69.2162 39.431 69.1554C39.0726 69.0946 37.9398 68.8578 37.8726 69.9362Z" fill="white" stroke="#263238" stroke-miterlimit="10"/>
<path d="M24.2183 59.7093L28.5927 68.4005L33.2071 66.1221L29.3127 56.9541L24.2183 59.7093Z" fill="#4B66E3" stroke="#263238" stroke-miterlimit="10"/>
<path d="M31.8055 65.7728C31.7531 65.6344 31.7573 65.4809 31.8172 65.3456C31.8771 65.2102 31.9878 65.1039 32.1255 65.0496C32.151 65.0465 32.1768 65.0465 32.2023 65.0496L29.3223 58.3008C29.2961 58.3638 29.256 58.4202 29.205 58.4656C29.154 58.511 29.0935 58.5444 29.0279 58.5632C28.9295 58.5861 28.8264 58.5788 28.7323 58.5423C28.6381 58.5057 28.5571 58.4416 28.4999 58.3584L25.4599 59.9936C25.4991 60.0524 25.5283 60.1173 25.5463 60.1856C25.5887 60.308 25.5897 60.4411 25.5493 60.5642C25.5088 60.6873 25.4291 60.7938 25.3223 60.8672L28.3591 66.88C28.4133 66.8197 28.4831 66.7755 28.5607 66.752C28.6895 66.7275 28.8228 66.7499 28.9366 66.815C29.0504 66.8801 29.1373 66.9837 29.1815 67.1072L31.8151 65.808L31.8055 65.7728ZM29.2071 64.2176C28.6471 64.3744 28.0423 63.9616 27.8535 63.2928C27.6647 62.624 27.9623 61.952 28.5191 61.7952C29.0759 61.6384 29.6839 62.0512 29.8727 62.72C30.0615 63.3888 29.7639 64.0576 29.2071 64.2176Z" fill="white" stroke="#263238" stroke-miterlimit="10"/>
<path d="M26.0903 58.6402L28.4263 68.0834L33.4311 66.8866L31.6679 57.085L26.0903 58.6402Z" fill="#4B66E3" stroke="#263238" stroke-miterlimit="10"/>
<path d="M32.1416 66.2408C32.1307 66.1675 32.1344 66.0927 32.1525 66.0208C32.1706 65.9489 32.2027 65.8813 32.247 65.8218C32.2913 65.7623 32.3469 65.7122 32.4107 65.6743C32.4744 65.6364 32.545 65.6114 32.6184 65.6008C32.6439 65.5978 32.6697 65.5978 32.6952 65.6008L31.4152 58.3848C31.3751 58.4402 31.3234 58.486 31.2637 58.5192C31.204 58.5524 31.1377 58.572 31.0696 58.5768C30.9678 58.5762 30.8686 58.5455 30.7843 58.4885C30.7 58.4316 30.6345 58.351 30.596 58.2568L27.2488 59.2008C27.2752 59.2672 27.2903 59.3375 27.2936 59.4088C27.3075 59.5378 27.2788 59.6677 27.2117 59.7787C27.1446 59.8897 27.043 59.9756 26.9224 60.0232L28.5384 66.5608C28.6043 66.5147 28.682 66.4881 28.7624 66.484C28.8931 66.4871 29.0183 66.5374 29.1148 66.6256C29.2113 66.7139 29.2725 66.8341 29.2872 66.964L32.1448 66.2824L32.1416 66.2408ZM29.94 64.1416C29.3608 64.1736 28.8616 63.636 28.8264 62.9416C28.7912 62.2472 29.2296 61.6616 29.8088 61.6296C30.388 61.5976 30.884 62.1384 30.9224 62.8328C30.9608 63.5272 30.532 64.1128 29.94 64.1416Z" fill="white" stroke="#263238" stroke-miterlimit="10"/>
<path d="M28.8584 57.9111L28.3208 67.6231L33.4568 67.9495L34.6472 58.0583L28.8584 57.9111Z" fill="#4B66E3" stroke="#263238" stroke-miterlimit="10"/>
<path d="M32.4134 66.9477C32.4371 66.8012 32.5175 66.6699 32.6374 66.5825C32.7572 66.495 32.9067 66.4583 33.0534 66.4804C33.0802 66.4867 33.106 66.4964 33.1302 66.5092L34.007 59.226C33.9529 59.268 33.8899 59.2973 33.8229 59.3117C33.7559 59.3261 33.6865 59.3253 33.6198 59.3092C33.5227 59.2801 33.4366 59.2224 33.3727 59.1436C33.3087 59.0649 33.27 58.9687 33.2614 58.8677L29.8022 58.7812C29.8084 58.8512 29.8019 58.9216 29.783 58.9892C29.7589 59.1168 29.6935 59.2328 29.597 59.3196C29.5004 59.4063 29.378 59.4589 29.2486 59.4692L28.8774 66.1892C28.9559 66.1668 29.039 66.1668 29.1174 66.1892C29.2416 66.2317 29.3463 66.3175 29.4122 66.431C29.478 66.5445 29.5006 66.678 29.4758 66.8069L32.4102 66.9925C32.4075 66.9775 32.4086 66.9621 32.4134 66.9477ZM30.935 64.3012C30.375 64.1604 30.055 63.5012 30.2246 62.826C30.3942 62.1508 30.9862 61.7188 31.5494 61.866C32.1126 62.0132 32.4262 62.6692 32.2598 63.3444C32.0934 64.0196 31.4982 64.442 30.935 64.3012Z" fill="white" stroke="#263238" stroke-miterlimit="10"/>
<path d="M39.4309 67.4183C38.8652 67.3333 38.3052 67.2136 37.7541 67.0599C37.5141 66.9415 35.7765 66.3399 34.3973 65.6231C33.0181 64.9063 31.8821 65.6231 29.9173 65.9815C27.9525 66.3399 27.3989 66.4615 27.3989 66.9415C27.3989 67.4215 28.4197 67.5399 28.4197 67.5399C28.4197 67.5399 27.4597 67.6583 27.9397 68.3175C28.2225 68.7092 28.6209 69.0024 29.0789 69.1559C29.3443 69.5956 29.6894 69.982 30.0965 70.2951C30.6949 70.7143 31.1141 71.0759 31.1141 71.0759C31.4894 71.5433 31.9883 71.8959 32.5541 72.0935C33.3925 72.3335 38.1253 70.8935 38.1253 70.8935C38.1253 70.8935 39.5621 71.3127 39.9237 70.5351C40.2853 69.7575 39.4309 67.4183 39.4309 67.4183Z" fill="white" stroke="#263238" stroke-linecap="round" stroke-linejoin="round"/>
<path d="M28.4072 67.5396C28.4072 67.5396 32.0008 67.418 33.14 67.0596" stroke="#263238" stroke-linecap="round" stroke-linejoin="round"/>
<path d="M29.0664 69.1557C30.0569 69.3144 31.0584 69.3946 32.0616 69.3957C32.6523 69.384 33.2299 69.2198 33.7384 68.9189" stroke="#263238" stroke-linecap="round" stroke-linejoin="round"/>
<path d="M30.5801 70.6562C30.5801 70.6562 32.6761 71.2962 34.1001 70.8354" stroke="#263238" stroke-linecap="round" stroke-linejoin="round"/>
<path d="M41.2101 57.1621L42.3525 66.0869L39.1333 67.0213C39.1333 67.0213 39.6549 69.7189 39.4533 70.9669C39.318 71.9296 39.2485 72.9004 39.2453 73.8725C39.2453 73.8725 42.7653 72.7301 45.0565 72.5221C47.3477 72.3141 49.3125 71.2773 49.9333 69.6165C50.5541 67.9557 48.5861 62.2565 48.5861 62.2565" fill="#263238"/>
<path d="M41.2101 57.1621L42.3525 66.0869L39.1333 67.0213C39.1333 67.0213 39.6549 69.7189 39.4533 70.9669C39.318 71.9296 39.2485 72.9004 39.2453 73.8725C39.2453 73.8725 42.7653 72.7301 45.0565 72.5221C47.3477 72.3141 49.3125 71.2773 49.9333 69.6165C50.5541 67.9557 48.5861 62.2565 48.5861 62.2565" stroke="#263238" stroke-miterlimit="10"/>
<path d="M40.7847 66.7591L42.3527 66.0871L46.3207 65.0215" stroke="#6B6B6B" stroke-miterlimit="10"/>
<path d="M42.3526 66.0867L41.1206 55.5459" stroke="#6B6B6B" stroke-miterlimit="10"/>
<path d="M22.0617 65.8816C22.0617 65.8816 21.3449 62.7072 21.0441 62.1056C20.7433 61.504 19.1241 63.1872 19.0057 63.7248C18.8873 64.2624 21.5817 65.9424 22.0617 65.8816Z" fill="white" stroke="#263238" stroke-miterlimit="10"/>
<path d="M20.4966 59.2002L18.9478 61.0178C18.9478 61.0178 19.3798 63.6802 19.7254 63.7858C20.071 63.8914 22.5414 61.9874 22.5414 61.9874L20.4966 59.2002Z" fill="white" stroke="#263238" stroke-miterlimit="10"/>
<path d="M23.3736 55.5554C23.3736 55.5554 20.676 58.1922 20.4936 59.2098C20.3112 60.2274 22.2312 62.1474 22.4712 62.3266C22.7112 62.5058 24.4488 61.1266 24.5064 60.8866C24.564 60.6466 23.3704 58.7906 23.3704 58.7906C23.9203 59.06 24.4545 59.3602 24.9704 59.6898C25.1496 59.869 26.2888 61.4882 26.708 61.3666C27.1272 61.245 26.948 60.4674 26.708 59.7506C26.468 59.0338 23.892 56.6338 23.892 56.6338L25.6296 57.053C25.6296 57.053 27.668 59.0306 28.148 59.0306C28.628 59.0306 28.388 58.5506 28.0872 58.1314C27.7864 57.7122 26.3496 56.0354 25.9912 55.6162C25.6328 55.197 24.2536 54.957 24.0712 54.957C23.8888 54.957 23.3736 55.5554 23.3736 55.5554Z" fill="white" stroke="#263238" stroke-linecap="round" stroke-linejoin="round"/>
<path d="M23.3736 58.7905L22.5352 57.9521" stroke="#263238" stroke-linecap="round" stroke-linejoin="round"/>
<path d="M21.4565 58.9697L23.6133 61.6065" stroke="#263238" stroke-linecap="round" stroke-linejoin="round"/>
<path d="M18.8871 60.7305C18.8871 60.7305 19.3063 62.1673 19.5463 63.0665C19.7863 63.9657 22.0615 65.8825 22.0615 65.8825C22.0615 65.8825 18.8263 69.2969 15.9495 70.7945C13.0727 72.2921 9.6935 71.5401 8.6759 70.3433C7.6583 69.1465 8.0775 65.6713 8.9159 64.9513C9.7543 64.2313 14.6311 63.3065 15.8311 62.6473C17.0311 61.9881 18.8871 60.7305 18.8871 60.7305Z" fill="#263238" stroke="#263238" stroke-miterlimit="10"/>
<path d="M18.8872 60.7305L11.0024 64.5833" stroke="#6B6B6B" stroke-miterlimit="10"/>
<path d="M17.8633 61.2357V57.5557" stroke="#6B6B6B" stroke-miterlimit="10"/>
<path d="M70.3369 142.176C70.3369 142.176 69.3769 142.448 66.8169 140.551C64.2569 138.653 61.2617 135.943 61.2617 135.943C61.2617 135.943 64.2185 135.546 65.5849 134.826C67.0889 134.029 68.8489 132.147 68.8489 132.147C68.8489 132.147 74.8105 140.279 82.2665 139.738C82.1372 140.431 81.8346 141.08 81.3871 141.625C80.9395 142.17 80.3614 142.593 79.7065 142.855C77.3833 143.802 70.3369 142.176 70.3369 142.176Z" fill="#4B66E3" stroke="#263238" stroke-linejoin="round"/>
<path d="M80.0101 140.669C80.0101 140.669 73.6805 139.009 70.2597 135.377C70.0949 135.422 69.9221 135.429 69.7539 135.399C69.5858 135.369 69.4264 135.302 69.2873 135.203C69.1482 135.104 69.033 134.975 68.9499 134.826C68.8668 134.676 68.818 134.51 68.8069 134.34C67.611 135.463 66.0777 136.159 64.4453 136.321C64.4453 136.321 64.5477 137.047 64.2373 137.255C64.2373 137.255 69.1141 141.511 71.9173 142.029C73.863 142.419 75.8546 142.526 77.8309 142.349C78.6844 142.259 79.4859 141.896 80.1157 141.313C80.1157 141.313 79.0757 141.085 80.0101 140.669ZM74.0325 140.436C73.8053 140.996 72.6757 141.076 71.5077 140.589C70.3397 140.103 69.5877 139.281 69.7989 138.724C70.0101 138.167 71.1557 138.084 72.3237 138.57C73.4917 139.057 74.2565 139.879 74.0325 140.436Z" fill="white" stroke="#263238" stroke-miterlimit="10"/>
<path d="M69.377 142.007C69.377 142.007 72.641 143.351 75.217 143.351C76.7244 143.359 78.2278 143.193 79.697 142.855C79.697 142.855 78.817 143.335 77.3866 142.416C76.5706 141.892 76.0458 140.724 76.0458 140.724C73.893 141.458 71.6486 141.89 69.377 142.007Z" fill="#4B66E3" stroke="#263238" stroke-linejoin="round"/>
<path d="M106.042 128.34C106.042 128.34 111.985 126.384 115.46 124.064L119.156 130.144C119.156 130.144 110.318 137.028 107.998 135.216L106.042 128.34Z" fill="#4B66E3" stroke="#263238" stroke-linejoin="round"/>
<path d="M116.622 129.789C116.629 129.614 116.693 129.446 116.805 129.31C116.916 129.174 117.069 129.079 117.239 129.037L115.598 126.314C115.46 126.361 115.317 126.384 115.172 126.384C114.996 126.394 114.821 126.36 114.661 126.287C114.501 126.213 114.361 126.102 114.254 125.962C111.185 128.109 106.478 129.21 106.478 129.21L107.418 132.906C107.418 132.906 107.274 134.935 109.809 134.426C111.774 134.032 115.47 131.546 117.041 130.461C116.917 130.397 116.813 130.3 116.74 130.182C116.666 130.064 116.625 129.928 116.622 129.789ZM110.289 132.509C109.178 132.762 108.145 132.384 107.978 131.664C107.812 130.944 108.58 130.151 109.69 129.895C110.801 129.639 111.838 130.02 112.004 130.74C112.17 131.46 111.402 132.253 110.289 132.509Z" fill="white" stroke="#263238" stroke-miterlimit="10"/>
<path d="M105.172 125.588L109.229 133.629C109.229 133.629 107.853 134.353 107.997 135.229L104.087 127.549C104.087 127.549 103.578 126.311 105.172 125.588Z" fill="#4B66E3" stroke="#263238" stroke-linejoin="round"/>
<path d="M104.433 128.224L107.447 134.138C107.575 133.854 107.803 133.626 108.087 133.498L104.737 127.616L104.433 128.224Z" fill="white" stroke="#263238" stroke-miterlimit="10"/>
<path d="M61.1367 83.4533L61.2007 98.8677L69.2455 98.8325L69.2711 83.1045L61.1367 83.4533Z" fill="#4B66E3" stroke="#263238" stroke-miterlimit="10"/>
<path d="M67.4825 97.354C67.4894 97.2389 67.5191 97.1263 67.57 97.0228C67.6209 96.9193 67.692 96.8271 67.779 96.7514C67.866 96.6757 67.9672 96.6181 68.0768 96.582C68.1863 96.5459 68.3019 96.5321 68.4169 96.5412C68.4573 96.5495 68.4969 96.5613 68.5353 96.5764L68.5193 84.842C68.4481 84.9062 68.3635 84.9537 68.2715 84.9808C68.1796 85.008 68.0827 85.0141 67.9881 84.9988C67.8471 84.9641 67.7193 84.889 67.6204 84.7827C67.5215 84.6764 67.4557 84.5435 67.4313 84.4004L62.5801 84.6084C62.5959 84.708 62.5959 84.8095 62.5801 84.9092C62.5639 85.0914 62.4875 85.263 62.3629 85.3968C62.2383 85.5307 62.0726 85.6192 61.8921 85.6484V96.5284C62.0097 96.481 62.1381 96.4667 62.2633 96.4868C62.4627 96.5447 62.6358 96.6703 62.7526 96.842C62.8694 97.0137 62.9227 97.2208 62.9033 97.4276L67.4985 97.4084C67.4825 97.3828 67.4793 97.3668 67.4825 97.354ZM64.8201 93.3028C63.9273 93.1396 63.3385 92.1252 63.5049 91.034C63.6713 89.9428 64.5385 89.1908 65.4249 89.3572C66.3113 89.5236 66.9097 90.5348 66.7401 91.626C66.5705 92.7172 65.7033 93.4692 64.8201 93.3028Z" fill="white" stroke="#263238" stroke-miterlimit="10"/>
<path d="M136.359 18.2305L125.14 29.4497L130.996 35.3057L142.51 23.9265L136.359 18.2305Z" fill="#4B66E3" stroke="#263238" stroke-miterlimit="10"/>
<path d="M130.798 32.96C130.887 32.8802 130.991 32.8192 131.105 32.7805C131.218 32.7419 131.338 32.7264 131.457 32.7351C131.577 32.7438 131.693 32.7764 131.8 32.8309C131.906 32.8855 132.001 32.961 132.078 33.0528C132.102 33.0891 132.122 33.1277 132.138 33.168L140.698 24.64C140.599 24.6349 140.503 24.6075 140.416 24.5599C140.329 24.5122 140.254 24.4455 140.196 24.3648C140.119 24.2364 140.082 24.0883 140.088 23.9388C140.094 23.7893 140.144 23.6448 140.231 23.5232L136.558 20.1152C136.495 20.1989 136.42 20.2732 136.337 20.336C136.192 20.4567 136.01 20.5252 135.822 20.5304C135.633 20.5356 135.448 20.4773 135.297 20.3648L127.338 28.2368C127.458 28.2864 127.561 28.3684 127.636 28.4736C127.741 28.6611 127.777 28.8796 127.737 29.0908C127.697 29.302 127.585 29.4925 127.418 29.6288L130.762 32.976L130.798 32.96ZM131.822 28.0704C131.29 27.2992 131.607 26.1312 132.526 25.4624C133.444 24.7936 134.622 24.8832 135.15 25.6544C135.678 26.4256 135.361 27.5968 134.442 28.2624C133.524 28.928 132.34 28.8288 131.822 28.0544V28.0704Z" fill="white" stroke="#263238" stroke-miterlimit="10"/>
<path d="M59.06 65.2614L74.6696 59.0886L71.4472 50.9414L55.4824 57.1462L59.06 65.2614Z" fill="#4B66E3" stroke="#263238" stroke-miterlimit="10"/>
<path d="M70.6441 53.3157C70.0777 53.4405 69.5433 53.1621 69.4505 52.6757C69.4472 52.6299 69.4472 52.5839 69.4505 52.5381L57.5497 57.2037C57.6437 57.2506 57.7259 57.3181 57.7902 57.4012C57.8545 57.4843 57.8992 57.5809 57.9209 57.6837C57.941 57.8402 57.9151 57.9992 57.8463 58.1413C57.7776 58.2834 57.6689 58.4023 57.5337 58.4837L59.6617 63.3605C59.762 63.3057 59.8698 63.2658 59.9817 63.2421C60.1728 63.1857 60.3772 63.1952 60.5623 63.2689C60.7474 63.3425 60.9024 63.4762 61.0025 63.6485L72.0393 59.3541C71.9435 59.2563 71.8779 59.133 71.8505 58.9989C71.8255 58.7723 71.8819 58.5442 72.0097 58.3554C72.1376 58.1666 72.3284 58.0294 72.5481 57.9685L70.7049 53.3125L70.6441 53.3157ZM67.5977 57.6325C67.7865 58.5925 66.9897 59.6069 65.8153 59.8725C64.6409 60.1381 63.5401 59.5525 63.3513 58.5925C63.1625 57.6325 63.9593 56.6213 65.1337 56.3525C66.3081 56.0837 67.4089 56.6597 67.5977 57.6325Z" fill="white" stroke="#263238" stroke-miterlimit="10"/>
<path d="M114.155 18.1797C114.155 18.1797 115.115 18.4325 116.35 21.3797C117.585 24.3269 118.769 28.1797 118.769 28.1797C118.769 28.1797 116.023 27.0085 114.481 26.9285C112.779 26.8421 110.305 27.5685 110.305 27.5685C110.305 27.5685 109.345 17.5301 102.66 14.1861C103.125 13.6512 103.719 13.2433 104.385 13.0009C105.051 12.7585 105.768 12.6896 106.468 12.8005C108.932 13.1781 114.155 18.1797 114.155 18.1797Z" fill="#4B66E3" stroke="#263238" stroke-linejoin="round"/>
<path d="M105.073 14.5248C105.073 14.5248 109.662 19.2 110.746 24.0608C110.911 24.1071 111.063 24.1893 111.192 24.3013C111.32 24.4134 111.423 24.5526 111.491 24.709C111.56 24.8654 111.593 25.035 111.588 25.2057C111.583 25.3764 111.54 25.5438 111.463 25.696C113.065 25.3484 114.737 25.5397 116.218 26.24C116.218 26.24 116.5 25.5616 116.874 25.5424C116.874 25.5424 114.858 19.392 112.714 17.5136C111.238 16.1856 109.58 15.0756 107.79 14.2176C107.01 13.8611 106.136 13.7646 105.297 13.9424C105.297 13.9424 106.1 14.6464 105.073 14.5248ZM110.09 17.7824C110.567 17.4208 111.575 17.9392 112.33 18.944C113.086 19.9488 113.322 21.056 112.842 21.4208C112.362 21.7856 111.358 21.264 110.602 20.2592C109.847 19.2544 109.62 18.1472 110.09 17.7824Z" fill="white" stroke="#263238" stroke-miterlimit="10"/>
<path d="M114.893 18.8168C114.893 18.8168 112.775 16.0008 110.561 14.6728C109.273 13.8933 107.9 13.2652 106.468 12.8008C106.468 12.8008 107.469 12.8392 108.228 14.3592C108.66 15.2296 108.516 16.5 108.516 16.5C110.738 16.9738 112.885 17.7535 114.893 18.8168Z" fill="#4B66E3" stroke="#263238" stroke-linejoin="round"/>
<path d="M31.3447 10.1123L32.8903 15.7763C32.8903 15.7763 25.1655 21.4979 13.4951 19.8947L14.1351 13.7731C14.1351 13.7731 18.7111 14.6883 22.8871 13.8307C27.0631 12.9731 31.3447 10.1123 31.3447 10.1123Z" fill="#4B66E3" stroke="#263238" stroke-miterlimit="10"/>
<path d="M30.4616 15.5263C30.4777 15.387 30.536 15.256 30.6287 15.1508C30.7213 15.0456 30.8439 14.9712 30.98 14.9375L30.068 12.4191C29.935 12.4637 29.7955 12.4864 29.6552 12.4863C29.4138 12.4903 29.1774 12.4175 28.98 12.2783C27.7 12.9503 25.2968 14.1215 22.9 14.6175C20.7168 15.0093 18.4902 15.0997 16.2824 14.8863C16.1969 14.9779 16.0917 15.0489 15.9747 15.0938C15.8577 15.1387 15.7321 15.1564 15.6072 15.1455L15.3032 18.5759C15.38 18.5759 15.46 18.5759 15.54 18.5759C16.18 18.5759 16.6824 18.7679 16.6824 19.0047C16.6784 19.0427 16.6657 19.0793 16.6451 19.1115C16.6246 19.1437 16.5968 19.1707 16.564 19.1903C23.9784 19.4719 29.1688 16.9087 30.7432 16.0127C30.6597 15.9613 30.5902 15.89 30.541 15.8051C30.4919 15.7202 30.4646 15.6244 30.4616 15.5263ZM23.124 17.3151C21.9912 17.5423 20.9992 17.3503 20.9064 16.8863C20.8136 16.4223 21.6552 15.8655 22.788 15.6383C23.9208 15.4111 24.9128 15.6031 25.0056 16.0671C25.0984 16.5311 24.2568 17.0879 23.124 17.3151Z" fill="white" stroke="#263238" stroke-miterlimit="10"/>
<path d="M135.566 136.247L137.108 141.911C137.108 141.911 129.386 147.633 117.713 146.029L118.353 139.908C118.353 139.908 122.929 140.823 127.108 139.965C131.287 139.108 135.566 136.247 135.566 136.247Z" fill="#4B66E3" stroke="#263238" stroke-miterlimit="10"/>
<path d="M134.679 141.665C134.695 141.525 134.753 141.393 134.845 141.287C134.938 141.181 135.061 141.107 135.198 141.073L134.286 138.561C134.152 138.603 134.013 138.624 133.873 138.625C133.627 138.631 133.385 138.56 133.182 138.42C131.93 139.089 129.514 140.26 127.121 140.756C124.938 141.148 122.711 141.238 120.503 141.025C120.418 141.116 120.313 141.187 120.196 141.232C120.079 141.277 119.953 141.295 119.828 141.284L119.54 144.714C119.617 144.714 119.697 144.714 119.78 144.714C120.42 144.714 120.919 144.903 120.919 145.14C120.915 145.178 120.902 145.214 120.882 145.247C120.861 145.279 120.834 145.306 120.801 145.326C128.215 145.61 133.406 143.047 134.983 142.148C134.896 142.1 134.822 142.03 134.769 141.945C134.716 141.861 134.685 141.764 134.679 141.665ZM127.342 143.45C126.209 143.678 125.217 143.486 125.124 143.025C125.031 142.564 125.873 142.001 127.006 141.774C128.138 141.546 129.13 141.742 129.223 142.202C129.316 142.663 128.474 143.226 127.342 143.45Z" fill="white" stroke="#263238" stroke-miterlimit="10"/>
<path d="M54.6567 17.3318C54.6567 17.3318 60.5959 15.3766 64.0743 13.0566L67.7703 19.1366C67.7703 19.1366 58.9319 26.0262 56.6119 24.215L54.6567 17.3318Z" fill="#4B66E3" stroke="#263238" stroke-linejoin="round"/>
<path d="M65.2326 18.7813C65.2408 18.6057 65.3058 18.4375 65.4177 18.3019C65.5296 18.1663 65.6825 18.0706 65.8534 18.0293L64.2086 15.3061C64.0727 15.3531 63.93 15.3769 63.7862 15.3765C63.6103 15.3859 63.4348 15.3524 63.2748 15.2788C63.1148 15.2052 62.9751 15.0938 62.8678 14.9541C59.799 17.1013 55.0918 18.2021 55.0918 18.2021L56.0326 21.8981C56.0326 21.8981 55.8886 23.9269 58.423 23.4181C60.3846 23.0245 64.0806 20.5381 65.655 19.4533C65.5309 19.3893 65.4263 19.2932 65.352 19.175C65.2777 19.0568 65.2365 18.9208 65.2326 18.7813ZM58.903 21.5013C57.7926 21.7541 56.7558 21.3765 56.5926 20.6565C56.4294 19.9365 57.1942 19.1429 58.3046 18.8869C59.415 18.6309 60.4518 19.0117 60.6182 19.7349C60.7846 20.4581 60.0198 21.2453 58.903 21.5013Z" fill="white" stroke="#263238" stroke-miterlimit="10"/>
<path d="M53.7863 14.5791L57.8439 22.6207C57.8439 22.6207 56.4679 23.3439 56.6119 24.2207L52.6983 16.5407C52.6983 16.5407 52.1927 15.3023 53.7863 14.5791Z" fill="#4B66E3" stroke="#263238" stroke-linejoin="round"/>
<path d="M53.0469 17.2164L56.0581 23.13C56.1863 22.8458 56.4139 22.6183 56.6981 22.49L53.3509 16.6084L53.0469 17.2164Z" fill="white" stroke="#263238" stroke-miterlimit="10"/>
<path d="M104.343 52.999L93.124 64.2182L98.98 70.071L110.497 58.6918L104.343 52.999Z" fill="#4B66E3" stroke="#263238" stroke-miterlimit="10"/>
<path d="M98.7848 67.7126C98.8741 67.6328 98.9785 67.5717 99.0918 67.5331C99.2051 67.4945 99.3251 67.479 99.4445 67.4877C99.5639 67.4963 99.6804 67.5289 99.787 67.5835C99.8935 67.6381 99.988 67.7135 100.065 67.8054C100.088 67.8418 100.107 67.8804 100.122 67.9206L108.692 59.4022C108.593 59.398 108.497 59.371 108.41 59.3232C108.323 59.2755 108.249 59.2083 108.193 59.127C108.116 58.9988 108.077 58.8509 108.083 58.7014C108.089 58.5519 108.138 58.4073 108.225 58.2854L104.551 54.8838C104.489 54.9672 104.415 55.0406 104.33 55.1014C104.186 55.2231 104.005 55.2924 103.816 55.2982C103.627 55.304 103.442 55.246 103.29 55.1334L95.332 63.0022C95.4515 63.0532 95.5545 63.1363 95.6296 63.2422C95.7348 63.4296 95.7706 63.6481 95.7308 63.8593C95.691 64.0706 95.5782 64.261 95.412 64.3974L98.74 67.7414L98.7848 67.7126ZM99.8056 62.823C99.2776 62.0486 99.5944 60.8838 100.513 60.215C101.431 59.5462 102.606 59.6358 103.134 60.407C103.662 61.1782 103.348 62.3462 102.426 63.015C101.505 63.6838 100.34 63.5942 99.8056 62.823Z" fill="white" stroke="#263238" stroke-miterlimit="10"/>
<path d="M124.852 80.3719L140.183 81.9719L141.015 73.9719L125.383 72.2471L124.852 80.3719Z" fill="#4B66E3" stroke="#263238" stroke-miterlimit="10"/>
<path d="M139.354 75.5615C139.241 75.5422 139.132 75.5005 139.035 75.4389C138.938 75.3772 138.854 75.2969 138.788 75.2025C138.722 75.108 138.676 75.0015 138.652 74.8889C138.627 74.7764 138.626 74.6602 138.647 74.5471C138.661 74.5073 138.678 74.4687 138.698 74.4319L127.028 73.1807C127.084 73.2585 127.123 73.3482 127.14 73.4429C127.157 73.5377 127.153 73.6351 127.127 73.7279C127.079 73.862 126.992 73.9794 126.879 74.0657C126.765 74.152 126.629 74.2036 126.487 74.2143L126.167 79.0687C126.268 79.0652 126.37 79.076 126.468 79.1007C126.648 79.1369 126.81 79.2321 126.93 79.3712C127.049 79.5104 127.118 79.6855 127.127 79.8687L137.933 81.0559C137.898 80.9346 137.898 80.8059 137.933 80.6847C138.01 80.4904 138.153 80.3295 138.337 80.23C138.521 80.1306 138.733 80.0989 138.938 80.1407L139.412 75.5711L139.354 75.5615ZM135.041 77.8015C134.781 78.6719 133.709 79.1487 132.644 78.8639C131.578 78.5791 130.922 77.6383 131.181 76.7679C131.441 75.8975 132.516 75.4207 133.581 75.7055C134.647 75.9903 135.3 76.9119 135.041 77.7855V77.8015Z" fill="white" stroke="#263238" stroke-miterlimit="10"/>
<path d="M142.318 94.8581C142.318 94.8581 143.278 95.1109 144.513 98.0581C145.748 101.005 146.929 104.858 146.929 104.858C146.929 104.858 144.186 103.687 142.641 103.607C140.942 103.521 138.481 104.247 138.481 104.247C138.481 104.247 137.521 94.2085 130.836 90.8645C131.303 90.3339 131.897 89.9304 132.562 89.692C133.228 89.4535 133.943 89.388 134.641 89.5013C137.092 89.8565 142.318 94.8581 142.318 94.8581Z" fill="#4B66E3" stroke="#263238" stroke-linejoin="round"/>
<path d="M133.233 91.2007C133.233 91.2007 137.825 95.8663 138.91 100.74C139.074 100.785 139.227 100.867 139.356 100.978C139.485 101.09 139.588 101.229 139.656 101.385C139.725 101.542 139.758 101.711 139.753 101.882C139.748 102.053 139.704 102.22 139.627 102.372C141.226 102.022 142.897 102.211 144.379 102.91C144.379 102.91 144.663 102.231 145.035 102.212C145.035 102.212 143.022 96.0615 140.875 94.1831C139.402 92.8525 137.745 91.7404 135.956 90.8807C135.176 90.5241 134.302 90.4277 133.463 90.6055C133.463 90.6055 134.26 91.3255 133.233 91.2007ZM138.251 94.4583C138.731 94.0967 139.735 94.6151 140.491 95.6199C141.246 96.6247 141.483 97.7319 141.003 98.0967C140.523 98.4615 139.518 97.9399 138.763 96.9351C138.007 95.9303 137.78 94.8263 138.251 94.4615V94.4583Z" fill="white" stroke="#263238" stroke-miterlimit="10"/>
<path d="M143.054 95.4944C143.054 95.4944 140.935 92.6688 138.724 91.3504C137.435 90.5749 136.06 89.951 134.628 89.4912C134.628 89.4912 135.633 89.5296 136.388 91.0496C136.823 91.92 136.676 93.1904 136.676 93.1904C138.898 93.6597 141.044 94.4351 143.054 95.4944Z" fill="#4B66E3" stroke="#263238" stroke-linejoin="round"/>
<path d="M134.9 57.8655C134.9 57.8655 129.719 61.3695 127.005 64.5503L121.78 59.7055C121.78 59.7055 128.401 50.6687 131.127 51.7791L134.9 57.8655Z" fill="#4B66E3" stroke="#263238" stroke-linejoin="round"/>
<path d="M124.34 59.3635C124.381 59.5341 124.364 59.7132 124.294 59.8737C124.223 60.0342 124.103 60.1674 123.95 60.2531L126.273 62.4259C126.392 62.3442 126.524 62.2826 126.663 62.2435C126.83 62.1862 127.007 62.1702 127.181 62.197C127.355 62.2238 127.52 62.2924 127.662 62.3971C130.03 59.4947 134.257 57.1491 134.257 57.1491L132.337 53.8499C132.337 53.8499 131.921 51.8595 129.62 53.0403C127.841 53.9555 124.961 57.3443 123.748 58.8323C123.885 58.8594 124.013 58.923 124.117 59.0165C124.221 59.11 124.298 59.2299 124.34 59.3635ZM129.687 55.0179C130.686 54.4675 131.786 54.5507 132.142 55.1971C132.497 55.8435 131.975 56.8195 130.977 57.3667C129.978 57.9139 128.878 57.8339 128.519 57.1843C128.161 56.5347 128.676 55.5651 129.678 55.0179H129.687Z" fill="white" stroke="#263238" stroke-miterlimit="10"/>
<path d="M136.5 60.2753L130.401 53.6481C130.401 53.6481 131.527 52.5761 131.15 51.7793L137.012 58.0961C137.012 58.0961 137.825 59.1425 136.5 60.2753Z" fill="#4B66E3" stroke="#263238" stroke-linejoin="round"/>
<path d="M136.481 57.5359L131.969 52.6719C131.927 52.981 131.776 53.2649 131.543 53.4719L136.343 58.2047L136.481 57.5359Z" fill="white" stroke="#263238" stroke-miterlimit="10"/>
<path d="M3.59131 148.218H156.66" stroke="#263238" stroke-linecap="round" stroke-linejoin="round"/>
</svg>
