<svg width="16" height="16" viewBox="0 0 16 16" fill="none" xmlns="http://www.w3.org/2000/svg">
<path d="M8.20033 7.26667C6.68699 6.87333 6.20033 6.46667 6.20033 5.83333C6.20033 5.10667 6.87366 4.6 8.00033 4.6C8.94699 4.6 9.42033 4.96 9.59366 5.53333C9.67366 5.8 9.89366 6 10.1737 6H10.3737C10.8137 6 11.127 5.56667 10.9737 5.15333C10.6937 4.36667 10.0403 3.71333 9.00033 3.46V3C9.00033 2.44667 8.55366 2 8.00033 2C7.44699 2 7.00033 2.44667 7.00033 3V3.44C5.70699 3.72 4.66699 4.56 4.66699 5.84667C4.66699 7.38667 5.94033 8.15333 7.80033 8.6C9.46699 9 9.80032 9.58667 9.80032 10.2067C9.80032 10.6667 9.47366 11.4 8.00033 11.4C6.90033 11.4 6.33366 11.0067 6.11366 10.4467C6.01366 10.1867 5.78699 10 5.51366 10H5.32699C4.88033 10 4.56699 10.4533 4.73366 10.8667C5.11366 11.7933 6.00033 12.34 7.00033 12.5533V13C7.00033 13.5533 7.44699 14 8.00033 14C8.55366 14 9.00033 13.5533 9.00033 13V12.5667C10.3003 12.32 11.3337 11.5667 11.3337 10.2C11.3337 8.30667 9.71366 7.66 8.20033 7.26667Z" fill="#A7A7A7"/>
</svg>
