<svg width="160" height="160" viewBox="0 0 160 160" fill="none" xmlns="http://www.w3.org/2000/svg">
<path d="M36.0672 123C36.0672 123 6.18276 96.4702 1.1423 66.2478C-3.89816 36.0254 21.9637 50.8007 30.0211 50.1289C38.0785 49.4571 33.0462 19.9106 56.2168 9.49991C79.3875 -0.910793 86.7731 15.8799 96.5242 24.6091C106.275 33.3383 117.008 20.9163 134.796 20.5824C152.584 20.2485 153.264 37.0351 148.232 49.1233C143.199 61.2114 137.149 82.0328 142.186 82.3667C147.222 82.7005 159.326 75.9867 159.978 94.4548C160.629 112.923 146.88 132.067 127.406 136.431C107.932 140.796 96.8703 125.031 81.3988 125.687C65.9272 126.342 53.3831 144.102 36.0672 123Z" fill="#4B66E3"/>
<path opacity="0.6" d="M36.0672 123C36.0672 123 6.18276 96.4702 1.1423 66.2478C-3.89816 36.0254 21.9637 50.8007 30.0211 50.1289C38.0785 49.4571 33.0462 19.9106 56.2168 9.49991C79.3875 -0.910793 86.7731 15.8799 96.5242 24.6091C106.275 33.3383 117.008 20.9163 134.796 20.5824C152.584 20.2485 153.264 37.0351 148.232 49.1233C143.199 61.2114 137.149 82.0328 142.186 82.3667C147.222 82.7005 159.326 75.9867 159.978 94.4548C160.629 112.923 146.88 132.067 127.406 136.431C107.932 140.796 96.8703 125.031 81.3988 125.687C65.9272 126.342 53.3831 144.102 36.0672 123Z" fill="white"/>
<g opacity="0.5">
<path d="M32.7075 154.566C46.8017 154.566 58.2273 151.709 58.2273 148.186C58.2273 144.662 46.8017 141.806 32.7075 141.806C18.6132 141.806 7.18762 144.662 7.18762 148.186C7.18762 151.709 18.6132 154.566 32.7075 154.566Z" fill="#4B66E3"/>
<path d="M85.9326 144.489C120.334 144.489 148.222 140.354 148.222 135.255C148.222 130.155 120.334 126.021 85.9326 126.021C51.5312 126.021 23.6434 130.155 23.6434 135.255C23.6434 140.354 51.5312 144.489 85.9326 144.489Z" fill="#4B66E3"/>
</g>
<path d="M49.1757 29.9758L80.9086 24.4834L111.298 30.2893L140.307 25.5257V132.137L111.343 137.43L80.9086 131.868L48.7116 136.933L24.8569 131.717V25.941L49.1757 29.9758Z" fill="white" stroke="#4B66E3" stroke-miterlimit="10"/>
<path d="M33.1913 40.2401L41.4808 41.6244C41.5105 41.6283 41.5407 41.6283 41.5704 41.6244C41.6826 41.6236 41.7904 41.5804 41.8721 41.5033C41.9537 41.4263 42.0031 41.3212 42.0103 41.2092C42.0176 41.0971 41.9821 40.9865 41.911 40.8996C41.84 40.8127 41.7386 40.756 41.6274 40.7409L33.3338 39.381C33.2753 39.3691 33.2149 39.3691 33.1564 39.3811C33.0978 39.393 33.0423 39.4167 32.9932 39.4507C32.944 39.4846 32.9022 39.5281 32.8702 39.5786C32.8383 39.6291 32.8169 39.6856 32.8073 39.7446C32.7977 39.8035 32.8001 39.8638 32.8144 39.9219C32.8286 39.9799 32.8545 40.0344 32.8903 40.0822C32.9262 40.13 32.9714 40.1701 33.0231 40.2C33.0748 40.2299 33.132 40.2491 33.1913 40.2564V40.2401Z" fill="#4B66E3"/>
<path d="M46.8637 93.7672L42.4137 91.3691L34.8815 109.235L48.9565 116.132V94.1744C48.2337 94.2552 47.5035 94.1131 46.8637 93.7672Z" fill="#4B66E3"/>
<path d="M34.4952 87.0947L28.2863 102.188V120.297L40.8385 90.5188L34.4952 87.0947Z" fill="#4B66E3"/>
<path d="M28.2863 124.881V128.7L48.957 133.785V117.125L34.5359 110.053L28.2863 124.881Z" fill="#4B66E3"/>
<path d="M28.2863 81.7237L47.7071 92.2036C48.091 92.405 48.5343 92.4628 48.957 92.3664V69.2406L28.2863 59.4121V81.7237Z" fill="#4B66E3"/>
<path d="M33.5649 45.4601C33.5064 45.4482 33.446 45.4482 33.3875 45.4602C33.3289 45.4721 33.2734 45.4958 33.2242 45.5298C33.1751 45.5637 33.1332 45.6072 33.1013 45.6577C33.0694 45.7082 33.048 45.7647 33.0384 45.8237C33.0288 45.8826 33.0312 45.9429 33.0454 46.001C33.0597 46.059 33.0856 46.1135 33.1214 46.1613C33.1573 46.2091 33.2024 46.2492 33.2542 46.2791C33.3059 46.309 33.3631 46.3282 33.4224 46.3355L41.7119 47.6994C41.7416 47.7034 41.7717 47.7034 41.8015 47.6994C41.9137 47.6987 42.0215 47.6554 42.1032 47.5784C42.1848 47.5013 42.2342 47.3962 42.2414 47.2842C42.2487 47.1722 42.2132 47.0616 42.1421 46.9747C42.071 46.8878 41.9697 46.831 41.8585 46.8159L33.5649 45.4601Z" fill="#4B66E3"/>
<path d="M33.4523 42.4094C33.3946 42.3998 33.3355 42.4016 33.2784 42.4148C33.2214 42.428 33.1675 42.4523 33.1199 42.4864C33.0723 42.5204 33.0318 42.5635 33.0008 42.6131C32.9698 42.6628 32.9489 42.7181 32.9393 42.7758C32.9297 42.8336 32.9315 42.8926 32.9447 42.9497C32.9579 43.0067 32.9822 43.0606 33.0163 43.1082C33.0503 43.1558 33.0934 43.1963 33.143 43.2273C33.1927 43.2583 33.248 43.2792 33.3057 43.2888L41.5993 44.6528H41.6888C41.8008 44.6511 41.908 44.6071 41.9889 44.5298C42.0698 44.4524 42.1185 44.3473 42.1252 44.2356C42.1319 44.1238 42.0961 44.0137 42.025 43.9272C41.9539 43.8407 41.8527 43.7843 41.7418 43.7693L33.4523 42.4094Z" fill="#4B66E3"/>
<path d="M113.488 46.1027C112.867 46.52 112.209 46.8798 111.522 47.1776V73.6746L125.165 38.2041L113.488 46.1027Z" fill="#4B66E3"/>
<path d="M123.933 68.8338L132.617 47.9391L128.216 35.2402L117.968 61.8879L123.933 68.8338Z" fill="#4B66E3"/>
<path d="M125.723 36.7383L128.166 30.4072L111.522 33.4812V46.2167C112.031 45.9721 112.522 45.6918 112.992 45.378L125.723 36.7383Z" fill="#4B66E3"/>
<path d="M28.2863 83.7471V97.5086L32.9196 86.2429L28.2863 83.7471Z" fill="#4B66E3"/>
<path d="M54.8262 86.6387L51.7074 92.3387C51.4668 92.7768 51.1371 93.1597 50.7395 93.4627C50.3419 93.7656 49.8852 93.9819 49.3989 94.0976V115.807L68.0095 99.9727L54.8262 86.6387Z" fill="#4B66E3"/>
<path d="M93.774 95.8478C94.082 95.8932 94.3966 95.8574 94.6865 95.7438C94.9765 95.6303 95.2317 95.443 95.427 95.2004L108.977 78.5075C106.807 73.8619 103.607 70.7514 99.4618 69.2653C92.4182 66.7369 84.5196 69.5543 82.1093 70.5478L92.3652 94.7566C92.4841 95.0458 92.6767 95.2988 92.9239 95.4903C93.1711 95.6817 93.4642 95.805 93.774 95.8478Z" fill="#4B66E3"/>
<path d="M86.3758 121.042C89.5515 119.348 106.326 110.419 106.517 110.326C107.384 109.865 107.861 109.357 107.975 108.778C108.252 107.386 106.566 105.35 105.076 103.555C103.781 101.991 102.56 100.513 102.259 99.1372C101.444 95.3915 103.769 93.8688 105.638 92.6433C106.452 92.1058 107.238 91.5969 107.674 90.9699C108.512 89.7485 107.042 86.8374 105.915 85.1314L96.8272 96.3239C96.4929 96.7371 96.0704 97.0704 95.5906 97.2993C95.1109 97.5283 94.5861 97.6471 94.0545 97.6471C93.8829 97.647 93.7115 97.6348 93.5415 97.6104C92.9281 97.5277 92.3471 97.2857 91.8563 96.9085C91.3656 96.5314 90.9822 96.0322 90.7445 95.4607L81.1277 72.7705V110.704L81.7384 111.323L86.3758 121.042Z" fill="#4B66E3"/>
<path d="M67.0422 56.4847C66.79 57.8883 66.4376 59.2721 65.9876 60.6253C64.6685 64.2448 51.1391 68.7397 49.3965 69.3097V92.2157C49.7129 92.0519 49.9726 91.7965 50.1416 91.4828L67.2417 60.2507C67.5183 59.748 67.9114 59.3188 68.3881 58.9992C68.8647 58.6796 69.411 58.4789 69.9812 58.4139C70.5514 58.3489 71.1288 58.4215 71.6652 58.6257C72.2015 58.8298 72.6811 59.1595 73.0638 59.5871L80.6774 68.1371V40.8096C77.746 41.746 74.8064 42.7842 72.4165 44.4413C68.9598 46.8353 67.8524 52.4132 67.0422 56.4847Z" fill="#4B66E3"/>
<path d="M132.448 78.7556L136.878 83.9141V68.8701L132.522 78.7882L132.448 78.7556Z" fill="#4B66E3"/>
<path d="M120.214 106.361C120.067 106.843 120.071 107.36 120.224 107.84C120.377 108.321 120.674 108.744 121.073 109.052L130.886 116.649C132.464 117.883 133.524 119.662 133.858 121.637C134.191 123.612 133.775 125.641 132.689 127.325L130.821 130.175L128.406 130.618L131.199 126.339C132.042 125.031 132.366 123.455 132.107 121.921C131.848 120.386 131.025 119.004 129.799 118.046L119.982 110.473C119.293 109.937 118.784 109.203 118.524 108.37C118.263 107.537 118.264 106.644 118.525 105.811L128.63 77.0462L117.23 63.7773L111.823 77.8605L111.522 78.231V133.904L136.875 129.096V86.6467L129.953 78.6015L120.214 106.361Z" fill="#4B66E3"/>
<path d="M100.911 46.7988L86.1234 39.002C84.8205 39.4946 83.4158 39.9343 81.9705 40.3903L81.1277 40.655V68.6258L81.3964 68.9271C83.9614 67.84 92.316 64.815 100.068 67.5917C104.445 69.1592 107.861 72.3186 110.247 76.9886L110.279 76.952L111.094 74.8389V47.3769C109.455 48.0194 107.698 48.3004 105.941 48.2006C104.184 48.1008 102.47 47.6226 100.915 46.7988H100.911Z" fill="#4B66E3"/>
<path d="M81.1277 38.7738L81.4371 38.6761C84.2301 37.7966 86.8684 36.9701 88.7209 35.7568C90.3699 34.6738 92.1206 32.463 93.6067 30.2319L95.504 30.5943C93.8265 33.1959 91.7379 35.9238 89.7022 37.2633C88.911 37.768 88.0773 38.2026 87.2104 38.5621L101.334 46.0128C102.826 46.8024 104.475 47.2487 106.162 47.3191C107.848 47.3895 109.529 47.0824 111.081 46.42V33.4809L81.1358 27.8623L81.1277 38.7738Z" fill="#4B66E3"/>
<path d="M125.229 70.3487L131.218 77.3231L136.878 64.4451V60.2393L133.49 50.4678L125.229 70.3487Z" fill="#4B66E3"/>
<path d="M130.214 30.0448L129.131 32.8541L134.448 47.7964L136.879 54.8033V28.8193L130.214 30.0448Z" fill="#4B66E3"/>
<path d="M49.3965 67.3928C55.0965 65.2268 63.5773 61.6358 64.3591 59.8932C64.697 59.1441 64.9739 57.7516 65.2914 56.1393C66.1586 51.7707 67.3272 45.7856 71.3986 42.9682C74.1509 41.0587 77.4406 39.9512 80.6774 38.9293V27.8916L49.3965 33.0746V67.3928Z" fill="#4B66E3"/>
<path d="M109.139 91.976C108.508 92.8921 107.543 93.5232 106.615 94.1339C104.649 95.4205 103.468 96.3325 103.997 98.755C104.209 99.7118 105.349 101.088 106.44 102.419C108.268 104.626 110.153 106.898 109.697 109.125C109.477 110.245 108.679 111.161 107.332 111.898L87.1414 122.646L90.9074 130.545L110.98 134.002H111.073V78.7764L107.083 83.6906C107.906 84.851 110.902 89.411 109.139 91.976Z" fill="#4B66E3"/>
<path d="M68.6365 100.604L54.8099 112.366L64.9763 131.363L64.0439 131.51L54.1177 112.956L49.3989 116.971V133.827L80.684 128.892V113.245L80.2605 112.362L68.6365 100.604Z" fill="#4B66E3"/>
<path d="M28.2863 57.4495L48.957 67.274V32.9883L28.2863 29.21V57.4495ZM37.0399 32.7928C40.4477 32.6625 43.3873 37.2307 43.6071 42.9959C43.827 48.7611 41.2538 53.5369 37.8338 53.6672C34.4138 53.7975 31.4864 49.2293 31.2666 43.4641C31.0467 37.6989 33.6321 32.9231 37.0399 32.7928Z" fill="#4B66E3"/>
<path d="M71.7395 60.76C71.5473 60.5446 71.3062 60.3785 71.0365 60.2756C70.7667 60.1727 70.4762 60.1361 70.1894 60.1688C69.9026 60.2016 69.6278 60.3026 69.3881 60.4636C69.1485 60.6246 68.9509 60.8407 68.8122 61.0939L55.7184 85.0014L80.6845 110.244V71.7204L79.9313 69.9737L71.7395 60.76Z" fill="#4B66E3"/>
<path d="M81.1277 114.182V128.863L88.7617 130.178L81.1277 114.182Z" fill="#4B66E3"/>
<path d="M95.5988 56.0576C94.3905 56.0576 93.2317 56.5376 92.3773 57.392C91.5228 58.2464 91.0428 59.4053 91.0428 60.6136C91.0428 63.1297 95.5988 67.8852 95.5988 67.8852C95.5988 67.8852 100.155 63.1297 100.155 60.6136C100.155 59.4053 99.6747 58.2464 98.8203 57.392C97.9659 56.5376 96.8071 56.0576 95.5988 56.0576ZM95.5988 62.2422C95.2187 62.2422 94.8472 62.1294 94.5311 61.9183C94.2151 61.7071 93.9688 61.407 93.8234 61.0558C93.6779 60.7047 93.6399 60.3183 93.714 59.9455C93.7882 59.5727 93.9712 59.2303 94.2399 58.9616C94.5087 58.6928 94.8511 58.5098 95.2239 58.4356C95.5967 58.3615 95.9831 58.3995 96.3342 58.545C96.6854 58.6904 96.9855 58.9368 97.1967 59.2528C97.4078 59.5688 97.5205 59.9403 97.5205 60.3204C97.5205 60.5728 97.4708 60.8227 97.3742 61.0558C97.2777 61.289 97.1361 61.5008 96.9577 61.6793C96.7792 61.8577 96.5674 61.9993 96.3342 62.0959C96.1011 62.1924 95.8512 62.2422 95.5988 62.2422Z" fill="white"/>
<path d="M40.8122 76.1373C40.8122 76.1373 41.5776 77.9735 42.2413 78.3318C42.9049 78.6901 43.4627 78.9914 44.1793 77.9247C44.8959 76.8579 43.5156 75.1194 42.4937 74.8141C41.4718 74.5087 40.4376 74.6594 40.8122 76.1373Z" fill="white" stroke="#263238" stroke-width="0.75" stroke-linecap="round" stroke-linejoin="round"/>
<path d="M39.6767 73.9141C39.6767 73.9141 39.1556 74.4393 39.6034 75.7096C40.0513 76.9799 41.3216 77.0572 41.5496 76.6827C41.7776 76.3081 42.8932 77.2079 42.8932 77.2079L43.4917 80.6482L46.8588 80.347L46.9524 77.045L39.6767 73.9141Z" fill="white" stroke="#263238" stroke-width="0.75" stroke-linecap="round" stroke-linejoin="round"/>
<path d="M34.2914 97.5531C34.2914 97.5531 34.2181 101.519 34.2181 104.735C34.2181 107.952 35.9363 112.141 35.9363 112.141C35.9363 112.141 35.863 113.713 36.3109 114.686C36.7587 115.659 38.4077 117.536 38.8555 117.454C39.3034 117.373 39.454 116.107 39.5273 114.535C39.6006 112.964 37.5852 111.685 37.5852 110.122C37.5852 108.558 38.257 105.036 38.6316 103.017C39.0062 100.998 38.9288 97.4798 38.9288 97.4798L34.3688 97.2559L34.2914 97.5531Z" fill="white"/>
<g style="mix-blend-mode:multiply" opacity="0.5">
<path d="M38.9278 97.4798L34.3678 97.2559L34.2905 97.5531C34.2905 97.5531 34.2905 98.2859 34.262 99.373C34.8082 99.7945 35.4281 100.111 36.09 100.305C35.963 102.784 36.0995 105.269 36.4972 107.719C37.1568 111.591 37.6494 112.084 37.2382 113.073C36.827 114.063 37.5883 115.724 38.3131 116.131C38.7813 116.392 39.2169 115.235 39.5345 114.246C39.3676 112.809 37.6006 111.6 37.6006 110.13C37.6006 108.558 38.2723 105.045 38.6469 103.025C39.0215 101.006 38.9278 97.4798 38.9278 97.4798Z" fill="#4B66E3"/>
</g>
<path d="M34.2914 97.5531C34.2914 97.5531 34.2181 101.519 34.2181 104.735C34.2181 107.952 35.9363 112.141 35.9363 112.141C35.9363 112.141 35.863 113.713 36.3109 114.686C36.7587 115.659 38.4077 117.536 38.8555 117.454C39.3034 117.373 39.454 116.107 39.5273 114.535C39.6006 112.964 37.5852 111.685 37.5852 110.122C37.5852 108.558 38.257 105.036 38.6316 103.017C39.0062 100.998 38.9288 97.4798 38.9288 97.4798L34.3688 97.2559L34.2914 97.5531Z" stroke="#263238" stroke-width="0.75" stroke-linecap="round" stroke-linejoin="round"/>
<path d="M56.2726 79.2642L60.4377 76.7195L66.8421 69.3909C67.2357 68.5156 67.7274 67.6879 68.3078 66.9236C69.004 66.15 71.0845 64.2975 71.3166 64.6843C71.5487 65.0711 71.7034 65.1485 71.3166 65.5352L70.0056 66.8463C70.0056 66.8463 71.4713 68.0677 71.5487 68.4748C71.6213 68.748 71.6382 69.0329 71.5983 69.3127C71.5584 69.5925 71.4626 69.8614 71.3166 70.1034C70.9339 70.6408 70.7018 69.9487 70.7018 69.9487C70.421 70.5149 70.0558 71.0352 69.6188 71.4918C69.321 71.7625 68.9412 71.9259 68.5399 71.9559L67.8436 72.1066C67.8436 72.1066 65.6858 76.5078 64.6801 77.8066C63.6745 79.1054 63.0515 79.8138 62.2128 80.2739C61.3741 80.734 56.2726 83.5921 56.2726 83.5921V79.2642Z" fill="white"/>
<g style="mix-blend-mode:multiply" opacity="0.5">
<path d="M70.9215 68.9551C69.9892 68.9551 70.4126 69.8019 69.3988 70.4778C68.7218 70.9094 67.9773 71.2245 67.1961 71.4102C67.1961 71.4102 65.3355 75.4816 62.457 77.3341C59.5785 79.1866 59.5825 78.8568 59.5825 78.8568L58.6135 82.2728L62.2127 80.2656C63.0595 79.8055 63.6784 79.1093 64.68 77.7983C65.6816 76.4873 67.8435 72.0982 67.8435 72.0982L68.5397 71.9476C68.9411 71.9176 69.3209 71.7542 69.6187 71.4834C70.0557 71.0269 70.4209 70.5066 70.7017 69.9404C70.7017 69.9404 70.9337 70.6325 71.3165 70.0951C71.4322 69.9296 71.5138 69.7428 71.5567 69.5454C71.4467 69.2034 71.2554 68.9551 70.9215 68.9551Z" fill="#4B66E3"/>
</g>
<path d="M56.2726 79.2642L60.4377 76.7195L66.8421 69.3909C67.2357 68.5156 67.7274 67.6879 68.3078 66.9236C69.004 66.15 71.0845 64.2975 71.3166 64.6843C71.5487 65.0711 71.7034 65.1485 71.3166 65.5352L70.0056 66.8463C70.0056 66.8463 71.4713 68.0677 71.5487 68.4748C71.6213 68.748 71.6382 69.0329 71.5983 69.3127C71.5584 69.5925 71.4626 69.8614 71.3166 70.1034C70.9339 70.6408 70.7018 69.9487 70.7018 69.9487C70.421 70.5149 70.0558 71.0352 69.6188 71.4918C69.321 71.7625 68.9412 71.9259 68.5399 71.9559L67.8436 72.1066C67.8436 72.1066 65.6858 76.5078 64.6801 77.8066C63.6745 79.1054 63.0515 79.8138 62.2128 80.2739C61.3741 80.734 56.2726 83.5921 56.2726 83.5921V79.2642Z" stroke="#263238" stroke-width="0.75" stroke-linecap="round" stroke-linejoin="round"/>
<path d="M43.1418 145.719C43.1418 145.719 44.1475 145.971 43.895 146.72C43.6426 147.469 42.8405 148.874 42.1891 148.825C41.5377 148.776 43.1418 145.719 43.1418 145.719Z" fill="#4B66E3" stroke="#263238" stroke-width="0.75" stroke-linecap="round" stroke-linejoin="round"/>
<path d="M39.4545 115.061C39.4545 115.061 39.6785 121.197 39.6785 122.092C39.6785 122.988 38.3308 126.506 38.3308 128.301C38.3308 130.097 39.6785 143.402 39.6785 145.646C39.6785 147.889 39.4545 148.638 40.6515 148.866C41.8485 149.094 42.5977 149.163 43.0455 147.592C43.4934 146.02 43.0455 136.008 43.4934 131.819C43.9413 127.629 44.7678 123.139 44.8411 120.598C44.9079 118.934 45.1328 117.281 45.5129 115.659C44.5537 115.685 43.5954 115.584 42.6628 115.358C41.6092 115.131 40.532 115.031 39.4545 115.061Z" fill="white"/>
<g style="mix-blend-mode:multiply" opacity="0.5">
<path d="M44.8641 120.06C44.3951 119.91 43.9123 119.806 43.4228 119.751C42.9302 119.751 41.3627 119.832 40.7845 119.914L39.6282 120.097C39.6567 121.038 39.6771 121.815 39.6771 122.092C39.6642 122.311 39.6301 122.527 39.5753 122.739C40.1194 123.012 40.6913 123.225 41.2813 123.375C43.0116 123.867 43.2559 123.782 43.2559 123.782C43.2559 123.782 40.7845 129.795 40.9515 132.185C41.0777 134.03 41.3993 144.355 41.5418 148.98C42.238 149 42.7185 148.723 43.0442 147.587C43.492 146.016 43.0442 136.004 43.4921 131.815C43.9399 127.625 44.7664 123.134 44.8397 120.594C44.8424 120.412 44.8506 120.234 44.8641 120.06Z" fill="#4B66E3"/>
</g>
<path d="M39.4545 115.061C39.4545 115.061 39.6785 121.197 39.6785 122.092C39.6785 122.988 38.3308 126.506 38.3308 128.301C38.3308 130.097 39.6785 143.402 39.6785 145.646C39.6785 147.889 39.4545 148.638 40.6515 148.866C41.8485 149.094 42.5977 149.163 43.0455 147.592C43.4934 146.02 43.0455 136.008 43.4934 131.819C43.9413 127.629 44.7678 123.139 44.8411 120.598C44.9079 118.934 45.1328 117.281 45.5129 115.659C44.5537 115.685 43.5954 115.584 42.6628 115.358C41.6092 115.131 40.532 115.031 39.4545 115.061Z" stroke="#263238" stroke-width="0.75" stroke-linecap="round" stroke-linejoin="round"/>
<path d="M46.4109 116.482C46.4109 116.482 46.7081 121.571 46.4109 123.216C46.1137 124.861 45.3646 125.907 45.2872 127.78C45.2098 129.653 46.4842 144.599 46.4842 146.472C46.4842 148.345 45.5885 148.715 47.2985 149.322C49.0085 149.929 55.2297 147.824 55.2297 147.001C55.2297 146.179 51.1908 146.105 50.7511 145.055C50.3114 144.005 50.2869 130.85 51.032 126.962C51.7771 123.073 52.7013 115.708 52.7013 115.708L46.4109 116.482Z" fill="white"/>
<g style="mix-blend-mode:multiply" opacity="0.5">
<path d="M48.1745 149.416C50.5318 149.383 55.2222 147.71 55.2222 146.993C55.2222 146.179 51.1833 146.098 50.7436 145.047C50.3038 143.997 50.2794 130.842 51.0245 126.954C51.4072 124.971 51.8388 122.092 52.1564 119.743C50.2468 119.743 47.8976 119.829 46.5296 119.873C46.5734 120.989 46.5312 122.107 46.4034 123.216C46.3372 123.566 46.2502 123.911 46.1428 124.25C46.769 124.613 47.4609 124.848 48.1785 124.942C48.1785 124.942 47.8488 128.155 47.6004 133.016C47.4009 137.421 47.6493 147.046 48.1745 149.416Z" fill="#4B66E3"/>
</g>
<path d="M46.4109 116.482C46.4109 116.482 46.7081 121.571 46.4109 123.216C46.1137 124.861 45.3646 125.907 45.2872 127.78C45.2098 129.653 46.4842 144.599 46.4842 146.472C46.4842 148.345 45.5885 148.715 47.2985 149.322C49.0085 149.929 55.2297 147.824 55.2297 147.001C55.2297 146.179 51.1908 146.105 50.7511 145.055C50.3114 144.005 50.2869 130.85 51.032 126.962C51.7771 123.073 52.7013 115.708 52.7013 115.708L46.4109 116.482Z" stroke="#263238" stroke-width="0.75" stroke-linecap="round" stroke-linejoin="round"/>
<path d="M55.2374 146.993C55.2374 146.179 51.1985 146.097 50.7588 145.047L50.9827 146.769C50.9827 146.769 50.4575 147.294 48.7353 147.441C47.9644 147.514 47.1868 147.466 46.4308 147.298C46.2639 148.471 45.8853 148.817 47.3144 149.314C49.0284 149.924 55.2374 147.815 55.2374 146.993Z" fill="#4B66E3" stroke="#263238" stroke-width="0.75" stroke-linecap="round" stroke-linejoin="round"/>
<path d="M43.0454 147.591C43.1394 147.204 43.1953 146.809 43.2123 146.411C41.8809 147.05 40.4763 146.679 39.6742 146.35C39.6457 148.051 39.5887 148.666 40.6513 148.866C41.8484 149.11 42.5975 149.163 43.0454 147.591Z" fill="#4B66E3" stroke="#263238" stroke-width="0.75" stroke-linecap="round" stroke-linejoin="round"/>
<path d="M37.881 103.762L38.0235 120.365C38.0235 120.365 38.7726 121.037 40.7188 121.338C42.0177 121.5 43.3353 121.424 44.607 121.114L44.5337 122.161C44.5337 122.161 45.7307 122.91 48.4953 122.975C51.2598 123.04 53.6579 121.346 53.6579 121.346L52.3957 103.697C52.3957 103.697 46.3374 105.195 42.2944 104.222C38.2515 103.249 38.4795 102.341 37.881 103.762Z" fill="white"/>
<g style="mix-blend-mode:multiply">
<path d="M49.4154 121.326L49.3503 122.955C50.8923 122.764 52.3678 122.213 53.6579 121.347L52.3957 103.697C52.3957 103.697 46.3374 105.195 42.2944 104.222C38.2515 103.249 38.4795 102.349 37.881 103.77L37.9054 106.311C39.0889 107.001 40.3695 107.508 41.7041 107.817C44.7495 108.579 48.4668 108.102 48.4668 108.102L49.4154 113.245C49.5872 113.707 49.7154 114.184 49.7981 114.67C49.8364 115.154 49.7711 115.641 49.6068 116.099C49.6068 116.099 50.3681 118.48 50.3681 119.62C50.359 119.961 50.2676 120.294 50.1017 120.591C49.9358 120.888 49.7003 121.14 49.4154 121.326Z" fill="#4B66E3"/>
</g>
<g style="mix-blend-mode:multiply" opacity="0.1">
<path d="M49.4154 121.326L49.3503 122.955C50.8923 122.764 52.3678 122.213 53.6579 121.347L52.3957 103.697C52.3957 103.697 46.3374 105.195 42.2944 104.222C38.2515 103.249 38.4795 102.349 37.881 103.77L37.9054 106.311C39.0889 107.001 40.3695 107.508 41.7041 107.817C44.7495 108.579 48.4668 108.102 48.4668 108.102L49.4154 113.245C49.5872 113.707 49.7154 114.184 49.7981 114.67C49.8364 115.154 49.7711 115.641 49.6068 116.099C49.6068 116.099 50.3681 118.48 50.3681 119.62C50.359 119.961 50.2676 120.294 50.1017 120.591C49.9358 120.888 49.7003 121.14 49.4154 121.326Z" fill="black"/>
</g>
<path d="M37.881 103.762L38.0235 120.365C38.0235 120.365 38.7726 121.037 40.7188 121.338C42.0177 121.5 43.3353 121.424 44.607 121.114L44.5337 122.161C44.5337 122.161 45.7307 122.91 48.4953 122.975C51.2598 123.04 53.6579 121.346 53.6579 121.346L52.3957 103.697C52.3957 103.697 46.3374 105.195 42.2944 104.222C38.2515 103.249 38.4795 102.341 37.881 103.762Z" stroke="#263238" stroke-width="0.75" stroke-linecap="round" stroke-linejoin="round"/>
<path d="M41.3228 108.326L44.242 108.851L44.3926 116.184" stroke="#263238" stroke-width="0.75" stroke-linecap="round" stroke-linejoin="round"/>
<path d="M52.5035 112.748C52.5035 112.748 52.2307 113.204 50.5818 113.387C48.9328 113.57 48.0208 113.298 47.9312 113.664C47.8417 114.031 48.1104 115.859 48.1104 115.859C48.8535 116.088 49.6366 116.157 50.4085 116.063C51.1803 115.968 51.9234 115.711 52.589 115.309" stroke="#263238" stroke-width="0.75" stroke-linecap="round" stroke-linejoin="round"/>
<path d="M48.2921 116.945C48.2921 116.945 48.0193 120.878 48.4753 121.062" stroke="#263238" stroke-width="0.75" stroke-linecap="round" stroke-linejoin="round"/>
<path d="M38.4028 118.785C38.4028 118.785 40.235 120.707 44.5344 119.795C44.5344 119.795 48.8339 122.905 52.8606 119.518" stroke="#263238" stroke-width="0.75" stroke-linecap="round" stroke-linejoin="round"/>
<path d="M44.3594 117.23V119.335" stroke="#263238" stroke-width="0.75" stroke-linecap="round" stroke-linejoin="round"/>
<path d="M34.7388 94.1133C34.5498 94.1567 34.3721 94.2392 34.2171 94.3556C34.0621 94.4721 33.9333 94.6198 33.839 94.7891C33.615 95.3103 33.1672 96.8819 33.4644 97.3297C34.0917 98.0178 34.9374 98.4679 35.8584 98.6041C36.5897 98.6735 37.3276 98.596 38.0285 98.3761L38.4031 95.237C38.4031 95.237 35.4146 95.4609 34.7388 94.1133Z" fill="white" stroke="#263238" stroke-width="0.75" stroke-linecap="round" stroke-linejoin="round"/>
<path d="M56.0248 78.7792C56.0248 78.7792 55.5199 78.1074 56.0248 77.7695C56.5297 77.4316 58.3048 76.4219 58.8097 76.5888C59.3145 76.7557 60.4952 78.0219 60.6662 79.2882C60.8373 80.5544 61.1711 81.5641 60.7477 81.902C60.3243 82.24 58.8097 83.84 58.3048 83.9378C57.8 84.0355 57.6289 83.3474 57.6289 83.3474L56.0248 78.7792Z" fill="white" stroke="#263238" stroke-width="0.75" stroke-linecap="round" stroke-linejoin="round"/>
<path d="M42.2232 80.7097C42.2232 80.7097 37.883 82.8798 37.5084 83.7796C37.1339 84.6794 34.1454 94.4753 34.4426 94.9231C34.6303 95.2468 34.8897 95.5231 35.201 95.7306C35.5123 95.9382 35.8672 96.0714 36.2381 96.1201C36.7736 96.2412 37.3184 96.3161 37.8667 96.3441L37.3456 103.603C37.3456 103.603 39.2144 107.418 45.4885 106.596C51.7626 105.774 54.0914 103.152 54.0914 103.152L51.9987 87.2932C51.9987 87.2932 58.8062 83.1811 58.8795 82.2813C58.9528 81.3815 58.6555 79.2155 58.0652 78.617C57.8668 78.3914 57.5984 78.2391 57.303 78.1845C57.0077 78.1298 56.7025 78.176 56.4366 78.3157C54.8781 78.989 53.2789 79.5642 51.6486 80.0379C51.3514 80.0379 49.7798 79.7366 49.4052 79.7366C49.0306 79.7366 45.9648 80.1885 45.5129 80.1885C45.061 80.1885 42.2232 80.7097 42.2232 80.7097Z" fill="#4B66E3" stroke="#263238" stroke-width="0.75" stroke-linecap="round" stroke-linejoin="round"/>
<path opacity="0.3" d="M42.2232 80.7097C42.2232 80.7097 37.883 82.8798 37.5084 83.7796C37.1339 84.6794 34.1454 94.4753 34.4426 94.9231C34.6303 95.2468 34.8897 95.5231 35.201 95.7306C35.5123 95.9382 35.8672 96.0714 36.2381 96.1201C36.7736 96.2412 37.3184 96.3161 37.8667 96.3441L37.3456 103.603C37.3456 103.603 39.2144 107.418 45.4885 106.596C51.7626 105.774 54.0914 103.152 54.0914 103.152L51.9987 87.2932C51.9987 87.2932 58.8062 83.1811 58.8795 82.2813C58.9528 81.3815 58.6555 79.2155 58.0652 78.617C57.8668 78.3914 57.5984 78.2391 57.303 78.1845C57.0077 78.1298 56.7025 78.176 56.4366 78.3157C54.8781 78.989 53.2789 79.5642 51.6486 80.0379C51.3514 80.0379 49.7798 79.7366 49.4052 79.7366C49.0306 79.7366 45.9648 80.1885 45.5129 80.1885C45.061 80.1885 42.2232 80.7097 42.2232 80.7097Z" fill="white" stroke="#263238" stroke-width="0.75" stroke-linecap="round" stroke-linejoin="round"/>
<path d="M41.847 81.2471L42.5188 80.0501C42.5188 80.0501 44.465 79.3742 45.8859 79.0037C47.3069 78.6332 48.1334 78.4785 48.1334 78.4785L48.8662 79.9809L41.847 81.2471Z" fill="white" stroke="#263238" stroke-width="0.75" stroke-linecap="round" stroke-linejoin="round"/>
<path d="M52.693 92.2441L50.8975 103.017C50.8975 103.017 53.0675 102.793 54.1139 103.164L52.693 92.2441Z" fill="white" stroke="#263238" stroke-width="0.75" stroke-linecap="round" stroke-linejoin="round"/>
<path d="M52.0209 87.3057C52.0209 87.3057 49.5781 92.2484 48.3851 93.6205" stroke="#263238" stroke-width="0.75" stroke-linecap="round" stroke-linejoin="round"/>
<path d="M50.581 90.1426C50.581 90.1426 49.669 95.1749 48.7529 97.1903" stroke="#263238" stroke-width="0.75" stroke-linecap="round" stroke-linejoin="round"/>
<path d="M37.8611 95.8192L37.9547 87.3994" stroke="#263238" stroke-width="0.75" stroke-linecap="round" stroke-linejoin="round"/>
<path d="M42.2225 67.1797C41.8995 66.9819 41.5333 66.8652 41.1554 66.8396C40.7775 66.8141 40.399 66.8805 40.0524 67.0332C38.8554 67.5543 38.6314 70.7707 38.9286 72.8675C39.2259 74.9643 42.2225 76.8331 43.1955 77.6556C44.1686 78.478 45.5895 78.3274 46.8598 77.6556C48.1301 76.9838 50.003 73.6167 49.4045 70.5468C48.806 67.4769 48.2075 65.7588 45.8135 65.6855C43.4195 65.6122 42.3731 66.1334 42.2225 67.1797Z" fill="white" stroke="#263238" stroke-width="0.75" stroke-linecap="round" stroke-linejoin="round"/>
<g style="mix-blend-mode:multiply">
<path d="M41.0499 75.7745C40.7012 75.4322 40.3812 75.0618 40.0931 74.667C39.8407 74.2599 40.2438 74.4146 40.9481 74.7159C41.6525 75.0172 39.9913 73.4578 39.8407 72.045C39.6901 70.6322 42.2062 70.3309 43.3177 71.0353C43.992 71.4689 44.6019 71.9952 45.1295 72.5987C45.1295 72.5987 45.0807 70.0785 46.0863 70.2292C47.092 70.3798 47.2467 72.3463 47.2467 72.3463C47.2467 72.3463 48.5048 69.8261 48.6554 70.6322C48.806 71.4384 48.004 74.4635 48.004 74.4635C48.004 74.4635 48.9078 71.9962 49.1114 73.0018C49.315 74.0075 47.7841 77.0163 46.8599 77.6555C45.9357 78.2947 44.1239 78.4942 43.3666 77.9405C42.5545 77.2623 41.7811 76.5392 41.0499 75.7745Z" fill="#4B66E3"/>
</g>
<path d="M48.6149 68.8447C48.8207 70.3239 48.5901 71.8309 47.9512 73.1808C46.8804 75.526 46.4244 75.6237 46.4244 75.6237" stroke="#263238" stroke-width="0.5" stroke-miterlimit="10" stroke-linecap="round"/>
<path d="M48.7696 73.9434C48.7696 73.9434 47.7477 76.0849 46.4244 76.7934" stroke="#263238" stroke-width="0.5" stroke-miterlimit="10" stroke-linecap="round"/>
<path d="M42.5975 67.7744C42.5975 67.7744 44.1284 68.8941 44.2831 70.2743" stroke="#263238" stroke-width="0.5" stroke-miterlimit="10" stroke-linecap="round"/>
<path d="M39.3844 72.8232C39.9181 74.0229 40.8562 74.9971 42.0349 75.5755C43.9729 76.4957 44.7384 75.4249 44.7384 75.4249" stroke="#263238" stroke-width="0.5" stroke-miterlimit="10" stroke-linecap="round"/>
<path d="M42.7516 76.8496C43.743 77.2671 44.8572 77.2861 45.8622 76.9025" stroke="#263238" stroke-width="0.5" stroke-miterlimit="10" stroke-linecap="round"/>
<path d="M18.5078 141.81C18.5078 141.81 20.0835 142.152 19.7577 142.726C19.432 143.3 19.0778 143.206 19.0778 143.206C18.9608 142.714 18.7685 142.243 18.5078 141.81Z" fill="white" stroke="#263238" stroke-width="0.75" stroke-linecap="round" stroke-linejoin="round"/>
<path d="M13.7927 144.249C13.7927 144.249 12.8929 144.9 13.5484 145.637C14.2039 146.374 15.5841 146.451 16.5694 145.8C17.5547 145.148 19.2647 144.086 19.8265 143.43C20.3884 142.775 19.5823 141.879 18.5196 141.716C17.457 141.553 13.7927 144.249 13.7927 144.249Z" fill="white" stroke="#263238" stroke-width="0.75" stroke-linecap="round" stroke-linejoin="round"/>
<path d="M12.2896 117.463C12.5824 118.872 12.5265 120.331 12.1267 121.713C11.4712 124.246 11.3898 125.378 11.6341 127.76C11.8784 130.141 14.1665 140.829 13.9222 142.299C13.678 143.769 13.5151 144.18 13.8408 144.994C14.1665 145.808 15.3106 145.894 16.129 145.157C16.9473 144.42 17.6802 144.18 17.9245 143.28C18.1688 142.38 17.1916 141.651 16.9473 140.837C16.703 140.023 16.2104 128.501 16.2104 125.317C16.277 122.774 16.4945 120.237 16.8618 117.719L12.2896 117.463Z" fill="white"/>
<g style="mix-blend-mode:multiply" opacity="0.5">
<path d="M16.2104 125.309C16.277 122.765 16.4945 120.229 16.8618 117.711L12.2896 117.463C12.4339 118.089 12.4914 118.731 12.4606 119.372C12.7578 119.458 13.0835 119.547 13.397 119.617C13.8727 119.739 14.3597 119.813 14.8505 119.837C14.8505 119.837 14.2683 122.528 13.9059 124.783C13.5436 127.039 13.7593 133.077 14.7202 136.566C15.6811 140.055 15.3757 142.095 15.5956 142.966C15.8154 143.838 15.8684 144.888 15.2495 145.621C15.5828 145.545 15.8912 145.386 16.1452 145.157C16.9595 144.424 17.6964 144.18 17.9407 143.28C18.185 142.38 17.2079 141.651 16.9636 140.837C16.7193 140.023 16.2104 128.492 16.2104 125.309Z" fill="#4B66E3"/>
</g>
<path d="M12.2896 117.463C12.5824 118.872 12.5265 120.331 12.1267 121.713C11.4712 124.246 11.3898 125.378 11.6341 127.76C11.8784 130.141 14.1665 140.829 13.9222 142.299C13.678 143.769 13.5151 144.18 13.8408 144.994C14.1665 145.808 15.3106 145.894 16.129 145.157C16.9473 144.42 17.6802 144.18 17.9245 143.28C18.1688 142.38 17.1916 141.651 16.9473 140.837C16.703 140.023 16.2104 128.501 16.2104 125.317C16.277 122.774 16.4945 120.237 16.8618 117.719L12.2896 117.463Z" stroke="#263238" stroke-width="0.75" stroke-linecap="round" stroke-linejoin="round"/>
<path d="M17.1112 141.195C17.4464 141.232 17.77 141.34 18.0605 141.511C18.3511 141.683 18.602 141.913 18.7968 142.189C19.3668 143.089 19.2324 143.211 19.2324 143.211L17.6039 144.192C17.6039 144.192 17.3555 143.565 17.1112 141.195Z" fill="#4B66E3" stroke="#263238" stroke-width="0.75" stroke-linecap="round" stroke-linejoin="round"/>
<path d="M23.8826 146.72C23.8826 146.72 23.3126 146.968 23.964 147.534C24.6154 148.1 26.3336 147.697 28.4426 147.29C30.5516 146.883 32.282 145.983 32.3634 145.409C32.4448 144.835 30.5679 144.839 30.5679 144.839L23.8826 146.72Z" fill="white" stroke="#263238" stroke-width="0.75" stroke-linecap="round" stroke-linejoin="round"/>
<path d="M20.3753 118.607C20.3753 118.607 20.7011 119.913 20.1311 122.446C19.561 124.978 19.3168 125.39 19.7239 128.248C20.1311 131.106 23.6366 143.699 23.7954 144.436C23.9541 145.173 23.7954 146.15 23.8768 146.72C23.9582 147.29 25.428 147.127 26.2464 146.968C27.0647 146.809 30.0857 146.231 30.6598 145.906C31.2339 145.58 32.0482 145.332 31.1484 144.924C30.2486 144.517 27.4841 144.517 26.9833 143.862C26.4825 143.206 25.5949 141.248 25.5949 140.197C25.5949 139.147 23.9664 127.279 24.2106 124.909C24.4549 122.54 24.8661 117.642 24.8661 117.642L20.3753 118.607Z" fill="white"/>
<g style="mix-blend-mode:multiply" opacity="0.5">
<path d="M31.1531 144.924C30.2533 144.517 27.4887 144.517 26.988 143.862C26.4872 143.206 25.5996 141.248 25.5996 140.197C25.5996 139.147 23.971 127.279 24.2153 124.909C24.4596 122.54 24.8708 117.642 24.8708 117.642L20.3922 118.619C20.5213 119.364 20.5296 120.126 20.4166 120.874C20.6013 120.914 20.7895 120.936 20.9785 120.939C21.8498 120.939 23.4499 120.866 23.4499 120.866C23.4499 120.866 21.9964 125.158 22.0696 128.142C22.1429 131.126 24.9807 143.206 25.2698 144.216C25.523 144.991 25.6455 145.803 25.6322 146.618C25.6306 146.775 25.6197 146.931 25.5996 147.086C25.8439 147.058 26.0719 147.017 26.2673 146.98C27.0816 146.814 30.1067 146.244 30.6808 145.918C31.2548 145.592 32.0528 145.332 31.1531 144.924Z" fill="#4B66E3"/>
</g>
<path d="M20.3753 118.607C20.3753 118.607 20.7011 119.913 20.1311 122.446C19.561 124.978 19.3168 125.39 19.7239 128.248C20.1311 131.106 23.6366 143.699 23.7954 144.436C23.9541 145.173 23.7954 146.15 23.8768 146.72C23.9582 147.29 25.428 147.127 26.2464 146.968C27.0647 146.809 30.0857 146.231 30.6598 145.906C31.2339 145.58 32.0482 145.332 31.1484 144.924C30.2486 144.517 27.4841 144.517 26.9833 143.862C26.4825 143.206 25.5949 141.248 25.5949 140.197C25.5949 139.147 23.9664 127.279 24.2106 124.909C24.4549 122.54 24.8661 117.642 24.8661 117.642L20.3753 118.607Z" stroke="#263238" stroke-width="0.75" stroke-linecap="round" stroke-linejoin="round"/>
<path d="M30.2615 144.599C30.2615 144.599 29.3129 143.622 27.5011 144.168C27.5011 144.168 28.0589 144.269 28.0589 145.169C28.0589 146.069 28.0589 146.985 28.0589 146.985L30.0091 146.476C30.2281 146.221 30.3685 145.908 30.4133 145.575C30.4581 145.242 30.4054 144.903 30.2615 144.599Z" fill="#4B66E3" stroke="#263238" stroke-width="0.75" stroke-linecap="round" stroke-linejoin="round"/>
<path d="M9.74134 88.5559C9.74134 88.5559 8.58912 92.3953 8.78048 93.9343C8.97184 95.4733 9.08991 97.4032 9.9327 97.4032C10.7755 97.4032 12.5262 89.529 12.6239 88.9508C12.7216 88.3727 9.74134 88.5559 9.74134 88.5559Z" fill="white" stroke="#263238" stroke-width="0.75" stroke-linecap="round" stroke-linejoin="round"/>
<path d="M11.5524 83.9707L9.40271 89.1292L13.9302 90.8433L13.694 85.6929L11.5524 83.9707Z" fill="white" stroke="#263238" stroke-width="0.75" stroke-linecap="round" stroke-linejoin="round"/>
<path d="M17.1122 77.2736C17.2017 78.0668 17.1465 78.8697 16.9494 79.6432C16.6196 80.5389 11.5547 82.9899 11.5547 83.9712C11.5547 84.9524 13.3543 97.1219 13.3543 97.1219C13.3543 97.1219 14.5757 98.266 17.6008 98.1846C20.6259 98.1032 21.3587 96.4705 21.3587 96.4705C21.3587 96.4705 22.9873 84.5412 22.0957 83.4011C21.204 82.2611 19.2457 80.5511 18.9892 80.144C18.7327 79.7368 19.3963 76.956 19.3963 76.956C19.3963 76.956 19.0706 76.1418 17.5194 76.0603C15.9681 75.9789 17.1122 77.2736 17.1122 77.2736Z" fill="white" stroke="#263238" stroke-width="0.75" stroke-linecap="round" stroke-linejoin="round"/>
<path d="M19.6767 80.8804C19.4274 80.6497 19.1973 80.3992 18.9886 80.1313C18.7443 79.7241 19.3958 76.9433 19.3958 76.9433C19.3958 76.9433 19.0701 76.129 17.5188 76.0476C15.9676 75.9662 17.1117 77.269 17.1117 77.269C17.2011 78.0623 17.146 78.8651 16.9488 79.6386C16.8511 79.8992 16.3503 80.2941 15.6948 80.742C16.3041 81.2351 17.0608 81.5102 17.8446 81.5237C18.4974 81.4566 19.1252 81.2362 19.6767 80.8804Z" fill="white" stroke="#263238" stroke-width="0.75" stroke-linecap="round" stroke-linejoin="round"/>
<path d="M20.7866 91.2426C21.0043 92.5295 21.3592 93.7893 21.8452 95.0006C22.6595 97.0363 24.6952 100.391 25.3589 99.1657C26.0225 97.9402 26.0144 95.0942 25.6846 93.2824C25.3548 91.4706 24.7074 89.5245 24.7074 88.6288C24.7074 87.733 24.9517 86.8292 24.7074 86.0963C24.4631 85.3635 22.6717 84.541 22.6717 84.541L20.7866 91.2426Z" fill="white"/>
<g style="mix-blend-mode:multiply" opacity="0.5">
<path d="M25.3764 99.1657C26.0319 97.9442 26.0319 95.0942 25.7021 93.2824C25.3723 91.4706 24.7249 89.5245 24.7249 88.6288C24.7249 87.733 24.9692 86.8292 24.7249 86.0963C24.4806 85.3635 22.6892 84.541 22.6892 84.541L20.8123 91.2426C20.9113 91.8515 21.0472 92.4539 21.2194 93.0463L23.5605 91.9185C23.5605 91.9185 25.0751 95.4403 25.2339 97.305C25.286 98.0183 25.2186 98.7352 25.0344 99.4262C25.11 99.419 25.1821 99.3908 25.2426 99.3448C25.303 99.2987 25.3493 99.2367 25.3764 99.1657Z" fill="#4B66E3"/>
</g>
<path d="M20.7866 91.2426C21.0043 92.5295 21.3592 93.7893 21.8452 95.0006C22.6595 97.0363 24.6952 100.391 25.3589 99.1657C26.0225 97.9402 26.0144 95.0942 25.6846 93.2824C25.3548 91.4706 24.7074 89.5245 24.7074 88.6288C24.7074 87.733 24.9517 86.8292 24.7074 86.0963C24.4631 85.3635 22.6717 84.541 22.6717 84.541L20.7866 91.2426Z" stroke="#263238" stroke-width="0.75" stroke-linecap="round" stroke-linejoin="round"/>
<path d="M23.8083 89.2803C23.8083 89.2803 24.9524 92.7939 25.3596 94.0194L23.8083 89.2803Z" fill="white"/>
<path d="M23.8083 89.2803C23.8083 89.2803 24.9524 92.7939 25.3596 94.0194" stroke="#263238" stroke-width="0.75" stroke-linecap="round" stroke-linejoin="round"/>
<path d="M22.0946 83.4014C22.0946 83.4014 22.3389 83.4828 22.6646 84.5414C22.9903 85.6 24.2321 89.3498 24.2321 89.3498L23.2672 90.3228C22.6736 90.9253 21.9861 91.4272 21.2314 91.8089L20.7225 92.0573L19.7454 89.0363" fill="white"/>
<path d="M22.0946 83.4014C22.0946 83.4014 22.3389 83.4828 22.6646 84.5414C22.9903 85.6 24.2321 89.3498 24.2321 89.3498L23.2672 90.3228C22.6736 90.9253 21.9861 91.4272 21.2314 91.8089L20.7225 92.0573L19.7454 89.0363" stroke="#263238" stroke-width="0.75" stroke-linecap="round" stroke-linejoin="round"/>
<path d="M22.9905 71.1871C22.9905 71.1871 23.7234 74.6275 23.7234 76.0199C23.7234 77.4123 21.3823 79.8267 20.6495 79.7534C19.9166 79.6801 18.231 77.7177 17.6447 76.1665C17.0584 74.6153 19.1837 72.0665 19.8433 71.6268C20.5029 71.1871 22.6241 70.8207 22.9905 71.1871Z" fill="white"/>
<g style="mix-blend-mode:multiply" opacity="0.5">
<path d="M23.5038 73.9638C23.288 72.5877 22.9908 71.1871 22.9908 71.1871C22.6244 70.8207 20.5032 71.1871 19.8436 71.6268C19.2817 72.0014 17.6531 73.9272 17.5554 75.4418C18.8949 75.4173 20.8655 75.0876 23.5038 73.9638Z" fill="#4B66E3"/>
</g>
<path d="M22.9905 71.1871C22.9905 71.1871 23.7234 74.6275 23.7234 76.0199C23.7234 77.4123 21.3823 79.8267 20.6495 79.7534C19.9166 79.6801 18.231 77.7177 17.6447 76.1665C17.0584 74.6153 19.1837 72.0665 19.8433 71.6268C20.5029 71.1871 22.6241 70.8207 22.9905 71.1871Z" stroke="#263238" stroke-width="0.75" stroke-linecap="round" stroke-linejoin="round"/>
<path d="M21.843 73.9958C21.843 74.2848 21.7168 74.521 21.5621 74.521C21.4073 74.521 21.2811 74.2848 21.2811 73.9958C21.2811 73.7067 21.4073 73.4746 21.5621 73.4746C21.7168 73.4746 21.843 73.7067 21.843 73.9958Z" fill="#263238"/>
<path d="M23.256 73.5524C23.256 73.8415 23.1298 74.0776 22.971 74.0776C22.8122 74.0776 22.6901 73.8415 22.6901 73.5524C22.6901 73.2633 22.8163 73.0312 22.971 73.0312C23.1257 73.0312 23.256 73.2633 23.256 73.5524Z" fill="#263238"/>
<path d="M22.6042 73.2754C22.5647 73.8273 22.6381 74.3814 22.8199 74.904C23.1253 75.6857 23.3411 75.9055 23.1253 76.1254C22.9095 76.3453 22.4739 76.2109 22.4739 76.2109" stroke="#263238" stroke-width="0.75" stroke-linecap="round" stroke-linejoin="round"/>
<path d="M22.2993 77.4C22.2993 77.4 21.3547 77.5466 21.1593 76.7119" stroke="#263238" stroke-width="0.75" stroke-linecap="round" stroke-linejoin="round"/>
<path d="M20.9556 73.1901C20.968 73.0878 21.0032 72.9897 21.0586 72.9028C21.1141 72.816 21.1883 72.7427 21.2758 72.6884C21.3634 72.6341 21.462 72.6001 21.5644 72.589C21.6668 72.5779 21.7704 72.5899 21.8676 72.6242" stroke="#263238" stroke-width="0.75" stroke-linecap="round" stroke-linejoin="round"/>
<path d="M22.6478 72.5666C22.6478 72.5666 22.9084 72.0455 23.169 72.3508" stroke="#263238" stroke-width="0.75" stroke-linecap="round" stroke-linejoin="round"/>
<path d="M20.7965 71.6268C19.1109 68.5528 15.0964 70.3076 13.0322 72.5795C10.968 74.8514 10.5568 77.3757 11.6561 78.8414C12.7554 80.3071 14.9865 81.4797 17.6411 79.4888C19.2371 78.2917 20.084 75.6575 20.4667 73.7643C20.5033 74.7984 20.4382 76.3578 19.8478 77.2902C19.8403 77.3019 19.8352 77.315 19.8327 77.3288C19.8303 77.3425 19.8306 77.3566 19.8336 77.3702C19.8367 77.3839 19.8423 77.3967 19.8504 77.4082C19.8584 77.4196 19.8686 77.4293 19.8804 77.4367C19.8992 77.4408 19.9186 77.4408 19.9374 77.4367C19.955 77.4358 19.9722 77.4309 19.9877 77.4225C20.0032 77.414 20.0166 77.4022 20.027 77.3879C20.8413 76.0687 20.7028 73.6747 20.6295 72.9093C20.7476 72.1601 20.7965 71.6268 20.7965 71.6268Z" fill="#263238"/>
<path d="M13.3526 97.1221C13.3526 97.1221 10.1647 102.761 9.75751 105.375C9.35037 107.989 9.59465 117.137 9.59465 117.137C9.59465 117.137 10.4904 118.037 13.259 118.2C16.0275 118.363 17.4241 117.956 17.4241 117.956L17.7498 118.856C17.7498 118.856 20.5998 119.751 23.2218 119.1C25.8438 118.448 26.8169 117.549 26.8169 117.549C26.8169 117.549 26.8169 110.603 24.4473 104.557C22.0777 98.5105 21.3449 96.4707 21.3449 96.4707C21.3449 96.4707 18.0877 99.0031 13.3526 97.1221Z" fill="#4B66E3" stroke="#263238" stroke-width="0.75" stroke-linecap="round" stroke-linejoin="round"/>
<path opacity="0.2" d="M13.3526 97.1221C13.3526 97.1221 10.1647 102.761 9.75751 105.375C9.35037 107.989 9.59465 117.137 9.59465 117.137C9.59465 117.137 10.4904 118.037 13.259 118.2C16.0275 118.363 17.4241 117.956 17.4241 117.956L17.7498 118.856C17.7498 118.856 20.5998 119.751 23.2218 119.1C25.8438 118.448 26.8169 117.549 26.8169 117.549C26.8169 117.549 26.8169 110.603 24.4473 104.557C22.0777 98.5105 21.3449 96.4707 21.3449 96.4707C21.3449 96.4707 18.0877 99.0031 13.3526 97.1221Z" fill="black" stroke="#263238" stroke-width="0.75" stroke-linecap="round" stroke-linejoin="round"/>
<path d="M9.49719 115.342C9.49719 115.342 13.418 117.63 17.6645 116.156" stroke="#263238" stroke-width="0.75" stroke-linecap="round" stroke-linejoin="round"/>
<path d="M14.661 107.333L16.8637 108.396L17.7635 117.056" stroke="#263238" stroke-width="0.75" stroke-linecap="round" stroke-linejoin="round"/>
<path d="M17.8444 115.83C19.137 116.484 20.5777 116.791 22.0247 116.719C23.4717 116.648 24.8752 116.201 26.0972 115.423" stroke="#263238" stroke-width="0.75" stroke-linecap="round" stroke-linejoin="round"/>
<path d="M21.5942 100.782C23.5104 104.938 24.5736 109.436 24.7211 114.01" stroke="#263238" stroke-width="0.5" stroke-miterlimit="10" stroke-linecap="round"/>
<path d="M14.1669 81.8457C14.1669 81.8457 12.29 86.1777 11.7241 87.8918C11.1581 89.6059 11.0726 89.9276 11.0726 89.9276L12.5424 89.7647L15.7019 80.7383C15.7019 80.7383 14.9039 81.2757 14.1669 81.8457Z" fill="#4B66E3" stroke="#263238" stroke-width="0.75" stroke-linecap="round" stroke-linejoin="round"/>
<path d="M19.9689 81.2754C19.9689 81.2754 18.0064 84.3738 17.5178 85.5952C17.0293 86.8166 16.4552 88.5389 16.4552 88.5389L18.3362 88.4574C18.3362 88.4574 19.2319 84.6995 21.0315 82.167L19.9689 81.2754Z" fill="#4B66E3" stroke="#263238" stroke-width="0.75" stroke-linecap="round" stroke-linejoin="round"/>
<path d="M17.2741 87.485C17.2741 87.485 13.2718 87.5664 12.1277 88.2178C10.9837 88.8693 10.4096 90.0988 10.1653 92.0572C9.92101 94.0156 9.18408 97.9404 9.18408 99.9843C9.18408 102.028 12.0341 103.494 14.249 103.649C16.4638 103.803 19.3139 103.241 20.3561 101.849C21.3984 100.457 21.3374 99.0723 21.0116 97.6025C20.6859 96.1327 19.2121 88.9425 18.7235 87.9613C18.6604 87.8341 18.5727 87.7207 18.4654 87.6278C18.3581 87.5348 18.2334 87.4641 18.0985 87.4197C17.9636 87.3754 17.8213 87.3583 17.6797 87.3695C17.5382 87.3807 17.4003 87.42 17.2741 87.485Z" fill="#4B66E3" stroke="#263238" stroke-width="0.75" stroke-linecap="round" stroke-linejoin="round"/>
<path d="M12.1278 88.2175C12.1278 88.2175 11.0652 92.8753 11.0652 94.9191C11.0652 96.963 11.8795 97.7692 14.3223 97.8587C16.7652 97.9483 18.3938 97.1218 18.3938 94.1944C18.3938 91.2671 18.3938 88.3112 17.8197 87.904C17.2457 87.4969 12.7793 87.8104 12.1278 88.2175Z" fill="#4B66E3" stroke="#263238" stroke-width="0.75" stroke-linecap="round" stroke-linejoin="round"/>
<path d="M13.3543 95.5707C13.3543 95.5707 13.1914 97.1219 12.9471 99.3286C12.7029 101.535 13.3095 104.976 13.3095 104.976L14.4821 105.757L15.4796 104.801C15.4796 104.801 15.3982 103.331 15.3982 100.554C15.3998 98.8605 15.51 97.1688 15.7279 95.4893L13.3543 95.5707Z" fill="#4B66E3" stroke="#263238" stroke-width="0.75" stroke-linecap="round" stroke-linejoin="round"/>
<path opacity="0.1" d="M13.3543 95.5707C13.3543 95.5707 13.1914 97.1219 12.9471 99.3286C12.7029 101.535 13.3095 104.976 13.3095 104.976L14.4821 105.757L15.4796 104.801C15.4796 104.801 15.3982 103.331 15.3982 100.554C15.3998 98.8605 15.51 97.1688 15.7279 95.4893L13.3543 95.5707Z" fill="black" stroke="#263238" stroke-width="0.75" stroke-linecap="round" stroke-linejoin="round"/>
<path d="M12.9424 99.3285C12.9424 99.3285 12.6167 99.0027 12.5352 99.5727C12.4538 100.143 12.4538 100.31 12.3724 100.88C12.2909 101.45 12.5352 101.535 13.2722 101.535C14.0091 101.535 15.886 101.779 16.0489 101.209C16.2118 100.639 15.4748 98.7666 15.4748 98.7666L15.3934 100.562L12.8365 100.464L12.9424 99.3285Z" fill="white" stroke="#263238" stroke-width="0.75" stroke-linecap="round" stroke-linejoin="round"/>
<path d="M13.9272 101.279C13.9034 101.279 13.8796 101.275 13.8574 101.266C13.8352 101.257 13.815 101.244 13.7979 101.228C13.7808 101.211 13.7673 101.191 13.758 101.169C13.7488 101.147 13.744 101.123 13.744 101.099C13.744 100.692 13.8173 99.9268 13.8214 99.878C13.8229 99.8542 13.8292 99.831 13.84 99.8097C13.8507 99.7885 13.8657 99.7697 13.884 99.7544C13.9023 99.7392 13.9235 99.7279 13.9464 99.7211C13.9692 99.7143 13.9932 99.7123 14.0168 99.7151C14.064 99.7202 14.1073 99.7435 14.1377 99.7799C14.1681 99.8164 14.1831 99.8632 14.1797 99.9105C14.1797 99.9105 14.1064 100.7 14.1064 101.083C14.1086 101.108 14.1057 101.133 14.0977 101.157C14.0897 101.18 14.0769 101.202 14.06 101.22C14.0432 101.239 14.0226 101.254 13.9998 101.264C13.9769 101.274 13.9522 101.279 13.9272 101.279Z" fill="white" stroke="#263238" stroke-width="0.5" stroke-linecap="round" stroke-linejoin="round"/>
<path d="M14.7171 68.9878C12.9731 70.0722 11.2866 71.2463 9.6644 72.5055C7.68567 74.1341 6.94874 74.981 7.02202 75.5673C7.09531 76.1535 11.5698 75.3596 14.5705 74.3458C17.5712 73.332 20.6492 72.4445 23.7964 71.4184C26.9436 70.3924 29.6552 69.0733 30.3107 67.9781C30.9662 66.8829 29.0649 67.0986 24.4519 67.1638C19.839 67.2289 16.9157 67.9659 14.7171 68.9878Z" fill="#4B66E3" stroke="#263238" stroke-width="0.75" stroke-linecap="round" stroke-linejoin="round"/>
<path opacity="0.4" d="M14.7171 68.9878C12.9731 70.0722 11.2866 71.2463 9.6644 72.5055C7.68567 74.1341 6.94874 74.981 7.02202 75.5673C7.09531 76.1535 11.5698 75.3596 14.5705 74.3458C17.5712 73.332 20.6492 72.4445 23.7964 71.4184C26.9436 70.3924 29.6552 69.0733 30.3107 67.9781C30.9662 66.8829 29.0649 67.0986 24.4519 67.1638C19.839 67.2289 16.9157 67.9659 14.7171 68.9878Z" fill="white" stroke="#263238" stroke-width="0.75" stroke-linecap="round" stroke-linejoin="round"/>
<path d="M13.1036 72.286C13.1036 72.286 12.3707 68.9881 13.0303 67.4531C13.6899 65.9182 16.9837 64.6683 18.7303 64.4484C20.477 64.2285 21.5803 65.108 21.9508 65.8408C22.3213 66.5737 23.5794 68.5524 23.4898 69.2812C23.4003 70.01 23.1234 70.3072 19.2433 71.773C15.3632 73.2387 13.9097 73.0921 13.1036 72.286Z" fill="#4B66E3" stroke="#263238" stroke-width="0.75" stroke-linecap="round" stroke-linejoin="round"/>
<path opacity="0.4" d="M13.1036 72.286C13.1036 72.286 12.3707 68.9881 13.0303 67.4531C13.6899 65.9182 16.9837 64.6683 18.7303 64.4484C20.477 64.2285 21.5803 65.108 21.9508 65.8408C22.3213 66.5737 23.5794 68.5524 23.4898 69.2812C23.4003 70.01 23.1234 70.3072 19.2433 71.773C15.3632 73.2387 13.9097 73.0921 13.1036 72.286Z" fill="white" stroke="#263238" stroke-width="0.75" stroke-linecap="round" stroke-linejoin="round"/>
<path d="M15.7793 69.3096C15.9422 69.2403 16.1091 69.163 16.2882 69.0693" stroke="#263238" stroke-width="0.5" stroke-miterlimit="10" stroke-linecap="round"/>
<path d="M13.2073 69.5336C13.2073 69.5336 14.0623 69.9407 15.5239 69.4277" stroke="#263238" stroke-width="0.5" stroke-miterlimit="10" stroke-linecap="round"/>
<path d="M15.9308 70.3603C16.3022 70.231 16.6586 70.0618 16.9934 69.8555" stroke="#263238" stroke-width="0.5" stroke-miterlimit="10" stroke-linecap="round"/>
<path d="M13.8782 70.6082C14.4438 70.6662 15.0152 70.6193 15.5638 70.4697" stroke="#263238" stroke-width="0.5" stroke-miterlimit="10" stroke-linecap="round"/>
<path d="M13.2719 70.4941C13.3676 70.525 13.4656 70.5481 13.565 70.5634" stroke="#263238" stroke-width="0.5" stroke-miterlimit="10" stroke-linecap="round"/>
<path d="M13.5278 71.7155C13.5278 71.7155 14.2322 72.1634 15.7753 71.6504" stroke="#263238" stroke-width="0.5" stroke-miterlimit="10" stroke-linecap="round"/>
</svg>
